<?xml version="1.0" encoding="UTF-8" standalone="no"?>
<!DOCTYPE svg PUBLIC "-//W3C//DTD SVG 1.1//EN" "http://www.w3.org/Graphics/SVG/1.1/DTD/svg11.dtd">
<svg width="100%" height="100%" viewBox="0 0 683 77" version="1.1" xmlns="http://www.w3.org/2000/svg" xmlns:xlink="http://www.w3.org/1999/xlink" xml:space="preserve" xmlns:serif="http://www.serif.com/" style="fill-rule:evenodd;clip-rule:evenodd;stroke-linejoin:round;stroke-miterlimit:2;">
    <g transform="matrix(2.66667,0,0,2.66667,-301.07,-75.0283)">
        <g transform="matrix(1,0,0,1,150.738,51.3551)">
            <path d="M0,-16.342L13.346,-16.342L13.346,-12.747L8.634,-12.747L8.634,0L4.712,0L4.712,-12.747L0,-12.747L0,-16.342Z" style="fill:rgb(214,214,206);fill-rule:nonzero;"/>
        </g>
        <g transform="matrix(1,0,0,1,169.079,33.8689)">
            <path d="M0,17.486L-3.704,17.486L-3.704,0L0,0L0,8.035L0.218,8.035C0.981,5.556 2.479,4.222 4.576,4.222C7.027,4.222 8.253,5.938 8.253,8.743L8.253,17.486L4.549,17.486L4.549,9.778C4.549,8.471 3.922,7.572 2.588,7.572C1.008,7.572 0,8.689 0,10.296L0,17.486Z" style="fill:rgb(214,214,206);fill-rule:nonzero;"/>
        </g>
        <g transform="matrix(1,0,0,1,182.709,45.9352)">
            <path d="M0,-2.07L5.393,-2.07C5.338,-4.086 4.494,-5.066 2.832,-5.066C1.144,-5.066 0.19,-4.195 0,-2.07M-3.677,-0.763C-3.677,-5.23 -1.253,-7.844 2.941,-7.844C6.918,-7.844 8.797,-5.502 8.797,-1.934C8.797,-1.389 8.77,-0.872 8.716,-0.191L-0.027,-0.191C0.19,1.879 1.144,2.805 2.914,2.805C4.657,2.805 5.202,1.988 5.529,1.008L8.634,1.852C8.062,4.085 6.564,5.774 2.887,5.774C-1.008,5.774 -3.677,3.622 -3.677,-0.763" style="fill:rgb(214,214,206);fill-rule:nonzero;"/>
        </g>
        <g transform="matrix(1,0,0,1,202.942,41.495)">
            <path d="M0,3.378L4.521,3.378L3.895,1.362C3.432,-0.108 2.996,-1.634 2.615,-3.104L1.961,-3.104C1.553,-1.634 1.09,-0.108 0.626,1.362L0,3.378ZM5.42,6.238L-0.899,6.238L-2.015,9.86L-6.074,9.86L-0.354,-6.482L5.039,-6.482L10.731,9.86L6.537,9.86L5.42,6.238Z" style="fill:rgb(214,214,206);fill-rule:nonzero;"/>
        </g>
        <g transform="matrix(1,0,0,1,220.221,48.495)">
            <path d="M0,-7.163C-1.716,-7.163 -2.778,-6.074 -2.778,-3.622C-2.778,-1.334 -1.852,-0 0.054,-0C1.716,-0 2.342,-1.117 2.615,-2.451L6.019,-1.634C5.584,1.362 3.759,3.241 0.082,3.241C-4.004,3.241 -6.564,0.981 -6.564,-3.432C-6.564,-7.817 -4.058,-10.404 0.054,-10.404C3.895,-10.404 5.529,-8.58 5.992,-5.447L2.56,-4.793C2.233,-6.183 1.634,-7.163 0,-7.163" style="fill:rgb(214,214,206);fill-rule:nonzero;"/>
        </g>
        <g transform="matrix(1,0,0,1,233.949,48.495)">
            <path d="M0,-7.163C-1.716,-7.163 -2.778,-6.074 -2.778,-3.622C-2.778,-1.334 -1.852,-0 0.055,-0C1.716,-0 2.342,-1.117 2.615,-2.451L6.02,-1.634C5.584,1.362 3.759,3.241 0.082,3.241C-4.004,3.241 -6.564,0.981 -6.564,-3.432C-6.564,-7.817 -4.058,-10.404 0.055,-10.404C3.895,-10.404 5.529,-8.58 5.992,-5.447L2.56,-4.793C2.233,-6.183 1.635,-7.163 0,-7.163" style="fill:rgb(214,214,206);fill-rule:nonzero;"/>
        </g>
        <g transform="matrix(1,0,0,1,244.79,45.9352)">
            <path d="M0,-2.07L5.393,-2.07C5.338,-4.086 4.494,-5.066 2.832,-5.066C1.144,-5.066 0.19,-4.195 0,-2.07M-3.677,-0.763C-3.677,-5.23 -1.253,-7.844 2.941,-7.844C6.918,-7.844 8.797,-5.502 8.797,-1.934C8.797,-1.389 8.77,-0.872 8.716,-0.191L-0.027,-0.191C0.19,1.879 1.144,2.805 2.914,2.805C4.657,2.805 5.202,1.988 5.529,1.008L8.634,1.852C8.062,4.085 6.564,5.774 2.887,5.774C-1.008,5.774 -3.677,3.622 -3.677,-0.763" style="fill:rgb(214,214,206);fill-rule:nonzero;"/>
        </g>
        <g transform="matrix(1,0,0,1,254.634,42.1758)">
            <path d="M0,5.475L3.323,4.794C3.65,6.21 4.521,6.946 6.128,6.946C7.381,6.946 8.008,6.537 8.035,5.693C8.035,4.903 7.517,4.467 5.148,4.004C1.607,3.242 0.408,2.071 0.408,-0.136C0.408,-2.614 2.179,-4.085 5.828,-4.085C9.587,-4.085 10.813,-2.614 11.276,-0.354L7.98,0.328C7.681,-1.007 7.081,-1.525 5.747,-1.525C4.521,-1.525 3.922,-1.116 3.922,-0.354C3.922,0.354 4.276,0.872 6.591,1.335C10.622,2.18 11.603,3.514 11.603,5.53C11.603,8.036 9.941,9.56 6.046,9.56C1.688,9.56 0.354,7.817 0,5.475" style="fill:rgb(214,214,206);fill-rule:nonzero;"/>
        </g>
        <g transform="matrix(1,0,0,1,267.293,42.1758)">
            <path d="M0,5.475L3.323,4.794C3.65,6.21 4.521,6.946 6.128,6.946C7.381,6.946 8.008,6.537 8.035,5.693C8.035,4.903 7.517,4.467 5.148,4.004C1.607,3.242 0.408,2.071 0.408,-0.136C0.408,-2.614 2.179,-4.085 5.829,-4.085C9.587,-4.085 10.813,-2.614 11.276,-0.354L7.98,0.328C7.681,-1.007 7.082,-1.525 5.747,-1.525C4.521,-1.525 3.922,-1.116 3.922,-0.354C3.922,0.354 4.276,0.872 6.591,1.335C10.622,2.18 11.603,3.514 11.603,5.53C11.603,8.036 9.941,9.56 6.047,9.56C1.689,9.56 0.354,7.817 0,5.475" style="fill:rgb(214,214,206);fill-rule:nonzero;"/>
        </g>
        <g transform="matrix(1,0,0,1,290.224,41.495)">
            <path d="M0,3.378L4.521,3.378L3.895,1.362C3.432,-0.108 2.996,-1.634 2.615,-3.104L1.961,-3.104C1.552,-1.634 1.089,-0.108 0.626,1.362L0,3.378ZM5.42,6.238L-0.899,6.238L-2.016,9.86L-6.074,9.86L-0.354,-6.482L5.039,-6.482L10.731,9.86L6.537,9.86L5.42,6.238Z" style="fill:rgb(214,214,206);fill-rule:nonzero;"/>
        </g>
        <g transform="matrix(1,0,0,1,304.651,51.5192)">
            <path d="M0,-8.444C0,-7.409 0.626,-6.619 2.479,-6.619C4.358,-6.619 5.012,-7.409 5.012,-8.444C5.012,-9.506 4.249,-10.269 2.479,-10.269C0.654,-10.269 0,-9.479 0,-8.444M6.537,0.681C6.537,0.054 6.101,-0.382 5.066,-0.382L0.681,-0.382C-0.463,-0.382 -1.144,0.163 -1.144,0.789C-1.144,1.661 -0.463,2.042 2.642,2.042C5.802,2.042 6.537,1.579 6.537,0.681M2.397,4.63C-2.533,4.63 -3.922,3.622 -3.922,2.015C-3.922,0.844 -2.642,0.054 -0.899,-0.3L-0.899,-0.464C-2.288,-0.654 -2.887,-1.335 -2.887,-2.234C-2.887,-2.969 -2.315,-3.623 -1.253,-4.086L-0.299,-4.576C-2.233,-5.203 -3.295,-6.565 -3.295,-8.58C-3.295,-11.467 -1.117,-13.074 2.56,-13.074L9.097,-13.074L9.097,-10.296L7.681,-10.296C7.054,-10.296 6.237,-10.323 5.202,-10.432L5.175,-10.132C6.782,-9.833 8.144,-9.234 8.144,-7.736C8.144,-5.584 6.101,-4.195 2.479,-4.195C1.689,-4.195 0.953,-4.277 0.327,-4.413L0.109,-4.059C-0.027,-3.814 -0.136,-3.569 -0.136,-3.351C-0.136,-2.888 0.191,-2.697 1.008,-2.697C2.424,-2.697 3.895,-2.779 5.229,-2.779C8.089,-2.779 9.397,-1.526 9.397,0.572C9.397,3.268 7.627,4.63 2.397,4.63" style="fill:rgb(214,214,206);fill-rule:nonzero;"/>
        </g>
        <g transform="matrix(1,0,0,1,318.164,45.9352)">
            <path d="M0,-2.07L5.393,-2.07C5.338,-4.086 4.494,-5.066 2.833,-5.066C1.144,-5.066 0.191,-4.195 0,-2.07M-3.677,-0.763C-3.677,-5.23 -1.253,-7.844 2.942,-7.844C6.918,-7.844 8.798,-5.502 8.798,-1.934C8.798,-1.389 8.77,-0.872 8.716,-0.191L-0.027,-0.191C0.191,1.879 1.144,2.805 2.915,2.805C4.658,2.805 5.202,1.988 5.529,1.008L8.634,1.852C8.062,4.085 6.564,5.774 2.887,5.774C-1.008,5.774 -3.677,3.622 -3.677,-0.763" style="fill:rgb(214,214,206);fill-rule:nonzero;"/>
        </g>
        <g transform="matrix(1,0,0,1,332.526,38.0909)">
            <path d="M0,13.264L-3.704,13.264L-3.704,0.354L-0.082,0.354L-0.082,3.813L0.163,3.813C0.926,1.307 2.506,0 4.521,0C7,0 8.253,1.716 8.253,4.521L8.253,13.264L4.549,13.264L4.549,5.556C4.549,4.249 3.949,3.35 2.588,3.35C1.008,3.35 0,4.467 0,6.074L0,13.264Z" style="fill:rgb(214,214,206);fill-rule:nonzero;"/>
        </g>
        <g transform="matrix(1,0,0,1,349.04,48.495)">
            <path d="M0,-7.163C-1.716,-7.163 -2.778,-6.074 -2.778,-3.622C-2.778,-1.334 -1.852,-0 0.055,-0C1.716,-0 2.342,-1.117 2.615,-2.451L6.02,-1.634C5.584,1.362 3.759,3.241 0.082,3.241C-4.004,3.241 -6.564,0.981 -6.564,-3.432C-6.564,-7.817 -4.058,-10.404 0.055,-10.404C3.895,-10.404 5.529,-8.58 5.992,-5.447L2.56,-4.793C2.233,-6.183 1.635,-7.163 0,-7.163" style="fill:rgb(214,214,206);fill-rule:nonzero;"/>
        </g>
        <g transform="matrix(1,0,0,1,355.318,38.6362)">
            <path d="M0,17.104L0.545,13.972C1.089,14.081 1.661,14.163 2.206,14.163C3.513,14.163 4.194,13.917 4.793,12.556L-0.055,-0.191L4.004,-0.191L5.284,4.548C5.665,5.992 6.128,7.653 6.537,9.232L7,9.232C7.408,7.625 7.844,6.019 8.171,4.629L9.369,-0.191L13.346,-0.191L8.253,12.773C7,15.933 5.366,17.295 2.124,17.295C1.225,17.295 0.681,17.213 0,17.104" style="fill:rgb(214,214,206);fill-rule:nonzero;"/>
        </g>
        <g transform="matrix(1,0,0,1,119.543,53.0066)">
            <path d="M0,-20.91C-1.478,-20.91 -2.681,-19.707 -2.681,-18.229L-2.681,-2.681C-2.681,-1.203 -1.478,-0 0,-0L15.546,-0C17.025,-0 18.227,-1.203 18.227,-2.681L18.227,-18.229C18.227,-19.707 17.025,-20.91 15.546,-20.91L0,-20.91ZM15.546,3.961L0,3.961C-3.663,3.961 -6.642,0.982 -6.642,-2.681L-6.642,-18.229C-6.642,-21.892 -3.663,-24.871 0,-24.871L15.546,-24.871C19.209,-24.871 22.189,-21.892 22.189,-18.229L22.189,-2.681C22.189,0.982 19.209,3.961 15.546,3.961" style="fill:rgb(221,75,55);fill-rule:nonzero;"/>
        </g>
        <g transform="matrix(1,0,0,1,125.502,34.7602)">
            <path d="M0,16.147L-2.727,13.273L2.753,8.073L-2.727,2.873L0,0L8.507,8.073L0,16.147Z" style="fill:rgb(214,214,206);fill-rule:nonzero;"/>
        </g>
    </g>
</svg>
