<?xml version="1.0" encoding="utf-8"?>
<!-- Generator: Adobe Illustrator 27.0.1, SVG Export Plug-In . SVG Version: 6.00 Build 0)  -->
<svg version="1.1" id="Layer_1" xmlns:serif="http://www.serif.com/"
	 xmlns="http://www.w3.org/2000/svg" xmlns:xlink="http://www.w3.org/1999/xlink" x="0px" y="0px" viewBox="0 0 1366 768"
	 style="enable-background:new 0 0 1366 768;" xml:space="preserve">
<style type="text/css">
	.st0{fill:#FFFFFF;}
	.st1{fill:#DD4B37;}
</style>
<g transform="matrix(2.66667,0,0,2.66667,-301.07,-75.0283)">
	<g transform="matrix(1,0,0,1,150.738,51.3551)">
		<path class="st0" d="M37.8,105.7h26.7v7.2h-9.4v25.5h-7.8v-25.5h-9.4V105.7z"/>
	</g>
	<g transform="matrix(1,0,0,1,169.079,33.8689)">
		<path class="st0" d="M56.2,155.8h-7.4v-35h7.4v16.1h0.4c1.5-5,4.5-7.6,8.7-7.6c4.9,0,7.4,3.4,7.4,9v17.5h-7.4v-15.4
			c0-2.6-1.3-4.4-3.9-4.4c-3.2,0-5.2,2.2-5.2,5.4V155.8z"/>
	</g>
	<g transform="matrix(1,0,0,1,182.709,45.9352)">
		<path class="st0" d="M69.8,128.8h10.8c-0.1-4-1.8-6-5.1-6C72.1,122.8,70.2,124.5,69.8,128.8 M62.5,131.4c0-8.9,4.8-14.2,13.2-14.2
			c8,0,11.7,4.7,11.7,11.8c0,1.1-0.1,2.1-0.2,3.5H69.8c0.4,4.1,2.3,6,5.9,6c3.5,0,4.6-1.6,5.2-3.6l6.2,1.7
			c-1.1,4.5-4.1,7.8-11.5,7.8C67.8,144.5,62.5,140.2,62.5,131.4"/>
	</g>
	<g transform="matrix(1,0,0,1,202.942,41.495)">
		<path class="st0" d="M90,135.2h9l-1.3-4c-0.9-2.9-1.8-6-2.6-8.9H94c-0.8,2.9-1.7,6-2.7,8.9L90,135.2z M100.9,141H88.2l-2.2,7.2
			h-8.1l11.4-32.7h10.8l11.4,32.7h-8.4L100.9,141z"/>
	</g>
	<g transform="matrix(1,0,0,1,220.221,48.495)">
		<path class="st0" d="M107.3,121.2c-3.4,0-5.6,2.2-5.6,7.1c0,4.6,1.9,7.2,5.7,7.2c3.3,0,4.6-2.2,5.1-4.9l6.8,1.6
			c-0.9,6-4.5,9.8-11.9,9.8c-8.2,0-13.3-4.5-13.3-13.3c0-8.8,5-13.9,13.2-13.9c7.7,0,10.9,3.6,11.9,9.9l-6.9,1.3
			C111.8,123.1,110.6,121.2,107.3,121.2"/>
	</g>
	<g transform="matrix(1,0,0,1,233.949,48.495)">
		<path class="st0" d="M121,121.2c-3.4,0-5.6,2.2-5.6,7.1c0,4.6,1.9,7.2,5.7,7.2c3.3,0,4.6-2.2,5.1-4.9l6.8,1.6
			c-0.9,6-4.5,9.8-11.9,9.8c-8.2,0-13.3-4.5-13.3-13.3c0-8.8,5-13.9,13.2-13.9c7.7,0,10.9,3.6,11.9,9.9l-6.9,1.3
			C125.5,123.1,124.3,121.2,121,121.2"/>
	</g>
	<g transform="matrix(1,0,0,1,244.79,45.9352)">
		<path class="st0" d="M131.9,128.8h10.8c-0.1-4-1.8-6-5.1-6C134.2,122.8,132.3,124.5,131.9,128.8 M124.5,131.4
			c0-8.9,4.8-14.2,13.2-14.2c8,0,11.7,4.7,11.7,11.8c0,1.1-0.1,2.1-0.2,3.5h-17.5c0.4,4.1,2.3,6,5.9,6c3.5,0,4.6-1.6,5.2-3.6
			l6.2,1.7c-1.1,4.5-4.1,7.8-11.5,7.8C129.9,144.5,124.5,140.2,124.5,131.4"/>
	</g>
	<g transform="matrix(1,0,0,1,254.634,42.1758)">
		<path class="st0" d="M141.7,140.1l6.6-1.4c0.7,2.8,2.4,4.3,5.6,4.3c2.5,0,3.8-0.8,3.8-2.5c0-1.6-1-2.5-5.8-3.4
			c-7.1-1.5-9.5-3.9-9.5-8.3c0-5,3.5-7.9,10.8-7.9c7.5,0,10,2.9,10.9,7.5l-6.6,1.4c-0.6-2.7-1.8-3.7-4.5-3.7c-2.5,0-3.7,0.8-3.7,2.3
			c0,1.4,0.7,2.5,5.3,3.4c8.1,1.7,10,4.4,10,8.4c0,5-3.3,8.1-11.1,8.1C145.1,148.3,142.4,144.8,141.7,140.1"/>
	</g>
	<g transform="matrix(1,0,0,1,267.293,42.1758)">
		<path class="st0" d="M154.4,140.1l6.6-1.4c0.7,2.8,2.4,4.3,5.6,4.3c2.5,0,3.8-0.8,3.8-2.5c0-1.6-1-2.5-5.8-3.4
			c-7.1-1.5-9.5-3.9-9.5-8.3c0-5,3.5-7.9,10.8-7.9c7.5,0,10,2.9,10.9,7.5l-6.6,1.4c-0.6-2.7-1.8-3.7-4.5-3.7c-2.5,0-3.7,0.8-3.7,2.3
			c0,1.4,0.7,2.5,5.3,3.4c8.1,1.7,10,4.4,10,8.4c0,5-3.3,8.1-11.1,8.1C157.8,148.3,155.1,144.8,154.4,140.1"/>
	</g>
	<g transform="matrix(1,0,0,1,290.224,41.495)">
		<path class="st0" d="M177.3,135.2h9l-1.3-4c-0.9-2.9-1.8-6-2.6-8.9h-1.3c-0.8,2.9-1.7,6-2.7,8.9L177.3,135.2z M188.2,141h-12.6
			l-2.2,7.2h-8.1l11.4-32.7h10.8l11.4,32.7h-8.4L188.2,141z"/>
	</g>
	<g transform="matrix(1,0,0,1,304.651,51.5192)">
		<path class="st0" d="M191.7,121.6c0,2.1,1.3,3.7,5,3.7c3.8,0,5.1-1.6,5.1-3.7c0-2.1-1.5-3.7-5.1-3.7
			C193.1,118,191.7,119.6,191.7,121.6 M204.8,139.9c0-1.3-0.9-2.1-2.9-2.1h-8.8c-2.3,0-3.6,1.1-3.6,2.3c0,1.7,1.4,2.5,7.6,2.5
			C203.4,142.6,204.8,141.7,204.8,139.9 M196.5,147.8c-9.9,0-12.6-2-12.6-5.2c0-2.3,2.6-3.9,6-4.6v-0.3c-2.8-0.4-4-1.7-4-3.5
			c0-1.5,1.1-2.8,3.3-3.7l1.9-1c-3.9-1.3-6-4-6-8c0-5.8,4.4-9,11.7-9h13.1v5.6h-2.8c-1.3,0-2.9-0.1-5-0.3l-0.1,0.6
			c3.2,0.6,5.9,1.8,5.9,4.8c0,4.3-4.1,7.1-11.3,7.1c-1.6,0-3.1-0.2-4.3-0.4l-0.4,0.7c-0.3,0.5-0.5,1-0.5,1.4c0,0.9,0.7,1.3,2.3,1.3
			c2.8,0,5.8-0.2,8.4-0.2c5.7,0,8.3,2.5,8.3,6.7C210.5,145,207,147.8,196.5,147.8"/>
	</g>
	<g transform="matrix(1,0,0,1,318.164,45.9352)">
		<path class="st0" d="M205.3,128.8H216c-0.1-4-1.8-6-5.1-6C207.6,122.8,205.6,124.5,205.3,128.8 M197.9,131.4
			c0-8.9,4.8-14.2,13.2-14.2c8,0,11.7,4.7,11.7,11.8c0,1.1-0.1,2.1-0.2,3.5h-17.5c0.4,4.1,2.3,6,5.9,6c3.5,0,4.6-1.6,5.2-3.6
			l6.2,1.7c-1.1,4.5-4.1,7.8-11.5,7.8C203.2,144.5,197.9,140.2,197.9,131.4"/>
	</g>
	<g transform="matrix(1,0,0,1,332.526,38.0909)">
		<path class="st0" d="M219.6,151.6h-7.4v-25.8h7.2v6.9h0.5c1.5-5,4.7-7.6,8.7-7.6c5,0,7.5,3.4,7.5,9v17.5h-7.4v-15.4
			c0-2.6-1.2-4.4-3.9-4.4c-3.2,0-5.2,2.2-5.2,5.4V151.6z"/>
	</g>
	<g transform="matrix(1,0,0,1,349.04,48.495)">
		<path class="st0" d="M236.1,121.2c-3.4,0-5.6,2.2-5.6,7.1c0,4.6,1.9,7.2,5.7,7.2c3.3,0,4.6-2.2,5.1-4.9l6.8,1.6
			c-0.9,6-4.5,9.8-11.9,9.8c-8.2,0-13.3-4.5-13.3-13.3c0-8.8,5-13.9,13.2-13.9c7.7,0,10.9,3.6,11.9,9.9l-6.9,1.3
			C240.6,123.1,239.4,121.2,236.1,121.2"/>
	</g>
	<g transform="matrix(1,0,0,1,355.318,38.6362)">
		<path class="st0" d="M242.4,159.8l1.1-6.3c1.1,0.2,2.2,0.4,3.3,0.4c2.6,0,4-0.5,5.2-3.2l-9.7-25.5h8.1l2.6,9.5
			c0.8,2.9,1.7,6.2,2.5,9.4h0.9c0.8-3.2,1.7-6.4,2.3-9.2l2.4-9.6h8l-10.2,25.9c-2.5,6.3-5.8,9-12.3,9
			C244.9,160.2,243.8,160.1,242.4,159.8"/>
	</g>
	<g transform="matrix(1,0,0,1,119.543,53.0066)">
		<path class="st1" d="M6.6,98.2c-3,0-5.4,2.4-5.4,5.4v31.1c0,3,2.4,5.4,5.4,5.4h31.1c3,0,5.4-2.4,5.4-5.4v-31.1
			c0-3-2.4-5.4-5.4-5.4H6.6z M37.7,147.9H6.6c-7.3,0-13.3-6-13.3-13.3v-31.1c0-7.3,6-13.3,13.3-13.3h31.1c7.3,0,13.3,6,13.3,13.3
			v31.1C51,142,45.1,147.9,37.7,147.9"/>
	</g>
	<g transform="matrix(1,0,0,1,125.502,34.7602)">
		<path class="st0" d="M12.6,154l-5.5-5.7l11-10.4l-11-10.4l5.5-5.7l17,16.1L12.6,154z"/>
	</g>
</g>
</svg>
