<?xml version="1.0" encoding="utf-8"?>
<!-- Generator: Adobe Illustrator 27.0.1, SVG Export Plug-In . SVG Version: 6.00 Build 0)  -->
<svg version="1.1" id="Layer_1" xmlns:serif="http://www.serif.com/"
	 xmlns="http://www.w3.org/2000/svg" xmlns:xlink="http://www.w3.org/1999/xlink" x="0px" y="0px" viewBox="0 0 3457.2 399.7"
	 style="enable-background:new 0 0 3457.2 399.7;" xml:space="preserve">
<style type="text/css">
	.st0{fill:#FFFFFF;}
	.st1{fill:#DE4B37;}
</style>
<g transform="matrix(2.66667,0,0,2.66667,-301.07,-75.0283)">
	<g transform="matrix(1,0,0,1,150.738,51.3551)">
		<path class="st0" d="M154,16.2h67.6v18.2h-23.8V99h-19.8V34.4h-23.8V16.2H154z"/>
	</g>
	<g transform="matrix(1,0,0,1,169.079,33.8689)">
		<path class="st0" d="M228.7,116.3H210V27.6h18.7v40.8h1c3.8-12.7,11.4-19.3,22-19.3c12.4,0,18.7,8.6,18.7,22.8v44.3h-18.7v-39
			c0-6.6-3.3-11.1-9.9-11.1c-8.1,0-13.2,5.6-13.2,13.7V116.3z"/>
	</g>
	<g transform="matrix(1,0,0,1,182.709,45.9352)">
		<path class="st0" d="M284.1,66.4h27.4c-0.3-10.1-4.6-15.2-12.9-15.2C289.9,51.2,285.1,55.5,284.1,66.4 M265.6,73
			c0-22.5,12.2-36,33.4-36c20.3,0,29.6,11.9,29.6,29.9c0,2.8-0.3,5.3-0.5,8.9h-44.1c1,10.4,5.8,15.2,14.9,15.2
			c8.9,0,11.7-4.1,13.2-9.1l15.7,4.3c-2.8,11.4-10.4,19.8-29.1,19.8C279,106.2,265.6,95.3,265.6,73"/>
	</g>
	<g transform="matrix(1,0,0,1,202.942,41.495)">
		<path class="st0" d="M366.3,75.8h22.8l-3.3-10.1c-2.3-7.3-4.6-15.2-6.6-22.5h-2.8c-2,7.3-4.3,15.2-6.8,22.5L366.3,75.8z
			 M393.9,90.5h-32.2l-5.6,18.2h-20.5l28.9-82.8h27.4l28.9,82.8h-21.3L393.9,90.5z"/>
	</g>
	<g transform="matrix(1,0,0,1,220.221,48.495)">
		<path class="st0" d="M436.6,51.1c-8.6,0-14.2,5.6-14.2,18c0,11.7,4.8,18.2,14.4,18.2c8.4,0,11.7-5.6,12.9-12.4l17.2,4.1
			c-2.3,15.2-11.4,24.8-30.1,24.8c-20.8,0-33.7-11.4-33.7-33.7s12.7-35.2,33.4-35.2c19.5,0,27.6,9.1,30.1,25.1l-17.5,3.3
			C448,55.9,445,51.1,436.6,51.1"/>
	</g>
	<g transform="matrix(1,0,0,1,233.949,48.495)">
		<path class="st0" d="M492.4,51.1c-8.6,0-14.2,5.6-14.2,18c0,11.7,4.8,18.2,14.4,18.2c8.4,0,11.7-5.6,12.9-12.4l17.2,4.1
			c-2.3,15.2-11.4,24.8-30.1,24.8c-20.8,0-33.7-11.4-33.7-33.7s12.7-35.2,33.4-35.2c19.5,0,27.6,9.1,30.1,25.1l-17.5,3.3
			C503.8,55.9,500.8,51.1,492.4,51.1"/>
	</g>
	<g transform="matrix(1,0,0,1,244.79,45.9352)">
		<path class="st0" d="M536.6,66.4H564c-0.3-10.1-4.6-15.2-12.9-15.2C542.5,51.2,537.7,55.5,536.6,66.4 M517.9,73
			c0-22.5,12.2-36,33.4-36c20.3,0,29.6,11.9,29.6,29.9c0,2.8-0.3,5.3-0.5,8.9h-44.3c1,10.4,5.8,15.2,14.9,15.2
			c8.9,0,11.7-4.1,13.2-9.1l15.7,4.3c-2.8,11.4-10.4,19.8-29.1,19.8C531.6,106.2,517.9,95.3,517.9,73"/>
	</g>
	<g transform="matrix(1,0,0,1,254.634,42.1758)">
		<path class="st0" d="M576.6,89.3l16.7-3.5c1.8,7.1,6.1,10.9,14.2,10.9c6.3,0,9.6-2,9.6-6.3c0-4.1-2.5-6.3-14.7-8.6
			c-18-3.8-24.1-9.9-24.1-21c0-12.7,8.9-20,27.4-20c19,0,25.3,7.3,27.6,19l-16.7,3.5c-1.5-6.8-4.6-9.4-11.4-9.4
			c-6.3,0-9.4,2-9.4,5.8c0,3.5,1.8,6.3,13.4,8.6c20.5,4.3,25.3,11.1,25.3,21.3c0,12.7-8.4,20.5-28.1,20.5
			C585.2,110,578.3,101.2,576.6,89.3"/>
	</g>
	<g transform="matrix(1,0,0,1,267.293,42.1758)">
		<path class="st0" d="M628.2,89.3l16.7-3.5c1.8,7.1,6.1,10.9,14.2,10.9c6.3,0,9.6-2,9.6-6.3c0-4.1-2.5-6.3-14.7-8.6
			c-18-3.8-24.1-9.9-24.1-21c0-12.7,8.9-20,27.4-20c19,0,25.3,7.3,27.6,19l-16.7,3.5c-1.5-6.8-4.6-9.4-11.4-9.4
			c-6.3,0-9.4,2-9.4,5.8c0,3.5,1.8,6.3,13.4,8.6c20.5,4.3,25.3,11.1,25.3,21.3c0,12.7-8.4,20.5-28.1,20.5
			C636.8,110,629.9,101.2,628.2,89.3"/>
	</g>
	<g transform="matrix(1,0,0,1,290.224,41.495)">
		<path class="st0" d="M721.4,75.8h22.8l-3.3-10.1c-2.3-7.3-4.6-15.2-6.6-22.5H731c-2,7.3-4.3,15.2-6.8,22.5L721.4,75.8z M749,90.5
			H717l-5.6,18.2H691l28.9-82.8h27.4l28.9,82.8h-21.3L749,90.5z"/>
	</g>
	<g transform="matrix(1,0,0,1,304.651,51.5192)">
		<path class="st0" d="M780,56.7c0,5.3,3.3,9.4,12.7,9.4c9.6,0,12.9-4.1,12.9-9.4s-3.8-9.4-12.9-9.4C783.5,47.6,780,51.7,780,56.7
			 M813.2,103.1c0-3.3-2.3-5.3-7.3-5.3h-22.3c-5.8,0-9.1,2.8-9.1,5.8c0,4.3,3.5,6.3,19.3,6.3C809.6,109.9,813.2,107.7,813.2,103.1
			 M792.1,123.1c-25.1,0-31.9-5.1-31.9-13.2c0-5.8,6.6-9.9,15.2-11.7v-0.8c-7.1-1-10.1-4.3-10.1-8.9c0-3.8,2.8-7.1,8.4-9.4l4.8-2.5
			c-9.9-3.3-15.2-10.1-15.2-20.3c0-14.7,11.1-22.8,29.6-22.8h33.2v14.2H819c-3.3,0-7.3-0.3-12.7-0.8l-0.3,1.5
			c8.1,1.5,14.9,4.6,14.9,12.2c0,10.9-10.4,18-28.6,18c-4.1,0-7.9-0.5-10.9-1l-1,1.8c-0.8,1.3-1.3,2.5-1.3,3.5
			c0,2.3,1.8,3.3,5.8,3.3c7.1,0,14.7-0.5,21.3-0.5c14.4,0,21,6.3,21,17C827.6,116,818.7,123.1,792.1,123.1"/>
	</g>
	<g transform="matrix(1,0,0,1,318.164,45.9352)">
		<path class="st0" d="M835.1,66.4h27.1c-0.3-10.1-4.6-15.2-12.9-15.2S835.9,55.5,835.1,66.4 M816.4,73c0-22.5,12.2-36,33.4-36
			c20.3,0,29.6,11.9,29.6,29.9c0,2.8-0.3,5.3-0.5,8.9h-44.3c1,10.4,5.8,15.2,14.9,15.2c8.9,0,11.7-4.1,13.2-9.1l15.7,4.3
			c-2.8,11.4-10.4,19.8-29.1,19.8C829.8,106.2,816.4,95.3,816.4,73"/>
	</g>
	<g transform="matrix(1,0,0,1,332.526,38.0909)">
		<path class="st0" d="M893.4,112.1h-18.7V46.8h18.2v17.5h1.3c3.8-12.7,11.9-19.3,22-19.3c12.7,0,19,8.6,19,22.8v44.3h-18.7v-39
			c0-6.6-3-11.1-9.9-11.1c-8.1,0-13.2,5.6-13.2,13.7V112.1L893.4,112.1z"/>
	</g>
	<g transform="matrix(1,0,0,1,349.04,48.495)">
		<path class="st0" d="M960.5,51.1c-8.6,0-14.2,5.6-14.2,18c0,11.7,4.8,18.2,14.4,18.2c8.4,0,11.7-5.6,12.9-12.4l17.2,4.1
			c-2.3,15.2-11.4,24.8-30.1,24.8c-20.8,0-33.7-11.4-33.7-33.7s12.7-35.2,33.4-35.2c19.5,0,27.6,9.1,30.1,25.1l-17.5,3.3
			C971.9,55.9,968.9,51.1,960.5,51.1"/>
	</g>
	<g transform="matrix(1,0,0,1,355.318,38.6362)">
		<path class="st0" d="M986.1,133.8l2.8-16c2.8,0.5,5.6,1,8.4,1c6.6,0,10.1-1.3,13.2-8.1l-24.6-64.6h20.5l6.6,24.1
			c2,7.3,4.3,15.7,6.3,23.8h2.3c2-8.1,4.3-16.2,5.8-23.3l6.1-24.3h20.3l-25.8,65.6c-6.3,16-14.7,22.8-31.2,22.8
			C992.5,134.8,989.7,134.5,986.1,133.8"/>
	</g>
	<g transform="matrix(1,0,0,1,119.543,53.0066)">
		<path class="st1" d="M27.1-0.3c-7.6,0-13.7,6.1-13.7,13.7v78.8c0,7.6,6.1,13.7,13.7,13.7h78.8c7.6,0,13.7-6.1,13.7-13.7V13.4
			c0-7.6-6.1-13.7-13.7-13.7H27.1z M105.9,125.6H27.1c-18.5,0-33.7-15.2-33.7-33.7V13.1c0-18.5,15.2-33.7,33.7-33.7h78.8
			c18.5,0,33.7,15.2,33.7,33.7v78.8C139.6,110.7,124.7,125.6,105.9,125.6"/>
	</g>
	<g transform="matrix(1,0,0,1,125.502,34.7602)">
		<path class="st0" d="M51.4,113.1L37.5,98.7l27.9-26.3L37.5,46l13.9-14.4l43.1,40.8L51.4,113.1z"/>
	</g>
</g>
</svg>
