<svg width="147" height="36" viewBox="0 0 147 36" fill="none" xmlns="http://www.w3.org/2000/svg">
<g clip-path="url(#clip0_340_12)">
<rect width="36" height="32.6667" transform="translate(0 2)" fill="white"/>
<mask id="mask0_340_12" style="mask-type:alpha" maskUnits="userSpaceOnUse" x="0" y="2" width="36" height="33">
<path d="M17.915 2L0 9.73776L17.9912 17.0204L36 9.76111L17.915 2ZM36 18.666L27.9668 15.2201L18.3779 19.0861C18.1201 19.1911 17.8418 19.1824 17.6016 19.0861L7.98926 15.1939L0 18.6455L17.9912 25.9252L36 18.666ZM28.166 24.0462L18.3779 27.991C18.1201 28.096 17.8418 28.0872 17.6016 27.991L7.79004 24.02L0 27.387L17.9912 34.6696L36 27.4103L28.166 24.0462Z" fill="#642EFF"/>
</mask>
<g mask="url(#mask0_340_12)">
<rect y="2" width="36" height="33" fill="url(#paint0_linear_340_12)"/>
</g>
</g>
<path d="M45.756 24.78C47.184 26.964 49.844 28.336 53.008 28.336C57.124 28.336 59.952 25.9 59.98 22.344C59.98 19.348 58.16 17.5 55.248 16.436L53.652 15.848C51.552 15.092 50.572 14.56 50.572 13.356C50.572 12.18 51.86 11.592 53.232 11.592C54.604 11.592 55.836 12.152 56.788 13.3L59.476 10.528C57.768 8.624 55.64 7.784 53.204 7.784C49.34 7.784 46.484 9.996 46.484 13.748C46.484 16.464 48.192 18.312 51.384 19.432L53.064 20.02C55.024 20.692 55.836 21.476 55.836 22.596C55.836 23.744 54.772 24.528 53.176 24.528C51.552 24.528 49.844 23.66 48.864 22.176L45.756 24.78ZM71.4272 27.86V24.472C70.9792 24.64 70.4752 24.724 69.8592 24.724C68.2072 24.724 67.4792 24.052 67.4792 22.344V17.36H71.4272V14H67.4792V10.108H63.6432V14H60.8152V17.36H63.6432V23.1C63.6432 26.516 66.0232 28.168 68.9912 28.168C70.0552 28.168 70.8112 28.056 71.4272 27.86ZM73.077 21C73.077 24.976 75.933 28.308 79.657 28.308C81.589 28.308 83.073 27.328 83.689 26.432V28H87.525V14H83.689V15.568C83.073 14.672 81.589 13.692 79.657 13.692C75.933 13.692 73.077 17.024 73.077 21ZM83.997 21C83.997 23.184 82.569 24.808 80.469 24.808C78.369 24.808 76.941 23.184 76.941 21C76.941 18.816 78.369 17.192 80.469 17.192C82.569 17.192 83.997 18.816 83.997 21ZM91.2542 28H95.0903V21.308C95.0903 19.012 96.2943 17.584 98.1143 17.584C98.7303 17.584 99.2623 17.696 99.8503 17.892V14C99.3743 13.86 98.9543 13.832 98.5623 13.832C96.9943 13.832 95.5663 14.868 95.0903 16.24V14H91.2542V28ZM111.513 27.86V24.472C111.065 24.64 110.561 24.724 109.945 24.724C108.293 24.724 107.565 24.052 107.565 22.344V17.36H111.513V14H107.565V10.108H103.729V14H100.901V17.36H103.729V23.1C103.729 26.516 106.109 28.168 109.077 28.168C110.141 28.168 110.897 28.056 111.513 27.86ZM114.082 22.12C114.082 25.844 115.958 28.308 119.346 28.308C121.138 28.308 122.454 27.524 123.182 26.404V28H127.018V14H123.182V20.832C123.182 23.548 122.006 24.808 120.298 24.808C118.646 24.808 117.918 23.576 117.918 21.476V14H114.082V22.12ZM130.711 33.852H134.547V26.432C135.191 27.328 136.675 28.308 138.607 28.308C142.331 28.308 145.187 24.976 145.187 21C145.187 17.024 142.331 13.692 138.607 13.692C136.675 13.692 135.191 14.672 134.547 15.568V14H130.711V33.852ZM141.295 21C141.295 23.184 139.867 24.808 137.767 24.808C135.667 24.808 134.239 23.184 134.239 21C134.239 18.816 135.667 17.192 137.767 17.192C139.867 17.192 141.295 18.816 141.295 21Z" fill="#150042"/>
<defs>
<linearGradient id="paint0_linear_340_12" x1="34" y1="35" x2="2.5" y2="2" gradientUnits="userSpaceOnUse">
<stop stop-color="#956AFF"/>
<stop offset="0.0001" stop-color="#6439FF"/>
<stop offset="1" stop-color="#04C9FF"/>
</linearGradient>
<clipPath id="clip0_340_12">
<rect width="36" height="32.6667" fill="white" transform="translate(0 2)"/>
</clipPath>
</defs>
</svg>
