<svg class="w-12 h-12" xmlns="http://www.w3.org/2000/svg" width="38.201" height="38.201" viewBox="0 0 38.201 38.201">
  <path id="Icon_awesome-linkedin" data-name="Icon awesome-linkedin" d="M35.473,2.25H2.72A2.74,2.74,0,0,0,0,5V37.7a2.74,2.74,0,0,0,2.72,2.754H35.473A2.748,2.748,0,0,0,38.2,37.7V5A2.748,2.748,0,0,0,35.473,2.25ZM11.546,34.994H5.884V16.763h5.67V34.994ZM8.715,14.273A3.283,3.283,0,1,1,12,10.99a3.284,3.284,0,0,1-3.283,3.283ZM32.769,34.994H27.107V26.126c0-2.115-.043-4.835-2.942-4.835-2.95,0-3.4,2.3-3.4,4.681v9.022H15.1V16.763h5.432v2.49h.077a5.964,5.964,0,0,1,5.364-2.942c5.73,0,6.8,3.777,6.8,8.689Z" transform="translate(0 -2.25)" fill="currentColor"/>
</svg>
