<?xml version="1.0" encoding="UTF-8"?><svg id="a" xmlns="http://www.w3.org/2000/svg" width="212" height="95" viewBox="0 0 212 95"><path d="M93.08,34.26c.28-1.35.53-2.65.54-2.72l.03-.18c.02-.15.05-.32.09-.49.02-.12.27-1.09.31-1.3.1-.47.1-.48.2-.93l.04-.02.06.08.21.25.13.12c.17.16.35.33.57.43.35.17.73.25,1.12.25.53,0,1.1-.15,1.75-.46.91-.44,1.6-1.21,2.03-2.29.29-.73.54-1.55.73-2.44.3-1.36.16-2.55-.41-3.63-.33-.63-.87-1.04-1.65-1.27-.35-.1-.64-.13-.89-.09-.39.05-.76.18-1.09.3-.32.12-.64.26-.97.4-.12.05-.25.11-.37.16h0s-.05-.15-.05-.15c-.16-.55-.38-.71-.92-.67-.1,0-.23.09-.28.18-.07.12-.12.26-.15.43-.39,1.98-.77,3.97-1.15,5.95-.09.46-.15.85-.2,1.22-.06.42-.13.82-.23,1.32-.1.49-.17.82-.23,1.1h0c0,.2-.19,1.34-.22,1.44l-.25,1.83c-.05.42-.1.81-.14,1.19h1.41ZM98.93,25.86c-.05.12-.09.24-.14.36-.12.32-.24.65-.4.94-.43.78-.99,1.24-1.7,1.39-.16.04-.32.05-.47.05-.63,0-1.03-.31-1.25-.57-.35-.41-.5-1.02-.41-1.57.14-.78.28-1.56.42-2.34.12-.68.24-1.35.36-2.03.08-.46.34-.82.75-1.05.53-.3,1.18-.62,1.92-.62h.1c.69,0,1.13.55,1.19,1.09.22,1.73.1,3.11-.38,4.33" style="fill:#2d3b51;"/><path d="M85,32.93c-.19-.1-.33-.2-.49-.24-.13-.04-.4-.2-.86-.28-.45-.08-1.28-.26-1.47-.3-.08-.02,1.17-.13,1.77.1.61.23,1.14.59,1.14.59,0,0,.12.25-.1.13M87.61,34.51l-.2-.22c-.23-.26-.19-.41-.88-1.23l.24-.59c.03-.23.05-.35.06-.49.02-.18.01-.27.01-.46,0-.15-.14-.64-.23-.83-.05-.1-.16-.3-.25-.46-.48.32-.63.83-.74,1.33-.11.49.28,1.17.57,1.61-.44-.44-.87-.84-1.2-1.07-.2-.17-.49-.31-.69-.39-.36-.14-.44-.14-.89-.17-.09,0-.19-.01-.33-.02-.48-.05-.6-.04-1.03.03-.29.03-.51.12-.7.19l-.15.05c.52,1.37,2.6,2.42,4.75,1.9h0s.04.06.04.06c.28.39.2.27.28.4.33.54.41.75.53.86.27.25.55.63.8.93v-1.41Z" style="fill:#2d3b51;"/><path d="M46.35,24.35c-.08.56-.15,1.13-.25,1.69-.12.76-.09.38-.26,1.13-.06.28-.17.56-.3.83-.19.44-.58.57-1.02.56-.12,0-.38.02-.48.06-.2.08-.31.08-.44.23-.18.22-.12.43.01.53l.04.05c.27.25.65.22.96.2.7-.04,1.4-.07,2.09-.1,0,.03.84,0,1.25-.04.3-.03.61-.06.91-.12l.24-.23c.02-.11-.03-.29-.11-.34-.28-.18-.58-.37-.89-.47-.34-.11-.7,0-.73-.49-.04-.75-.02-.46.16-1.18.12-.47.38-1.57.51-2.03,0,0,.02-.08.05-.19l1.33-.07c.6-.03,1.35-.18,2.05-.5.46-.21.74-.37,1.21-.69.23-.16.58-.6.8-.78.56-.47.69-.65.9-1.14.6-1.4.47-2.8-.2-4.17-.22-.46-.52-.85-1-1.04-.55-.22-.9-.35-1.46-.5-.42-.11-.88-.09-1.32-.13-.17-.01-.33-.04-.49-.04-.28,0-.57-.02-.85.03-.8.16-1.59.3-2.41.16-.11-.02-.33.11-.37.22-.06.18.04.36.28.39.16.03.32.06.48.11.2.06.5.07.58.21.09.15-.02.41-.05.63-.18,1.13-.35,2.27-.55,3.41-.15.89-.35,1.76-.5,2.65-.03.16-.05.33-.07.49l-.1.65ZM52.27,21.92c-.62.6-1.48,1.5-2.27,1.55l-1.03.22s-.3.07-.68.12c.06-.2.13-.44.13-.51l.08-.56c.23-1.08.3-1.54.51-2.62.18-.97.32-1.95.51-2.91.06-.3.15-.53.24-.83.48.06,1,.04,1.48.12.26.04.52.12.77.21.19.06.39.13.56.24.71.44.77.78.8,1.67-.11,1.37-.15,2.03-1.09,3.32" style="fill:#2d3b51;"/><polygon points="44.81 34.26 50.15 34.26 58.65 45.18 58.65 34.26 64.31 34.26 64.31 54.92 59.3 54.92 50.48 43.59 50.48 54.92 44.81 54.92 44.81 34.26" style="fill:#2d3b51;"/><path d="M75.11,34.11h5.52l8.79,20.8h-6.14l-1.5-3.69h-7.97l-1.47,3.69h-6.02l8.79-20.8ZM80.12,46.77l-2.3-5.87-2.33,5.87h4.63Z" style="fill:#2d3b51;"/><path d="M130.59,34.26h9.77c3.16,0,5.34.83,6.72,2.24,1.21,1.18,1.83,2.77,1.83,4.81v.06c0,3.16-1.68,5.25-4.25,6.34l4.93,7.2h-6.61l-4.16-6.26h-2.51v6.26h-5.72v-20.65ZM140.08,44.17c1.95,0,3.07-.94,3.07-2.45v-.06c0-1.62-1.18-2.45-3.1-2.45h-3.75v4.96h3.77Z" style="fill:#2d3b51;"/><polygon points="151.79 34.26 168.4 34.26 168.4 39.13 157.46 39.13 157.46 42.26 167.37 42.26 167.37 46.77 157.46 46.77 157.46 50.05 168.55 50.05 168.55 54.92 151.79 54.92 151.79 34.26" style="fill:#2d3b51;"/><path d="M44.81,57.85h8.85c5.22,0,8.59,2.69,8.59,7.26v.06c0,4.87-3.75,7.43-8.88,7.43h-2.83v5.9h-5.72v-20.65ZM53.25,68.12c2.03,0,3.27-1.06,3.27-2.69v-.06c0-1.77-1.24-2.71-3.31-2.71h-2.68v5.46h2.72Z" style="fill:#2d3b51;"/><path d="M69.15,57.7h5.51l8.79,20.8h-6.14l-1.5-3.69h-7.96l-1.48,3.69h-6.02l8.79-20.8ZM74.16,70.36l-2.3-5.87-2.33,5.87h4.63Z" style="fill:#2d3b51;"/><path d="M85.46,57.85h9.76c3.16,0,5.34.83,6.73,2.24,1.21,1.18,1.83,2.77,1.83,4.81v.06c0,3.16-1.68,5.25-4.25,6.34l4.93,7.2h-6.61l-4.16-6.25h-2.51v6.25h-5.72v-20.65ZM94.96,67.76c1.95,0,3.07-.94,3.07-2.45v-.06c0-1.62-1.18-2.45-3.1-2.45h-3.75v4.96h3.78Z" style="fill:#2d3b51;"/><polygon points="106.67 57.85 112.39 57.85 112.39 66.23 119.5 57.85 126.28 57.85 118.47 66.73 126.55 78.5 119.68 78.5 114.48 70.83 112.39 73.16 112.39 78.5 106.67 78.5 106.67 57.85" style="fill:#2d3b51;"/><path d="M126.34,75.43l3.19-3.81c2.03,1.62,4.31,2.48,6.7,2.48,1.53,0,2.36-.53,2.36-1.42v-.06c0-.85-.68-1.33-3.48-1.98-4.39-1-7.79-2.24-7.79-6.49v-.06c0-3.83,3.04-6.61,7.99-6.61,3.51,0,6.25.94,8.49,2.74l-2.86,4.04c-1.89-1.33-3.95-2.03-5.78-2.03-1.39,0-2.06.59-2.06,1.33v.06c0,.94.71,1.36,3.57,2.01,4.75,1.03,7.7,2.57,7.7,6.43v.06c0,4.22-3.33,6.73-8.35,6.73-3.66,0-7.14-1.15-9.68-3.42" style="fill:#2d3b51;"/><path d="M113.77,45.74c0,2.98,1.51,4.4,3.81,4.4s3.8-1.36,3.8-4.25v-11.62h5.81v11.45c0,6.67-3.81,9.59-9.68,9.59s-9.56-2.98-9.56-9.44v-11.6h5.81v11.48Z" style="fill:#2d3b51;"/><path d="M64.46,28.9c-.03-.15-.23-.3-.36-.34-.72-.26-.81-.42-.72-1.17.05-.4.1-.8.15-1.21.11-.82.21-1.66.31-2.49.09-.82.14-1.77-.4-2.63-.39-.62-.85-.92-1.4-.93h-.1c-.66,0-1.5.08-2.15.74-.18.18-.38.35-.57.51l-.24.2c.1-.41.18-.54.28-.69.09-.14.19-.3.32-.73.38-1.23.78-2.7.9-4.21,0-.03.02-.34-.11-.4l-.16-.09c-.26-.14-.52-.28-.79-.28h-.05c-.52,0-1.07.16-1.69.5-.12.07-.2.16-.21.26-.01.07,0,.17.11.29l.25.24c.1.09.21.19.29.3.1.12.23.3.23.45,0,.59-.02,1.21-.1,1.82-.14.95-.28,1.55-.43,2.18-.13.54-.27,1.1-.41,1.92-.12.74-.31,1.47-.49,2.14-.26.96-.57,2.04-.78,2.77-.19.68,0,1.25.53,1.48.13.06.24.09.32.09.18,0,.3-.11.37-.35l.09-.11.09-.1.13-.19c.12-.16.24-.32.29-.51.17-.58.33-1.23.48-1.87.07-.29.14-.59.21-.86.06-.25.12-.51.17-.76.1-.47.2-.95.36-1.4.33-.92.89-1.58,1.66-1.96.26-.13.51-.2.73-.2.52,0,.85.39.91,1.08.08,1.12-.17,2.22-.42,3.28v.02c-.24,1-.44,1.98-.4,3,.02.45.29.83.7.99.21.08.42.12.63.12.4,0,.81-.15,1.25-.44.12-.09.25-.3.22-.44" style="fill:#2d3b51;"/><path d="M160.66,15.87v-.19c0-.16-.24-.46-.39-.46-.79.01-1.48.23-2.06.64-.26.18-.29.36-.28.47.02.17.17.32.42.42.6.24.8.48.8.99h0c0,.06-.06.24-.12.46-.16.58-.43,1.55-.61,2.47-.03.14-.07.2-.13.2l-.19-.09c-.42-.35-.92-.46-1.43-.55-1.19-.21-2.18.03-2.99.72-.14.12-.26.27-.37.42l-.1.12c-.82,1.04-1.61,2.21-1.85,3.68-.03.17-.06.34-.09.51-.13.69-.26,1.41-.12,2.13.09.5.28,1.14.86,1.61.55.44,1.18.67,2,.71.3.01.59-.07.78-.13.47-.17.92-.38,1.31-.56.18-.09.4-.18.5-.2v.09s0,.25,0,.25c.18.38.77.52,1.16.62h.02s.25.03.25.03c.38,0,.68-.24.87-.67.06-.14.07-.37-.03-.5-.08-.1-.26-.17-.39-.17h-.09s-.15.04-.15.04l-.08-.03-.03-.23c.04-.39.09-.78.15-1.17l.07-.46c.13-.85.27-1.73.43-2.59.14-.74.28-1.23.42-1.71.14-.47.28-.96.42-1.7l.06-.34c.23-1.26.43-2.34.87-3.56.14-.39.13-.83.12-1.26M157.11,26.52c-.05.34-.09.67-.13.88l-.03.25v.13c-.15.05-.28.13-.43.21-.17.1-.34.2-.54.27-.35.13-.91.28-1.34.28-.66,0-1.26-.29-1.91-.92-.06-.06-.12-.18-.13-.29-.03-.29-.05-.59-.07-.9l-.02-.31v-.05c.16-1.04.32-2.11.86-3.06.38-.66.9-1.13,1.56-1.38.44-.17.83-.25,1.2-.25.48,0,.91.14,1.32.42.39.27.58.69.49,1.08-.11.45-.24.9-.36,1.34-.07.25-.14.49-.21.74-.09.34-.18.98-.26,1.54" style="fill:#2d3b51;"/><path d="M148.11,28.24l-.24.02h-.07s-.19.02-.19.02c-.14-.01-.23-.04-.27-.1l-.04-.2c.01-.11.02-.22.03-.32.02-.23.04-.47.09-.7.03-.19.09-.38.14-.56.05-.16.1-.33.13-.49.18-.85.37-1.76.54-2.65.07-.36.13-.77.1-1.16-.04-.37-.11-.83-.33-1.18-.48-.76-1.25-1.08-2.39-.98-.53.05-.97.27-1.36.69-.32.35-.68.69-1.03,1.01-.13.13-.27.25-.39.37h0s0,0,0,0v-.08s-.03-.26-.03-.26c-.07-.76-.79-1.57-1.42-1.58-.75,0-1.35.26-1.77.78-.12.15-.16.34-.1.51.06.18.21.31.41.35.09.02.18.03.31.03h.15s.06,0,.06,0c.18,0,.36-.02.58-.03h.18c-.03.19-.07.41-.1.65-.14.93-.31,2-.48,2.71-.14.59-.33,1.17-.51,1.74-.12.37-.25.76-.36,1.14-.16.57-.28,1.24.05,1.9.16.32.34.38.46.38s.25-.06.37-.19c.35-.36.69-.75.84-1.19.31-.9.51-1.82.7-2.69.15-.73.76-3.21,2.24-4.53.23-.21.52-.33.79-.33.17,0,.31.05.41.15.75.74,1.05,1.61.91,2.59-.14,1.02-.33,2.04-.5,3.04l-.12.7c-.1.56-.04,1.13.16,1.73.15.44.91.79,1.44.79l.23-.03c.48-.14.64-.33.94-.71l.02-.02c.1-.12.21-.34.19-.53-.04-.56-.27-.79-.75-.79" style="fill:#2d3b51;"/><path d="M136.74,29.28c-.02-.25-.19-.41-.41-.41l-.21.04-.09.04c-.2.08-.41.17-.62.24-.11.04-.21.03-.26-.03l-.06-.2v-.04c.01-.28.03-.56.09-.82.12-.45.25-.9.37-1.33.13-.44.26-.89.37-1.34.28-1.1.52-2.09.72-3.03.08-.35.11-.74.11-1.19,0-.28-.16-.47-.44-.5-.35-.04-.46.16-.54.35-.07.18-.18.35-.27.52l-.08.13-.11-.15c-.11-.14-.2-.27-.33-.37-.42-.36-.87-.7-1.48-.7-.12,0-.25.01-.38.04-.73.17-1.67.44-2.44,1.14l-.19.16c-.2.17-.4.34-.54.55-.4.59-.81,1.25-1.28,2.06-.29.5-.43,1.05-.57,1.59-.05.19-.1.4-.16.59-.18.62-.08,1.34.29,1.96.39.65,1.01,1.12,1.68,1.27.56.12,1.01.18,1.42.18.91,0,1.64-.29,2.23-.88l.11-.07c.11.13.21.25.32.36.24.28.46.54.7.78.22.24.75.36,1.15.36.13,0,.3-.01.43-.07.5-.24.53-.76.48-1.25M134.44,22.97v.03c-.04,1.3-.12,2.68-.51,4.04-.17.57-.46.98-.89,1.22-.57.32-1.11.58-1.63.78-.11.04-.21.06-.32.06-.38,0-.68-.28-.86-.51-.72-.92-.85-1.95-.37-3.06.51-1.19,1.15-2.26,1.91-3.16.32-.38.87-.62,1.45-.62.28,0,.55.06.77.16.34.16.47.38.45.77,0,.11,0,.22,0,.28" style="fill:#2d3b51;"/><path d="M113.85,16.06c-.45-.14-.85-.26-1.27-.27-.54,0-1.01.03-1.52.08-.16.01-.32.03-.49.04-.26.02-.46.12-.55.29-.09.17-.08.38.04.61.06.12.25.15.45.18.12.02.25.04.3.08.62.48.54.75.34,1.38-.04.14-.09.29-.14.46-.05.2-.09.33-.13.45-.07.22-.12.38-.18.76-.05.3-.08.38-.12.48-.03.08-.07.18-.13.41-.16.62-.34,1.13-.51,1.62-.17.48-.34.97-.5,1.57-.14.53-.27,1.08-.39,1.61-.14.57-.28,1.16-.43,1.74l-.02.07c-.07.26-.19.75-.37.9-.17.14-.37.19-.59.24-.17.04-.35.08-.52.17-.16.09-.25.18-.27.29-.02.1.01.21.11.34.18.25.44.37.82.38.62.01,1.15.02,1.76.07.1,0,.2.02.31.03.23.02.46.04.7.04.41,0,.74-.07,1.05-.21.17-.08.35-.19.38-.35.02-.12-.04-.24-.18-.4-.29-.31-.56-.33-.91-.36-.1,0-.21-.02-.32-.03l-.23-.04h-.03c.14-.35.26-.86.33-1.21l.04-.17c.16-.75.32-1.43.48-2.08.2-.84.38-1.63.58-2.57.16-.75.24-1.04.33-1.35.08-.29.17-.6.33-1.32.05-.24.18-.62.31-1,.13-.38.26-.77.32-1.02.11-.5.2-.94.79-1.03.14-.02.3-.27.3-.41,0-.17-.12-.42-.26-.46" style="fill:#2d3b51;"/><path d="M84.05,15.13l-.22-.06-.23.02c-.29.05-.52.07-.78.08-.58.01-1.11.19-1.49.5l-.17.31c.01.19.12.29.24.36.09.06.19.08.3.11.1.03.21.05.31.1.34.16.45.44.38.88-.02.15-.05.3-.07.44-.12.74-.24,1.52-.43,2.24-.13.51-.24.89-.34,1.23-.18.64-.33,1.15-.53,2.11-.14.64-.3,1.26-.47,1.86-.22.83-.45,1.69-.6,2.6-.1.61.46,1.61,1,1.77.17.05.34.08.51.08.57,0,1.08-.31,1.38-.84.1-.17.11-.34.03-.47-.07-.13-.22-.2-.4-.2h-.02c-.15,0-.29.04-.45.08l-.23.05-.05-.02-.04-.13c.08-.41.14-.83.2-1.23.08-.53.17-1.08.28-1.61.14-.65.3-1.3.45-1.92.21-.83.42-1.69.58-2.56.13-.7.21-1.09.3-1.47.09-.38.17-.76.3-1.45.05-.25.09-.52.14-.78.1-.53.19-1.08.3-1.62.06-.13-.07-.38-.18-.47" style="fill:#2d3b51;"/><path d="M77.63,14.94c-.19-.11-.44-.17-.72-.17-.17,0-.34.02-.51.06-.43.1-.85.27-1.25.44-.18.07-.35.14-.53.21l-.04.02c-.15.05-.36.13-.3.4.07.3.34.3.43.3h.05s.02,0,.02,0c.23,0,.5.13.7.34.17.18.27.4.25.58-.11,1.49-.13,1.63-.49,3.04-.06.24-.13.48-.2.73-.2.72-.4,1.47-.48,2.17-.15,1.38-.43,2.87-.83,4.54-.05.21-.09.42-.11.61l-.04.23c.05.89.42,1.38,1.12,1.5.14.02.26.03.39.03.18,0,.35-.02.51-.05.23-.05.42-.15.59-.3.17-.21.28-.36.41-.53.06-.08.12-.17.2-.27.12-.16.16-.33.11-.47-.05-.13-.17-.21-.34-.25-.14-.03-.4.1-.65.22-.14.07-.28.14-.35.15-.17.03-.27.03-.31-.02-.05-.06-.02-.22.02-.41.03-.14.05-.3.07-.47l.03-.26c.06-.4.12-.81.18-1.21.11-.78.23-1.56.35-2.34.11-.7.27-1.49.49-2.42.38-1.56.5-2.08.85-3.48l.1-.4c.07-.29.12-.56.16-.85.02-.13.04-.26.06-.39.07-.23.08-.33.09-.5,0-.08.02-.18.04-.33v-.05c.03-.12.07-.33-.08-.41" style="fill:#2d3b51;"/><path d="M120.78,20.55c-.41-.46-1.09-.73-1.82-.73-.58,0-1.11.18-1.49.49-.76.64-1.15,1.47-1.14,2.48,0,.35.02.81.2,1.14.32.61.71,1.2,1.08,1.76l.15.23c.43.64.63,1.25.61,1.8.03.73,0,.79-.59,1.14-.26.16-.53.24-.76.24-.54,0-.91-.4-.99-1.08-.04-.38-.23-.62-.51-.66l-.29-.02c-.23,0-.54.03-.67.19-.25.3-.42.77-.4,1.15.02.54.32.93.8,1.03l.3.07c.27.06.54.12.82.18.42.09.74.13,1.04.13s.58-.04.84-.13c1.04-.35,2.04-1.94,1.95-3.1-.05-.72-.3-1.42-.71-2.06-.39-.6-.84-1.17-1.28-1.73l-.16-.2c-.35-.44-.39-.97-.11-1.46.18-.31.48-.41.79-.52l.15-.05.21-.04c.1,0,.21.04.29.3.1.31.24.67.43,1,.16.26.48.35.74.35.27,0,.5-.1.61-.26.36-.52.32-1.17-.11-1.64" style="fill:#2d3b51;"/><path d="M126.62,16.18c-.12-.15-.29-.23-.5-.23h-.04c-.6.02-1.13.28-1.64.53l-.29.14c-.12.06-.2.16-.21.28,0,.11.05.21.15.28.23.15.49.28.78.38.2.07.25.14.22.32-.09.43-.18.88-.26,1.32-.03.15-.1.38-.18.65-.09.3-.2.63-.27.96-.14.59-.22,1.08-.29,1.44l-.04.22c-.05.27-.09.46-.12.62-.06.3-.1.52-.16,1.03-.05.23-.13.55-.44,1.8-.11.46-.12.52-.13.61,0,.07,0,.17-.08.56v.04c0,.06-.03.34-.06.55-.05.44-.07.56-.06.61-.14.7.12,1.25.79,1.69.12.08.21.11.28.11h.05c.11-.04.23-.07.35-.1.36-.09.73-.17,1-.49,0-.01.25-.29.18-.45-.06-.14-.26-.26-.42-.29-.51-.09-.87-.59-.78-1.08.08-.44.17-.88.26-1.31.06-.28.12-.57.17-.86.2-1.02.4-1.93.6-2.8.2-.87.4-1.78.6-2.8.05-.24.1-.48.15-.72.09-.4.16-.66.21-.87.09-.39.15-.62.28-1.3v-.03c.08-.3.04-.59-.11-.78" style="fill:#2d3b51;"/><path d="M68.57,19.74c-.7.11-1.13.61-1.46,1.09-.08.12-.11.25-.06.36.05.12.17.21.33.24.18.04.43.04.66.02.23-.02.36-.01.4.04.04.04.04.14.02.34-.07.55-.17,1.11-.26,1.65-.05.28-.1.57-.15.85-.05.29-.1.58-.14.87-.16.93-.31,1.89-.44,2.84-.09.67.13,1.21.61,1.53.27.18.55.27.84.27.46,0,.87-.25,1.16-.69.1-.16.18-.44.12-.64-.04-.14-.14-.21-.29-.21l-.25.04-.06.02-.17.02c-.14,0-.25-.04-.31-.12-.07-.09-.1-.22-.07-.38.11-.62.25-1.24.43-1.84.4-1.36.76-2.7.77-4.13,0-.28,0-.57,0-.85,0-.28-.15-.61-.42-.87-.35-.35-.82-.52-1.25-.46" style="fill:#2d3b51;"/><path d="M71.22,15.41v-.21c-.08-.47-.41-.66-.85-.49-.54.21-.87.62-.97,1.2-.03.18.05.4.2.58.16.18.35.29.53.29h.07c.5-.09,1.06-.78,1.02-1.28v-.1Z" style="fill:#2d3b51;"/><path d="M89.58,28.13l-.23.03-.25.11-.19.09-.24.05h-.06c-.06-.07-.09-.23-.06-.35.12-.49.27-.98.39-1.4.28-.89.35-1.8.44-2.76.04-.55.09-1.11.18-1.69v-.02c-.01-.09-.02-.19-.04-.3-.03-.27-.07-.61-.15-.93-.15-.6-.66-1.02-1.31-1.07-.59-.05-1.3.32-1.52.79-.05.11,0,.29.06.39l.19.07.17-.03c.16-.09.31-.13.44-.13.29,0,.47.21.51.58.04.41.02.88-.07,1.43-.12.71-.25,1.43-.37,2.13-.14.77-.28,1.56-.41,2.34-.07.44-.04.92.01,1.33.05.45.53.96.91.96h.02c.85-.04,1.48-.38,1.88-1.01.09-.13.04-.4-.05-.52-.04-.05-.13-.08-.25-.08" style="fill:#2d3b51;"/><path d="M88.92,16.54h.02c.3,0,.68-.26.93-.52.24-.26.38-.52.37-.72,0-.12-.1-.25-.19-.31-.05-.04-.45-.21-.78-.21l-.19.03c-.28.08-.51.27-.64.53-.13.25-.15.54-.06.81.09.26.26.39.53.4" style="fill:#2d3b51;"/><path d="M89.83,38.11c-.04-.28-.11-1.2-.09-2.43,0-.23-.05-.96-.08-1.17-.02-.19-.06-.23-.12-.24h-1.93v5.02h2.4v-.02s-.09-.5-.18-1.16" style="fill:#2d3b51;"/><path d="M91.19,34.26c.07.2.11.37.11.38l.1.42h0c.01.07.07,1.3.09,1.78l.23,2.32s.35.12.93.12h1.14v15.64h5.72v-15.64h6.2v-5.02h-14.53Z" style="fill:#2d3b51;"/><path d="M91.72,39.16l-.23-2.32c-.02-.48-.08-1.71-.09-1.77h0s-.1-.43-.1-.43c0,0-.04-.18-.11-.38-.05-.14-.12-.3-.2-.41-.12-.16-.44-.18-.56-.17-.55.06-.71.58-.71.58h.42c.11,0,.17-.02.2.24.03.21.08.94.08,1.17-.02,1.23.05,2.15.09,2.43.09.66.17,1.16.17,1.16.13.42.26.51.46.57.22.07.77.1.98-.04.32-.2.52-.52.52-.52-.59,0-.93-.12-.93-.12" style="fill:#2d3b51;"/></svg>