<?xml version="1.0" encoding="utf-8"?>
<!-- Generator: Adobe Illustrator 27.2.0, SVG Export Plug-In . SVG Version: 6.00 Build 0)  -->
<svg version="1.1" id="Layer_1" xmlns="http://www.w3.org/2000/svg" xmlns:xlink="http://www.w3.org/1999/xlink" x="0px" y="0px"
	 width="198.4px" height="85px" viewBox="0 0 198.4 85" style="enable-background:new 0 0 198.4 85;" xml:space="preserve">
<style type="text/css">
	.st0{fill:#253148;}
</style>
<g>
	<g>
		<path class="st0" d="M8.6,30.2H48v20.2H33.2V42h2.7v5.9h9.6V32.8H11.3v15.1h9.6V42h2.6v8.4h-15L8.6,30.2L8.6,30.2z M5,26.9v26.9
			h22V38.7h-9.7v5.8h-2.6v-8.4h27.1v8.4h-2.5v-5.9h-9.7v15.2h21.8V26.9H5z"/>
		<path class="st0" d="M66.2,50.4H69V32.5h7v-2.3H59.1v2.3h7V50.4z M78,50.4h2.8v-9.2h9.7v-2.3h-9.7v-6.4h11v-2.3H78.1L78,50.4
			L78,50.4z M94.1,50.4h14.6v-2.3H96.9v-7h11v-2.3h-11v-6.4h11.7v-2.3H94.1V50.4z M119.3,50.4h2.5v-8.2c0-2.6,1.5-4.6,4.5-4.6
			c1.9,0,3.1,1.2,3.1,2.9v9.9h2.5v-9.6c0-3.1-1.2-5.3-5.3-5.3c-1.8,0-4,0.7-4.8,2.5h-0.1v-7.7h-2.5L119.3,50.4L119.3,50.4z
			 M134.3,43.1c0,4.3,2.6,7.6,7.4,7.6c4.8,0,7.4-3.4,7.4-7.6c0-4.3-2.6-7.7-7.4-7.7C136.9,35.5,134.3,38.8,134.3,43.1z M137,43.1
			c0-3.6,2.1-5.5,4.8-5.5c2.6,0,4.8,2,4.8,5.5c0,3.5-2.1,5.5-4.8,5.5C139.1,48.6,137,46.6,137,43.1z M155,31.4h-2.5v4.4h-2.6v2.1
			h2.6v9.3c0,2.7,1,3.2,3.6,3.2h1.9v-2.1h-1.1c-1.6,0-1.9-0.2-1.9-1.3v-9.1h3v-2.1h-3L155,31.4L155,31.4z M170.7,45.8
			c-0.4,1.9-1.9,2.9-4,2.9c-3.3,0-4.8-2.3-4.8-4.8h11.4c0.1-3.5-1.5-8.4-6.9-8.4c-4.2,0-7.2,3.2-7.2,7.6c0.1,4.5,2.4,7.7,7.3,7.7
			c3.4,0,5.8-1.7,6.5-5L170.7,45.8L170.7,45.8z M162,41.7c0.2-2.2,1.8-4.1,4.4-4.1c2.5,0,4.3,1.8,4.4,4.1H162z M175.9,50.4h2.5V30.2
			h-2.5V50.4z M180.4,45.8c0.1,3.6,3,4.9,6.5,4.9c3.1,0,6.5-1.1,6.5-4.6c0-2.8-2.5-3.6-5-4.1c-2.3-0.5-5-0.8-5-2.5
			c0-1.5,1.8-1.9,3.2-1.9c1.7,0,3.4,0.6,3.5,2.5h2.5c-0.2-3.6-2.9-4.6-6.3-4.6c-2.7,0-5.7,1.2-5.7,4.1c0,2.8,2.5,3.6,5,4.1
			c2.5,0.5,5,0.8,5,2.7c0,1.8-2.1,2.2-3.7,2.2c-2.1,0-4-0.7-4.1-2.8L180.4,45.8L180.4,45.8z"/>
	</g>
</g>
</svg>
