<?xml version="1.0" encoding="utf-8"?>
<!-- Generator: Adobe Illustrator 27.2.0, SVG Export Plug-In . SVG Version: 6.00 Build 0)  -->
<svg version="1.1" id="Layer_1" xmlns="http://www.w3.org/2000/svg" xmlns:xlink="http://www.w3.org/1999/xlink" x="0px" y="0px"
	 width="198.4px" height="85px" viewBox="0 0 198.4 85" style="enable-background:new 0 0 198.4 85;" xml:space="preserve">
<style type="text/css">
	.st0{fill:#1E1E1E;}
	.st1{fill:#0068A1;}
</style>
<g>
	<g>
		<path class="st0" d="M24.6,48.1h2.8v9.1c0,1.1-0.2,2-0.5,2.7c-0.3,0.7-0.7,1.3-1.2,1.7s-1.1,0.8-1.8,0.9c-0.7,0.2-1.4,0.3-2.1,0.3
			c-0.7,0-1.4-0.1-2.1-0.3c-0.7-0.2-1.3-0.5-1.8-0.9c-0.5-0.4-0.9-1-1.2-1.7c-0.3-0.7-0.5-1.6-0.5-2.7v-9.1h2.8v9.2
			c0,1.2,0.2,2,0.7,2.5s1.2,0.7,2.1,0.7c0.9,0,1.6-0.2,2.1-0.7c0.5-0.5,0.7-1.3,0.7-2.5V48.1z"/>
		<path class="st0" d="M29.7,62.7V52.2H32v1.1c0.5-0.3,1-0.6,1.5-0.9c0.5-0.3,1.1-0.4,1.7-0.4c1,0,1.8,0.3,2.3,0.9
			c0.5,0.6,0.8,1.5,0.8,2.6v7.2h-2.5v-6.8c0-0.7-0.1-1.2-0.3-1.5c-0.2-0.3-0.5-0.4-1-0.4c-0.6,0-1,0.1-1.4,0.4
			c-0.4,0.2-0.7,0.5-0.9,0.7v7.6H29.7z"/>
		<path class="st0" d="M40.7,50.3v-2.3h2.5v2.3H40.7z M43.2,62.7h-2.5V52.2h2.5V62.7z"/>
		<path class="st0" d="M44.5,52.2H47l1.7,7.1h0l1.8-7.1H53l-3,10.5h-2.6L44.5,52.2z"/>
		<path class="st0" d="M55.8,57.8c0,1.1,0.2,1.9,0.7,2.3c0.4,0.5,0.9,0.7,1.5,0.7c0.6,0,1-0.1,1.4-0.4c0.3-0.2,0.7-0.5,1-0.9
			l1.8,1.1c-0.5,0.8-1.1,1.3-1.8,1.6s-1.6,0.5-2.6,0.5c-0.7,0-1.3-0.1-1.8-0.4c-0.5-0.3-1-0.6-1.4-1.1c-0.4-0.5-0.7-1-0.9-1.7
			c-0.2-0.7-0.3-1.4-0.3-2.3s0.1-1.6,0.3-2.3c0.2-0.7,0.5-1.2,0.9-1.7c0.4-0.5,0.9-0.8,1.4-1.1s1.2-0.4,1.9-0.4
			c0.7,0,1.3,0.1,1.8,0.4c0.5,0.3,1,0.6,1.3,1.1s0.6,1,0.8,1.5c0.2,0.6,0.3,1.2,0.3,1.8v1H55.8z M59.8,56.1c0-0.7-0.2-1.3-0.6-1.7
			c-0.4-0.4-0.8-0.6-1.4-0.6c-0.6,0-1.1,0.2-1.4,0.6c-0.4,0.4-0.5,1-0.6,1.7H59.8z"/>
		<path class="st0" d="M63.8,62.7V52.2H66V54h0c0.3-0.6,0.7-1.1,1.1-1.5c0.5-0.3,1.1-0.5,1.8-0.5v2.6c-0.1,0-0.1,0-0.2,0
			c-0.1,0-0.1,0-0.2,0c-0.3,0-0.6,0.1-0.9,0.2c-0.3,0.2-0.5,0.3-0.7,0.5c-0.2,0.2-0.4,0.4-0.5,0.6c-0.1,0.2-0.2,0.3-0.2,0.4v6.4
			H63.8z"/>
		<path class="st0" d="M75.6,54.9c-0.3-0.3-0.5-0.5-0.9-0.8c-0.3-0.2-0.7-0.4-1.1-0.4c-0.5,0-0.8,0.1-1.1,0.3s-0.3,0.4-0.3,0.7
			c0,0.3,0.1,0.5,0.4,0.7c0.3,0.2,0.6,0.3,1,0.5c0.4,0.1,0.8,0.3,1.3,0.5c0.5,0.2,0.9,0.4,1.3,0.6c0.4,0.3,0.7,0.6,1,1
			s0.4,0.9,0.4,1.6c0,0.6-0.1,1-0.3,1.4c-0.2,0.4-0.5,0.7-0.8,1s-0.7,0.5-1.2,0.6c-0.5,0.1-1,0.2-1.5,0.2c-0.8,0-1.6-0.2-2.3-0.5
			c-0.7-0.4-1.2-0.9-1.7-1.6l1.7-1.2c0.3,0.4,0.6,0.8,1,1.1s0.9,0.5,1.4,0.5c0.4,0,0.8-0.1,1.1-0.3c0.3-0.2,0.4-0.5,0.4-0.9
			c0-0.3-0.1-0.5-0.4-0.7c-0.3-0.2-0.6-0.4-1-0.5c-0.4-0.1-0.8-0.3-1.3-0.5s-0.9-0.4-1.3-0.6c-0.4-0.3-0.7-0.6-1-1
			C70.2,56.1,70,55.6,70,55c0-0.5,0.1-0.9,0.3-1.3c0.2-0.4,0.4-0.7,0.8-1c0.3-0.3,0.7-0.4,1.1-0.6c0.4-0.1,0.9-0.2,1.3-0.2
			c0.7,0,1.4,0.1,2,0.4s1.2,0.7,1.7,1.2L75.6,54.9z"/>
		<path class="st0" d="M84.7,62.7l-0.2-0.9c-0.5,0.3-1,0.6-1.5,0.8c-0.5,0.2-1.1,0.3-1.7,0.3c-0.5,0-0.9-0.1-1.2-0.2
			c-0.4-0.2-0.7-0.4-0.9-0.6c-0.2-0.3-0.4-0.6-0.5-0.9c-0.1-0.3-0.2-0.7-0.2-1c0-1.2,0.5-2.1,1.5-2.8c1-0.7,2.5-1.1,4.5-1.3v-0.9
			c0-0.4-0.1-0.7-0.4-0.9c-0.3-0.2-0.7-0.3-1.1-0.3c-0.6,0-1.1,0.1-1.4,0.4c-0.3,0.3-0.6,0.6-0.9,0.9L79,53.9
			c0.2-0.3,0.4-0.5,0.7-0.8s0.6-0.4,1-0.6c0.4-0.2,0.7-0.3,1.1-0.4c0.4-0.1,0.8-0.1,1.2-0.1c0.7,0,1.3,0.1,1.8,0.2
			c0.5,0.1,0.9,0.4,1.3,0.7c0.3,0.3,0.6,0.8,0.7,1.3c0.2,0.5,0.2,1.2,0.2,2v4.9c0,0.3,0,0.5,0,0.8s0.1,0.5,0.2,0.7H84.7z M84.5,57.6
			c-0.4,0.1-0.8,0.2-1.2,0.3s-0.8,0.2-1.1,0.4s-0.6,0.4-0.8,0.6c-0.2,0.2-0.3,0.5-0.3,0.9c0,0.4,0.1,0.7,0.3,0.9
			c0.2,0.2,0.5,0.3,0.9,0.3c0.2,0,0.4,0,0.6-0.1c0.2-0.1,0.4-0.2,0.6-0.3s0.4-0.2,0.6-0.4c0.2-0.1,0.3-0.3,0.5-0.4V57.6z"/>
		<path class="st0" d="M89.2,62.7V48.1h2.5v14.6H89.2z"/>
		<path class="st0" d="M101,48.1h4.8c1,0,1.8,0.1,2.6,0.4s1.5,0.7,2.1,1.3s1,1.3,1.4,2.3c0.3,0.9,0.5,2,0.5,3.3
			c0,1.3-0.2,2.4-0.5,3.3c-0.3,0.9-0.8,1.7-1.4,2.3c-0.6,0.6-1.3,1-2.1,1.3s-1.7,0.4-2.6,0.4H101V48.1z M103.8,60.3h1.9
			c0.8,0,1.4-0.1,2-0.4c0.5-0.3,0.9-0.6,1.2-1.1c0.3-0.5,0.5-1,0.6-1.6s0.2-1.2,0.2-1.9c0-0.6-0.1-1.3-0.2-1.9
			c-0.1-0.6-0.3-1.1-0.6-1.6s-0.7-0.8-1.2-1.1c-0.5-0.3-1.2-0.4-2-0.4h-1.9V60.3z"/>
		<path class="st0" d="M115.8,57.8c0,1.1,0.2,1.9,0.7,2.3c0.4,0.5,0.9,0.7,1.5,0.7c0.6,0,1-0.1,1.4-0.4c0.3-0.2,0.7-0.5,1-0.9
			l1.8,1.1c-0.5,0.8-1.1,1.3-1.8,1.6c-0.7,0.3-1.6,0.5-2.6,0.5c-0.7,0-1.3-0.1-1.8-0.4c-0.5-0.3-1-0.6-1.4-1.1
			c-0.4-0.5-0.7-1-0.9-1.7c-0.2-0.7-0.3-1.4-0.3-2.3s0.1-1.6,0.3-2.3c0.2-0.7,0.5-1.2,0.9-1.7s0.9-0.8,1.4-1.1s1.2-0.4,1.9-0.4
			c0.7,0,1.3,0.1,1.8,0.4c0.5,0.3,1,0.6,1.3,1.1c0.4,0.4,0.6,1,0.8,1.5c0.2,0.6,0.3,1.2,0.3,1.8v1H115.8z M119.9,56.1
			c0-0.7-0.2-1.3-0.6-1.7c-0.4-0.4-0.8-0.6-1.4-0.6s-1.1,0.2-1.4,0.6c-0.4,0.4-0.5,1-0.6,1.7H119.9z"/>
		<path class="st0" d="M129.2,54.9c-0.3-0.3-0.5-0.5-0.9-0.8c-0.3-0.2-0.7-0.4-1.1-0.4c-0.5,0-0.8,0.1-1.1,0.3s-0.3,0.4-0.3,0.7
			c0,0.3,0.1,0.5,0.4,0.7s0.6,0.3,1,0.5c0.4,0.1,0.8,0.3,1.3,0.5c0.5,0.2,0.9,0.4,1.3,0.6c0.4,0.3,0.7,0.6,1,1
			c0.3,0.4,0.4,0.9,0.4,1.6c0,0.6-0.1,1-0.3,1.4c-0.2,0.4-0.5,0.7-0.8,1s-0.8,0.5-1.2,0.6c-0.5,0.1-1,0.2-1.5,0.2
			c-0.8,0-1.6-0.2-2.3-0.5s-1.2-0.9-1.7-1.6l1.7-1.2c0.3,0.4,0.6,0.8,1,1.1c0.4,0.3,0.9,0.5,1.4,0.5c0.4,0,0.8-0.1,1.1-0.3
			s0.4-0.5,0.4-0.9c0-0.3-0.1-0.5-0.4-0.7c-0.3-0.2-0.6-0.4-1-0.5c-0.4-0.1-0.8-0.3-1.3-0.5s-0.9-0.4-1.3-0.6s-0.7-0.6-1-1
			c-0.3-0.4-0.4-0.9-0.4-1.5c0-0.5,0.1-0.9,0.3-1.3c0.2-0.4,0.4-0.7,0.8-1c0.3-0.3,0.7-0.4,1.1-0.6c0.4-0.1,0.9-0.2,1.3-0.2
			c0.7,0,1.4,0.1,2,0.4s1.2,0.7,1.7,1.2L129.2,54.9z"/>
		<path class="st0" d="M132.7,50.3v-2.3h2.5v2.3H132.7z M135.2,62.7h-2.5V52.2h2.5V62.7z"/>
		<path class="st0" d="M146.2,53.7c-0.3,0-0.6,0-0.9,0c-0.3,0-0.5,0.1-0.7,0.2c0.2,0.2,0.3,0.5,0.4,0.8c0.1,0.3,0.2,0.7,0.2,1.1
			c0,0.5-0.1,1-0.3,1.4s-0.4,0.8-0.7,1.1s-0.7,0.5-1.2,0.7c-0.5,0.2-1.1,0.3-1.7,0.3c-0.6,0-1,0-1.4,0.1c-0.4,0.1-0.6,0.2-0.6,0.5
			c0,0.3,0.2,0.5,0.5,0.6s0.8,0.2,1.3,0.2s1.1,0.1,1.7,0.1c0.6,0,1.1,0.1,1.7,0.3c0.5,0.2,0.9,0.4,1.3,0.8s0.5,0.9,0.5,1.6
			c0,0.4-0.1,0.8-0.3,1.1c-0.2,0.4-0.5,0.7-0.9,1c-0.4,0.3-0.9,0.5-1.5,0.7c-0.6,0.2-1.3,0.3-2.2,0.3c-1.4,0-2.5-0.2-3.4-0.6
			s-1.3-1-1.3-1.9c0-0.3,0.1-0.6,0.2-0.8c0.1-0.2,0.3-0.4,0.4-0.6c0.2-0.2,0.4-0.3,0.6-0.4s0.4-0.1,0.7-0.1v0
			c-0.1-0.1-0.3-0.2-0.4-0.2c-0.2-0.1-0.3-0.2-0.5-0.3s-0.3-0.3-0.4-0.5c-0.1-0.2-0.2-0.4-0.2-0.7c0-0.3,0.1-0.5,0.2-0.7
			c0.1-0.2,0.3-0.4,0.5-0.6s0.4-0.3,0.5-0.4s0.3-0.2,0.5-0.2c-0.4-0.3-0.8-0.7-1.1-1.2c-0.3-0.4-0.5-1-0.5-1.6
			c0-0.5,0.1-0.9,0.3-1.3c0.2-0.4,0.4-0.8,0.8-1.2c0.3-0.3,0.8-0.6,1.3-0.8c0.5-0.2,1.1-0.3,1.8-0.3c0.4,0,0.9,0.1,1.4,0.3
			c0.5,0.2,0.9,0.4,1.2,0.7c0.2-0.3,0.6-0.6,1-0.7c0.4-0.2,0.9-0.2,1.5-0.2V53.7z M140.7,62.5c-0.3,0-0.6,0-0.9,0.1
			c-0.2,0.1-0.4,0.2-0.5,0.3c-0.1,0.1-0.2,0.3-0.3,0.4s-0.1,0.3-0.1,0.4c0,0.4,0.2,0.7,0.6,0.9s1.1,0.3,2.2,0.3c0.4,0,0.7,0,1-0.1
			c0.3-0.1,0.5-0.2,0.7-0.3c0.2-0.1,0.3-0.2,0.4-0.4c0.1-0.1,0.1-0.2,0.1-0.3c0-0.1-0.1-0.3-0.2-0.4c-0.1-0.1-0.3-0.3-0.5-0.4
			c-0.2-0.1-0.6-0.2-1-0.3C141.8,62.5,141.3,62.5,140.7,62.5z M142.9,55.6c0-0.5-0.2-0.9-0.5-1.2c-0.3-0.3-0.7-0.5-1.2-0.5
			c-0.5,0-1,0.2-1.3,0.5c-0.3,0.3-0.5,0.7-0.5,1.2s0.2,0.9,0.5,1.2s0.8,0.5,1.3,0.5c0.5,0,0.9-0.2,1.2-0.5S142.9,56.1,142.9,55.6z"
			/>
		<path class="st0" d="M147.4,62.7V52.2h2.3v1.1c0.5-0.3,1-0.6,1.5-0.9c0.5-0.3,1.1-0.4,1.7-0.4c1,0,1.8,0.3,2.3,0.9
			c0.5,0.6,0.8,1.5,0.8,2.6v7.2h-2.5v-6.8c0-0.7-0.1-1.2-0.3-1.5s-0.5-0.4-1-0.4c-0.6,0-1,0.1-1.4,0.4s-0.7,0.5-0.9,0.7v7.6H147.4z"
			/>
	</g>
	<g>
		<path class="st0" d="M22.8,39c-0.5,2-1.5,3.3-3.7,3.3c-2.4,0-4-1.7-4-5.4c0-3.4,1.5-5.4,4-5.4c2,0,3.1,1.1,3.6,3.1l-1.1,0.3
			c-0.4-1.5-1.1-2.4-2.6-2.4c-1.5,0-2.7,1.4-2.7,4.4c0,3,1.2,4.4,3,4.4c1.6,0,2.3-1.2,2.6-2.5L22.8,39z"/>
		<path class="st0" d="M30.3,40.5c-0.5,0.9-1.2,1.8-2.9,1.8c-1.7,0-3.3-1.2-3.3-3.9c0-2.4,1.2-3.9,3.1-3.9c1.6,0,2.9,1,2.9,3.4v0.7
			h-4.9c0,1.7,1,2.8,2.3,2.8c0.9,0,1.7-0.5,2.1-1.3L30.3,40.5z M29,37.7c0-1.4-0.7-2.3-1.8-2.3c-1.3,0-2,0.9-2,2.3H29z"/>
		<path class="st0" d="M32.8,34.6v1h0c0.6-0.7,1.4-1.2,2.3-1.2c1.1,0,2.2,0.6,2.2,2.2v5.5h-1.1v-5.5c0-1-0.5-1.3-1.2-1.3
			c-0.8,0-1.7,0.6-2.2,1.1v5.7h-1.1v-7.6H32.8z"/>
		<path class="st0" d="M39.8,34.6v-2.5h1.1v2.5h1.8v0.9h-1.8v5.4c0,0.3,0.2,0.5,0.9,0.5c0.4,0,0.7,0,0.9-0.1v0.9
			c-0.2,0.1-0.6,0.1-1.2,0.1c-1.1,0-1.6-0.3-1.6-1.3v-5.6h-1.2v-0.9H39.8z"/>
		<path class="st0" d="M43.9,34.6H45v1.5h0c0.6-1,1.2-1.6,2.5-1.6v1c-1.3,0-2,0.9-2.5,2.4v4.2h-1.1V34.6z"/>
		<path class="st0" d="M54.3,40.5c-0.5,0.9-1.2,1.8-2.9,1.8c-1.7,0-3.3-1.2-3.3-3.9c0-2.4,1.2-3.9,3.1-3.9c1.6,0,2.9,1,2.9,3.4v0.7
			h-4.9c0,1.7,1,2.8,2.3,2.8c0.9,0,1.7-0.5,2.1-1.3L54.3,40.5z M53.1,37.7c0-1.4-0.7-2.3-1.8-2.3c-1.3,0-2,0.9-2,2.3H53.1z"/>
		<path class="st0" d="M61,42.1v-6.7h-1.3v-0.9H61v-0.9c0-1.8,0.6-2.2,1.9-2.2c0.3,0,0.6,0,0.9,0.1v0.9c-0.2,0-0.5-0.1-0.8-0.1
			c-0.7,0-1,0.2-1,1.1v1.1h1.7v0.9H62v6.7H61z"/>
		<path class="st0" d="M67.5,42.3c-2.1,0-3.1-1.7-3.1-3.9s1-3.9,3.1-3.9s3.1,1.7,3.1,3.9S69.5,42.3,67.5,42.3z M67.5,35.3
			c-1.3,0-2.1,1.1-2.1,3c0,2,0.8,3,2.1,3c1.3,0,2.1-1.1,2.1-3C69.5,36.4,68.7,35.3,67.5,35.3z"/>
		<path class="st0" d="M72.1,34.6h1.1v1.5h0c0.6-1,1.2-1.6,2.5-1.6v1c-1.3,0-2,0.9-2.5,2.4v4.2h-1.1V34.6z"/>
	</g>
	<g>
		<g>
			<path class="st0" d="M18.9,67.4h3.5L26.5,82h-2.8L23,78.8h-4.6L17.5,82h-2.8L18.9,67.4z M19,76.5h3.4l-1.6-6.3h0L19,76.5z"/>
			<path class="st0" d="M36.2,71.5V82h-2.3v-1.1c-0.5,0.3-1,0.6-1.5,0.9c-0.5,0.3-1.1,0.4-1.7,0.4c-1,0-1.8-0.3-2.3-0.9
				c-0.5-0.6-0.8-1.5-0.8-2.6v-7.2h2.5v6.8c0,0.7,0.1,1.2,0.3,1.5c0.2,0.3,0.5,0.4,1,0.4c0.6,0,1-0.1,1.4-0.4
				c0.4-0.2,0.7-0.5,0.9-0.7v-7.6H36.2z"/>
			<path class="st0" d="M43.5,74.3c-0.3-0.3-0.5-0.5-0.9-0.8c-0.3-0.2-0.7-0.4-1.1-0.4c-0.5,0-0.8,0.1-1.1,0.3
				c-0.2,0.2-0.3,0.4-0.3,0.7c0,0.3,0.1,0.5,0.4,0.7s0.6,0.3,1,0.5c0.4,0.1,0.8,0.3,1.3,0.5s0.9,0.4,1.3,0.6c0.4,0.3,0.7,0.6,1,1
				c0.3,0.4,0.4,0.9,0.4,1.6c0,0.6-0.1,1-0.3,1.4c-0.2,0.4-0.5,0.7-0.8,1c-0.3,0.3-0.8,0.5-1.2,0.6s-1,0.2-1.5,0.2
				c-0.8,0-1.6-0.2-2.3-0.5s-1.2-0.9-1.7-1.6l1.7-1.2c0.3,0.4,0.6,0.8,1,1.1c0.4,0.3,0.9,0.5,1.4,0.5c0.4,0,0.8-0.1,1.1-0.3
				c0.3-0.2,0.4-0.5,0.4-0.9c0-0.3-0.1-0.5-0.4-0.7c-0.3-0.2-0.6-0.4-1-0.5c-0.4-0.1-0.8-0.3-1.3-0.5c-0.5-0.2-0.9-0.4-1.3-0.6
				c-0.4-0.3-0.7-0.6-1-1s-0.4-0.9-0.4-1.5c0-0.5,0.1-0.9,0.3-1.3c0.2-0.4,0.4-0.7,0.8-1s0.7-0.5,1.1-0.6c0.4-0.1,0.9-0.2,1.3-0.2
				c0.7,0,1.4,0.1,2,0.4c0.7,0.3,1.2,0.7,1.7,1.2L43.5,74.3z"/>
			<path class="st0" d="M47.6,71.5V68h2.5v3.5h2.1v2h-2.1v5.9c0,0.3,0.1,0.5,0.2,0.6c0.1,0.1,0.4,0.2,0.7,0.2c0.2,0,0.4,0,0.6-0.1
				s0.4-0.1,0.6-0.1V82c-0.3,0-0.7,0.1-1,0.1c-0.3,0-0.6,0-1,0c-0.9,0-1.6-0.2-2-0.6s-0.6-1-0.6-1.8v-6.2h-1.5v-2H47.6z"/>
			<path class="st0" d="M53.5,82V71.5h2.3v1.8h0c0.3-0.6,0.7-1.1,1.1-1.5c0.5-0.3,1.1-0.5,1.8-0.5v2.6c-0.1,0-0.1,0-0.2,0
				c-0.1,0-0.1,0-0.2,0c-0.3,0-0.6,0.1-0.9,0.2s-0.5,0.3-0.7,0.5c-0.2,0.2-0.4,0.4-0.5,0.6C56,75.4,56,75.5,56,75.6V82H53.5z"/>
			<path class="st0" d="M65.5,82l-0.2-0.9c-0.5,0.3-1,0.6-1.5,0.8c-0.5,0.2-1.1,0.3-1.7,0.3c-0.5,0-0.9-0.1-1.2-0.2
				c-0.4-0.2-0.7-0.4-0.9-0.6c-0.2-0.3-0.4-0.6-0.5-0.9c-0.1-0.3-0.2-0.7-0.2-1c0-1.2,0.5-2.1,1.5-2.8c1-0.7,2.5-1.1,4.5-1.3v-0.9
				c0-0.4-0.1-0.7-0.4-0.9c-0.3-0.2-0.7-0.3-1.1-0.3c-0.6,0-1.1,0.1-1.4,0.4s-0.6,0.6-0.9,0.9l-1.6-1.2c0.2-0.3,0.4-0.5,0.7-0.8
				c0.3-0.2,0.6-0.4,1-0.6c0.4-0.2,0.7-0.3,1.1-0.4c0.4-0.1,0.8-0.1,1.2-0.1c0.7,0,1.3,0.1,1.8,0.2c0.5,0.1,0.9,0.4,1.3,0.7
				c0.3,0.3,0.6,0.8,0.7,1.3c0.2,0.5,0.2,1.2,0.2,2v4.9c0,0.3,0,0.5,0,0.8c0,0.3,0.1,0.5,0.2,0.7H65.5z M65.3,77
				c-0.4,0.1-0.8,0.2-1.2,0.3c-0.4,0.1-0.8,0.2-1.1,0.4s-0.6,0.4-0.8,0.6c-0.2,0.2-0.3,0.5-0.3,0.9c0,0.4,0.1,0.7,0.3,0.9
				s0.5,0.3,0.9,0.3c0.2,0,0.4,0,0.6-0.1c0.2-0.1,0.4-0.2,0.6-0.3c0.2-0.1,0.4-0.2,0.6-0.4c0.2-0.1,0.3-0.3,0.5-0.4V77z"/>
			<path class="st0" d="M70,82V67.4h2.5V82H70z"/>
			<path class="st0" d="M74.9,69.6v-2.3h2.5v2.3H74.9z M77.4,82h-2.5V71.5h2.5V82z"/>
			<path class="st0" d="M85.2,82L85,81.1c-0.5,0.3-1,0.6-1.5,0.8c-0.5,0.2-1.1,0.3-1.7,0.3c-0.5,0-0.9-0.1-1.2-0.2
				c-0.4-0.2-0.7-0.4-0.9-0.6c-0.2-0.3-0.4-0.6-0.5-0.9c-0.1-0.3-0.2-0.7-0.2-1c0-1.2,0.5-2.1,1.5-2.8c1-0.7,2.5-1.1,4.5-1.3v-0.9
				c0-0.4-0.1-0.7-0.4-0.9s-0.7-0.3-1.1-0.3c-0.6,0-1.1,0.1-1.4,0.4c-0.4,0.3-0.6,0.6-0.9,0.9l-1.6-1.2c0.2-0.3,0.4-0.5,0.7-0.8
				c0.3-0.2,0.6-0.4,1-0.6c0.4-0.2,0.7-0.3,1.1-0.4c0.4-0.1,0.8-0.1,1.2-0.1c0.7,0,1.3,0.1,1.8,0.2s0.9,0.4,1.3,0.7
				c0.3,0.3,0.6,0.8,0.7,1.3c0.2,0.5,0.2,1.2,0.2,2v4.9c0,0.3,0,0.5,0,0.8c0,0.3,0.1,0.5,0.2,0.7H85.2z M84.9,77
				c-0.4,0.1-0.8,0.2-1.2,0.3c-0.4,0.1-0.8,0.2-1.1,0.4c-0.3,0.2-0.6,0.4-0.8,0.6c-0.2,0.2-0.3,0.5-0.3,0.9c0,0.4,0.1,0.7,0.3,0.9
				s0.5,0.3,0.9,0.3c0.2,0,0.4,0,0.6-0.1c0.2-0.1,0.4-0.2,0.6-0.3s0.4-0.2,0.6-0.4c0.2-0.1,0.3-0.3,0.5-0.4V77z"/>
		</g>
	</g>
	<g>
		<g>
			<path class="st1" d="M168,42.7c-2.7,0-5.1,0.5-7.1,1.4c0.4,3.6,3.4,6.4,7.1,6.4s6.7-2.8,7.1-6.4C173.2,43.2,170.7,42.7,168,42.7z
				"/>
			<g>
				<path class="st1" d="M185,42.4c0.1-0.9,0.1-1.9,0.1-2.8c0-20.2-16.4-36.6-36.6-36.6s-36.6,16.4-36.6,36.6c0,0.9,0,1.9,0.1,2.8
					c9.8-5.5,22.6-8.8,36.5-8.8C162.4,33.6,175.1,37,185,42.4z"/>
			</g>
		</g>
	</g>
</g>
</svg>
