<?xml version="1.0" encoding="UTF-8"?><svg id="a" xmlns="http://www.w3.org/2000/svg" width="212" height="95" viewBox="0 0 212 95"><path d="M68.05,57.24c1.29,0,2.53.04,3.84.04,3.09,0,5.53-1,5.53-4.13,0-2.33-2.22-3.73-5.42-3.84v-.04c2.82-.2,4.71-1.33,4.71-3.42,0-1.95-1.58-3.71-5.33-3.71-1.24,0-2.13.04-3.33.04-1.66,0-2.2-.04-2.73-.04-.2,0-.29.13-.29.27,0,.69,1.95-.24,1.95,1.69v11.23c0,1.93-1.95,1-1.95,1.69,0,.13.09.27.29.27.53,0,1.07-.04,2.73-.04M69.11,42.68h2c2.04,0,3.46.95,3.46,3.09,0,2.33-1.4,3.31-3.93,3.31h-1.53v-6.39ZM69.11,49.47h1.4c3.11,0,4.68,1.24,4.68,3.71,0,2.69-1.46,3.57-3.75,3.57-1.84,0-2.33-.35-2.33-1.84v-5.44Z" style="fill:#2d3b51;"/><path d="M84.78,46.99c-3.04,0-5.06,2.66-5.06,5.37,0,2.95,2.29,5.06,4.93,5.06,3.4,0,4.46-2.71,4.46-3.13,0-.16-.07-.24-.2-.24-.27,0-.31.6-1.11,1.15-.64.44-1.33.67-2.29.67-2.77,0-3.75-1.95-3.8-4.17h7.37c0-2.33-1.42-4.71-4.31-4.71M81.67,51.16c.04-2.11,1.49-3.77,3.08-3.77,1.49,0,2.33,1.04,2.33,3.77h-5.42Z" style="fill:#2d3b51;"/><path d="M103.29,57.02c0-.6-1.64.07-1.64-1.33v-6.41c0-1.31-.71-2.29-2.51-2.29-1.66,0-3.13,1.24-4.19,2.04v-2.04c-3.04,1.18-3.64.8-3.64,1.2,0,.51,1.64-.11,1.64,1.38v6.13c0,1.4-1.64.73-1.64,1.33,0,.2.11.27.35.27.55,0,1.07-.04,2.29-.04s1.73.04,2.29.04c.24,0,.36-.07.36-.27,0-.6-1.64.07-1.64-1.33v-6.04c1.07-.98,1.93-1.51,3.2-1.51,1.13,0,1.51.53,1.51,1.47v6.08c0,1.4-1.64.73-1.64,1.33,0,.2.11.27.36.27.55,0,1.07-.04,2.29-.04s1.73.04,2.29.04c.24,0,.36-.07.36-.27" style="fill:#2d3b51;"/><path d="M116.67,56.09c0-.47-1.69.11-1.69-1.51v-13.54c-3.09,1.18-3.77.8-3.77,1.2,0,.51,1.78-.11,1.78,1.38v3.64c-.36-.09-1.02-.27-2.17-.27-2.93,0-5.42,2.33-5.42,5.86,0,2.42,1.71,4.57,4.15,4.57,1.58,0,2.73-1.02,3.57-1.95v1.95c2.95-1.31,3.55-.93,3.55-1.33M112.99,54.95c-.04.38-1.22,1.31-2.49,1.31-2.24,0-3.11-2.31-3.11-4.08,0-2.82,1.33-4.79,3.33-4.79,1.22,0,2.26.73,2.26,2.33v5.24Z" style="fill:#2d3b51;"/><path d="M118.29,48.18c0,.51,1.64-.11,1.64,1.38v6.13c0,1.4-1.64.73-1.64,1.33,0,.2.11.27.36.27.55,0,1.07-.04,2.29-.04s1.73.04,2.29.04c.24,0,.35-.07.35-.27,0-.6-1.64.07-1.64-1.33v-8.7c-3.08,1.18-3.64.8-3.64,1.2" style="fill:#2d3b51;"/><path d="M121.98,44.26c0-.73-.4-1.22-1.22-1.22s-1.22.49-1.22,1.22.4,1.22,1.22,1.22,1.22-.49,1.22-1.22" style="fill:#2d3b51;"/><path d="M124.97,59.33c0,1.71,2.02,2.62,4.66,2.62,3.31,0,5.64-1.42,5.64-3.24,0-1.62-1-2.71-3.73-2.71h-2.06c-1.4,0-1.97-.47-1.97-1.07,0-.8.71-.89,3.08-1.24,1.73-.27,3.68-1.22,3.68-3.46,0-1.97-1.91-3.15-3.75-3.24.09-.6.29-1.07.89-1.07.27,0,.49.04.78.04.8,0,1.29-.31,1.29-1.02,0-.49-.38-.89-1.09-.89-1.47,0-2.31,2-2.31,2.93-1.71,0-4.02,1.04-4.02,3.46,0,1.89,1.42,2.82,2.84,3.06v.07c-1.6-.02-3.13.64-3.13,2.13,0,.75.38,1.33.93,1.75-.91.24-1.73.87-1.73,1.86M128.26,50.34h.02c-.02-2.06.51-2.95,1.89-2.95s1.89.89,1.91,2.95c-.02,2.06-.53,2.95-1.93,2.95s-1.86-.89-1.89-2.95M127.24,57.68c4.06.82,6.3-.38,6.3,1.69,0,1.29-1.31,2.04-4.04,2.04-2.22,0-3.46-.8-3.46-2.22,0-.89.55-1.51,1.2-1.51" style="fill:#2d3b51;"/><path d="M136.72,52.2c0,2.75,2.2,5.22,5.15,5.22s5.15-2.46,5.15-5.22-2.2-5.22-5.15-5.22-5.15,2.46-5.15,5.22M144.88,52.2c0,2.38-.8,4.68-3.02,4.68s-3.02-2.31-3.02-4.68.8-4.68,3.02-4.68,3.02,2.31,3.02,4.68" style="fill:#2d3b51;"/><path d="M70.99,76.79c.2,0,.29-.13.29-.27,0-.69-1.95.24-1.95-1.69v-5.86h6.44v5.86c0,1.93-1.95,1-1.95,1.69,0,.13.09.27.29.27.53,0,1.07-.04,2.73-.04s2.2.04,2.73.04c.2,0,.29-.13.29-.27,0-.69-1.95.24-1.95-1.69v-11.23c0-1.93,1.95-1,1.95-1.69,0-.13-.09-.27-.29-.27-.53,0-1.07.04-2.73.04s-2.2-.04-2.73-.04c-.2,0-.29.13-.29.27,0,.69,1.95-.24,1.95,1.69v4.97h-6.44v-4.97c0-1.93,1.95-1,1.95-1.69,0-.13-.09-.27-.29-.27-.53,0-1.07.04-2.73.04s-2.2-.04-2.73-.04c-.2,0-.29.13-.29.27,0,.69,1.95-.24,1.95,1.69v11.23c0,1.93-1.95,1-1.95,1.69,0,.13.09.27.29.27.53,0,1.07-.04,2.73-.04s2.2.04,2.73.04" style="fill:#2d3b51;"/><path d="M90.74,73.79c0-.16-.07-.24-.2-.24-.27,0-.31.6-1.11,1.15-.64.44-1.33.67-2.29.67-2.77,0-3.75-1.95-3.8-4.17h7.37c0-2.33-1.42-4.71-4.31-4.71-3.04,0-5.06,2.66-5.06,5.37,0,2.95,2.29,5.06,4.93,5.06,3.4,0,4.46-2.71,4.46-3.13M86.39,66.89c1.49,0,2.33,1.04,2.33,3.77h-5.42c.04-2.11,1.49-3.77,3.08-3.77" style="fill:#2d3b51;"/><path d="M97.38,76.79c.24,0,.36-.07.36-.27,0-.6-1.64.07-1.64-1.33v-3.09c0-2.42.86-3.88,1.8-3.88.82,0,.73.53,1.49.53.62,0,1.13-.36,1.13-1.07,0-.75-.49-1.2-1.38-1.2-.98,0-1.97.53-3,2.89h-.04v-2.89c-2.44,1.04-3.73.76-3.73,1.15,0,.56,1.73-.07,1.73,1.51v6.04c0,1.4-1.64.73-1.64,1.33,0,.2.11.27.36.27.55,0,1.07-.04,2.29-.04s1.73.04,2.29.04" style="fill:#2d3b51;"/><path d="M101.33,76.52c0,.2.11.27.36.27.55,0,1.07-.04,2.29-.04s1.73.04,2.29.04c.24,0,.35-.07.35-.27,0-.6-1.64.07-1.64-1.33v-8.7c-3.08,1.18-3.64.8-3.64,1.2,0,.51,1.64-.11,1.64,1.38v6.13c0,1.4-1.64.73-1.64,1.33" style="fill:#2d3b51;"/><path d="M102.57,63.76c0,.73.4,1.22,1.22,1.22s1.22-.49,1.22-1.22-.4-1.22-1.22-1.22-1.22.49-1.22,1.22" style="fill:#2d3b51;"/><path d="M111.87,76.92c2.17,0,3.11-1.75,3.11-2,0-.11-.07-.18-.16-.18-.31,0-.6,1.11-1.84,1.11-1.07,0-1.73-.44-1.73-1.91v-6.21h2.57l.4-1.07h-2.97v-3.28h-.04c-.55,1.8-1.75,3.33-3.46,4.31v.04h1.51v6.21c0,1.91.89,2.97,2.62,2.97" style="fill:#2d3b51;"/><path d="M123.65,76.92c1.18,0,2.38-1.29,2.38-1.49,0-.13-.09-.2-.18-.2-.2,0-.62.76-1.24.76-.35,0-.58-.22-.58-.62v-6.59c0-1.58-1-2.29-2.57-2.29-2.06,0-5.15,1.8-5.15,3.15,0,.53.31.93.73.93,2.38,0,1.27-3.55,3.91-3.55.69,0,1.09.27,1.09.95v2.6c-5.35,2.06-6.08,2.75-6.08,4.17,0,1.24.93,2.18,2.37,2.18,1.11,0,2.44-.53,3.75-1.62.04.73.49,1.62,1.58,1.62M122.03,74.75c-1.24,1.07-2.26,1.38-2.71,1.38-.75,0-1.24-.49-1.24-1.77,0-1.42.73-2.11,3.95-3.24v3.64Z" style="fill:#2d3b51;"/><path d="M136.51,78.21c0-1.62-1-2.71-3.73-2.71h-2.06c-1.4,0-1.97-.47-1.97-1.07,0-.8.71-.89,3.09-1.24,1.73-.27,3.68-1.22,3.68-3.46,0-1.97-1.91-3.15-3.75-3.24.09-.6.29-1.07.89-1.07.27,0,.49.04.78.04.8,0,1.29-.31,1.29-1.02,0-.49-.38-.89-1.09-.89-1.46,0-2.31,2-2.31,2.93-1.71,0-4.02,1.04-4.02,3.46,0,1.89,1.42,2.82,2.84,3.06v.07c-1.6-.02-3.13.64-3.13,2.13,0,.75.38,1.33.93,1.75-.91.24-1.73.87-1.73,1.86,0,1.71,2.02,2.62,4.66,2.62,3.31,0,5.64-1.42,5.64-3.24M129.49,69.84h.02c-.02-2.06.51-2.95,1.89-2.95s1.89.89,1.91,2.95c-.02,2.06-.53,2.95-1.93,2.95s-1.86-.89-1.89-2.95M127.27,78.7c0-.89.55-1.51,1.2-1.51,4.06.82,6.3-.38,6.3,1.69,0,1.29-1.31,2.04-4.04,2.04-2.22,0-3.46-.8-3.46-2.22" style="fill:#2d3b51;"/><path d="M146.43,73.55c-.27,0-.31.6-1.11,1.15-.64.44-1.33.67-2.29.67-2.77,0-3.75-1.95-3.8-4.17h7.37c0-2.33-1.42-4.71-4.31-4.71-3.04,0-5.06,2.66-5.06,5.37,0,2.95,2.29,5.06,4.93,5.06,3.4,0,4.46-2.71,4.46-3.13,0-.16-.07-.24-.2-.24M142.28,66.89c1.49,0,2.33,1.04,2.33,3.77h-5.42c.04-2.11,1.49-3.77,3.08-3.77" style="fill:#2d3b51;"/><path d="M70.55,89.22h1.02l-2.19-4.46h-1.19l-2.16,4.46h1.02l.45-.94h2.61l.45.94ZM67.93,87.4l.86-1.76.86,1.76h-1.72Z" style="fill:#2d3b51;"/><polygon points="76.58 89.22 76.58 85.65 78.25 85.65 78.25 84.76 74.07 84.76 74.07 85.65 75.69 85.65 75.69 89.22 76.58 89.22" style="fill:#2d3b51;"/><polygon points="83.56 89.22 83.56 85.65 85.24 85.65 85.24 84.76 81.05 84.76 81.05 85.65 82.67 85.65 82.67 89.22 83.56 89.22" style="fill:#2d3b51;"/><path d="M89.64,87.4h1.42l1.13,1.82h1.13l-1.13-1.82c.62-.2,1-.62,1-1.29,0-.43-.2-.85-.55-1.1-.28-.2-.52-.24-.85-.24h-3.05v4.46h.9v-1.82ZM89.64,85.66h1.99c.31,0,.65.03.65.42,0,.28-.23.43-.5.43h-2.14v-.85Z" style="fill:#2d3b51;"/><path d="M97.02,88.28h2.61l.45.94h1.02l-2.19-4.46h-1.19l-2.16,4.46h1.02l.45-.94ZM98.31,85.63l.86,1.76h-1.72l.86-1.76Z" style="fill:#2d3b51;"/><path d="M106.61,89.37c1,0,1.44-.17,2.27-.7l-.4-.83c-.69.45-1.09.63-1.93.63s-1.79-.51-1.79-1.46.9-1.48,1.75-1.48c.72,0,1.24.27,1.77.73l.53-.78c-.76-.56-1.32-.86-2.28-.86-1.42,0-2.66.94-2.66,2.43s1.34,2.32,2.75,2.32" style="fill:#2d3b51;"/><polygon points="114.2 89.22 114.2 85.65 115.88 85.65 115.88 84.76 111.69 84.76 111.69 85.65 113.31 85.65 113.31 89.22 114.2 89.22" style="fill:#2d3b51;"/><rect x="119.45" y="84.76" width=".88" height="4.46" style="fill:#2d3b51;"/><path d="M126.76,89.37c1.41,0,2.75-.9,2.75-2.42s-1.34-2.33-2.75-2.33-2.74.85-2.74,2.36,1.33,2.39,2.73,2.39M126.78,85.53c.87,0,1.83.43,1.83,1.43s-.95,1.5-1.83,1.5-1.85-.46-1.85-1.46.95-1.46,1.84-1.46" style="fill:#2d3b51;"/><polygon points="134.29 86.2 136.77 89.22 137.65 89.22 137.65 84.76 136.77 84.76 136.77 87.77 134.29 84.76 133.4 84.76 133.4 89.22 134.29 89.22 134.29 86.2" style="fill:#2d3b51;"/><path d="M144.32,86.47c-.39-.02-.77,0-1.16-.03-.27,0-.79-.07-.79-.43,0-.43.66-.52.98-.52.72,0,1.33.16,1.96.49l.4-.79c-.72-.39-1.33-.59-2.15-.59-.9,0-2.09.25-2.09,1.37,0,.93.81,1.33,1.63,1.37.45.02.89,0,1.33.03.28.02.67.09.67.45,0,.52-.73.64-1.12.64-1.04,0-1.51-.14-2.38-.69l-.41.8c.91.64,1.39.79,2.51.79.98,0,2.31-.26,2.31-1.5,0-1.02-.79-1.37-1.69-1.4" style="fill:#2d3b51;"/><rect x="129.89" y="29.24" width="2.32" height=".89" style="fill:#2d3b51;"/><rect x="117.33" y="29.77" width="2.15" height=".89" style="fill:#2d3b51;"/><rect x="104.31" y="30.88" width=".89" height="3.16" style="fill:#2d3b51;"/><rect x="105.48" y="30.88" width=".89" height="3.16" style="fill:#2d3b51;"/><rect x="130.03" y="30.88" width=".89" height="3.16" style="fill:#2d3b51;"/><rect x="131.2" y="30.88" width=".89" height="3.16" style="fill:#2d3b51;"/><path d="M81.02,28.73v.89h6.93v-.89h-.16v-2.9c.11.01.17.02.18.02l.13-.88c-.07,0-1.62-.23-3.53-.24h0s-.05,0-.08,0c-.03,0-.05,0-.08,0h0c-1.91.01-3.46.24-3.53.24l.13.88s.07,0,.18-.02v2.9h-.16ZM86.01,25.66c.33.02.63.04.89.07v3h-.89v-3.07ZM83.86,25.62c.2,0,.41,0,.63,0,.21,0,.42,0,.63,0v3.1h-1.25v-3.1ZM82.07,25.73c.26-.02.56-.05.89-.07v3.07h-.89v-3Z" style="fill:#2d3b51;"/><path d="M84.48,32.58h0c.7,0,1.27-.57,1.27-1.27s-.57-1.27-1.27-1.27h0c-.7,0-1.27.57-1.27,1.27s.57,1.27,1.27,1.27M84.49,30.94c.21,0,.37.17.37.38s-.17.38-.37.38c-.21,0-.37-.17-.37-.38s.17-.37.37-.38" style="fill:#2d3b51;"/><path d="M81.64,35.1h5.7v.62h.89v-1.88c.63-.06,1.05-.11,1.08-.11l.39-.05v-2.55h-.47v-2.1h1.53v-3.08h-1.53v-.03l.31-.39v-1.46l-.54-.21c-.15-.17-.44-.42-1.02-.72-.77-.4-1.92-.6-3.5-.6s-2.7.2-3.48.6c-.58.3-.87.55-1.02.72l-.54.21v1.46l.31.39v.03h-1.49v3.08h1.49v2.1h-.47v2.55l.39.05s.46.06,1.08.11v.98h-5.32v-8.67s2.09,0,2.09,0l1.12-1.21-1.19-1.18-2.03-.02v-2.72s-.89,0-.89,0v1.04s-2.09,0-2.09,0l-1.14,1.22,1.21,1.2h2.03s0,10.34,0,10.34h-6.13v.89h13.21l.02-.62ZM89.23,26.85h.64v1.29h-.64v-1.29ZM79.74,28.14h-.6v-1.29h.6v1.29ZM72.87,23.6l-.34-.33.28-.31h1.71v.65s-1.65-.01-1.65-.01ZM75.42,24.64h1.66s.32.33.32.33l-.27.29h-1.71v-.62ZM87.33,34.21h-5.7v-.29c.56.03,1.19.06,1.83.06h.04s.44,0,.99,0c.55,0,.99,0,.99,0h0s.04,0,.04,0c.64,0,1.27-.03,1.83-.06v.29ZM80.17,32.89v-.86h.47v-6.41l-.31-.39v-.54l.23-.06.08-.16s.15-.21.77-.53c.64-.34,1.65-.5,3.06-.5s2.45.17,3.09.5c.6.31.76.52.76.5l.08.15.25.1v.54l-.31.39v6.41h.47v.86c-.64.07-1.97.19-3.3.19-.34,0-.7,0-1.02,0-.32,0-.69,0-1.02,0-1.33,0-2.66-.12-3.3-.19" style="fill:#2d3b51;"/><rect x="81.17" y="31.38" width=".9" height=".89" style="fill:#2d3b51;"/><rect x="86.94" y="31.38" width=".9" height=".89" style="fill:#2d3b51;"/><path d="M95.39,9.79h.87l-5.97,25.95h.91l.61-2.7,8.45-9.31,2.77,3.05v.24h-2.96v7.81h-3.29v.89h3.29l11.11-.07v-.97s0-2.83,0-2.83c0-.12.06-.23.14-.31.07-.07.17-.11.28-.11.23,0,.42.19.42.42v3.8s2.5,0,2.5,0v-5.12h1.13v5.12h.89v-6.83h3.57v6.83h.89v-5.12h1.18v5.12h2.5v-3.8c0-.23.19-.42.42-.42s.42.19.42.42v3.8s11.04.07,11.04.07h7.08v-.89h-7.08v-7.77h-3.49l-.06-.89h-4.44v.89s-2.96,0-2.96,0v1.71h-1v-7.35l-2.39.33h-7.35l-2.82-.31v7.33h-1.06v-1.75h-2.78l-3.98-17.23h.88v-.42h0l-.04-1.57h-2.22c-.06-1.39-1.21-2.51-2.62-2.51s-2.55,1.11-2.62,2.51h-2.24l-.02,1.97h.01v.02ZM96.99,10.62l2.59,2.22-3.86,3.31,1.28-5.53ZM100.26,13.42l3.93,3.36h-7.85l3.93-3.36ZM92.22,31.25l1.77-7.66h5.18l-6.95,7.66ZM94.2,22.7l1.04-4.51,4.09,4.51h-5.13ZM100.26,22.4l-4.28-4.72h8.56l-4.28,4.72ZM115.65,29.63h-1.13v-.82h1.13v.82ZM122.18,29.63h-1.18v-.82h1.18v.82ZM112.96,22.43l1.85.21h7.45s1.46-.19,1.46-.19v.85h-10.77v-.87ZM112.96,24.19h10.77v1.68h-10.77v-1.68ZM110.11,27.91v1.71h2.85s0-2.85,0-2.85h10.77v2.84l2.79.02v-1.67h2.96v-.89h2.7l.06.89h3.43v6.88l-9.26-.02v-2.96c0-.54-.32-1-.79-1.2-.16-.07-.34-.11-.52-.11s-.37.04-.54.12c-.45.21-.77.66-.77,1.19v2.82s-.71,0-.71,0v-6.74h-9.45v6.78h-.71v-2.86c0-.72-.59-1.31-1.31-1.31-.1,0-.19.01-.28.03-.11.02-.22.07-.32.12-.42.22-.72.65-.72,1.16v2.97s-.26,0-.26,0l-.03-.15-1.17-5.06-.39-1.71h1.68ZM108.7,33.04l.38,1.64.03.15h-8.15v-6.92h2.96v-.15l1.34,1.48h-1.03v.89h1.84l2.35,2.59.28.31ZM108.29,31.25l-1.75-1.93v-.09h-.08l-2.02-2.22h2.18l.06.89h.84l.77,3.35ZM107.11,26.12h-3.47l-2.3-2.53h5.18l.59,2.53ZM106.32,22.7h-5.13l4.09-4.51,1.04,4.51ZM104.81,16.15l-3.86-3.31,2.59-2.22,1.28,5.53ZM102.76,8.69h1.46l.02.68h-1.8c.14-.21.25-.43.32-.68M100.26,6.19c.91,0,1.66.71,1.72,1.61h-3.43c.06-.9.8-1.61,1.72-1.61M101.79,8.69c-.14.28-.35.51-.61.68h-1.86c-.26-.17-.47-.4-.61-.68h3.07ZM99.09,10.26c.35.17.75.28,1.16.28s.81-.1,1.16-.28h1.15l-2.32,1.99-2.32-1.99h1.15ZM96.28,8.69h1.47c.08.24.19.47.32.68h-1.81v-.68Z" style="fill:#2d3b51;"/></svg>