<?xml version="1.0" encoding="utf-8"?>
<!-- Generator: Adobe Illustrator 27.1.1, SVG Export Plug-In . SVG Version: 6.00 Build 0)  -->
<svg version="1.2" baseProfile="tiny" id="Layer_1" xmlns="http://www.w3.org/2000/svg" xmlns:xlink="http://www.w3.org/1999/xlink"
	 x="0px" y="0px" width="198.4px" height="85px" viewBox="0 0 198.4 85" overflow="visible" xml:space="preserve">
<g>
	<polygon fill="#253148" points="40.2,53.4 51.1,47 51.1,59.8 62.2,66.1 73.2,59.8 73.2,21.7 62.2,15.4 40.2,28 18.2,15.4 7.2,21.7 
		7.2,59.8 18.2,66.1 29.2,59.8 29.2,47 	"/>
	<g>
		<path fill="#253148" d="M107.5,21.3h-7.7c-0.2,0-0.3,0.2-0.3,0.3v2.5c0,0.2,0.2,0.3,0.3,0.3h2.3v14.4c0,0.2,0.2,0.3,0.3,0.3h2.5
			c0.2,0,0.3-0.2,0.3-0.3V24.3h2.3c0.2,0,0.3-0.2,0.3-0.3v-2.5C107.8,21.4,107.7,21.3,107.5,21.3 M92.7,21.3H87c-1.5,0-3,1.3-3,3
			v11.8c0,1.9,1.5,3,3,3h5.7c0.2,0,0.3-0.2,0.3-0.3v-2.5c0-0.2-0.2-0.3-0.3-0.3h-4.6c-0.7,0-1-0.3-1-0.8V25.1c0-0.6,0.2-0.8,0.9-0.8
			h4.8c0.2,0,0.3-0.2,0.3-0.3v-2.5C93,21.4,92.8,21.3,92.7,21.3 M97.8,21.3h-2.5c-0.2,0-0.3,0.2-0.3,0.3v17.2c0,0.2,0.2,0.3,0.3,0.3
			h2.5c0.2,0,0.3-0.2,0.3-0.3V21.6C98,21.4,97.9,21.3,97.8,21.3 M118.9,21.3h-2.7c-0.2,0-0.3,0.1-0.3,0.3l-0.3,2.6l-1.4,5.6
			l-1.4-5.6l-0.3-2.6c0-0.2-0.2-0.3-0.3-0.3h-2.7c-0.2,0-0.3,0.2-0.3,0.3c0.2,1.5,0.3,2.6,0.8,4.4c0.8,2.7,2.5,7.9,2.7,8.5v4.3
			c0,0.2,0.2,0.3,0.3,0.3h2.5c0.2,0,0.3-0.2,0.3-0.3v-4.3c0.3-0.7,2-5.7,2.6-8.5c0.5-2.1,0.5-2.6,0.8-4.4
			C119.1,21.4,119,21.3,118.9,21.3 M131.8,35.3c0,0.6-0.5,0.8-1,0.8H130c-0.5,0-1-0.3-1-0.8V25.1c0-0.6,0.3-0.8,0.9-0.8h1.3
			c0.6,0,0.9,0.2,0.9,0.8L131.8,35.3L131.8,35.3L131.8,35.3z M131.8,21.3h-3c-1.6,0-3,1.4-3,2.9V36c0,1.6,1.3,2.9,3,2.9h3
			c1.6,0,3-1.3,3-2.9V24.3C134.8,22.7,133.4,21.3,131.8,21.3 M145.8,21.3h-8.4c-0.2,0-0.3,0.2-0.3,0.3v17.2c0,0.2,0.2,0.3,0.3,0.3
			h2.5c0.2,0,0.3-0.2,0.3-0.3V31h4.3c0.2,0,0.3-0.2,0.3-0.3v-2.4c0-0.2-0.2-0.3-0.3-0.3h-4.3v-3.7h5.6c0.2,0,0.3-0.2,0.3-0.3v-2.4
			C146.1,21.5,146,21.3,145.8,21.3"/>
		<path fill="#253148" d="M165,53.5l0.3-0.2c0.9-0.6,1.4-1.8,1.4-3v-4c0-2.5-2-4.4-4.4-4.4h-4.5c-0.2,0-0.3,0.2-0.3,0.3v17.2
			c0,0.2,0.2,0.3,0.3,0.3h2.5c0.2,0,0.3-0.2,0.3-0.3v-4.5h1.7l1.9,4.7c0.1,0.1,0.2,0.2,0.3,0.2h2.8c0.3,0,0.3-0.2,0.3-0.3L165,53.5
			L165,53.5z M163.7,50.3c0,0.8-0.7,1.5-1.5,1.5h-1.8v-6.9h1.8c0.8,0,1.5,0.6,1.5,1.5V50.3z"/>
		<path fill="#253148" d="M139.4,41.9h-3c-1.6,0-3,1.4-3,3v11.8c0,1.6,1.3,3,3,3h3c1.6,0,3-1.3,3-3V44.8
			C142.4,43.3,141,41.9,139.4,41.9z M139.4,55.8c0,0.6-0.5,0.8-1,0.8h-0.9c-0.5,0-1-0.3-1-0.8V45.7c0-0.6,0.3-0.8,0.9-0.8h1.3
			c0.6,0,0.9,0.2,0.9,0.8L139.4,55.8L139.4,55.8L139.4,55.8z"/>
		<path fill="#253148" d="M118.7,56.7h-5V42.2c0-0.2-0.2-0.3-0.3-0.3H111c-0.2,0-0.3,0.2-0.3,0.3v17.2c0,0.2,0.2,0.3,0.3,0.3h7.6
			c0.2,0,0.3-0.2,0.3-0.3V57C118.9,56.8,118.8,56.7,118.7,56.7"/>
		<path fill="#253148" d="M154.1,41.9h-2.5c-0.2,0-0.3,0.2-0.3,0.3v13.7c0,0.6-0.5,0.8-1,0.8h-0.9c-0.5,0-1-0.3-1-0.8V42.2
			c0-0.2-0.2-0.3-0.3-0.3h-2.5c-0.2,0-0.3,0.2-0.3,0.3v14.5c0,1.6,1.3,3,3,3h3c1.6,0,3-1.3,3-3V42.2
			C154.4,42.1,154.2,41.9,154.1,41.9"/>
		<path fill="#253148" d="M191,44.9c0.2,0,0.3-0.2,0.3-0.3v-2.5c0-0.2-0.2-0.3-0.3-0.3h-8.4c-0.2,0-0.3,0.2-0.3,0.3v17.2
			c0,0.2,0.2,0.3,0.3,0.3h8.4c0.2,0,0.3-0.2,0.3-0.3V57c0-0.2-0.2-0.3-0.3-0.3h-5.6v-5h4.3c0.2,0,0.3-0.2,0.3-0.3v-2.5
			c0-0.2-0.2-0.3-0.3-0.3h-4.3v-3.8L191,44.9L191,44.9z"/>
		<path fill="#253148" d="M179,41.9h-2.5c-0.1,0-0.2,0.1-0.2,0.1l0,0l-0.1,0.1l0,0v6.8l-2.3-4.4l-0.4-2.5c0-0.2-0.2-0.3-0.3-0.3
			h-3.2c-0.2,0-0.3,0.2-0.3,0.3v17.2c0,0.2,0.2,0.3,0.3,0.3h2.5c0.2,0,0.3-0.2,0.3-0.3V48.4c1.2,2.6,3.2,5.8,3.4,6.4v4.6
			c0,0.2,0.2,0.3,0.3,0.3h2.5c0.2,0,0.3-0.2,0.3-0.3V42.3C179.2,42.1,179.1,41.9,179,41.9"/>
		<path fill="#253148" d="M108.1,41.9h-8.4c-0.2,0-0.3,0.2-0.3,0.3v17.2c0,0.2,0.2,0.3,0.3,0.3h8.4c0.2,0,0.3-0.2,0.3-0.3v-2.4
			c0-0.2-0.2-0.3-0.3-0.3h-5.6v-5h4.3c0.2,0,0.3-0.2,0.3-0.3v-2.5c0-0.2-0.2-0.3-0.3-0.3h-4.3v-3.8h5.6c0.2,0,0.3-0.2,0.3-0.3v-2.5
			C108.4,42.1,108.3,41.9,108.1,41.9"/>
		<path fill="#253148" d="M130.4,47v-0.9c0-2.5-2-4.2-4.4-4.2h-4.5c-0.2,0-0.3,0.2-0.3,0.3v17.2c0,0.2,0.2,0.3,0.3,0.3h4.5
			c2.5,0,4.4-2,4.4-4.4V53c0-1-0.4-2.1-1.5-3C130,49.3,130.4,48.1,130.4,47z M127.3,55.2c0,0.8-0.7,1.5-1.5,1.5h-1.7v-5h1.8
			c0.8,0,1.5,0.7,1.5,1.5L127.3,55.2L127.3,55.2L127.3,55.2z M127.3,47.2c0,0.8-0.7,1.4-1.5,1.4h-1.7v-3.8h1.8
			c0.8,0,1.5,0.7,1.5,1.5L127.3,47.2L127.3,47.2L127.3,47.2z"/>
		<path fill="#253148" d="M96.1,41.9h-3.2c-0.2,0-0.3,0.1-0.3,0.3l-0.4,2.5l-2.1,5.6l-2.1-5.6l-0.4-2.5c0-0.2-0.2-0.3-0.3-0.3h-3.2
			c-0.2,0-0.3,0.2-0.3,0.3v17.2c0,0.2,0.2,0.3,0.3,0.3h2.5c0.2,0,0.3-0.2,0.3-0.3v-9.5c0.8,2.2,1.6,4.5,1.8,5
			c0.1,0.2,0.2,0.3,0.3,0.3h2.2c0.1,0,0.3-0.1,0.3-0.3c0.2-0.4,1-2.7,1.8-5v9.5c0,0.2,0.2,0.3,0.3,0.3H96c0.2,0,0.3-0.2,0.3-0.3
			V42.3C96.4,42.1,96.2,41.9,96.1,41.9"/>
	</g>
</g>
</svg>
