<?xml version="1.0" encoding="UTF-8"?><svg id="a" xmlns="http://www.w3.org/2000/svg" width="212" height="95" viewBox="0 0 212 95"><polygon points="139.68 29.08 129.37 22.71 119.06 29.08 108.75 22.71 98.44 29.08 98.44 34.24 108.75 27.87 119.06 34.24 129.37 27.87 139.68 34.24 139.68 29.08" style="fill:#2d3b51;"/><polygon points="119.06 18.96 108.75 12.59 98.44 18.96 88.13 12.59 77.82 18.96 77.82 24.12 88.13 17.65 98.44 24.12 108.75 17.65 119.06 24.12 119.06 18.96" style="fill:#2d3b51;"/><path d="M60.67,69.95h1.87l4.59,10.97,4.59-10.97h1.97l-5.53,12.56h-2.06l-5.44-12.56Z" style="fill:#2d3b51;"/><path d="M75.67,70.04h1.78v12.56h-1.78v-12.56Z" style="fill:#2d3b51;"/><path d="M86.44,82.88c-4.31,0-6.84-2.62-6.84-6.56s2.62-6.56,6.84-6.56c3.47,0,5.9,1.97,6.19,4.87h-1.87c-.37-1.97-1.97-3.19-4.41-3.19-3.19,0-4.97,1.87-4.97,4.97s1.87,4.97,5.06,4.97c2.44,0,4.22-1.41,4.5-3.47h1.87c-.28,2.91-2.81,4.97-6.37,4.97Z" style="fill:#2d3b51;"/><path d="M99.38,82.51h-1.78v-10.87h-4.78v-1.59h11.25v1.59h-4.78v10.87h.09Z" style="fill:#2d3b51;"/><path d="M111.19,69.67c4.31,0,6.84,2.62,6.84,6.56s-2.62,6.56-6.84,6.56-6.84-2.62-6.84-6.56,2.53-6.56,6.84-6.56ZM111.19,81.2c3.19,0,4.97-1.87,4.97-4.97s-1.87-4.97-5.06-4.97-4.97,1.87-4.97,4.97,1.87,4.97,5.06,4.97Z" style="fill:#2d3b51;"/><path d="M120.09,70.04h6.56c2.91,0,4.41,1.22,4.41,3.37,0,1.59-.75,2.62-2.16,3.09,1.31.19,1.78.94,1.97,2.34l.19,2.06c.09.66.09,1.12.47,1.59h-2.06c-.09-.37-.19-.75-.19-1.31l-.19-1.87c-.09-1.69-.66-2.25-2.53-2.25h-4.69v5.34h-1.78v-12.37ZM121.78,71.54v4.12h4.12c2.25,0,3.37-.47,3.37-2.06,0-1.69-1.12-2.06-3.56-2.06h-3.94Z" style="fill:#2d3b51;"/><path d="M134.24,70.04h1.78v12.56h-1.78v-12.56Z" style="fill:#2d3b51;"/><path d="M143.99,70.04h1.87l5.53,12.56h-1.87l-1.59-3.56h-6.37l-1.69,3.56h-1.87l6-12.56ZM147.27,77.35l-2.44-5.34-2.53,5.34h4.97Z" style="fill:#2d3b51;"/><path d="M53.36,31.43h13.5c7.59,0,11.34,2.91,11.34,9.09s-3.75,9.09-11.34,9.09h-8.53v14.9h-4.97V31.43ZM65.17,45.95c5.9,0,8.72-1.03,8.72-5.34s-2.72-5.34-8.44-5.34h-7.12v10.68h6.84Z" style="fill:#2d3b51;"/><path d="M79.88,43.99c.47-1.41.37-3.94.37-3.94.75-.09,1.78-.09,2.62-.09,7.59,0,10.5,1.97,10.5,7.59v9.28c0,2.44.47,3.37,2.06,3.37.37,0,.75,0,1.22-.09v3.37c-1.31.19-2.44.19-3.19.19-2.44,0-3.66-1.03-4.03-3.56-2.06,2.62-5.34,4.12-9.65,4.12-5.72,0-8.81-2.62-8.81-6.84,0-2.44,1.12-4.22,3.28-5.53,1.41-.84,3.84-1.12,7.31-1.5,5.06-.56,7.59-.47,7.59-3.19,0-2.44-1.78-3.47-5.9-3.47-2.25-.09-3.37.28-3.37.28ZM82.32,53.45c-4.41.47-6.84.94-6.84,3.66,0,2.16,1.78,3.56,4.97,3.56,5.34,0,8.81-2.53,8.81-5.34v-3.37c-1.22.66-3.47,1.12-6.94,1.5Z" style="fill:#2d3b51;"/><path d="M98.44,40.8h4.12v3.84c2.06-3,5.06-4.59,8.44-4.59.75,0,1.31.09,1.87.37v4.41c-1.12-.37-2.06-.47-2.91-.47-3.94,0-7.31,3.28-7.31,8.15v11.25h-4.12v-22.96h-.09Z" style="fill:#2d3b51;"/><path d="M114.66,40.05h4.12v10.68l12-10.03h6.19l-10.87,8.72,11.72,14.15h-5.25l-9.56-11.53-4.22,3.37v8.25h-4.12v-23.62Z" style="fill:#2d3b51;"/><path d="M140.62,56.17c.37,2.91,2.72,4.59,6.75,4.59,4.69,0,7.12-1.41,7.12-3.47,0-1.78-1.31-2.34-4.12-2.81l-5.15-.94c-5.34-.94-8.06-2.06-8.06-6.28,0-4.78,3.47-7.31,10.31-7.31s10.4,2.72,10.4,7.5v.19h-4.03c-.28-2.91-2.44-4.12-6.65-4.12-3.94,0-5.9,1.12-5.9,3.09,0,2.16,1.69,2.62,5.15,3.19l4.97.84c5.06.84,7.31,2.34,7.31,6.47,0,4.69-3.94,7.4-11.43,7.4s-10.68-2.62-11.25-8.25h4.59v-.09Z" style="fill:#2d3b51;"/></svg>