<?xml version="1.0" encoding="UTF-8"?><svg id="a" xmlns="http://www.w3.org/2000/svg" width="212" height="95" viewBox="0 0 212 95"><path d="M60.83,42.66c-.91-.55-1.91-.82-1.91-.82l4.21-6.71c-4.02-.02-10.31-.06-11.95-.03-2.31.04-3.08.72-3.26.93-.71.83-3.41,4.25-3.43,4.29-.66.84-1.87.98-2.71.32-.84-.66-.98-1.87-.32-2.71.11-.14,2.78-3.53,3.54-4.41.87-1.01,2.63-2.23,6.13-2.28,2.51-.04,14.97.05,15.5.05.7,0,1.34.39,1.68,1s.32,1.36-.06,1.95l-5.95,9.49s-.54-.52-1.46-1.08Z" style="fill:#2d3b51;"/><path d="M70.81,71.6c-.21,0-.42-.03-.63-.11-1.01-.35-1.54-1.45-1.19-2.46l4.95-14.22c.26-.65.43-1.43.43-1.8-.03-.02-.07-.03-.09-.03-1.49.43-4.83,1.35-4.83,1.35,0,0-.23-.9-.6-1.95-.36-1.05-.79-1.78-.79-1.78,0,0,3.7-.92,5.18-1.34,1.59-.45,3.44.23,4.38,1.63,1.15,1.7.32,4.25-.09,5.28l-4.91,14.13c-.28.8-1.02,1.29-1.82,1.29Z" style="fill:#2d3b51;"/><circle cx="73.78" cy="25.54" r="5.32" style="fill:#2d3b51;"/><path d="M50.78,74.57c-8.65,0-15.69-7.04-15.69-15.69s7.04-15.69,15.69-15.69,15.69,7.04,15.69,15.69-7.04,15.69-15.69,15.69ZM50.78,47.06c-6.52,0-11.83,5.31-11.83,11.83s5.31,11.83,11.83,11.83,11.83-5.31,11.83-11.83-5.31-11.83-11.83-11.83Z" style="fill:#2d3b51;"/><path d="M106.64,27.26v8.45h-2.45l-.07-1.91c-.97,1.44-2.54,2.15-4.72,2.15-1.47,0-2.76-.32-3.87-.97-1.11-.65-1.98-1.59-2.6-2.82-.62-1.23-.93-2.71-.93-4.42s.32-3.16.96-4.41c.64-1.24,1.54-2.2,2.71-2.86,1.17-.66,2.54-.99,4.1-.99,1.73,0,3.14.32,4.23.94,1.09.63,1.95,1.62,2.58,2.98l-3.07,1.33c-.24-.82-.68-1.45-1.32-1.88-.64-.43-1.41-.64-2.31-.64-1.39,0-2.47.48-3.24,1.43s-1.16,2.31-1.16,4.07.38,3.2,1.14,4.14c.76.94,1.87,1.41,3.34,1.41,1.13,0,2.05-.27,2.76-.81.71-.54,1.07-1.33,1.07-2.36v-.36h-4.67v-2.47h7.55Z" style="fill:#2d3b51;"/><path d="M121.17,30.91h-8.57c.34,1.71,1.35,2.57,3.03,2.57.69,0,1.27-.13,1.72-.39.45-.26.77-.63.94-1.11l2.71.99c-.39.97-1.04,1.71-1.95,2.22-.91.51-2.05.76-3.43.76-2,0-3.55-.55-4.65-1.66-1.1-1.11-1.65-2.65-1.65-4.64s.53-3.53,1.6-4.64c1.06-1.11,2.57-1.66,4.5-1.66s3.31.54,4.32,1.62c1.01,1.08,1.51,2.62,1.51,4.63,0,.45-.03.89-.1,1.31ZM113.48,26.51c-.48.47-.78,1.16-.91,2.08h5.64c-.13-.9-.44-1.59-.92-2.07-.48-.48-1.11-.71-1.89-.71s-1.45.23-1.93.7Z" style="fill:#2d3b51;"/><path d="M132.13,34.96c-.39.31-.88.55-1.47.73-.59.18-1.21.27-1.85.27-2.7,0-4.04-1.22-4.04-3.66v-6.22h-2.2v-2.47h2.2v-2.78l3.32-.92v3.7h3.92v2.47h-3.92v5.69c0,1.11.56,1.67,1.67,1.67.71,0,1.33-.23,1.86-.68l.51,2.2Z" style="fill:#2d3b51;"/><path d="M102.45,40.24c1.07.49,2,1.27,2.81,2.34l-2.3,2.25c-.42-.87-.98-1.52-1.67-1.95-.69-.43-1.57-.64-2.64-.64-.97,0-1.72.18-2.24.55-.52.36-.79.84-.79,1.44,0,.55.27.99.8,1.31.53.32,1.49.61,2.88.85,1.45.28,2.61.61,3.46,1.02.86.4,1.48.91,1.88,1.51s.59,1.36.59,2.26c0,.98-.28,1.84-.84,2.55-.56.72-1.33,1.27-2.32,1.66-.99.39-2.13.58-3.4.58-1.76,0-3.2-.25-4.32-.74-1.12-.49-2.03-1.24-2.72-2.24l1.99-2.37c.6.98,1.28,1.67,2.06,2.05s1.73.57,2.88.57c1.03,0,1.82-.16,2.36-.48.54-.32.81-.78.81-1.38,0-.44-.25-.8-.76-1.09-.51-.29-1.42-.57-2.73-.82-1.5-.31-2.7-.67-3.6-1.09-.9-.42-1.55-.94-1.95-1.55-.4-.61-.61-1.37-.61-2.28,0-.95.26-1.81.77-2.58.52-.77,1.27-1.37,2.26-1.8.99-.44,2.16-.65,3.5-.65,1.48,0,2.76.25,3.83.74Z" style="fill:#2d3b51;"/><path d="M113.54,50.37l-2.2,2.35v3h-3.32v-17.41h3.32v10.82l5.25-5.52h3.75l-4.55,4.75,4.84,7.36h-3.75l-3.34-5.35Z" style="fill:#2d3b51;"/><path d="M122.21,40.11c0-1.2.69-1.79,2.06-1.79s2.06.6,2.06,1.79-.69,1.77-2.06,1.77-2.06-.59-2.06-1.77ZM125.91,55.72h-3.32v-12.11h3.32v12.11Z" style="fill:#2d3b51;"/><path d="M132.69,51.87c0,.58.09.98.25,1.21s.48.34.93.34c.27,0,.51-.02.71-.06.2-.04.44-.11.71-.21l-.29,2.3c-.26.16-.6.29-1.02.38-.42.09-.83.13-1.23.13-1.18,0-2.04-.29-2.58-.86-.54-.57-.81-1.49-.81-2.75v-14.04h3.32v13.56Z" style="fill:#2d3b51;"/><path d="M140.41,51.87c0,.58.09.98.25,1.21s.48.34.93.34c.27,0,.51-.02.71-.06.2-.04.44-.11.71-.21l-.29,2.3c-.26.16-.6.29-1.02.38-.42.09-.83.13-1.23.13-1.18,0-2.04-.29-2.58-.86-.54-.57-.81-1.49-.81-2.75v-14.04h3.32v13.56Z" style="fill:#2d3b51;"/><path d="M156.08,50.93h-8.57c.34,1.71,1.35,2.57,3.03,2.57.69,0,1.27-.13,1.72-.39.45-.26.77-.63.94-1.11l2.71.99c-.39.97-1.04,1.71-1.95,2.22-.91.51-2.05.76-3.43.76-2,0-3.55-.55-4.65-1.66-1.1-1.11-1.65-2.65-1.65-4.64s.53-3.53,1.6-4.64c1.06-1.11,2.57-1.66,4.5-1.66s3.31.54,4.32,1.62c1.01,1.08,1.51,2.62,1.51,4.63,0,.45-.03.89-.1,1.31ZM148.39,46.52c-.48.47-.78,1.16-.91,2.08h5.64c-.13-.9-.44-1.59-.92-2.07-.48-.48-1.11-.71-1.89-.71s-1.45.23-1.93.7Z" style="fill:#2d3b51;"/><path d="M170.68,38.32v17.41h-2.95l-.15-2.25c-.35.76-.88,1.36-1.59,1.82-.7.45-1.5.68-2.41.68-1.61,0-2.88-.55-3.8-1.66-.92-1.11-1.38-2.64-1.38-4.61s.46-3.54,1.38-4.65,2.19-1.67,3.8-1.67c.87,0,1.63.2,2.28.59s1.15.94,1.5,1.63v-7.29h3.32ZM166.61,52.48c.5-.63.75-1.52.75-2.69v-.24c0-1.15-.25-2.04-.75-2.67-.5-.64-1.19-.96-2.06-.96s-1.58.32-2.08.97c-.5.65-.75,1.57-.75,2.79s.25,2.14.75,2.78c.5.65,1.19.97,2.08.97s1.56-.31,2.06-.94Z" style="fill:#2d3b51;"/><path d="M101.87,70.39h-6.15l-1.31,3.9h-3.41l5.84-15.98h4l5.83,15.98h-3.46l-1.33-3.9ZM101.04,67.92l-1.5-4.5-.73-2.42h-.05l-.68,2.37-1.55,4.55h4.5Z" style="fill:#2d3b51;"/><path d="M117.65,62.91c.89.65,1.49,1.51,1.82,2.59l-3.1,1.11c-.29-1.47-1.07-2.2-2.35-2.2-.95,0-1.68.33-2.19.98-.51.65-.76,1.61-.76,2.87s.26,2.21.77,2.85c.52.64,1.24.96,2.16.96,1.42,0,2.26-.72,2.52-2.15l3,.97c-.26,1.11-.86,2-1.8,2.66-.94.66-2.17.99-3.67.99-2,0-3.55-.55-4.65-1.66-1.1-1.11-1.65-2.65-1.65-4.64s.55-3.53,1.63-4.64c1.09-1.11,2.6-1.66,4.54-1.66,1.6,0,2.84.32,3.73.97Z" style="fill:#2d3b51;"/><path d="M131.43,62.91c.89.65,1.49,1.51,1.82,2.59l-3.1,1.11c-.29-1.47-1.07-2.2-2.35-2.2-.95,0-1.68.33-2.19.98-.51.65-.76,1.61-.76,2.87s.26,2.21.77,2.85c.52.64,1.24.96,2.16.96,1.42,0,2.26-.72,2.52-2.15l3,.97c-.26,1.11-.86,2-1.8,2.66-.94.66-2.17.99-3.67.99-2,0-3.55-.55-4.65-1.66-1.1-1.11-1.65-2.65-1.65-4.64s.55-3.53,1.63-4.64c1.09-1.11,2.6-1.66,4.54-1.66,1.6,0,2.84.32,3.73.97Z" style="fill:#2d3b51;"/><path d="M147.15,69.49h-8.57c.34,1.71,1.35,2.57,3.03,2.57.69,0,1.27-.13,1.72-.39.45-.26.77-.63.94-1.11l2.71.99c-.39.97-1.04,1.71-1.95,2.22-.91.51-2.05.76-3.43.76-2,0-3.55-.55-4.65-1.66-1.1-1.11-1.65-2.65-1.65-4.64s.53-3.53,1.6-4.64c1.06-1.11,2.57-1.66,4.5-1.66s3.31.54,4.32,1.62c1.01,1.08,1.51,2.62,1.51,4.63,0,.45-.03.89-.1,1.31ZM139.46,65.09c-.48.47-.78,1.16-.91,2.08h5.64c-.13-.9-.44-1.59-.92-2.07-.48-.48-1.11-.71-1.89-.71s-1.45.23-1.93.7Z" style="fill:#2d3b51;"/><path d="M149.11,72.2l1.94-1.99c.32.69.79,1.18,1.39,1.46.61.28,1.35.42,2.24.42.71,0,1.26-.1,1.65-.29.39-.19.58-.46.58-.8,0-.27-.18-.51-.55-.7-.36-.19-.99-.38-1.88-.56-1.86-.37-3.16-.86-3.91-1.46s-1.13-1.42-1.13-2.46c0-.68.21-1.32.63-1.91.42-.6,1.04-1.08,1.86-1.44.82-.36,1.81-.54,2.95-.54,1.36,0,2.45.2,3.29.62s1.54,1.06,2.11,1.95l-2.06,1.74c-.36-.65-.8-1.12-1.32-1.43-.52-.31-1.18-.46-1.97-.46-.66,0-1.19.11-1.59.34s-.59.5-.59.82c0,.34.19.62.58.85.39.23,1.07.44,2.06.63,1.76.36,3.01.82,3.74,1.39.73.57,1.1,1.37,1.1,2.38,0,1.13-.48,2.04-1.44,2.72-.96.69-2.32,1.03-4.08,1.03-2.7,0-4.57-.77-5.62-2.32Z" style="fill:#2d3b51;"/><path d="M161.96,72.2l1.94-1.99c.32.69.79,1.18,1.39,1.46.61.28,1.35.42,2.24.42.71,0,1.26-.1,1.65-.29.39-.19.58-.46.58-.8,0-.27-.18-.51-.55-.7-.36-.19-.99-.38-1.88-.56-1.86-.37-3.16-.86-3.91-1.46s-1.13-1.42-1.13-2.46c0-.68.21-1.32.63-1.91.42-.6,1.04-1.08,1.86-1.44.82-.36,1.81-.54,2.95-.54,1.36,0,2.45.2,3.29.62s1.54,1.06,2.11,1.95l-2.06,1.74c-.36-.65-.8-1.12-1.32-1.43-.52-.31-1.18-.46-1.97-.46-.66,0-1.19.11-1.59.34s-.59.5-.59.82c0,.34.19.62.58.85.39.23,1.07.44,2.06.63,1.76.36,3.01.82,3.74,1.39.73.57,1.1,1.37,1.1,2.38,0,1.13-.48,2.04-1.44,2.72-.96.69-2.32,1.03-4.08,1.03-2.7,0-4.57-.77-5.62-2.32Z" style="fill:#2d3b51;"/></svg>