<?xml version="1.0" encoding="UTF-8"?><svg id="a" xmlns="http://www.w3.org/2000/svg" width="212" height="95" viewBox="0 0 212 95"><path d="M71.82,72.2c.07.08.07.2,0,.28-1.87,2.04-4.89,3.7-7.91,3.7-6.51,0-9.22-5.63-9.22-9.33,0-6.37,4.94-10.42,10.64-10.42,3.7,0,5.96,1.4,5.96,3.42,0,1.03-1.01,1.55-1.81,1.55-2.44,0-3.14-2.48-5.3-2.48-2.02,0-3.56,1.75-3.56,6.21,0,4.69,1.87,7.7,5.15,7.7,1.3,0,2.5-.21,3.64-1.08.42-.32,1.61-.3,1.96.09l.43.37Z" style="fill:#2d3b51;"/><path d="M85.56,58.9c-2.53,0-4.08,2.42-4.08,7.43s1.54,7.39,4.08,7.39,4.08-2.37,4.08-7.39-1.55-7.43-4.08-7.43M85.56,76.18c-6.14,0-10.48-4.31-10.48-9.85s4.35-9.89,10.48-9.89,10.48,4.65,10.48,9.89-4.34,9.85-10.48,9.85" style="fill:#2d3b51;"/><path d="M108.76,73.41c2.62,0,2.97-4.56,3.07-8.83-1.87.14-5.76-.79-5.56,5.77.05,1.61.63,3.05,2.5,3.05M111.82,61.84c0-2.72-1.91-3.21-3.31-3.21-3.98,0-2.27,2.79-5.62,2.79-.94,0-1.58-.8-1.55-1.87.05-1.83,2.77-3.12,7.13-3.12,4.78,0,9.09,2.22,9.09,6.26,0,3.51-.03,7.52-.03,8.74,0,1.87.28,2.42.79,2.43.27,0,.42-.05.55-.11.51-.23.96-.17,1.28.21l.08.09c.29.29.07.46,0,.54-.59.63-2.39,1.6-4.09,1.6-2.15,0-3.35-1.63-3.96-2.75-.94,1.27-3,2.75-6,2.75-3.42,0-5.75-2.75-5.75-5.76,0-8.8,9-7.37,11.39-7.69v-.89Z" style="fill:#2d3b51;"/><path d="M138.18,61.42c0,.37-.59.61-1.01.61-.56,0-.7-.19-1.36-1.45-.79-1.5-2.99-1.94-4.06-1.94-1.01,0-1.85.58-1.85,1.75,0,3.66,9.46,4.22,9.46,10.12,0,3.52-3.82,5.67-8.23,5.67-2.06,0-6.83-.56-6.83-2.2,0-.75.4-3.7,1.67-3.7,1.54,0,1.82,3.7,5.52,3.7.97,0,2.17-.35,2.17-1.9,0-4.26-9.17-3.86-9.17-9.81,0-3.23,3.14-5.84,8.37-5.84,3.32,0,5.19,1.2,5.33,1.81v3.19Z" style="fill:#2d3b51;"/><path d="M153.1,59.41c-.66,0-1.19.54-1.19,1.19v9.42c0,2.72,1.22,3.65,2.58,3.65.59,0,1.05-.08,1.4-.19.54-.16,1.12.11,1.37.62.22.42.06.44-.07.54-1.68,1.06-3.68,1.54-5.5,1.54-3.28,0-5.54-1.97-5.54-5.15v-9.33c0-2.11-.56-2.3-2.11-2.3-.51,0-.79-.28-.79-.66,0-.61,2.01-1.92,2.95-2.77,1.41-1.36,4.53-3.78,5.19-3.78.37,0,.52.19.52.84v3.61c0,.07.06.13.13.13h3.95c.07,0,.13.06.13.13v2.34c0,.07-.06.13-.13.13h-2.89Z" style="fill:#2d3b51;"/><path d="M81.59,46.28c2.53,0,3.09-.4,3.09-3.96v-8.76c0-1.08-.23-1.27-1.12-1.83-.38-.23-.56-.33-.56-.61,0-.37.28-.52.8-.8,1.59-.98,2.86-1.78,3.47-1.78.23,0,.52.14.52.56v1.92c1.27-.84,3.19-2.2,6.23-2.2,2.77,0,6.42,1.03,6.42,6.51v6.98c0,3.56.56,3.96,2.76,3.96v1h-8.81v-1c2.2,0,2.76-.4,2.76-3.96v-6.19c0-3.79-1.64-5.36-4.87-5.36-1.92,0-3.56,1.45-4.31,2.34v9.21c0,3.56.56,3.96,2.86,3.96v1h-9.23v-1Z" style="fill:#2d3b51;"/><path d="M118.31,30.74s-.02.05-.05.05h-3.22c-1.92,0-2.58.47-2.58,3.37v9.04c0,2.06,1.26,2.86,3,2.86.9,0,1.7-.11,2.39-.23.46-.08.88.28.88.75,0,.02-.01.04-.03.05-1.3.47-2.61,1.02-4.7,1.02-3.89,0-4.83-2.44-4.83-4.69v-10.4c0-1.55-.09-1.69-.56-1.87-.38-.14-1.5-.19-1.5-.66,0-.33.42-.66.8-1.03,3.14-3.19,3.56-3.84,4.03-3.84.28,0,.52.14.52.75v3.23s.02.05.05.05h5.75s.05.02.05.05v1.49Z" style="fill:#2d3b51;"/><path d="M124.16,46.28c2.25,0,2.81-.4,2.81-3.96v-8.34c0-1.12-.23-1.59-1.12-2.01-.66-.33-.89-.38-.89-.66,0-.37.37-.51,2.15-1.31,2.06-.89,2.16-1.45,2.67-1.45.33,0,.47.19.47.51v1.55c0,.38.19.56.47.56.42,0,2.76-2.34,5.15-2.34,1.27,0,2.06.56,2.06,1.64,0,.84-.51,1.59-2.15,1.59-.61,0-1.73-.14-2.58-.14-1.69,0-2.95.84-2.95,3.37v7.68c0,2.91.52,3.21,2.9,3.31v1h-9v-1Z" style="fill:#2d3b51;"/><path d="M159,45.84c-.23-.26-.62-.29-.91-.11-.33.21-.69.33-1.16.33-.51,0-1.17-.28-1.17-1.36v-10.26c0-4.03-3.57-5.62-6.71-5.62h-.59c-2.62,0-5.79.98-5.79,2.67,0,.84.75,1.41,1.41,1.41,1.97,0,2.18-2.54,4.71-2.54,0,0,3.7-.21,3.7,3.61v.52s-1.96.02-4.32.25c-3.34.33-7.07,1.56-7.07,6.78,0,2.48,1.7,6.14,5.61,6.14,1.78,0,3.58-.75,5.78-2.76.09,1.73,1.45,2.76,2.91,2.76s3-.75,3.66-1.78l-.04-.04ZM152.47,43.28c-1.27.98-2.62,2.15-4.12,2.15-2.56,0-3.63-1.8-3.63-4.65,0-1.52,1.05-4.42,4.46-4.95.9-.14,3.29-.28,3.29-.09v7.53Z" style="fill:#2d3b51;"/><path d="M162.81,46.28c2.16,0,2.72-.4,2.72-3.96v-18.52c0-2.44-.19-2.67-1.83-3.47-.33-.19-.66-.28-.66-.7,0-.23.19-.47.61-.61.8-.28,4.17-1.64,4.64-1.64.33,0,.51.23.51.89v24.05c0,3.56.56,3.96,2.91,3.96v1h-8.9v-1Z" style="fill:#2d3b51;"/><path d="M75.99,35.73c.33,0,.94.02.94-.57,0-.54-.05-1.49-.33-2.13-.98-2.25-3.53-4.22-6.61-4.22-4.92,0-9.4,4.03-9.4,9.93,0,4.12,2.76,8.9,9.3,8.9,3.75,0,6.91-3.23,6.91-4.03,0-.14-.54-.28-1.04-.24-.37.04-1.7,2.39-4.66,2.39-4.36,0-6.89-3.66-6.89-7.82-.01-.96.1-1.53.29-2.23h11.47ZM69.53,30.47c2.39,0,4.41,1.36,4.41,4.04h-9.14c.59-1.79,2.29-4.04,4.73-4.04" style="fill:#2d3b51;"/><path d="M50.64,45.79c2.95,0,4.28-2.35,4.66-2.39.49-.05,1.04.09,1.04.23,0,.8-3.16,4.03-6.91,4.03h-.42c-3.66,0-8.65-2.7-8.65-9.35s5.3-9.49,9.93-9.49c2.62,0,5.32.98,5.32,2.67,0,.84-.75,1.27-1.41,1.27-1.97,0-2.32-2.34-4.85-2.34-2.86,0-5.37,3-5.37,7.36,0,5.29,3.47,8.01,6.65,8.01" style="fill:#2d3b51;"/></svg>