<?xml version="1.0" encoding="UTF-8"?><svg id="a" xmlns="http://www.w3.org/2000/svg" width="212" height="95" viewBox="0 0 212 95"><path d="M122.31,44.7c0,2.05-1.94,3.81-5.01,3.81s-4.72-1.36-5.34-2l2-1.62c.54.71,1.54,1.42,3.2,1.42s2.18-.82,2.18-1.31c0-.65-.62-.89-1.65-1.07l-1.38-.25c-.87-.15-3.87-.71-3.87-3.34,0-2.2,2.11-3.63,4.78-3.63.87,0,3.11.13,4.78,2.07l-1.89,1.76c-.6-1.18-1.74-1.69-3.03-1.69-.51,0-1.85.15-1.85,1.16,0,.74.67.96,2.27,1.25l1.8.33c1.69.3,2.98,1.3,2.98,3.1ZM154.1,32.46h-2.71v15.71h2.71v-15.71ZM176.76,48.17v-4.83c0-1.91.25-2.85,1.05-3.51.56-.47,1.11-.51,1.4-.51,1.65,0,1.96,1.38,1.96,2.6v6.25h2.71v-7.74c0-2.18-1.25-3.71-3.61-3.71-.45,0-2.51.13-3.51,1.65v-1.31h-2.71v11.12h2.71ZM110.2,37.05h-2.69v4.83c0,1.91-.25,2.85-1.05,3.51-.56.47-1.11.51-1.4.51-1.65,0-1.96-1.38-1.96-2.6v-6.25h-2.71v7.74c0,2.18,1.25,3.71,3.61,3.71.45,0,2.51-.13,3.51-1.65v1.31h2.71v-11.12h-.02ZM107.72,65.31l2.27,1.31c-.89,1.2-2.51,2.83-5.43,2.83-3.31,0-5.72-2.27-5.72-5.96,0-3.98,2.69-5.83,5.58-5.83,4.25,0,5.47,3.41,5.47,6.43h-8.23c.05.56.56,2.76,3.14,2.76,1.89,0,2.69-1.16,2.92-1.54ZM101.76,62.13h5.21c-.05-.55-.4-2.34-2.49-2.34-2.21,0-2.63,1.89-2.72,2.34ZM170.02,62.53l-1.8-.33c-1.6-.29-2.27-.51-2.27-1.25,0-1,1.34-1.16,1.85-1.16,1.29,0,2.42.51,3.03,1.69l1.89-1.76c-1.67-1.94-3.91-2.07-4.78-2.07-2.67,0-4.78,1.42-4.78,3.63,0,2.62,3,3.18,3.87,3.34l1.38.25c1.02.18,1.65.42,1.65,1.07,0,.49-.58,1.31-2.18,1.31s-2.67-.71-3.2-1.42l-2,1.62c.62.65,2.27,2,5.34,2s5.01-1.76,5.01-3.81c0-1.79-1.29-2.79-2.98-3.1ZM181.52,62.53l-1.8-.33c-1.6-.29-2.27-.51-2.27-1.25,0-1,1.34-1.16,1.85-1.16,1.29,0,2.42.51,3.03,1.69l1.89-1.76c-1.67-1.94-3.91-2.07-4.78-2.07-2.67,0-4.78,1.42-4.78,3.63,0,2.62,3,3.18,3.87,3.34l1.38.25c1.02.18,1.65.42,1.65,1.07,0,.49-.58,1.31-2.18,1.31s-2.67-.71-3.2-1.42l-2,1.62c.62.65,2.27,2,5.34,2s5.01-1.76,5.01-3.81c0-1.79-1.29-2.79-2.98-3.1ZM134.3,43.41c0-.65,0-1.2.2-1.82.65-2.05,2.78-2.05,3.34-2.05v-2.74h-.22c-.54,0-2.47.07-3.31,1.82v-1.58h-2.71v11.12h2.71v-4.76h0ZM145.95,59.57v-1.58h-2.71v11.12h2.71v-4.76c0-.65,0-1.2.2-1.82.65-2.05,2.78-2.05,3.34-2.05v-2.74h-.22c-.53,0-2.47.07-3.31,1.82ZM161.65,63.56c-.05,2.98-1.94,5.9-5.72,5.9s-5.66-2.92-5.72-5.9c.05-2.98,1.94-5.9,5.72-5.9s5.66,2.92,5.72,5.9ZM158.84,63.56c0-1.72-.92-3.41-2.91-3.41s-2.91,1.69-2.91,3.41.92,3.41,2.91,3.41,2.91-1.69,2.91-3.41ZM119.36,53.41h2.71v15.71h-2.71v-1.07c-.22.27-1.11,1.4-3.09,1.4-2.34,0-4.94-1.62-4.94-5.67s2.42-6.12,5.05-6.12c.91,0,2.25.33,2.98,1.25v-5.5ZM119.43,63.56c0-1.72-.85-3.41-2.66-3.41s-2.66,1.69-2.66,3.41.85,3.41,2.66,3.41,2.66-1.69,2.66-3.41ZM129.91,48.17v-2.25c-.33.09-.74.13-1.11.13-.11,0-.69,0-1-.33-.25-.27-.27-.76-.27-1.18v-5.61h2.38v-1.89h-2.38v-3.96h-2.71v3.96h-1.62v1.89h1.62v6.63c0,1.82.76,2.94,3.14,2.94.91,0,1.61-.24,1.96-.33ZM146.04,47.32c-.74.58-1.91,1.19-3.27,1.19-2.54,0-4.05-1.59-4.05-3.46,0-2.42,1.85-3.38,3.96-3.76,1.67-.31,2.71-.58,3.43-.82,0-.85-.25-1.67-1.91-1.67-2.02,0-2.25,1.09-2.25,1.67l-2.71-.15c.05-.74.2-3.6,4.87-3.6,3.27,0,4.67,1.22,4.67,3.18v6.5c0,.84.05,1.09.48,1.79h-3.15l-.07-.85ZM146.11,44.14v-1.49c-.45.22-1.09.47-2.11.62-1.22.18-2.45.42-2.45,1.54,0,.74.49,1.36,1.82,1.36,1.22,0,2.74-.63,2.74-2.03ZM165.54,48.51c-2.54,0-4.05-1.59-4.05-3.46,0-2.42,1.85-3.38,3.96-3.76,1.67-.31,2.71-.58,3.43-.82,0-.85-.25-1.67-1.91-1.67-2.02,0-2.25,1.09-2.25,1.67l-2.71-.15c.05-.74.2-3.6,4.87-3.6,3.27,0,4.67,1.22,4.67,3.18v6.5c0,.84.05,1.09.48,1.79h-3.15l-.07-.85c-.74.58-1.91,1.19-3.27,1.19ZM166.14,46.17c1.22,0,2.74-.62,2.74-2.02v-1.49c-.45.22-1.09.47-2.11.62-1.22.18-2.45.42-2.45,1.54,0,.73.49,1.35,1.82,1.35ZM159.54,32.46h-2.71v2.62h2.71v-2.62ZM159.54,37.05h-2.71v11.12h2.71v-11.12ZM93.48,32.46l5.32,15.71h-3.16l-.91-3.07h-5.87l-.91,3.07h-3.16l5.32-15.71h3.38ZM93.94,42.52l-2.16-7.16-2.16,7.16h4.32ZM94.97,62.71l3.49,6.41h-3.36l-3.09-5.83h-2.65v5.83h-2.91v-15.71h6.43c3.09,0,5.18,2.02,5.18,4.98,0,1.51-.6,3.49-3.09,4.31ZM95.08,58.42c0-1.66-1.16-2.38-3.05-2.38h-2.67v4.81h2.27c2.11,0,3.45-.61,3.45-2.42ZM135.24,66.69c-3.49,0-4.36-3.42-4.36-5.54,0-3.46,1.82-5.41,4.38-5.41,1.74,0,3.18,1.19,3.36,2.89l2.91-.75c-.67-2.23-2.34-4.81-6.39-4.81-5.47,0-7.46,4.57-7.46,8.03,0,5.83,3.63,8.34,7.34,8.34,4.52,0,6.27-3.42,6.79-4.75l-2.78-1.15c-.46,1.59-1.77,3.13-3.8,3.13Z" style="fill:#2d3b51;"/><polygon points="74.66 42.94 58.96 42.94 58.96 27.23 43.25 27.23 43.25 42.94 27.54 42.94 27.54 58.64 43.25 58.64 43.25 74.35 58.96 74.35 58.96 58.64 74.66 58.64 74.66 42.94" style="fill:#2d3b51;"/></svg>