<?xml version="1.0" encoding="UTF-8"?>
<svg id="Layer_1" data-name="Layer 1" xmlns="http://www.w3.org/2000/svg" viewBox="0 0 203.5 78.09">
  <defs>
    <style>
      .cls-1 {
        fill: #fff;
        stroke-width: 0px;
      }
    </style>
  </defs>
  <g>
    <g>
      <path class="cls-1" d="m6.92,50.49l4.04,10.96h-2.92l-.54-1.75H3.46l-.54,1.75H0l4.07-10.96h2.86Zm-1.47,2.61c-.14.56-.29,1.13-.45,1.69-.23.82-.65,2.11-.9,2.93h2.78l-1.43-4.63Z"/>
      <path class="cls-1" d="m12.73,58.72c.65.64,1.46,1.12,2.36,1.12.57,0,1.44-.19,1.44-.79,0-.28-.17-.39-.31-.47-.36-.19-.92-.23-1.38-.31-.36-.06-.73-.14-1.09-.25-.5-.14-.99-.34-1.35-.7-.36-.36-.61-.92-.61-1.52,0-1.34,1.15-2.72,3.42-2.72,1.91,0,3.06.82,3.62,1.21l-1.47,1.37c-.76-.59-1.47-.81-2.03-.81-.93,0-1.15.37-1.15.61,0,.47.51.56,1.29.7,1.63.29,3.52.73,3.52,2.65s-1.93,2.84-3.83,2.84c-2.25,0-3.42-1.09-3.93-1.57l1.51-1.37Z"/>
      <path class="cls-1" d="m21.07,58.72c.65.64,1.46,1.12,2.36,1.12.57,0,1.44-.19,1.44-.79,0-.28-.17-.39-.31-.47-.36-.19-.92-.23-1.38-.31-.36-.06-.73-.14-1.09-.25-.5-.14-.99-.34-1.35-.7-.36-.36-.61-.92-.61-1.52,0-1.34,1.15-2.72,3.42-2.72,1.91,0,3.06.82,3.62,1.21l-1.47,1.37c-.76-.59-1.47-.81-2.03-.81-.93,0-1.15.37-1.15.61,0,.47.51.56,1.29.7,1.63.29,3.52.73,3.52,2.65s-1.93,2.84-3.83,2.84c-2.25,0-3.42-1.09-3.93-1.57l1.51-1.37Z"/>
      <path class="cls-1" d="m37.14,57.39c0,2.05-1.18,4.3-4.35,4.3-2.28,0-4.36-1.3-4.36-4.3,0-2.49,1.57-4.46,4.67-4.29,3.31.19,4.04,2.81,4.04,4.29m-5.9-1.6c-.29.47-.4,1.02-.4,1.58,0,1.29.62,2.42,1.96,2.42s1.93-1.04,1.93-2.31c0-.9-.22-1.6-.67-2.03-.5-.46-1.06-.48-1.4-.45-.68.05-1.09.28-1.41.79"/>
      <path class="cls-1" d="m46.02,59.54c-.29.47-.62.98-1.27,1.44-.62.44-1.41.73-2.33.73-1.55,0-4.02-.93-4.02-4.24,0-2.36,1.37-4.35,4.07-4.35.9,0,2.44.25,3.46,1.94l-1.77,1.01c-.14-.29-.29-.57-.68-.85-.23-.15-.53-.28-.9-.28-1.29,0-1.72,1.48-1.72,2.45,0,1.07.53,2.42,1.8,2.42.12,0,.71,0,1.21-.56.2-.23.28-.42.36-.65l1.8.93Z"/>
      <path class="cls-1" d="m46.98,50.48h2.36v1.85h-2.36v-1.85Zm0,2.86h2.36v8.12h-2.36v-8.12Z"/>
      <path class="cls-1" d="m51.7,55.65c.05-.56.12-1.23.85-1.8.75-.59,1.71-.71,2.66-.71.99,0,3.4.23,3.4,2.33v4.72c0,.87.05.99.23,1.27h-2.34v-.74c-.61.45-1.29.96-2.48.96-1.86,0-2.66-1.34-2.66-2.47,0-1.3,1.04-2.05,1.71-2.33.65-.28,2.19-.56,3.2-.75v-.44c-.03-.37-.06-.99-.92-.99-1.06,0-1.2.65-1.26.95h-2.39Zm3.03,2.44c-.4.16-1.02.39-1.02,1.01,0,.39.34.82.9.82.29,0,.57-.11.82-.26.79-.5.82-1.24.84-2.08l-1.54.51Z"/>
      <path class="cls-1" d="m61.32,51.01h2.37v2.53h1.57v1.46h-1.58v3.65c-.02.5-.02.92.62.92l.85-.03v1.86c-.51.08-.82.12-1.26.12-.82,0-1.72-.05-2.24-.79-.33-.48-.34-1.06-.34-1.83v-3.91h-1.18v-1.46h1.18v-2.51Z"/>
      <path class="cls-1" d="m66.8,50.48h2.36v1.85h-2.36v-1.85Zm0,2.86h2.36v8.12h-2.36v-8.12Z"/>
      <path class="cls-1" d="m79.71,57.39c0,2.05-1.18,4.3-4.35,4.3-2.28,0-4.36-1.3-4.36-4.3,0-2.49,1.57-4.46,4.67-4.29,3.31.19,4.04,2.81,4.04,4.29m-5.9-1.6c-.29.47-.4,1.02-.4,1.58,0,1.29.62,2.42,1.96,2.42s1.93-1.04,1.93-2.31c0-.9-.22-1.6-.67-2.03-.5-.46-1.06-.48-1.4-.45-.68.05-1.09.28-1.41.79"/>
      <path class="cls-1" d="m83.94,54.08c.23-.25.39-.43.81-.64.37-.16.9-.29,1.47-.29.48,0,1.02.09,1.44.33.85.45,1.07,1.18,1.07,2.44v5.54h-2.38v-4.56c0-.73-.02-.99-.11-1.21-.19-.43-.61-.62-1.07-.62-1.26,0-1.26,1.01-1.26,2.02v4.38h-2.39v-8.09h2.41v.71Z"/>
      <path class="cls-1" d="m98.75,61.67c-2.53,0-3.6-1.89-3.6-3.82,0-1.63.81-3.94,3.65-3.94,2.42,0,3.54,1.88,3.52,3.88-.02,2.22-1.34,3.88-3.57,3.88m2.14-4.91c-.28-1.44-1.23-1.86-2.07-1.86-1.66,0-2.33,1.29-2.33,2.97,0,1.54.64,2.81,2.24,2.81,2.07,0,2.22-2.14,2.24-2.89.02-.47-.03-.81-.08-1.02"/>
      <path class="cls-1" d="m105.79,54.14h1.38v1.02h-1.38v6.29h-1.2v-6.29h-1.23v-1.02h1.23l.02-1.49c.02-.62.05-2.08,1.89-2.08.36,0,.67.06.9.09v.96c-.23-.03-.51-.06-.68-.06-.92,0-.93.73-.93,1.3v1.27Z"/>
      <path class="cls-1" d="m122.68,58.95c-.4.64-.79,1.26-1.66,1.86-.47.33-1.54.96-3.06.96-2.9,0-5.25-2.11-5.25-5.82,0-3.24,2.2-5.81,5.31-5.81,1.26,0,2.38.44,3.2,1.09.76.61,1.12,1.21,1.43,1.76l-2.17,1.09c-.15-.36-.34-.73-.82-1.13-.53-.42-1.06-.54-1.51-.54-1.77,0-2.7,1.64-2.7,3.48,0,2.41,1.23,3.6,2.7,3.6s2-.99,2.37-1.63l2.16,1.1Z"/>
      <path class="cls-1" d="m132.24,57.39c0,2.05-1.18,4.3-4.35,4.3-2.28,0-4.36-1.3-4.36-4.3,0-2.49,1.57-4.46,4.67-4.29,3.31.19,4.04,2.81,4.04,4.29m-5.9-1.6c-.29.47-.4,1.02-.4,1.58,0,1.29.62,2.42,1.96,2.42s1.93-1.04,1.93-2.31c0-.9-.22-1.6-.67-2.03-.5-.46-1.06-.48-1.4-.45-.68.05-1.09.28-1.41.79"/>
      <path class="cls-1" d="m136.48,54.08c.23-.25.39-.43.81-.64.37-.16.9-.29,1.47-.29.48,0,1.02.09,1.44.33.85.45,1.07,1.18,1.07,2.44v5.54h-2.37v-4.56c0-.73-.02-.99-.11-1.21-.19-.43-.61-.62-1.07-.62-1.26,0-1.26,1.01-1.26,2.02v4.38h-2.39v-8.09h2.41v.71Z"/>
      <path class="cls-1" d="m144.09,58.72c.65.64,1.46,1.12,2.36,1.12.58,0,1.44-.19,1.44-.79,0-.28-.17-.39-.31-.47-.36-.19-.92-.23-1.38-.31-.36-.06-.73-.14-1.09-.25-.5-.14-.99-.34-1.35-.7-.36-.36-.61-.92-.61-1.52,0-1.34,1.15-2.72,3.42-2.72,1.91,0,3.06.82,3.62,1.21l-1.47,1.37c-.76-.59-1.48-.81-2.03-.81-.93,0-1.15.37-1.15.61,0,.47.51.56,1.29.7,1.63.29,3.52.73,3.52,2.65s-1.93,2.84-3.84,2.84c-2.25,0-3.42-1.09-3.93-1.57l1.51-1.37Z"/>
      <path class="cls-1" d="m156.85,53.35h2.39v8.1h-2.39v-.78c-.23.26-.37.42-.81.64-.48.25-1.01.37-1.54.37s-1.51-.08-2.07-.85c-.42-.59-.5-1.07-.5-2.39v-5.09h2.41v5.03c0,.36,0,.71.19.96.14.19.46.4.95.4.14,0,.47,0,.82-.2.51-.31.53-.71.54-1.15v-5.05Z"/>
      <rect class="cls-1" x="161.63" y="50.49" width="2.39" height="10.96"/>
      <path class="cls-1" d="m166.71,51.01h2.37v2.53h1.57v1.46h-1.58v3.65c-.02.5-.02.92.62.92l.85-.03v1.86c-.51.08-.82.12-1.26.12-.82,0-1.72-.05-2.24-.79-.33-.48-.34-1.06-.34-1.83v-3.91h-1.18v-1.46h1.18v-2.51Z"/>
      <path class="cls-1" d="m172.13,55.65c.05-.56.12-1.23.85-1.8.75-.59,1.71-.71,2.65-.71.99,0,3.4.23,3.4,2.33v4.72c0,.87.05.99.23,1.27h-2.34v-.74c-.61.45-1.29.96-2.48.96-1.86,0-2.65-1.34-2.65-2.47,0-1.3,1.04-2.05,1.71-2.33.65-.28,2.19-.56,3.2-.75v-.44c-.03-.37-.06-.99-.92-.99-1.06,0-1.19.65-1.26.95h-2.39Zm3.03,2.44c-.4.16-1.02.39-1.02,1.01,0,.39.34.82.9.82.29,0,.58-.11.82-.26.79-.5.82-1.24.84-2.08l-1.54.51Z"/>
      <path class="cls-1" d="m183.89,54.08c.23-.25.39-.43.81-.64.37-.16.9-.29,1.48-.29.48,0,1.02.09,1.44.33.85.45,1.07,1.18,1.07,2.44v5.54h-2.38v-4.56c0-.73-.02-.99-.11-1.21-.19-.43-.61-.62-1.07-.62-1.26,0-1.26,1.01-1.26,2.02v4.38h-2.39v-8.09h2.41v.71Z"/>
      <path class="cls-1" d="m191.38,51.01h2.37v2.53h1.57v1.46h-1.58v3.65c-.02.5-.02.92.62.92l.85-.03v1.86c-.51.08-.82.12-1.26.12-.82,0-1.72-.05-2.24-.79-.33-.48-.34-1.06-.34-1.83v-3.91h-1.18v-1.46h1.18v-2.51Z"/>
      <path class="cls-1" d="m197.24,58.72c.65.64,1.46,1.12,2.36,1.12.58,0,1.44-.19,1.44-.79,0-.28-.17-.39-.31-.47-.36-.19-.92-.23-1.38-.31-.36-.06-.73-.14-1.09-.25-.5-.14-.99-.34-1.35-.7-.36-.36-.61-.92-.61-1.52,0-1.34,1.15-2.72,3.42-2.72,1.91,0,3.06.82,3.62,1.21l-1.47,1.37c-.76-.59-1.48-.81-2.03-.81-.93,0-1.15.37-1.15.61,0,.47.51.56,1.29.7,1.63.29,3.52.73,3.52,2.65s-1.93,2.84-3.83,2.84c-2.25,0-3.42-1.09-3.93-1.57l1.51-1.37Z"/>
      <path class="cls-1" d="m20.6,68.26h-1.2v-1.43h1.2v1.43Zm0,9.53h-1.2v-7.31h1.2v7.31Z"/>
      <path class="cls-1" d="m24.06,70.48v1.07c.68-1.2,1.85-1.3,2.28-1.3.93,0,2.05.47,2.41,1.68.12.44.12.88.12,1.51v4.36h-1.23v-4.16c0-.74,0-.96-.08-1.21-.22-.7-.9-1.01-1.57-1.01-.54,0-1.01.17-1.4.56-.54.54-.54,1.1-.54,1.65v4.18h-1.24v-7.31h1.24Z"/>
      <path class="cls-1" d="m41.51,66.84l4.04,10.96h-2.92l-.54-1.75h-4.04l-.54,1.75h-2.92l4.07-10.96h2.86Zm-1.47,2.61c-.14.56-.29,1.13-.45,1.69-.23.82-.65,2.11-.9,2.93h2.78l-1.43-4.63Z"/>
      <path class="cls-1" d="m53.67,75.89c-.29.47-.62.98-1.27,1.44-.62.44-1.41.73-2.33.73-1.55,0-4.02-.93-4.02-4.24,0-2.36,1.37-4.35,4.07-4.35.9,0,2.44.25,3.46,1.94l-1.77,1.01c-.14-.3-.3-.57-.68-.85-.23-.15-.53-.28-.9-.28-1.29,0-1.72,1.48-1.72,2.45,0,1.07.53,2.42,1.8,2.42.12,0,.71,0,1.21-.56.2-.23.28-.42.36-.65l1.8.93Z"/>
      <path class="cls-1" d="m61.68,75.89c-.29.47-.62.98-1.27,1.44-.62.44-1.41.73-2.33.73-1.55,0-4.02-.93-4.02-4.24,0-2.36,1.37-4.35,4.07-4.35.9,0,2.44.25,3.46,1.94l-1.77,1.01c-.14-.3-.29-.57-.68-.85-.23-.15-.53-.28-.9-.28-1.29,0-1.72,1.48-1.72,2.45,0,1.07.53,2.42,1.8,2.42.12,0,.71,0,1.21-.56.2-.23.28-.42.36-.65l1.8.93Z"/>
      <path class="cls-1" d="m70.19,75.73c-.28.42-.56.82-.98,1.21-.7.65-1.75,1.15-3.06,1.15-2.41,0-4.1-1.54-4.1-4.19,0-1.96.96-4.47,4.16-4.47.48,0,1.88.05,2.92,1.16,1.05,1.13,1.12,2.72,1.15,3.63h-5.79c-.02,1.01.56,2.02,1.85,2.02s1.75-.85,2.05-1.43l1.8.92Zm-2.37-3c-.05-.34-.11-.79-.45-1.15-.29-.29-.74-.45-1.16-.45-.57,0-.98.28-1.21.53-.33.36-.4.73-.48,1.07h3.31Z"/>
      <path class="cls-1" d="m72.33,75.06c.65.64,1.46,1.12,2.36,1.12.57,0,1.44-.19,1.44-.79,0-.28-.17-.39-.31-.46-.36-.19-.92-.23-1.38-.31-.36-.06-.73-.14-1.09-.25-.5-.14-.99-.34-1.35-.7-.36-.36-.61-.92-.61-1.52,0-1.34,1.15-2.72,3.42-2.72,1.91,0,3.06.82,3.62,1.21l-1.47,1.37c-.76-.59-1.48-.81-2.03-.81-.93,0-1.15.37-1.15.61,0,.47.51.56,1.29.7,1.63.29,3.52.73,3.52,2.65s-1.93,2.84-3.83,2.84c-2.25,0-3.42-1.09-3.93-1.57l1.51-1.37Z"/>
      <path class="cls-1" d="m80.67,75.06c.65.64,1.46,1.12,2.36,1.12.57,0,1.44-.19,1.44-.79,0-.28-.17-.39-.31-.46-.36-.19-.92-.23-1.38-.31-.36-.06-.73-.14-1.09-.25-.5-.14-.99-.34-1.35-.7-.36-.36-.61-.92-.61-1.52,0-1.34,1.15-2.72,3.42-2.72,1.91,0,3.06.82,3.62,1.21l-1.47,1.37c-.76-.59-1.47-.81-2.03-.81-.93,0-1.15.37-1.15.61,0,.47.51.56,1.29.7,1.63.29,3.52.73,3.52,2.65s-1.93,2.84-3.83,2.84c-2.25,0-3.42-1.09-3.93-1.57l1.51-1.37Z"/>
      <path class="cls-1" d="m98.89,66.84l4.04,10.96h-2.92l-.54-1.75h-4.04l-.54,1.75h-2.92l4.07-10.96h2.86Zm-1.47,2.61c-.14.56-.29,1.13-.45,1.69-.23.82-.65,2.11-.9,2.93h2.78l-1.43-4.63Z"/>
      <path class="cls-1" d="m108.82,69.69h2.39v8.1h-2.39v-.78c-.23.26-.37.42-.81.64-.48.25-1.01.37-1.54.37s-1.51-.08-2.07-.85c-.42-.59-.5-1.07-.5-2.39v-5.09h2.41v5.03c0,.36,0,.71.19.96.14.19.47.4.95.4.14,0,.47,0,.82-.2.51-.31.53-.71.54-1.15v-5.05Z"/>
      <path class="cls-1" d="m114.02,75.06c.65.64,1.46,1.12,2.36,1.12.57,0,1.44-.19,1.44-.79,0-.28-.17-.39-.31-.46-.36-.19-.92-.23-1.38-.31-.36-.06-.73-.14-1.09-.25-.5-.14-.99-.34-1.35-.7-.36-.36-.61-.92-.61-1.52,0-1.34,1.15-2.72,3.42-2.72,1.91,0,3.06.82,3.62,1.21l-1.48,1.37c-.76-.59-1.47-.81-2.03-.81-.93,0-1.15.37-1.15.61,0,.47.51.56,1.29.7,1.63.29,3.52.73,3.52,2.65s-1.93,2.84-3.83,2.84c-2.25,0-3.42-1.09-3.93-1.57l1.51-1.37Z"/>
      <path class="cls-1" d="m122.23,67.35h2.37v2.53h1.57v1.46h-1.58v3.65c-.02.5-.02.92.62.92l.85-.03v1.86c-.51.08-.82.12-1.26.12-.82,0-1.72-.05-2.24-.79-.33-.48-.34-1.06-.34-1.83v-3.91h-1.18v-1.46h1.18v-2.51Z"/>
      <path class="cls-1" d="m129.98,70.53c.53-.45,1.1-.81,2.34-.93v2.11l-.79.12c-1.15.2-1.49.37-1.49,1.4v4.56h-2.39v-8.12h2.33v.85Z"/>
      <path class="cls-1" d="m133.72,71.99c.05-.56.12-1.23.85-1.8.75-.59,1.71-.71,2.66-.71s3.4.23,3.4,2.33v4.72c0,.87.05.99.23,1.27h-2.34v-.75c-.61.45-1.29.96-2.49.96-1.86,0-2.66-1.34-2.66-2.47,0-1.3,1.04-2.05,1.71-2.33.65-.28,2.19-.56,3.2-.74v-.44c-.03-.37-.06-.99-.92-.99-1.06,0-1.2.65-1.26.95h-2.39Zm3.03,2.44c-.4.15-1.02.39-1.02,1.01,0,.39.34.82.9.82.29,0,.57-.11.82-.26.79-.5.82-1.24.84-2.08l-1.54.51Z"/>
      <rect class="cls-1" x="143.05" y="66.84" width="2.39" height="10.96"/>
      <path class="cls-1" d="m147.86,66.82h2.36v1.85h-2.36v-1.85Zm0,2.86h2.36v8.12h-2.36v-8.12Z"/>
      <path class="cls-1" d="m152.58,71.99c.05-.56.12-1.23.85-1.8.75-.59,1.71-.71,2.66-.71s3.4.23,3.4,2.33v4.72c0,.87.05.99.23,1.27h-2.34v-.75c-.61.45-1.29.96-2.49.96-1.86,0-2.65-1.34-2.65-2.47,0-1.3,1.04-2.05,1.71-2.33.65-.28,2.19-.56,3.2-.74v-.44c-.03-.37-.06-.99-.92-.99-1.05,0-1.2.65-1.26.95h-2.39Zm3.03,2.44c-.4.15-1.02.39-1.02,1.01,0,.39.34.82.9.82.29,0,.57-.11.82-.26.79-.5.82-1.24.84-2.08l-1.54.51Z"/>
      <rect class="cls-1" x="166.35" y="66.84" width="1.47" height="10.96"/>
      <path class="cls-1" d="m171.36,70.48v1.07c.68-1.2,1.85-1.3,2.28-1.3.93,0,2.05.47,2.41,1.68.12.44.12.88.12,1.51v4.36h-1.23v-4.16c0-.74,0-.96-.08-1.21-.22-.7-.9-1.01-1.57-1.01-.54,0-1.01.17-1.4.56-.54.54-.54,1.1-.54,1.65v4.18h-1.24v-7.31h1.24Z"/>
      <path class="cls-1" d="m185.12,75.16c-.05.29-.12.7-.42,1.24-.61,1.12-1.65,1.61-3,1.61-2.68,0-3.65-2-3.65-3.8,0-2.08,1.1-3.96,3.54-3.96,1.18,0,2.9.42,3.38,2.45l-1.37.12c-.05-.3-.31-1.68-1.97-1.68-2.13,0-2.22,2.31-2.22,2.96,0,.79.16,1.47.48,1.97.42.67,1.06.98,1.82.98,1.78,0,1.99-1.46,2.06-2.03l1.34.12Z"/>
    </g>
    <g>
      <path class="cls-1" d="m87.51,27.75c-2.35,5.54-7.84,9.43-14.24,9.43-8.54,0-15.45-6.92-15.45-15.45s6.92-15.45,15.45-15.45c6.4,0,11.89,3.89,14.24,9.43h6.5C91.4,6.71,83.11.13,73.27.13c-11.92,0-21.59,9.67-21.59,21.59s9.67,21.59,21.59,21.59c9.83,0,18.12-6.57,20.73-15.57h-6.5Z"/>
      <polygon class="cls-1" points="120.79 0 95.47 43.09 103.33 43.09 120.79 13.38 138.25 43.09 146.11 43.09 120.79 0"/>
      <rect class="cls-1" x="117.6" y="26.82" width="7.52" height="7.52"/>
      <polygon class="cls-1" points="26.58 0 1.26 43.09 9.12 43.09 26.58 13.38 44.04 43.09 51.9 43.09 26.58 0"/>
      <rect class="cls-1" x="22.82" y="26.82" width="7.52" height="7.52"/>
      <polygon class="cls-1" points="177.27 0 151.96 43.09 159.82 43.09 177.27 13.38 194.73 43.09 202.59 43.09 177.27 0"/>
    </g>
  </g>
  <rect class="cls-1" x="173.52" y="26.82" width="7.52" height="7.52"/>
</svg>