<?xml version="1.0" encoding="UTF-8"?><svg id="a" xmlns="http://www.w3.org/2000/svg" width="212" height="95" viewBox="0 0 212 95"><path d="M34.36,34.92h-7.39v-2.89h17.92v2.84h-7.34v21.81h-3.19v-21.77Z" style="fill:#2d3b51;"/><path d="M52.51,32.04h14.51v2.84h-11.32v7.74h10.53v2.84h-10.53v8.39h11.37v2.84h-14.56v-24.65Z" style="fill:#2d3b51;"/><path d="M145.05,49.61c0,4.11-2.54,7.48-8.92,7.48s-8.92-3.37-8.92-7.48v-10.45c0-4.11,2.54-7.48,8.92-7.48s8.92,3.37,8.92,7.48v10.45ZM130.36,49.52c0,3.02,1.84,4.76,5.73,4.76s5.73-1.7,5.73-4.76v-10.27c0-3.06-1.84-4.72-5.73-4.72s-5.73,1.7-5.73,4.72v10.27Z" style="fill:#2d3b51;"/><path d="M156.28,56.74h-3.19v-24.7h3.19v24.7Z" style="fill:#2d3b51;"/><path d="M88.83,47.43c2.84-.83,3.93-2.8,3.93-5.73v-3.54c0-3.76-1.84-6.08-7.17-6.08h-9.4v24.65h3.19v-21.81h6.12c3.02,0,4.07.83,4.07,3.28v3.54c0,2.4-1.05,3.28-4.07,3.28h-1.97v2.8h1.92l6.16,8.92h3.67l-6.47-9.31Z" style="fill:#2d3b51;"/><path d="M178.49,47.43c2.84-.83,3.93-2.8,3.93-5.73v-3.54c0-3.76-1.84-6.08-7.17-6.08h-9.4v24.65h3.19v-21.81h6.12c3.02,0,4.07.83,4.07,3.28v3.54c0,2.4-1.05,3.28-4.07,3.28h-2.01v2.8h1.92l6.16,8.92h3.67l-6.43-9.31Z" style="fill:#2d3b51;"/><path d="M115.23,47.43c2.84-.83,3.93-2.8,3.93-5.73v-3.54c0-3.76-1.84-6.08-7.17-6.08h-9.4v24.65h3.19v-21.81h6.12c3.02,0,4.07.83,4.07,3.28v3.54c0,2.4-1.05,3.28-4.07,3.28h-2.01v2.8h1.92l6.16,8.92h3.67l-6.43-9.31Z" style="fill:#2d3b51;"/></svg>