<?xml version="1.0" encoding="UTF-8"?><svg id="a" xmlns="http://www.w3.org/2000/svg" width="212" height="95" viewBox="0 0 212 95"><path d="M80.09,16.93c.5-.28,1.39-.22,1.97-.08l-.02,2.81c-.42-.12-.95-.36-1.42-.75-.53-.45-.8-.95-.8-1.52,0-.27.09-.39.26-.47M84.21,16.8c1.04-.4,2.28-.39,3-.09l.02,5.79c-.88-.23-2.46-1.21-3.02-2.1v-3.6ZM89.39,16.71c1.82-.94,4.13-.84,5.27-.09v10.37c-.19-.01-.52-.06-.97-.25-1.69-.67-3.63-2.31-4.3-3.62v-6.42ZM96.81,16.65c2.74-1.74,6.62-1.8,8.49-.12v17.53c-.1.04-.27.07-.57.04-2.3-.21-6.71-3.68-7.94-6.7l.02-10.76ZM107.43,16.73c3.03-1.52,6.33-1.9,8.92-.99,2.7.95,4.8,3.23,6.24,6.77,2.29,5.64,4.74,8.75,8.36,10.53,0,.75.01,1.88.01,1.89,0,.15-.09.23-.18.27-1.28.07-2.28,1.08-2.31,2.39,0,.22-.14.29-.25.3-.57-.11-1.16-.03-1.66.26-.57.31-.98.84-1.16,1.48-.02.07-.06.17-.15.21-.05.04-.11.04-.18.04-1.15-.58-2.51-.17-3.17.96-.12.2-.26.19-.37.15-.97-.84-2.39-.79-3.31.13-.05.05-.13.11-.22.11-.05,0-.11-.03-.15-.06-.74-1.06-2.09-1.37-3.23-.69-.06.03-.15.08-.24.05-.06-.02-.11-.05-.13-.11-.46-1.21-1.69-1.83-2.97-1.47-.06.02-.16.03-.24-.01-.05-.02-.08-.07-.11-.12-.14-1.3-1.17-2.21-2.49-2.16-.1,0-.17-.02-.23-.07-.05-.04-.09-.14-.09-.24v-.1s-.03-.11-.03-.11c-.03-.18-.07-.39-.1-.58-.06-.48-.15-1.12-.57-1.6v-17.22ZM81.03,21.57c.35.14.99.32,1.63.32,1.1,1.4,3.23,2.61,4.63,2.78.19.02.38.02.54,0,1.4,2.09,4.4,4.21,6.52,4.43.34.03.63.01.88-.03,1.84,3.34,6.29,6.89,9.3,7.18.57.05,1.03-.02,1.42-.14.02.15.04.29.08.44.05.63.31,1.19.75,1.6.47.44,1.09.67,1.75.64.21,0,.31.08.32.29v.13s.04.13.04.13c.18.64.6,1.16,1.16,1.47.56.31,1.21.38,1.86.19.2-.07.32.01.38.2l.03.13.07.13c.34.56.87.97,1.48,1.13.62.16,1.28.06,1.86-.29.18-.1.31-.06.42.11l.07.11.09.1c.48.47,1.09.73,1.72.73s1.25-.26,1.73-.73c.14-.15.3-.15.44,0l.09.09.12.07c1.18.7,2.66.31,3.35-.87.11-.18.26-.22.43-.12l.13.07.13.05c.64.17,1.31.1,1.87-.21.57-.32.98-.84,1.16-1.49.02-.07.07-.17.15-.21.08-.05.18-.02.24-.02l.13.04h.14c1.38.02,2.47-1.02,2.5-2.39.01-.21.12-.32.32-.31h.14l.13-.03c1.12-.26,1.9-1.24,1.89-2.37v-2.57s-.01-.69-.01-.69l-.64-.29c-3.46-1.5-5.67-4.21-7.88-9.66-1.68-4.15-4.21-6.82-7.51-7.99-4.27-1.51-8.41,0-10.52,1.06-2.63-2.16-7.29-2.18-10.78,0-1.93-1.21-5.05-1.2-7.46.07-1.4-.69-3.51-.68-5.2.09-1.05-.4-2.73-.55-3.92.03-.97.47-1.5,1.33-1.5,2.42,0,2.16,1.72,3.57,3.34,4.17" style="fill:#2d3b51;"/><path d="M108.72,18.61c-.17.09-.27.28-.27.48,0,.32.26.58.58.58s.57-.26.57-.58c0-.23-.15-.43-.34-.52.16-.09.27-.28.27-.49,0-.32-.26-.58-.58-.58s-.58.26-.58.58c0,.23.14.44.34.53" style="fill:#2d3b51;"/><path d="M98.14,18.31c.32,0,.58-.25.58-.58s-.26-.57-.58-.57-.57.26-.57.57.25.58.57.58" style="fill:#2d3b51;"/><path d="M90.66,18.21c.31,0,.57-.25.57-.58s-.26-.57-.57-.57-.58.25-.58.57.26.58.58.58" style="fill:#2d3b51;"/><path d="M85.3,18.27c.32,0,.58-.26.58-.58s-.26-.58-.58-.58-.58.26-.58.58.26.58.58.58" style="fill:#2d3b51;"/><path d="M85.26,20.31c.06,0,.11,0,.17-.02,0,.31.26.57.58.57s.57-.26.57-.57-.26-.58-.57-.58c-.06,0-.12,0-.17.02,0-.15-.08-.3-.18-.41.14-.1.24-.27.24-.46,0-.31-.25-.57-.57-.57s-.57.26-.57.57c0,.16.06.31.17.42-.14.09-.23.26-.23.47,0,.31.25.57.57.57" style="fill:#2d3b51;"/><path d="M91.09,23.56c.09,0,.16-.02.23-.05v.03c0,.31.25.58.57.58h.04c0,.3.27.55.57.55.06,0,.13-.02.18-.03v.06c0,.32.25.57.57.57s.58-.25.58-.57-.6-.57-.5-.57c.31,0,.57-.26.57-.58s-.26-.58-.57-.58h-.11c0-.3-.26-.55-.57-.55-.14,0-.26.04-.35.13-.1-.1-.24-.16-.4-.16s-.3.07-.41.17l-.08-.05c.02-.06.03-.3.03-.36v-.06c.09.07.2.11.33.11.32,0,.57-.22.57-.53s-.26-.45-.57-.45c-.05,0-.1,0-.15.02-.04-.06-.08-.11-.14-.16.16-.1.27-.29.27-.49,0-.23-.15-.43-.35-.52-.04-.13-.14-.22-.27-.28.19-.1.31-.28.31-.51,0-.32-.25-.57-.58-.57s-.57.25-.57.57c0,.23.13.41.31.51-.18.1-.31.28-.31.51,0,.16.07.32.18.43-.26.05-.45.28-.45.55,0,.31.23.55.52.57-.15.1-.25.28-.25.48s.1.38.26.47c-.02.06-.03.12-.03.19,0,.32.26.58.58.58" style="fill:#2d3b51;"/><path d="M99.44,28.91c-.04.09-.07.18-.07.27,0,.26.17.47.41.55-.02.06-.05.13-.05.21,0,.32.26.57.58.57.09,0,.2-.03.28-.08v.03c0,.32.25.57.57.57.11,0,.21-.02.3-.08v.12c-.01.32.24.58.57.58l.1-.02c.11.09.24.15.38.15.3,0,.55-.23.57-.52l.04-.02c.06.09.13.19.22.25-.19.1-.32.29-.32.51,0,.33.26.59.58.59s.57-.26.57-.59c0-.18-.09-.36-.24-.46.18-.1.31-.29.31-.52,0-.3-.25-.55-.56-.57h0c.31-.02.56-.26.56-.57s-.26-.59-.57-.59c-.26,0-.47.17-.55.4l-.04-.02c.04-.08.07-.17.07-.28,0-.32-.26-.57-.57-.57-.15,0-.26.05-.36.13.04-.09.08-.19.08-.29,0-.33-.26-.58-.57-.58-.18,0-.32.06-.43.19h0c.02-.06.02-.11.02-.16,0-.31-.26-.58-.58-.58h-.04c.04-.06.07-.14.07-.22.09.06.2.1.3.1.32,0,.58-.26.58-.58s-.26-.57-.58-.57c-.3,0-.54.24-.57.53-.08-.06-.19-.08-.31-.08-.15,0-.41.1-.43.09.11-.1.17-.25.17-.4,0-.32-.26-.58-.57-.58-.05,0-.02-.19-.02-.33,0-.32-.25-.58-.57-.58-.03,0,.51-.25.51-.57s-.24-.56-.56-.58h0c0-.21-.12-.39-.28-.5.14-.11.23-.26.23-.46,0-.09-.03-.17-.06-.25.2-.1.34-.28.34-.52,0-.19-.09-.36-.23-.46.15-.11.27-.28.27-.49,0-.24-.15-.44-.35-.53-.06-.13-.15-.22-.27-.29.18-.1.31-.29.31-.51,0-.32-.26-.57-.58-.57s-.57.25-.57.57c0,.22.12.41.31.51-.19.1-.31.29-.31.5,0,.17.07.32.18.42-.26.05-.46.28-.46.56,0,.3.23.54.53.57-.15.11-.25.28-.25.48,0,.21.11.4.27.5-.14.1-.23.27-.23.46,0,.24.15.45.37.53-.23.07-.4.28-.4.55s.17.48.4.55c-.08.09-.14.22-.14.37,0,.24.16.47.4.54h0s-.1-.01-.1-.01c-.31,0-.57.27-.57.59,0,.29.23.56.53.57v.11c-.01.33.25.58.56.58h.09c-.04.07-.05.15-.05.24,0,.32.26.58.58.58.05,0,.11-.02.16-.04" style="fill:#2d3b51;"/><path d="M103.68,28.91c.31,0,.57-.25.57-.57s-.26-.57-.57-.57-.57.25-.57.57.25.57.57.57" style="fill:#2d3b51;"/><path d="M108.71,26.21c-.16.1-.26.28-.26.47,0,.31.24.55.53.57v.14c-.27.05-.49.28-.49.57,0,.14.05.25.12.34-.1.11-.16.24-.16.4,0,.26.17.47.41.54-.08.11-.14.23-.14.36,0,.19.08.35.21.45v.11c-.28.04-.49.28-.49.57,0,.21.13.41.31.51-.18.1-.31.29-.31.5,0,.17.08.34.2.44-.21.09-.36.29-.36.54,0,.28.2.51.46.56-.18.1-.3.29-.3.5,0,.31.26.58.58.58h.11c.04.26.28.47.57.47.14,0,.28-.05.37-.15v.08c0,.32.25.58.57.58.26,0,.48-.17.54-.41.08.22.3.37.54.37.2,0,.38-.1.49-.24.07.21.28.38.54.38.11,0,.22-.03.3-.08.01.31.26.56.57.56s.58-.26.58-.57c0-.04.28.25.53.25.08,0,.16-.02.22-.04.1.12.26.2.44.2.26,0,.47-.18.54-.42.09.2.3.36.54.36.31,0,.57-.26.57-.58,0-.04.28.37.57.37.13,0,.25-.04.34-.11.11.14.28.24.47.24.25,0,.46-.16.53-.38.1.07.22.11.35.11.32,0,.58-.26.58-.58l.07-.06c0,.32.25.58.56.58.3,0,.53-.21.57-.49.11.09.24.15.38.15.24,0,.44-.15.52-.35.16-.08.27-.25.3-.43.08.21.28.37.53.37.32,0,.57-.25.57-.58s-.26-.58-.57-.58c-.29,0-.53.22-.57.5-.05-.12-.14-.22-.24-.29-.09-.21-.3-.38-.54-.38-.22,0-.42.13-.51.31-.1-.12-.26-.2-.45-.2-.05,0-.11.01-.17.03,0-.09-.02-.16-.04-.24.18-.09.31-.28.31-.51,0-.32-.26-.59-.57-.59-.32,0-.59.26-.59.59,0,.07.02.16.06.23-.19.1-.38.54-.4.54v-.09c0-.33-.25-.57-.57-.57-.06,0-.12,0-.18.03-.03-.28-.27-.51-.57-.51-.21,0-.4.13-.5.31-.1-.18-.28-.31-.51-.31s-.45.15-.53.35c-.07-.24-.28-.42-.56-.42-.2,0-.51.28-.52.28.06-.1.09-.2.09-.3,0-.33-.25-.58-.57-.58-.29,0-.45.21-.45.03v-.11c.27-.05.48-.28.48-.57,0-.31-.26-.59-.58-.59s-.57.28-.57.59v.11s-.2,0-.2,0l.04-.21c0-.43-.44-.47-.49-.49-.23,0-.42.15-.51.35-.05-.26-.27-.46-.53-.46.09-.11.14-.24.14-.39,0-.32-.25-.57-.57-.57-.1,0-.19.03-.27.06.02-.05.03-.1.03-.17v-.1s.1,0,.1,0c.31,0,.57-.26.57-.58s-.14-.52-.45-.52-.59.13-.59.44l-.07.29-.17.05c-.2,0-.28.1-.38.23-.03-.06-.09-.27-.12-.33h.06c.33.01.59-.25.59-.57s-.26-.57-.59-.57h-.08c.16-.07.27-.21.3-.39.22-.08.36-.29.36-.53,0-.33-.26-.59-.59-.59-.13,0-.25.06-.34.13.03-.07.04-.14.04-.22,0-.19-.09-.35-.23-.47.1-.06.19-.17.23-.3.12-.1.21-.25.21-.43,0-.33-.26-.58-.58-.58-.06,0-.13.01-.18.03h-.03c.19-.12.31-.3.31-.52,0-.21-.11-.39-.27-.49.27-.05.48-.28.48-.56,0-.26-.17-.47-.41-.55.12-.12.21-.27.21-.44,0-.22-.13-.41-.31-.5.19-.11.31-.3.31-.51,0-.33-.26-.58-.57-.58s-.58.25-.58.58c0,.21.13.4.31.51-.18.09-.31.28-.31.5,0,.27.17.48.41.54-.13.12-.21.27-.21.44,0,.2.11.38.26.48-.26.06-.46.28-.46.57,0,.22.13.4.31.51-.18.09-.31.28-.31.51,0,.17.06.31.18.41-.26.06-.45.29-.45.56,0,.3.24.54.53.57" style="fill:#2d3b51;"/><path d="M124.33,33.93c.32,0,.57-.26.57-.58s-.25-.57-.57-.57-.57.26-.57.57.25.58.57.58" style="fill:#2d3b51;"/><path d="M123.08,36.33v.06c-.04.06-.08.11-.11.2-.09-.08-.2-.13-.33-.13-.27,0-.49.18-.56.43-.1-.09-.24-.15-.39-.15-.19,0-.36.09-.47.24-.11-.1-.25-.17-.41-.17-.31,0-.58.26-.58.57s.26.58.58.58c.2,0,.36-.09.47-.24.1.11.25.18.41.18.27,0,.49-.19.56-.43.1.09.24.15.39.15.24,0,.46-.16.54-.38.1.08.22.12.34.12.24,0,.43-.13.52-.34.1.08.23.13.36.13.29,0,.52-.22.57-.5.08.06.19.1.32.1.27,0,.52-.21.56-.49.1.09.24.15.39.15.32,0,.57-.26.57-.58l-.02-.13c.09.06.21.1.32.1.32,0,.57-.26.57-.56.09.06.2.08.32.08.31,0,.57-.26.57-.57v-.1c.06.03.15.06.24.06.32,0,.58-.26.58-.58s-.26-.59-.58-.59c-.15,0-.28.06-.38.16-.11-.17-.28-.28-.49-.28-.32,0-.58.25-.58.57,0,.17.07.31.18.42l-.04.08c-.05-.28-.28-.5-.57-.5-.33,0-.58.26-.58.58,0,.04,0,.09.02.14-.1-.07-.2-.11-.33-.11-.31,0-.57.26-.57.57,0,.2.1.35.24.46l-.03.09c-.06-.05-.12-.08-.2-.11-.1-.2-.29-.34-.53-.34-.32,0-.57.26-.57.58l.02.13c-.08,0-.16.02-.23.05-.09-.17-.29-.29-.51-.29-.31,0-.57.25-.57.58" style="fill:#2d3b51;"/><path d="M116.54,31.59c.32,0,.57-.26.57-.57s-.26-.58-.57-.58-.59.26-.59.58.26.57.59.57" style="fill:#2d3b51;"/><path d="M112.95,29.52c.33,0,.59-.26.59-.57s-.26-.58-.59-.58-.57.25-.57.58.26.57.57.57" style="fill:#2d3b51;"/><path d="M111.26,26c.32,0,.57-.25.57-.57s-.25-.57-.57-.57-.57.25-.57.57.26.57.57.57" style="fill:#2d3b51;"/><path d="M119.59,36.88c-.32,0-.57.26-.57.57s.26.58.57.58.58-.26.58-.58-.26-.57-.58-.57" style="fill:#2d3b51;"/><path d="M118.1,36.88c-.31,0-.57.26-.57.57s.26.58.57.58.58-.26.58-.58-.25-.57-.58-.57" style="fill:#2d3b51;"/><path d="M116,36.94c-.32,0-.58.25-.58.57s.25.57.58.57.57-.25.57-.57-.25-.57-.57-.57" style="fill:#2d3b51;"/><path d="M91.76,35.09c0-.32-.26-.57-.57-.57s-.58.25-.58.57.26.58.58.58.57-.26.57-.58" style="fill:#2d3b51;"/><path d="M93.44,36.89c0-.31-.26-.57-.58-.57s-.57.26-.57.57c0,.33.26.59.57.59s.58-.26.58-.59" style="fill:#2d3b51;"/><path d="M99.13,38.97c0-.32-.27-.58-.58-.58s-.57.26-.57.58.24.57.57.57.58-.25.58-.57" style="fill:#2d3b51;"/><path d="M101.71,41.72c0-.32-.25-.58-.58-.58s-.58.26-.58.58.26.57.58.57.58-.26.58-.57" style="fill:#2d3b51;"/><path d="M102.96,45.99c.32,0,.58-.25.58-.57s-.25-.58-.58-.58-.57.27-.57.58.26.57.57.57" style="fill:#2d3b51;"/><path d="M98.18,37.47c.02.3.27.54.58.54.15,0,.29-.06.39-.16v.06c0,.32.26.58.57.58.26,0,.47-.17.54-.4l.03.05c-.05.09-.08.19-.08.3,0,.31.25.57.57.57s.58-.26.58-.57c0-.05.04-.3.02-.35.09.2.24.54.48.54.22,0,.4-.11.5-.27.09.18.29.31.51.31.19,0,.34-.08.45-.22v.23c0,.08,0,.15.04.21-.27.05-.47.29-.47.57,0,.03-.04.21-.05.27-.06-.03-.12-.04-.18-.04-.18,0-.34.08-.44.21h-.08c-.31,0-.57.25-.57.57s.26.56.57.56c.18,0,.26-.21.37-.33l.15-.02c.06,0,.11.15.16.14,0,.03-.01.12-.25.15-.25.04-.32.12-.32.44,0,.2,0,.43.14.55-.15.1-.26.28-.26.47,0,.13.05.25.13.35l-.13-.02c-.31,0-.57.26-.57.58s.26.57.57.57c.22,0,.4-.12.51-.28.1.12.26.19.42.19.07,0,.13-.02.19-.03,0,.05-.02.08-.02.13,0,.32.26.58.57.58s.58-.26.58-.58v-.05s.27.1.34.14c-.16.1-.26.28-.26.49,0,.32.11.55.43.55.12,0,.22-.04.31-.09.04.27.28.49.57.49.14,0,.27-.05.37-.14.05.05.12.09.18.1-.3.02-.53.28-.53.58s.25.57.57.57.57-.26.57-.57c0-.26-.17-.48-.39-.55.08,0,.15-.02.23-.06.1.17.28.26.48.26s.41-.12.5-.3h0c0,.32.26.58.58.58s.57-.26.57-.57h0s.08,0,.08,0v.06c0,.28.19.5.44.57-.14.11-.24.28-.24.47,0,.31.25.58.58.58s.56-.26.56-.58c0-.07,0-.13-.02-.18.08.04.17.06.28.06.29,0,.54-.22.56-.52.07.23.29.4.55.4.2,0,.37-.09.48-.25,0,.32.26.58.58.58h.03c.05.26.28.47.57.47.31,0,.57-.25.57-.57v-.11c.3,0,.54-.26.54-.57,0-.09-.02-.17-.05-.25h.08c.06.21.25.38.48.41-.02.06-.03.11-.03.18,0,.32.26.58.58.58s.58-.26.58-.58l-.03-.14h.07c.29,0,.54-.21.58-.5.1.12.26.19.43.19.25,0,.46-.15.53-.38.09.23.3.38.55.38s.49-.18.55-.41c.11.09.24.15.39.15.28,0,.5-.19.56-.44.08.06.2.1.33.1.31,0,.57-.26.57-.58s-.26-.58-.57-.58c-.27,0-.5.19-.56.45-.09-.07-.21-.1-.33-.1-.26,0-.49.19-.55.42-.11-.1-.25-.15-.4-.15-.25,0-.46.16-.55.4-.07-.23-.28-.4-.53-.4-.14,0-.28.06-.39.15-.04-.27-.27-.49-.56-.49h-.04c-.04-.26-.29-.47-.57-.47-.18,0-.34.08-.45.21-.05,0-.1-.02-.16-.02-.32,0-.57.26-.57.57,0-.31-.26-.57-.58-.57-.26,0-.47.18-.55.4l-.12-.04.03-.12c0-.32-.27-.57-.58-.57-.21,0-.4.11-.5.29h0c.04-.08.07-.17.07-.26,0-.32-.26-.57-.57-.57.01-.05.02-.12.02-.18,0-.31-.26-.57-.57-.57s-.37.21-.37.53c0,.12-.17.28-.1.39-.07-.04-.13-.07-.2-.11.06-.08.09-.19.09-.3,0-.32-.26-.58-.58-.58-.12,0-.23.05-.32.11-.06-.26-.29-.45-.55-.45h-.12c-.05-.26-.27-.47-.57-.47-.15,0-.29.07-.4.17.1-.11.16-.25.16-.39,0-.26-.17-.47-.4-.55.03-.08.06-.17.06-.27,0-.31-.25-.57-.57-.57-.16,0-.3.07-.41.17-.08-.21-.29-.37-.54-.37l-.11.02c-.04-.28-.28-.49-.57-.49l-.13.02c.06-.1.1-.21.1-.33,0-.31-.26-.56-.57-.57.06-.09.09-.19.09-.31,0-.33-.26-.58-.58-.58-.27,0-.49.18-.56.43h-.03s0-.05,0-.05c0-.32-.25-.57-.57-.57-.09,0-.18.02-.25.06-.11-.16-.29-.27-.48-.27-.13,0-.23.04-.33.1-.02-.29-.27-.5-.56-.5-.16,0-.3.06-.39.15-.07-.24-.29-.42-.56-.42-.11,0-.22.04-.31.09v-.05c0-.32-.25-.57-.57-.57-.15,0-.28.05-.38.13-.04-.26-.26-.45-.54-.48v-.04c0-.32-.26-.57-.56-.57l-.13.02c.02-.05.02-.11.02-.16,0-.32-.25-.58-.57-.58-.27,0-.3.07-.3-.16,0-.32-.26-.57-.57-.57-.06,0-.12.01-.17.02.04-.08.07-.17.07-.26,0-.32-.26-.57-.57-.57-.07,0-.15,0-.21.03.02-.05.03-.13.03-.21,0-.32-.26-.58-.57-.58h-.04s0-.1,0-.1c0-.32-.26-.58-.57-.58h-.02s.02-.08.02-.13c0-.31-.26-.59-.59-.59-.13,0-.26.06-.36.15-.08-.24-.29-.41-.54-.41-.11,0-.21.04-.29.08-.08-.04-.17-.08-.28-.08-.09-.2-.29-.34-.52-.34s-.44.14-.53.36h0c.07-.1.09-.21.09-.33,0-.32-.25-.58-.57-.58-.08,0-.16.03-.23.07-.09-.2-.29-.33-.51-.33-.16,0-.31.06-.42.18.02-.07.04-.14.04-.21,0-.32-.25-.58-.58-.58-.16,0-.32.09-.42.21l-.03-.02c.05-.09.08-.19.08-.29,0-.32-.26-.57-.57-.57-.07,0-.13.01-.19.03l.02-.13c0-.32-.26-.58-.57-.58h-.03s-.01-.04-.01-.04c0-.21-.11-.4-.29-.5.02-.05.04-.11.04-.18,0-.32-.26-.57-.58-.57-.22,0-.41.13-.51.31-.1-.18-.29-.31-.51-.31-.11,0-.23.03-.31.09-.04-.28-.27-.5-.57-.5-.17,0-.33.08-.45.21,0-.26-.21-.49-.47-.54,0-.3-.26-.55-.58-.55-.08,0-.16.02-.23.05v-.02c0-.32-.26-.57-.58-.57-.08,0-.14,0-.2.04v-.09c0-.32-.25-.58-.57-.58-.11,0-.19.02-.27.07-.08-.24-.29-.4-.55-.4-.19,0-.35.09-.46.22-.02-.29-.27-.53-.57-.53h-.09c-.06-.26-.29-.45-.57-.45-.18,0-.35.09-.45.24,0-.04.01-.09.01-.14,0-.32-.25-.58-.57-.58-.07,0-.14.02-.21.05.02-.06.03-.11.03-.17,0-.32-.26-.58-.58-.58h-.08s.02-.1.02-.1c0-.23-.14-.43-.35-.53-.02-.29-.27-.52-.57-.52-.23,0-.44.14-.52.35-.1-.1-.25-.16-.4-.16-.31,0-.58.26-.58.58,0,.17.08.32.19.42-.09.1-.14.22-.14.37,0,.32.26.58.57.58.08,0,.13-.02.19-.04v.09c-.25.06-.43.29-.43.55,0,.32.26.57.58.57s.58-.25.58-.57v-.1c.06-.03.13-.04.19-.1.03.3.27.53.57.53.21,0,.39-.11.49-.27.1.13.26.21.45.21s.35-.08.46-.23v.15c-.01.31.24.57.56.57h.1c.05.24.27.42.52.45l-.06.07c-.29.02-.53.26-.53.56s.23.54.52.57l-.02.14c0,.31.26.57.57.57.21,0,.39-.1.49-.27.03.29.27.52.57.52.26,0,.47-.16.55-.4l.12.08-.02.14c0,.33.25.57.58.57.15,0,.29-.05.39-.15h.07c.05,0,.1,0,.15-.03.06.26.29.43.56.43s.47-.17.54-.4c.11.17.29.28.5.28.11,0,.22-.04.3-.1.01.1.05.18.09.24-.06-.03-.14-.04-.21-.04-.28,0-.51.2-.57.47-.26.05-.46.29-.46.56,0,.31.26.58.58.58l.11-.02c-.04.08-.05.14-.05.23,0,.32.26.57.57.57.14,0,.26-.05.37-.12v.03c-.01.31.25.57.57.57.08,0,.17-.02.24-.05v.04c0,.06.01.11.03.18-.06-.02-.11-.04-.18-.04-.32,0-.57.26-.57.58s.26.57.57.57.58-.25.58-.57c0-.07-.02-.13-.04-.19.06.03.12.04.18.04.19,0,.37-.09.48-.25.04.11.11.22.21.29-.06.08-.08.19-.08.3,0,.32.26.58.57.58.25,0,.46-.15.54-.37.08.04.17.07.28.07.18,0,.34-.08.45-.21v.05c-.01.32.25.57.57.57.12,0,.23-.03.33-.1.1.12.26.2.43.2.08,0,.16-.02.22-.05.11.13.26.2.44.2.23,0,.44-.13.53-.35h.1c.09.21.29.35.52.35.11,0,.2-.03.29-.08.06.04.12.06.19.07-.01.05-.02.1-.02.15h-.13c-.29-.01-.53.2-.57.48h-.12c-.32-.01-.58.24-.58.55,0,.09.02.18.06.25-.11-.12-.27-.2-.44-.2-.32,0-.58.26-.58.57s.26.58.58.58c.13,0,.26-.05.36-.14.02.14.06.25.16.34-.21.09-.36.29-.36.53,0,.32.26.58.57.58.09,0,.17-.02.25-.06-.05.08-.07.18-.07.27,0,.32.26.58.57.58.07,0,.14-.03.2-.04.06.27.28.46.57.46.09,0,.18-.02.26-.05,0,.23.13.43.33.51v.11c-.01.32.25.57.56.57.19,0,.37-.1.48-.25.09.06.17,0,.29,0s.17-.01.26-.07l.04.2h-.04c-.32-.01-.58.24-.58.56s.26.58.58.58c.28,0,.51-.2.57-.47h.04c.32,0,.57-.26.57-.58l-.02-.14.2.02c-.02.06-.08.14-.08.2,0,.32.18.56.49.56.26,0,.48-.17.55-.4" style="fill:#2d3b51;"/><path d="M121.99,44.73c0-.32-.27-.58-.59-.58s-.57.26-.57.58.25.57.57.57.59-.25.59-.57" style="fill:#2d3b51;"/><path d="M123.82,44.25c0-.31-.26-.57-.58-.57s-.57.25-.57.57c0,.33.26.58.57.58s.58-.25.58-.58" style="fill:#2d3b51;"/><path d="M84.63,29.03c0-.32-.26-.58-.57-.58s-.57.26-.57.58.26.57.57.57.57-.26.57-.57" style="fill:#2d3b51;"/><path d="M82.2,26.83c0-.32-.25-.57-.57-.57s-.58.25-.58.57.26.58.58.58.57-.25.57-.58" style="fill:#2d3b51;"/><path d="M79.27,25c0-.33-.26-.59-.57-.59s-.58.26-.58.59.26.57.58.57.57-.25.57-.57" style="fill:#2d3b51;"/><path d="M74.43,21.78c.31,0,.57-.26.57-.58s-.26-.57-.57-.57-.58.25-.58.57.26.58.58.58" style="fill:#2d3b51;"/><path d="M93.81,87.02c1.28,0,2.16-.73,2.16-1.96,0-1.14-.77-1.54-1.97-2.01-1.28-.5-1.91-1.05-1.91-2.09,0-1.28.94-2.16,2.4-2.16,1.57,0,2.47.87,2.47,2.39v.03h-.38v-.08c0-1.28-.77-2-2.06-2s-2.05.73-2.05,1.8c0,1.18.91,1.45,2.15,1.98,1.16.49,1.73,1.09,1.73,2.15,0,1.39-.97,2.3-2.62,2.3s-2.57-.93-2.57-2.57v-.11h.37c0,1.54.79,2.34,2.28,2.34" style="fill:#2d3b51;"/><path d="M93.81,87.02c1.28,0,2.16-.73,2.16-1.96,0-1.14-.77-1.54-1.97-2.01-1.28-.5-1.91-1.05-1.91-2.09,0-1.28.94-2.16,2.4-2.16,1.57,0,2.47.87,2.47,2.39v.03h-.38v-.08c0-1.28-.77-2-2.06-2s-2.05.73-2.05,1.8c0,1.18.91,1.45,2.15,1.98,1.16.49,1.73,1.09,1.73,2.15,0,1.39-.97,2.3-2.62,2.3s-2.57-.93-2.57-2.57v-.11h.37c0,1.54.79,2.34,2.28,2.34" style="fill:#2d3b51;"/><path d="M100.79,78.96h.35l-.72,3.38c.57-.79,1.32-1.2,2.21-1.2,1.08,0,1.67.56,1.67,1.49,0,.3-.07.62-.14.96l-.75,3.58h-.36l.83-3.96c.03-.18.06-.37.06-.54,0-.79-.47-1.22-1.33-1.22-1.3,0-2.21.9-2.6,2.73l-.63,2.98h-.35l1.75-8.21Z" style="fill:#2d3b51;"/><path d="M100.79,78.96h.35l-.72,3.38c.57-.79,1.32-1.2,2.21-1.2,1.08,0,1.67.56,1.67,1.49,0,.3-.07.62-.14.96l-.75,3.58h-.36l.83-3.96c.03-.18.06-.37.06-.54,0-.79-.47-1.22-1.33-1.22-1.3,0-2.21.9-2.6,2.73l-.63,2.98h-.35l1.75-8.21Z" style="fill:#2d3b51;"/><path d="M108.54,78.96l-.21.96h.43l.21-.96h-.43ZM108.1,81.24l-1.26,5.94h.35l1.27-5.94h-.37Z" style="fill:#2d3b51;"/><path d="M108.54,78.96l-.21.96h.43l.21-.96h-.43ZM108.1,81.24l-1.26,5.94h.35l1.27-5.94h-.37Z" style="fill:#2d3b51;"/><path d="M111.95,81.24h.36l-.21.94c.34-.66.86-1.02,1.45-1.02.16,0,.33.02.55.08l-.08.34c-.18-.05-.34-.08-.48-.08-.8,0-1.46.79-1.77,2.24l-.73,3.43h-.34l1.26-5.94Z" style="fill:#2d3b51;"/><path d="M111.95,81.24h.36l-.21.94c.34-.66.86-1.02,1.45-1.02.16,0,.33.02.55.08l-.08.34c-.18-.05-.34-.08-.48-.08-.8,0-1.46.79-1.77,2.24l-.73,3.43h-.34l1.26-5.94Z" style="fill:#2d3b51;"/><path d="M116.39,84.93c0,1.23.72,2.07,1.74,2.07s1.85-.63,2.28-1.69h.39c-.45,1.24-1.45,2.01-2.61,2.01-1.33,0-2.17-.93-2.17-2.45,0-2.08,1.23-3.75,2.96-3.75,1.33,0,2.15.89,2.15,2.49,0,.07,0,.26-.02.58h-4.68c-.03.37-.03.61-.03.73M120.76,83.88c0-.08.01-.17.01-.25,0-1.42-.68-2.18-1.86-2.18-1.06,0-2.05.88-2.4,2.44h4.25Z" style="fill:#2d3b51;"/><path d="M116.39,84.93c0,1.23.72,2.07,1.74,2.07s1.85-.63,2.28-1.69h.39c-.45,1.24-1.45,2.01-2.61,2.01-1.33,0-2.17-.93-2.17-2.45,0-2.08,1.23-3.75,2.96-3.75,1.33,0,2.15.89,2.15,2.49,0,.07,0,.26-.02.58h-4.68c-.03.37-.03.61-.03.73M120.76,83.88c0-.08.01-.17.01-.25,0-1.42-.68-2.18-1.86-2.18-1.06,0-2.05.88-2.4,2.44h4.25Z" style="fill:#2d3b51;"/><polygon points="64.69 53.18 61.42 60.38 58.23 53.18 56.47 53.18 56.47 61.44 57.61 61.44 57.54 54.04 60.83 61.44 62.02 61.44 65.35 54.04 65.29 61.44 66.43 61.44 66.43 53.18 64.69 53.18" style="fill:#2d3b51;"/><polygon points="64.69 53.18 61.42 60.38 58.23 53.18 56.47 53.18 56.47 61.44 57.61 61.44 57.54 54.04 60.83 61.44 62.02 61.44 65.35 54.04 65.29 61.44 66.43 61.44 66.43 53.18 64.69 53.18" style="fill:#2d3b51;"/><path d="M73.54,52.97c2.81,0,4.52,1.71,4.52,4.35s-1.7,4.35-4.53,4.35-4.52-1.71-4.52-4.35,1.7-4.35,4.53-4.35M73.54,60.56c2.1,0,3.3-1.24,3.3-3.25s-1.21-3.25-3.32-3.25-3.31,1.22-3.31,3.25,1.21,3.25,3.32,3.25" style="fill:#2d3b51;"/><path d="M73.54,52.97c2.81,0,4.52,1.71,4.52,4.35s-1.7,4.35-4.53,4.35-4.52-1.71-4.52-4.35,1.7-4.35,4.53-4.35M73.54,60.56c2.1,0,3.3-1.24,3.3-3.25s-1.21-3.25-3.32-3.25-3.31,1.22-3.31,3.25,1.21,3.25,3.32,3.25" style="fill:#2d3b51;"/><path d="M80.64,53.18h4.35c1.92,0,2.93.79,2.93,2.25,0,1.06-.47,1.73-1.42,2.03.86.13,1.2.59,1.27,1.57l.1,1.34c.04.41.07.76.3,1.08h-1.36c-.09-.22-.13-.5-.15-.86l-.1-1.23c-.09-1.11-.43-1.46-1.66-1.46h-3.1v3.55h-1.15v-8.26ZM81.79,54.18v2.7h2.73c1.51,0,2.22-.29,2.22-1.35,0-1.12-.73-1.35-2.32-1.35h-2.63Z" style="fill:#2d3b51;"/><path d="M80.64,53.18h4.35c1.92,0,2.93.79,2.93,2.25,0,1.06-.47,1.73-1.42,2.03.86.13,1.2.59,1.27,1.57l.1,1.34c.04.41.07.76.3,1.08h-1.36c-.09-.22-.13-.5-.15-.86l-.1-1.23c-.09-1.11-.43-1.46-1.66-1.46h-3.1v3.55h-1.15v-8.26ZM81.79,54.18v2.7h2.73c1.51,0,2.22-.29,2.22-1.35,0-1.12-.73-1.35-2.32-1.35h-2.63Z" style="fill:#2d3b51;"/><polygon points="90.8 53.18 92.38 53.18 97.58 60.23 97.58 53.18 98.72 53.18 98.72 61.44 97.14 61.44 91.95 54.4 91.95 61.44 90.8 61.44 90.8 53.18" style="fill:#2d3b51;"/><polygon points="90.8 53.18 92.38 53.18 97.58 60.23 97.58 53.18 98.72 53.18 98.72 61.44 97.14 61.44 91.95 54.4 91.95 61.44 90.8 61.44 90.8 53.18" style="fill:#2d3b51;"/><rect x="101.85" y="53.18" width="1.17" height="8.26" style="fill:#2d3b51;"/><rect x="101.85" y="53.18" width="1.17" height="8.26" style="fill:#2d3b51;"/><polygon points="106.13 53.18 107.71 53.18 112.91 60.23 112.91 53.18 114.05 53.18 114.05 61.44 112.47 61.44 107.28 54.4 107.28 61.44 106.13 61.44 106.13 53.18" style="fill:#2d3b51;"/><polygon points="106.13 53.18 107.71 53.18 112.91 60.23 112.91 53.18 114.05 53.18 114.05 61.44 112.47 61.44 107.28 54.4 107.28 61.44 106.13 61.44 106.13 53.18" style="fill:#2d3b51;"/><path d="M120.93,54.06c-1.92,0-3.11,1.25-3.11,3.25s1.2,3.25,3.08,3.25c1.7,0,2.88-.97,3.03-2.46h-2.62v-1.09h3.71v4.43h-.81l-.11-1.38c-.64,1.04-1.75,1.6-3.2,1.6-2.57,0-4.24-1.74-4.24-4.35s1.65-4.35,4.38-4.35c2.15,0,3.75,1.2,3.91,2.82h-1.19c-.31-1.1-1.32-1.73-2.81-1.73" style="fill:#2d3b51;"/><path d="M120.93,54.06c-1.92,0-3.11,1.25-3.11,3.25s1.2,3.25,3.08,3.25c1.7,0,2.88-.97,3.03-2.46h-2.62v-1.09h3.71v4.43h-.81l-.11-1.38c-.64,1.04-1.75,1.6-3.2,1.6-2.57,0-4.24-1.74-4.24-4.35s1.65-4.35,4.38-4.35c2.15,0,3.75,1.2,3.91,2.82h-1.19c-.31-1.1-1.32-1.73-2.81-1.73" style="fill:#2d3b51;"/><polygon points="131.16 61.44 129.99 61.44 129.99 54.26 126.86 54.26 126.86 53.18 134.3 53.18 134.3 54.26 131.16 54.26 131.16 61.44" style="fill:#2d3b51;"/><polygon points="131.16 61.44 129.99 61.44 129.99 54.26 126.86 54.26 126.86 53.18 134.3 53.18 134.3 54.26 131.16 54.26 131.16 61.44" style="fill:#2d3b51;"/><path d="M140.41,52.97c2.81,0,4.52,1.71,4.52,4.35s-1.7,4.35-4.53,4.35-4.52-1.71-4.52-4.35,1.7-4.35,4.53-4.35M140.41,60.56c2.1,0,3.3-1.24,3.3-3.25s-1.21-3.25-3.32-3.25-3.31,1.22-3.31,3.25,1.21,3.25,3.32,3.25" style="fill:#2d3b51;"/><path d="M140.41,52.97c2.81,0,4.52,1.71,4.52,4.35s-1.7,4.35-4.53,4.35-4.52-1.71-4.52-4.35,1.7-4.35,4.53-4.35M140.41,60.56c2.1,0,3.3-1.24,3.3-3.25s-1.21-3.25-3.32-3.25-3.31,1.22-3.31,3.25,1.21,3.25,3.32,3.25" style="fill:#2d3b51;"/><polygon points="154.29 53.18 154.29 60.23 149.09 53.18 147.51 53.18 147.51 61.44 148.65 61.44 148.65 54.4 153.84 61.44 155.42 61.44 155.42 53.18 154.29 53.18" style="fill:#2d3b51;"/><polygon points="154.29 53.18 154.29 60.23 149.09 53.18 147.51 53.18 147.51 61.44 148.65 61.44 148.65 54.4 153.84 61.44 155.42 61.44 155.42 53.18 154.29 53.18" style="fill:#2d3b51;"/><path d="M65.88,65.89h3.81c2.04,0,3.03.77,3.03,2.44s-1,2.44-3.03,2.44h-2.64v3.39h-1.17v-8.26ZM69.22,69.79c1.59,0,2.33-.29,2.33-1.43s-.72-1.44-2.25-1.44h-2.25v2.87h2.17Z" style="fill:#2d3b51;"/><path d="M65.88,65.89h3.81c2.04,0,3.03.77,3.03,2.44s-1,2.44-3.03,2.44h-2.64v3.39h-1.17v-8.26ZM69.22,69.79c1.59,0,2.33-.29,2.33-1.43s-.72-1.44-2.25-1.44h-2.25v2.87h2.17Z" style="fill:#2d3b51;"/><polygon points="75.18 65.89 81.74 65.89 81.74 66.94 76.35 66.94 76.35 69.38 81.41 69.38 81.41 70.46 76.35 70.46 76.35 73.03 81.82 73.03 81.82 74.14 75.18 74.14 75.18 65.89" style="fill:#2d3b51;"/><polygon points="75.18 65.89 81.74 65.89 81.74 66.94 76.35 66.94 76.35 69.38 81.41 69.38 81.41 70.46 76.35 70.46 76.35 73.03 81.82 73.03 81.82 74.14 75.18 74.14 75.18 65.89" style="fill:#2d3b51;"/><polygon points="84.45 65.89 86.03 65.89 91.23 72.93 91.23 65.89 92.37 65.89 92.37 74.14 90.79 74.14 85.59 67.1 85.59 74.14 84.45 74.14 84.45 65.89" style="fill:#2d3b51;"/><polygon points="84.45 65.89 86.03 65.89 91.23 72.93 91.23 65.89 92.37 65.89 92.37 74.14 90.79 74.14 85.59 67.1 85.59 74.14 84.45 74.14 84.45 65.89" style="fill:#2d3b51;"/><rect x="95.5" y="65.89" width="1.17" height="8.26" style="fill:#2d3b51;"/><rect x="95.5" y="65.89" width="1.17" height="8.26" style="fill:#2d3b51;"/><polygon points="99.78 65.89 101.36 65.89 106.56 72.93 106.56 65.89 107.7 65.89 107.7 74.14 106.12 74.14 100.93 67.1 100.93 74.14 99.78 74.14 99.78 65.89" style="fill:#2d3b51;"/><polygon points="99.78 65.89 101.36 65.89 106.56 72.93 106.56 65.89 107.7 65.89 107.7 74.14 106.12 74.14 100.93 67.1 100.93 74.14 99.78 74.14 99.78 65.89" style="fill:#2d3b51;"/><path d="M111.6,71.35c.05,1.3.89,1.92,2.6,1.92,1.49,0,2.29-.53,2.29-1.4,0-.69-.45-.99-1.42-1.17l-2.05-.37c-1.61-.29-2.39-.94-2.39-2.18,0-1.55,1.2-2.49,3.49-2.49,2.12,0,3.27.94,3.29,2.62h-1.17c-.08-1.06-.79-1.54-2.22-1.54s-2.16.48-2.16,1.31c0,.67.47.93,1.46,1.12l1.82.36c1.74.33,2.56.86,2.56,2.24,0,1.6-1.26,2.58-3.58,2.58-2.47,0-3.73-1.02-3.76-3.01h1.24Z" style="fill:#2d3b51;"/><path d="M111.6,71.35c.05,1.3.89,1.92,2.6,1.92,1.49,0,2.29-.53,2.29-1.4,0-.69-.45-.99-1.42-1.17l-2.05-.37c-1.61-.29-2.39-.94-2.39-2.18,0-1.55,1.2-2.49,3.49-2.49,2.12,0,3.27.94,3.29,2.62h-1.17c-.08-1.06-.79-1.54-2.22-1.54s-2.16.48-2.16,1.31c0,.67.47.93,1.46,1.12l1.82.36c1.74.33,2.56.86,2.56,2.24,0,1.6-1.26,2.58-3.58,2.58-2.47,0-3.73-1.02-3.76-3.01h1.24Z" style="fill:#2d3b51;"/><path d="M127.63,71.07c0,2.15-1.26,3.29-3.65,3.29s-3.65-1.14-3.65-3.29v-5.18h1.17v4.69c0,1.81.76,2.66,2.48,2.66s2.48-.86,2.48-2.66v-4.69h1.17v5.18Z" style="fill:#2d3b51;"/><path d="M127.63,71.07c0,2.15-1.26,3.29-3.65,3.29s-3.65-1.14-3.65-3.29v-5.18h1.17v4.69c0,1.81.76,2.66,2.48,2.66s2.48-.86,2.48-2.66v-4.69h1.17v5.18Z" style="fill:#2d3b51;"/><polygon points="130.47 65.89 131.63 65.89 131.63 73.03 136.69 73.03 136.69 74.14 130.47 74.14 130.47 65.89" style="fill:#2d3b51;"/><polygon points="130.47 65.89 131.63 65.89 131.63 73.03 136.69 73.03 136.69 74.14 130.47 74.14 130.47 65.89" style="fill:#2d3b51;"/><path d="M142.05,65.89h1.22l3.67,8.26h-1.21l-1.05-2.36h-4.22l-1.1,2.36h-1.24l3.92-8.26ZM144.2,70.71l-1.58-3.52-1.67,3.52h3.25Z" style="fill:#2d3b51;"/><path d="M142.05,65.89h1.22l3.67,8.26h-1.21l-1.05-2.36h-4.22l-1.1,2.36h-1.24l3.92-8.26ZM144.2,70.71l-1.58-3.52-1.67,3.52h3.25Z" style="fill:#2d3b51;"/></svg>