<?xml version="1.0" encoding="utf-8"?>
<!-- Generator: Adobe Illustrator 27.1.1, SVG Export Plug-In . SVG Version: 6.00 Build 0)  -->
<svg version="1.1" baseProfile="basic"
	 id="svg2" xmlns:svg="http://www.w3.org/2000/svg" xmlns:sodipodi="http://sodipodi.sourceforge.net/DTD/sodipodi-0.dtd" xmlns:inkscape="http://www.inkscape.org/namespaces/inkscape"
	 xmlns="http://www.w3.org/2000/svg" xmlns:xlink="http://www.w3.org/1999/xlink" x="0px" y="0px" width="212.6px" height="85px"
	 viewBox="0 0 212.6 85" xml:space="preserve">
<sodipodi:namedview  bordercolor="#666666" borderopacity="1.0" id="namedview4" inkscape:pagecheckerboard="0" inkscape:pageopacity="0.0" inkscape:pageshadow="2" pagecolor="#ffffff">
	</sodipodi:namedview>
<g id="g8" transform="matrix(1.3333333,0,0,-1.3333333,0,85.6)" inkscape:groupmode="layer" inkscape:label="ink_ext_XXXXXX">
	<g id="g10" transform="scale(0.1)">
		<path id="path12" fill="#253148" d="M1061.3,172.8c-33.3,0-40.9,32.6-40.9,52c0,32.6,17.3,51.3,41.6,51.3
			c16.6,0,29.8-11.1,31.9-27l27.7,6.9c-6.2,20.8-22.2,45.7-60.3,45.7c-52,0-70.7-42.9-70.7-76.2c0-54.7,33.9-79,69.3-79
			c42.9,0,59.6,32.6,63.7,45l-26.3,11.1C1092.4,187.3,1080,172.8,1061.3,172.8z M681.7,251.1c0,15.9-11.1,22.2-29.1,22.2h-24.9v-45
			h21.5C669.2,228.2,681.7,233.7,681.7,251.1z M681,210.9l33.3-60.3h-31.9L653.2,206h-24.9v-55.4h-27.7v147.5h60.3
			c29.1,0,49.2-19.4,49.2-47.1C710.1,237.2,704.5,218.5,681,210.9z M671.3,401.4l-20.1,67.9l-20.1-67.9
			C630.4,401.4,671.3,401.4,671.3,401.4z M666.4,496.3L716.3,348h-29.8l-8.3,29.1h-55.4l-8.3-29.1h-29.8l49.9,148.2
			C635.2,496.3,667.1,496.3,666.4,496.3z M1290.5,452.6h-25.6V347.3h25.6V452.6z M1290.5,496.3h-25.6v-24.9h25.6V496.3z
			 M1352.9,366.7c11.8,0,25.6,6.2,25.6,19.4V400c-4.2-2.1-10.4-4.2-20.1-6.2c-11.8-1.4-22.9-4.2-22.9-14.5
			C1335.6,372.3,1339.7,366.7,1352.9,366.7z M1346.7,344.6c-24.2,0-38.1,15.2-38.1,32.6c0,22.9,17.3,31.9,37.4,35.3
			c15.9,2.8,25.6,5.5,32.6,7.6c0,7.6-2.1,15.9-18,15.9c-19.4,0-21.5-10.4-21.5-15.9l-25.6,1.4c0.7,6.9,2.1,33.9,45.7,33.9
			c31.2,0,44.3-11.8,44.3-29.8V364c0-7.6,0.7-10.4,4.8-16.6h-29.8l-0.7,8.3C1370.9,350.1,1359.8,344.6,1346.7,344.6z M1163.8,386.1
			V400c-4.2-2.1-10.4-4.2-20.1-6.2c-11.8-1.4-22.9-4.2-22.9-14.5c0-6.9,4.8-13.2,17.3-13.2C1149.2,366.7,1163.8,372.3,1163.8,386.1z
			 M1163.1,355.7c-6.9-5.5-18-11.1-31.2-11.1c-24.2,0-38.1,15.2-38.1,32.6c0,22.9,17.3,31.9,37.4,35.3c15.9,2.8,25.6,5.5,32.6,7.6
			c0,7.6-2.1,15.9-18,15.9c-19.4,0-21.5-10.4-21.5-15.9l-25.6,1.4c0.7,6.9,2.1,33.9,45.7,33.9c31.2,0,44.3-11.8,44.3-29.8V364
			c0-7.6,0.7-10.4,4.8-16.6h-29.8L1163.1,355.7z M1010.7,348v21.5c-3.5-0.7-6.9-1.4-10.4-1.4c-0.7,0-6.2,0-9.7,3.5
			c-2.1,2.8-2.8,6.9-2.8,11.1v52h22.2v18h-22.2V490h-25.6v-37.4H947v-18h15.2v-62.3c0-17.3,6.9-27.7,29.8-27.7
			C1001,344.6,1007.2,346.7,1010.7,348z M911.6,202.6c0,15.9-8.3,32.6-24.9,32.6c-16.6,0-24.9-15.9-24.9-32.6s8.3-32.6,24.9-32.6
			C903.3,170,911.6,186.6,911.6,202.6z M910.9,298.2h25.6V149.9h-25.6v10.4c-2.1-2.8-10.4-13.2-29.1-13.2
			c-22.2,0-46.4,15.2-46.4,53.3s22.9,57.5,47.8,57.5c8.3,0,21.5-3.5,28.4-11.8L910.9,298.2z M1283.6,202.6c0,15.9-9,32.6-27.7,32.6
			s-27.7-15.9-27.7-32.6s9-32.6,27.7-32.6S1283.6,186.6,1283.6,202.6z M1310.6,202.6c-0.7-28.4-18-55.4-54-55.4
			c-36,0-53.3,27.7-54,55.4c0.7,28.4,18,55.4,54,55.4C1292.6,258,1309.9,231,1310.6,202.6z M1162.4,240v15.2h-25.6V149.9h25.6v45
			c0,6.2,0,11.1,2.1,17.3c6.2,19.4,26.3,19.4,31.9,19.4v25.6h-2.1C1188.7,257.3,1170,256.6,1162.4,240z M1052.3,393.1
			c0,6.2,0,11.1,2.1,17.3c6.2,19.4,26.3,19.4,31.9,19.4v25.6h-2.8c-4.8,0-23.6-0.7-31.2-17.3v14.5h-25.6V347.3h25.6V393.1z
			 M1497.7,212.3l-16.6,3.5c-15.2,2.8-21.5,4.8-21.5,11.8c0,9.7,12.5,11.1,17.3,11.1c12.5,0,22.9-4.8,28.4-15.9l18,16.6
			c-15.9,18-36.7,19.4-45,19.4c-24.9,0-45-13.2-45-33.9c0-24.9,28.4-29.8,36.7-31.2l13.2-2.1c9.7-1.4,15.2-4.2,15.2-10.4
			c0-4.8-5.5-12.5-20.8-12.5s-24.9,6.9-30.5,13.2l-18.7-15.2c6.2-6.2,21.5-18.7,50.6-18.7s47.1,16.6,47.1,36
			C1526.1,199.8,1513.6,209.5,1497.7,212.3z M1388.9,212.3l-16.6,3.5c-15.2,2.8-21.5,4.8-21.5,11.8c0,9.7,12.5,11.1,17.3,11.1
			c12.5,0,22.9-4.8,28.4-15.9l18,16.6c-15.9,18-36.7,19.4-45,19.4c-24.9,0-45-13.2-45-33.9c0-24.9,28.4-29.8,36.7-31.2l13.2-2.1
			c9.7-1.4,15.2-4.2,15.2-10.4c0-4.8-5.5-12.5-20.8-12.5c-15.2,0-24.9,6.9-30.5,13.2l-18.7-15.2c6.2-6.2,21.5-18.7,50.6-18.7
			s47.1,16.6,47.1,36C1417.3,199.8,1405.5,209.5,1388.9,212.3z M744.7,215.7h49.2c-0.7,5.5-4.2,22.2-23.6,22.2
			C749.5,237.9,746.1,219.9,744.7,215.7z M801.5,185.9l21.5-12.5c-8.3-11.1-23.6-26.3-51.3-26.3c-31.2,0-54,21.5-54,56.1
			c0,37.4,25.6,55.4,52.6,55.4c40.2,0,52-31.9,52-61H744c0.7-5.5,5.5-26.3,29.8-26.3C791.8,171.4,798.7,182.5,801.5,185.9z
			 M824.4,452.6h-24.9v-45.7c0-18-2.1-27-9.7-33.3c-5.5-4.2-10.4-4.8-13.2-4.8c-15.2,0-18.7,13.2-18.7,24.2v58.9h-25.6v-73.4
			c0-20.8,11.8-35.3,33.9-35.3c4.2,0,23.6,1.4,33.3,15.2V346H825L824.4,452.6z M1452.6,348v45.7c0,18,2.1,27,9.7,33.3
			c5.5,4.2,10.4,4.8,13.2,4.8c15.2,0,18.7-13.2,18.7-24.2v-58.9h25.6v72c0,20.8-11.8,35.3-33.9,35.3c-4.2,0-23.6-1.4-33.3-15.2v12.5
			H1427V348H1452.6z M1238.6,496.3H1213V348h25.6V496.3z M938.6,380.6c0-19.4-18-36-47.1-36c-29.1,0-44.3,13.2-50.6,18.7l18.7,15.2
			c4.8-6.9,14.5-13.2,30.5-13.2s20.8,7.6,20.8,12.5c0,6.2-5.5,8.3-15.2,10.4l-13.2,2.1c-8.3,1.4-36.7,6.9-36.7,31.2
			c0,20.8,20.1,33.9,45,33.9c8.3,0,29.1-1.4,45-19.4l-18-16.6c-5.5,11.1-16.6,15.9-28.4,15.9c-4.8,0-17.3-1.4-17.3-11.1
			c0-6.9,6.2-9,21.5-11.8l16.6-3.5C926.9,406.9,938.6,397.2,938.6,380.6L938.6,380.6"/>
		<path id="path14" fill="#253148" d="M489.1,397.2H340.8v148.2H192.6V397.2H44.4V249h148.2V100.7h148.2V249h148.2V397.2"/>
	</g>
</g>
</svg>
