<?xml version="1.0" encoding="UTF-8"?><svg id="a" xmlns="http://www.w3.org/2000/svg" width="212" height="95" viewBox="0 0 212 95"><path d="M121.64,58.98v-12.71c0-2.79,1.79-5.2,4.72-5.2s4.56,1.67,4.56,4.78v13.13h5.4v-14.03c0-5.82-3.89-8.77-8.51-8.77-3.15,0-5.04,1.57-6.2,3.05v-14.37h-5.4v34.14h5.42v-.02Z" style="fill:#2d3b51;"/><path d="M106.91,49.33c0,3.05-1.73,5.1-4.68,5.1s-4.72-1.95-4.72-4.72v-12.83h-5.4v13.39c0,5.82,3.53,9.41,8.99,9.41,2.95,0,4.72-1.26,5.82-2.73v3.09c0,3.09-2.79,5.72-5.82,5.72-2.51,0-4.72-1.67-5.46-3.99h-5.72c.9,5.46,5.62,9.29,11.18,9.29,6.14,0,11.24-4.98,11.24-11.66v-22.52h-5.4v12.46h-.02Z" style="fill:#2d3b51;"/><path d="M165.88,37.61c0-.16.06-.3.22-.3s.22.14.22.3v1h.64v-1c0-.16.04-.3.22-.3s.22.14.22.3v1h.64v-1.06c0-.62-.42-.86-.86-.86-.2,0-.38.08-.52.22-.14-.14-.34-.22-.54-.22-.42,0-.84.24-.84.86v1.06h.62v-1h-.02ZM164.72,37.32h.4v-.62h-1.43v.62h.4v1.3h.62v-1.3h.02Z" style="fill:#2d3b51;"/><polygon points="44.03 52.84 51.13 52.84 61.77 34.41 72.43 52.84 58.7 52.84 58.7 65.14 64.86 65.14 64.86 58.98 83.07 58.98 61.77 22.11 44.03 52.84" style="fill:#2d3b51;"/><path d="M156.81,36.7v3.21c-.76-1.75-2.91-3.79-6.88-3.79-6.3,0-10.86,5.1-10.86,11.92.06,7.13,5.1,11.56,10.92,11.56,3.83,0,6.36-2.41,6.84-3.73v3.03h5.4v-22.2h-5.42ZM156.65,48.26c0,3.21-2.67,5.94-6.1,5.94s-6.1-2.51-6.1-6.36c0-3.63,2.61-6.3,6.1-6.3s6.1,2.57,6.1,5.98v.74Z" style="fill:#2d3b51;"/></svg>