<?xml version="1.0" encoding="UTF-8"?><svg id="a" xmlns="http://www.w3.org/2000/svg" width="212" height="95" viewBox="0 0 212 95"><g id="b"><g id="c"><path id="d" d="M104.83,14.08c-10.82,0-18.82,6.91-18.82,14.28s2.13,7.02,4.85,9.25l.21-.14c-2.13-1.78-4.08-4.54-4.08-8.34.56-8.06,10.51-12.6,19.31-12.6s17.46,1.43,17.46,11.9-5.83,12.57-18.05,12.57-11.1-3.35-11.1-8.17,3.28-7.16,8.13-7.16,2.58.31,3.56.56c-2.02-.35-5.17.14-6.81,1.43v7.05h5.97v-8.03c1.12.21,1.99.63,2.62,1.01v7.02h1.57c-1.22,1.36-3.49,2.2-5.48,1.92v.28c5.69.45,8.1-2.27,8.1-5.31s-3.35-5.69-6.77-6.11v-5.27h-5.97v5.34c-3.88.77-7.65,3.07-7.65,6.91,0,5.87,8.2,9.53,15.33,9.53,10.86,0,19.17-5.24,19.17-12.6s-12.08-15.33-21.54-15.33M113.07,31.82c0-2.58-1.78-4.68-4.99-5.69v-5.9h5.97v14.49h-1.89c.66-.94.87-1.99.87-2.9" style="fill:#2d3b51; fill-rule:evenodd;"/><g id="e"><path id="f" d="M124.97,40.37c.24,0,.28-.1.28-.21s-.07-.17-.24-.17h-.28v.42h.24v-.03ZM124.73,40.62v.7h-.24v-1.57h.52c.28,0,.59.07.59.42s-.1.31-.31.38h0c.21.03.24.14.28.31,0,.14.03.31.1.45h-.31c0-.1-.03-.17-.07-.28,0-.14,0-.24-.1-.35-.07-.07-.14-.07-.21-.07h-.24ZM126.09,40.51c0-.59-.49-1.12-1.08-1.12s-1.12.49-1.12,1.12.49,1.12,1.12,1.12,1.08-.49,1.08-1.12h0ZM123.68,40.51c0-.73.59-1.33,1.33-1.33s1.33.59,1.33,1.33-.59,1.33-1.33,1.33-1.33-.59-1.33-1.33h0Z" style="fill:#2d3b51; fill-rule:evenodd;"/></g><path id="g" d="M89.89,50.78c0,1.57-1.08,2.76-2.55,2.76s-2.55-1.08-2.55-2.65,1.05-2.69,2.55-2.69,2.55,1.19,2.55,2.58ZM89.36,71.62l1.5.21v1.08h-7.33v-1.08l1.5-.21v-14.24l-1.5-.21v-1.08h5.83v15.54h0Z" style="fill:#2d3b51; fill-rule:evenodd;"/><polyline id="h" points="94.04 71.86 95.51 71.62 95.51 49.83 94.04 49.62 94.04 48.54 99.87 48.54 99.87 71.62 101.37 71.86 101.37 72.91 94.04 72.91 94.04 71.86" style="fill:#2d3b51; fill-rule:evenodd;"/><path id="i" d="M110.31,56.08h3.95v1.57h-3.95v10.02c0,2.58.52,3.42,2.86,3.42s1.61,0,2.34-.17v1.15c-2.13.77-3.91,1.08-5.41,1.08-3.35,0-4.15-1.54-4.15-4.5v-11h-3.07v-1.57h3.18v-3.53l4.26-1.29v4.82" style="fill:#2d3b51; fill-rule:evenodd;"/><path id="j" d="M129.09,64.57c0-5.31-1.57-7.65-4.12-7.65s-4.05,2.23-4.05,7.65,1.57,7.58,4.05,7.58,4.12-2.13,4.12-7.58ZM133.91,64.67c0,5.24-3.53,8.76-9.04,8.76s-8.73-2.3-8.73-8.76,3.53-9.04,9.04-9.04,8.73,3.28,8.73,9.04h0Z" style="fill:#2d3b51; fill-rule:evenodd;"/><path id="k" d="M154.26,71.86v1.08h-7.33v-1.08l1.47-.21v-9.6c0-2.65-.98-3.84-2.97-3.84s-2.41.66-3.49,1.4v12.01l1.5.21v1.08h-7.37v-1.08l1.5-.21v-14.14l-1.5-.21v-1.19h5.87v2.34c1.82-1.47,3.6-2.65,6.04-2.65s4.75,1.96,4.75,5.76v10.12l1.5.21" style="fill:#2d3b51; fill-rule:evenodd;"/></g></g><path d="M89.54,86.42c-.28.14-.94.31-1.78.31-2.37,0-3.63-1.5-3.63-3.46s1.68-3.67,3.77-3.67,1.43.17,1.71.31l-.31,1.22c-.31-.14-.77-.24-1.33-.24-1.26,0-2.2.73-2.2,2.27s.8,2.27,2.2,2.27.98-.1,1.29-.21l.24,1.22.03-.03Z" style="fill:#2d3b51;"/><path d="M94.32,84.82l-.49,1.78h-1.61l2.09-6.91h2.06l2.13,6.91h-1.68l-.52-1.78h-1.99ZM96.07,83.66l-.42-1.47c-.14-.42-.24-.91-.35-1.33h0c-.1.42-.21.94-.31,1.33l-.42,1.47h1.54-.03Z" style="fill:#2d3b51;"/><path d="M103.05,79.68v6.91h-1.57v-6.91h1.57Z" style="fill:#2d3b51;"/><path d="M106.47,79.79c.49-.07,1.26-.14,2.09-.14s1.75.14,2.23.56c.42.31.63.8.63,1.43s-.63,1.5-1.22,1.71h0c.49.21.73.7.91,1.33.21.77.42,1.68.56,1.96h-1.61c-.1-.21-.28-.77-.49-1.61-.17-.87-.49-1.08-1.12-1.12h-.45v2.72h-1.54v-6.84ZM108.01,82.76h.63c.77,0,1.26-.38,1.26-.98s-.42-.94-1.15-.98c-.38,0-.59,0-.7.03v1.92h-.03Z" style="fill:#2d3b51;"/><path d="M114.57,86.6v-6.91h1.82l1.43,2.51c.42.73.8,1.57,1.12,2.37h0c-.1-.91-.14-1.85-.14-2.86v-2.02h1.43v6.91h-1.64l-1.47-2.65c-.42-.73-.87-1.64-1.19-2.44h0c.03.91.07,1.89.07,3.04v2.09h-1.43v-.03Z" style="fill:#2d3b51;"/><path d="M123.75,84.99c.42.21,1.08.42,1.75.42s1.08-.31,1.08-.73-.31-.66-1.15-.98c-1.15-.38-1.89-1.05-1.89-2.02s.98-2.09,2.62-2.09,1.36.17,1.75.35l-.35,1.26c-.28-.14-.77-.31-1.43-.31s-1.01.31-1.01.66.38.63,1.29.98c1.22.45,1.78,1.08,1.78,2.06s-.91,2.13-2.79,2.13-1.57-.21-1.96-.42l.31-1.29Z" style="fill:#2d3b51;"/><polyline id="l" points="78.75 50.67 78.75 71.48 80.36 71.69 80.36 72.91 72.4 72.91 72.4 71.69 74.11 71.48 74.11 62.02 63.91 62.02 63.91 71.48 65.48 71.69 65.48 72.91 57.63 72.91 57.63 71.69 59.2 71.48 59.2 50.67 57.63 50.46 57.63 49.28 65.48 49.28 65.48 50.46 63.91 50.67 63.91 59.57 74.11 59.57 74.11 50.67 72.4 50.46 72.4 49.28 80.36 49.28 80.36 50.46 78.75 50.67" style="fill:#2d3b51; fill-rule:evenodd;"/></svg>