<?xml version="1.0" encoding="utf-8"?>
<!-- Generator: Adobe Illustrator 27.2.0, SVG Export Plug-In . SVG Version: 6.00 Build 0)  -->
<svg version="1.1" id="Layer_1" xmlns="http://www.w3.org/2000/svg" xmlns:xlink="http://www.w3.org/1999/xlink" x="0px" y="0px"
	 width="198.4px" height="85px" viewBox="0 0 198.4 85" style="enable-background:new 0 0 198.4 85;" xml:space="preserve">
<style type="text/css">
	.st0{fill:#253148;}
	.st1{fill-rule:evenodd;clip-rule:evenodd;fill:#253148;}
</style>
<g>
	<g>
		<path class="st0" d="M69.4,38.8h-4.9v10.6c0,1.9,1.1,2.3,2.9,2.3c0.7,0,1.4-0.1,2.1-0.1v5.9c-1.4,0-2.9,0.2-4.4,0.2
			c-6.8,0-8.5-2-8.5-8.6V38.8h-4v-5.3h4v-7.6h8v7.6h4.9V38.8z"/>
	</g>
	<g>
		<path class="st0" d="M109.6,38.8h-4.9v10.6c0,1.9,1.1,2.3,2.9,2.3c0.7,0,1.4-0.1,2.1-0.1v5.9c-1.5,0-2.9,0.2-4.4,0.2
			c-6.8,0-8.5-2-8.5-8.6V38.8h-4v-5.3h4v-7.6h8v7.6h4.9V38.8z"/>
	</g>
	<path class="st0" d="M27,47.4c0,7.1-3.6,10.7-11.1,10.7c-8.4,0-11.1-4.8-11.1-11.9v-1.4h7.8v2.9c0,2.1,1.2,3.2,3.2,3.2
		c1.9,0,3-1.1,3-4.1V25.7H27V47.4z"/>
	<path class="st0" d="M35.8,47.2c0.1,3.3,2,5.5,5.4,5.5c1.9,0,3.8-0.9,4.5-2.6H53c-1.4,5.6-6.6,8-12,8c-7.9,0-13.2-4.7-13.2-12.8
		c0-7.4,5.9-12.7,13-12.7c8.6,0,13,6.5,12.6,14.7H35.8z M45.6,42.8c-0.1-2.7-2-4.9-4.7-4.9c-2.8,0-4.6,2-5.1,4.9H45.6z"/>
	<path class="st0" d="M77.2,49.4c0,1.2,0.5,2.1,1.3,2.7c0.7,0.6,1.8,0.8,2.9,0.8c1.5,0,3.7-0.6,3.7-2.5c0-1.9-2.5-2.2-3.9-2.5
		c-5-1.3-11.2-1.4-11.2-7.9c0-5.8,6.3-7.4,11-7.4c5.3,0,10.8,1.5,11.1,7.8h-7.3c0-1-0.4-1.7-1-2.1c-0.6-0.4-1.5-0.6-2.5-0.6
		c-1.3,0-3.4,0.1-3.4,1.8c0,2.3,5.3,2.7,8.9,3.5c4.9,1,6.1,4.5,6.1,6.5c0,6.4-6.1,8.6-11.5,8.6c-5.7,0-11.5-1.9-11.8-8.6H77.2z"/>
	<path class="st0" d="M111,40.8c0.1-3.1,1.6-5.2,3.7-6.4c2.1-1.2,4.9-1.7,7.6-1.7c5.7,0,11.2,1.3,11.2,8v10.5c0,2,0,4.2,0.9,6.1
		h-7.9c-0.3-0.7-0.4-1.5-0.5-2.3c-2,2.1-5,3-7.9,3c-4.6,0-8.2-2.3-8.2-7.3c0-7.8,8.5-7.2,14-8.3c1.3-0.3,2.1-0.7,2.1-2.2
		c0-1.8-2.2-2.5-3.8-2.5c-2.2,0-3.6,1-3.9,3H111z M121.2,53.2c3.7,0,5-2.1,4.8-7.1c-1.1,0.7-3.1,0.8-4.9,1.3
		c-1.8,0.4-3.2,1.2-3.2,3.1C117.9,52.4,119.4,53.2,121.2,53.2z"/>
	<path class="st0" d="M145.7,34.1c-1.2,0.8-2.1,1.9-2.7,3.4h-0.1v-4.2h-7.6v24.1h7.9V45.5c0-3,2-5.7,5.9-5.7c0.9,0,1.7,0.1,2.6,0.3
		L145.7,34.1z"/>
	<polygon class="st1" points="174.5,16.5 175.4,30.1 194.2,30.1 176.2,42.1 180.2,61.8 164.8,48.5 144.1,59.2 156.4,42.3 
		144.8,30.1 163.7,30.1 174.5,16.5 	"/>
</g>
</svg>
