<?xml version="1.0" encoding="UTF-8"?><svg id="a" xmlns="http://www.w3.org/2000/svg" width="212" height="95" viewBox="0 0 212 95"><path d="M63.08,18.08v3.88h-4.68v13.66h-4.88v-13.66h-4.63v-3.88h14.18Z" style="fill:#2d3b51;"/><path d="M68.77,34.63c-1.38-.77-2.47-1.84-3.27-3.21-.8-1.37-1.21-2.91-1.21-4.64s.4-3.27,1.21-4.64c.8-1.37,1.89-2.43,3.27-3.2s2.89-1.14,4.53-1.14,3.17.38,4.54,1.14c1.37.76,2.45,1.83,3.25,3.2.8,1.37,1.19,2.91,1.19,4.64s-.4,3.27-1.19,4.64c-.8,1.37-1.88,2.44-3.26,3.21s-2.89,1.16-4.53,1.16-3.15-.39-4.53-1.16ZM76.25,30.04c.72-.81,1.08-1.9,1.08-3.26s-.36-2.49-1.08-3.3c-.72-.8-1.7-1.21-2.95-1.21s-2.25.4-2.96,1.21c-.71.81-1.07,1.9-1.07,3.3s.36,2.47,1.07,3.27c.71.81,1.7,1.21,2.96,1.21s2.23-.4,2.95-1.22Z" style="fill:#2d3b51;"/><path d="M89.24,18.08v10.17c0,.94.22,1.67.66,2.19s1.11.77,2,.77,1.57-.26,2.03-.78c.46-.52.68-1.25.68-2.18v-10.17h4.88v10.17c0,1.61-.34,2.98-1.02,4.12-.68,1.14-1.61,1.99-2.77,2.56-1.17.57-2.47.86-3.89.86s-2.7-.29-3.82-.86c-1.12-.57-2-1.42-2.64-2.55-.64-1.13-.96-2.5-.96-4.13v-10.17h4.85Z" style="fill:#2d3b51;"/><path d="M111.06,35.61l-3.48-6.47h-.52v6.47h-4.88v-17.54h7.69c1.41,0,2.6.24,3.58.73.98.49,1.72,1.16,2.21,2.02.5.85.75,1.81.75,2.87,0,1.19-.33,2.24-.98,3.15-.65.9-1.61,1.55-2.87,1.93l3.96,6.84h-5.45ZM107.05,25.81h2.41c.66,0,1.16-.16,1.49-.47.33-.32.5-.77.5-1.37,0-.56-.17-1.01-.51-1.33-.34-.32-.83-.49-1.48-.49h-2.41v3.66Z" style="fill:#2d3b51;"/><path d="M123.49,18.08v17.54h-4.88v-17.54h4.88Z" style="fill:#2d3b51;"/><path d="M127.87,34.33c-1.31-.97-2.02-2.36-2.11-4.17h5.2c.05.61.23,1.06.55,1.34.31.28.72.42,1.22.42.45,0,.82-.11,1.11-.34.29-.22.44-.53.44-.93,0-.51-.24-.91-.72-1.19-.48-.28-1.26-.6-2.34-.95-1.14-.38-2.07-.75-2.77-1.11s-1.32-.88-1.84-1.57c-.52-.69-.78-1.59-.78-2.7s.28-2.09.85-2.9c.56-.8,1.34-1.41,2.34-1.83s2.12-.62,3.38-.62c2.04,0,3.67.48,4.89,1.43,1.22.95,1.87,2.29,1.95,4.02h-5.3c-.02-.53-.18-.93-.48-1.19-.31-.27-.7-.4-1.18-.4-.36,0-.66.11-.89.32-.23.21-.35.52-.35.92,0,.33.13.62.39.86.26.24.58.45.96.62.38.17.95.39,1.69.66,1.11.38,2.03.76,2.75,1.13.72.37,1.34.9,1.87,1.57.52.67.78,1.52.78,2.55s-.26,1.98-.78,2.81c-.52.83-1.28,1.48-2.26,1.96-.99.48-2.15.72-3.49.72-2.04,0-3.71-.49-5.02-1.46Z" style="fill:#2d3b51;"/><path d="M162.17,18.08v17.54h-4.88v-9.68l-3.31,9.68h-4.08l-3.33-9.75v9.75h-4.88v-17.54h5.9l4.4,11.39,4.3-11.39h5.87Z" style="fill:#2d3b51;"/><path d="M92.65,58.41h-4.88l-6.49-9.8v9.8h-4.88v-17.54h4.88l6.49,9.93v-9.93h4.88v17.54Z" style="fill:#2d3b51;"/><path d="M99.32,57.43c-1.38-.77-2.47-1.84-3.27-3.21-.8-1.37-1.21-2.91-1.21-4.64s.4-3.27,1.21-4.64c.8-1.37,1.89-2.43,3.27-3.2,1.38-.76,2.89-1.14,4.53-1.14s3.17.38,4.54,1.14c1.37.76,2.45,1.83,3.25,3.2.8,1.37,1.19,2.91,1.19,4.64s-.4,3.27-1.19,4.64c-.8,1.37-1.88,2.44-3.26,3.21-1.38.77-2.89,1.16-4.53,1.16s-3.15-.38-4.53-1.16ZM106.79,52.84c.72-.81,1.08-1.9,1.08-3.26s-.36-2.49-1.08-3.3c-.72-.81-1.7-1.21-2.95-1.21s-2.25.4-2.96,1.21c-.71.8-1.07,1.9-1.07,3.3s.36,2.47,1.07,3.27c.71.8,1.7,1.21,2.96,1.21s2.23-.41,2.95-1.22Z" style="fill:#2d3b51;"/><path d="M123.89,58.41l-3.48-6.47h-.52v6.47h-4.88v-17.54h7.69c1.41,0,2.6.24,3.58.73.98.49,1.72,1.16,2.21,2.02.5.85.75,1.81.75,2.87,0,1.19-.33,2.24-.98,3.15-.65.9-1.61,1.55-2.87,1.93l3.96,6.84h-5.45ZM119.89,48.61h2.41c.66,0,1.16-.16,1.49-.47.33-.31.5-.77.5-1.37,0-.56-.17-1.01-.51-1.33s-.83-.49-1.48-.49h-2.41v3.66Z" style="fill:#2d3b51;"/><path d="M144.66,40.88v3.88h-4.68v13.66h-4.88v-13.66h-4.63v-3.88h14.18Z" style="fill:#2d3b51;"/><path d="M162.17,40.88v17.54h-4.88v-7.04h-5.95v7.04h-4.88v-17.54h4.88v6.59h5.95v-6.59h4.88Z" style="fill:#2d3b51;"/><path d="M106.98,67.58v2.86h5.6v3.71h-5.6v3.16h6.34v3.9h-11.22v-17.54h11.22v3.9h-6.34Z" style="fill:#2d3b51;"/><path d="M126.83,78.36h-6.22l-.95,2.86h-5.12l6.39-17.54h5.62l6.37,17.54h-5.15l-.95-2.86ZM125.61,74.62l-1.89-5.67-1.87,5.67h3.76Z" style="fill:#2d3b51;"/><path d="M136.11,79.93c-1.31-.97-2.02-2.36-2.11-4.17h5.2c.05.61.23,1.06.55,1.34.31.28.72.42,1.22.42.45,0,.82-.11,1.11-.34.29-.22.44-.53.44-.93,0-.51-.24-.91-.72-1.19s-1.26-.6-2.34-.95c-1.14-.38-2.07-.75-2.77-1.11s-1.32-.88-1.84-1.57c-.52-.69-.78-1.59-.78-2.7s.28-2.09.85-2.9c.56-.8,1.34-1.41,2.34-1.83s2.12-.62,3.38-.62c2.04,0,3.67.48,4.89,1.43,1.22.96,1.87,2.29,1.95,4.02h-5.3c-.02-.53-.18-.93-.48-1.19-.31-.27-.7-.4-1.18-.4-.36,0-.66.11-.89.32-.23.22-.35.52-.35.92,0,.33.13.62.39.86.26.24.58.45.96.62s.95.39,1.69.66c1.11.38,2.03.76,2.75,1.13.72.37,1.34.89,1.87,1.57.52.67.78,1.52.78,2.55s-.26,1.98-.78,2.81c-.52.83-1.28,1.48-2.26,1.97-.99.48-2.15.72-3.49.72-2.04,0-3.71-.49-5.02-1.46Z" style="fill:#2d3b51;"/><path d="M163.14,63.68v3.88h-4.68v13.66h-4.88v-13.66h-4.63v-3.88h14.18Z" style="fill:#2d3b51;"/></svg>