<?xml version="1.0" encoding="utf-8"?>
<!-- Generator: Adobe Illustrator 27.1.1, SVG Export Plug-In . SVG Version: 6.00 Build 0)  -->
<svg version="1.1" baseProfile="basic" id="Layer_1"
	 xmlns="http://www.w3.org/2000/svg" xmlns:xlink="http://www.w3.org/1999/xlink" x="0px" y="0px" width="198.4px" height="85px"
	 viewBox="0 0 198.4 85" xml:space="preserve">
<g>
	<path fill="#253148" d="M132.8,72.2h59.4V12.8h-59.4V72.2z M136.3,16.4h52.3v52.3h-52.3V16.4L136.3,16.4z"/>
	<path fill="#253148" d="M151.3,52.2c-1.5,0-3.4-1.2-4-4.4l-5.1,1.1c1.4,5.3,4.7,7.6,8.9,7.6c5.5,0,8.7-3.1,8.7-7.7
		c0-8.5-11.6-8.8-11.6-12.9c0-1.8,1-3,2.9-3s2.9,1.1,3.8,3.6l4.7-1.4c-0.9-3.8-3.7-6.6-8.4-6.6c-5.4,0-8.2,2.9-8.2,7.6
		c0,7.6,11.6,7.7,11.6,12.8C154.5,51,153.2,52.2,151.3,52.2"/>
	<polygon fill="#253148" points="168.2,44.1 168.2,44.1 175.5,44.1 175.5,55.8 180.7,55.8 180.7,28.7 175.5,28.7 175.5,39.5 
		170.6,39.5 168.2,42.9 168.2,39.5 168.2,28.7 163,28.7 163,55.8 168.2,55.8 	"/>
	<path fill="#253148" d="M75.7,72.2h50V43.8h-50C75.7,43.8,75.7,72.2,75.7,72.2z M93.7,67.1h-3.5v-7.9h-4.9v7.9h-3.5V48.8h3.5v9.6
		l1.7-2.3h3.3v-7.3h3.5C93.7,48.8,93.7,67.1,93.7,67.1z M99.6,67.1h-3.5V48.8h3.5V67.1z M111.1,67.1H102V48.8h3.5V64h5.6V67.1
		L111.1,67.1z M121.3,67.1h-9.1V48.8h3.5v17.5l0,0l1.6-2.3h4V67.1L121.3,67.1z"/>
	<path fill="#253148" d="M68.8,20.7H67v5.1h1.8c1.5,0,2.5-0.8,2.5-2.5C71.3,21.4,70.4,20.7,68.8,20.7"/>
	<path fill="#253148" d="M30.7,20.6c-1.4,0-2.3,0.6-2.3,2.6v7.4c0,2,0.9,2.6,2.3,2.6s2.3-0.6,2.3-2.6v-7.5
		C33,21.2,32.1,20.6,30.7,20.6"/>
	<path fill="#253148" d="M6.2,41.3h119.5V12.8H6.2V41.3z M17.3,36.3c-2.8,0-5-1.5-6-5.1l3.4-0.7c0.4,2.2,1.7,3,2.7,3
		c1.2,0,2.2-0.8,2.2-2.2c0-3.4-7.8-3.5-7.8-8.6c0-3.1,1.9-5.1,5.5-5.1c3.1,0,5,1.8,5.6,4.4l-3.1,0.9c-0.6-1.7-1.3-2.5-2.6-2.5
		s-1.9,0.8-1.9,2c0,2.8,7.8,3,7.8,8.7C23.2,34.2,21,36.3,17.3,36.3 M36.5,30.2c0,4.5-2.4,6.1-5.8,6.1s-5.8-1.6-5.8-6.1v-6.5
		c0-4.5,2.4-6.1,5.8-6.1s5.8,1.6,5.8,6.1V30.2z M45.5,36.1h-4l-4.7-18.3h3.4l3.9,16l0.3-6.8l2.3-9.2h3.4L45.5,36.1z M61.3,36.1h-9.8
		V17.8H61v3.1h-6.1v4.2h4.6v3.1h-4.6V33h6.3V36.1L61.3,36.1z M71.8,36.1l-3-7.4h-1.7v7.4h-3.5V17.8h5.1c4.2,0,6.2,2,6.2,5.5
		c0,2.3-0.8,3.9-2.8,4.7l3.4,8.2C75.5,36.1,71.8,36.1,71.8,36.1z M87,36.1h-9.8V17.8h9.6v3.1h-6.1v4.2h4.6v3.1h-4.6V33H87V36.1
		L87,36.1z M92.7,36.1h-3.5V17.8h3.5C92.7,17.8,92.7,36.1,92.7,36.1z M101.1,33.2c1.3,0,2.1-1,2.1-2.5v-1.1h-2.5v-2.9h6v9.4h-1.8
		l-0.5-1.5c-0.9,1.1-1.9,1.8-3.3,1.8c-3.4,0-5.8-1.6-5.8-6.1v-6.5c0-4.5,2.4-6.1,5.8-6.1c3.6,0,5.5,2,5.6,6.2h-3.5
		c0-2.4-0.9-3.1-2.1-3.1c-1.4,0-2.3,0.6-2.3,2.6v7.5C98.9,32.7,99.8,33.2,101.1,33.2 M121.2,36.1h-3.3l-5.3-11.8h-0.1v11.8h-3.2
		V17.8h3.8l6.7,15.1l-1.8-6.6v-8.5h3.2L121.2,36.1L121.2,36.1z"/>
</g>
</svg>
