<?xml version="1.0" encoding="UTF-8"?><svg id="a" xmlns="http://www.w3.org/2000/svg" width="179.08" height="45.08" viewBox="0 0 179.08 45.08"><path d="m11.37,26.81c0-1.64-.18-4.25-2.4-4.25-2.47,0-2.75,2.5-2.75,9.3s.36,9.23,2.75,9.23c2.04,0,2.75-1.86,2.75-5.36v-.82h-2.82v-4h8.4v13.7h-4.11l-.14-2.43h-.07c-.93,2.29-3.18,2.93-5.5,2.93-6.4,0-7.47-4.76-7.47-12.73,0-8.37.57-13.8,9.08-13.8,7.76,0,8.08,5.36,8.08,8.26h-5.79Z" style="fill:#191919; stroke-width:0px;"/><path d="m28.86,45.08c-7.9,0-8.97-5.15-8.97-13.27s1.07-13.27,8.97-13.27c8.51,0,8.97,6.19,8.97,13.27s-.47,13.27-8.97,13.27m-.04-4.01c2.43,0,2.79-2.25,2.79-9.26s-.36-9.26-2.79-9.26-2.72,2.25-2.72,9.26.36,9.26,2.72,9.26" style="fill:#191919; stroke-width:0px;"/><polygon points="40.98 19.05 46.99 19.05 46.99 39.72 55.68 39.72 55.68 44.58 40.98 44.58 40.98 19.05" style="fill:#191919; stroke-width:0px;"/><path d="m57.53,19.05h8.91c5.94,0,8.48,3.08,8.48,11.95s-1.18,13.59-9.08,13.59h-8.3v-25.53Zm6.01,21.1h1.61c2.79,0,3.75-1.11,3.75-8.76,0-6.22-.5-7.9-3.68-7.9h-1.68v16.66Z" style="fill:#191919; stroke-width:0px;"/><path d="m88.75,27.92c0-3.72-.43-5.36-2.43-5.36-2.4,0-2.61,2.29-2.61,8.97,0,7.58.25,9.55,2.75,9.55,2.22,0,2.47-2.54,2.5-6.51h5.79v.89c0,5.51-1.54,9.62-8.98,9.62s-8.3-5.76-8.3-13.44c0-6.54.36-13.09,8.87-13.09,5.29,0,8.19,2.29,8.19,8.29v1.07h-5.79Z" style="fill:#191919; stroke-width:0px;"/><path d="m105.67,45.08c-7.9,0-8.97-5.15-8.97-13.27s1.07-13.27,8.97-13.27c8.51,0,8.97,6.19,8.97,13.27s-.46,13.27-8.97,13.27m-.03-4.01c2.43,0,2.79-2.25,2.79-9.26s-.36-9.26-2.79-9.26-2.72,2.25-2.72,9.26.36,9.26,2.72,9.26" style="fill:#191919; stroke-width:0px;"/><path d="m121.87,19.05h7.51l6.36,25.53h-6.22l-.93-4.86h-6.11l-.89,4.86h-6.22l6.51-25.53Zm3.65,4.65h-.07l-2.11,11.37h4.36l-2.18-11.37Z" style="fill:#191919; stroke-width:0px;"/><path d="m142.65,36.78v.89c0,1.93.54,3.4,2.61,3.4s2.72-1.57,2.72-3.04c0-5.51-10.98-2.43-10.98-11.98,0-4.08,2.18-7.51,8.37-7.51s8.15,3.04,8.15,6.97v.61h-5.8c0-1.22-.14-2.11-.5-2.68-.36-.61-.93-.89-1.82-.89-1.5,0-2.4.89-2.4,2.75,0,5.33,10.98,2.65,10.98,11.66,0,5.79-3.22,8.12-8.73,8.12-4.36,0-8.4-1.32-8.4-6.65v-1.64h5.79Z" style="fill:#191919; stroke-width:0px;"/><polygon points="160.6 23.91 155.24 23.91 155.24 19.05 171.97 19.05 171.97 23.91 166.61 23.91 166.61 44.58 160.6 44.58 160.6 23.91" style="fill:#191919; stroke-width:0px;"/><path d="m179.08,41.08c0,1.93-1.57,3.51-3.5,3.51s-3.49-1.58-3.49-3.51,1.56-3.48,3.49-3.48,3.5,1.57,3.5,3.48" style="fill:#ed1656; stroke-width:0px;"/><path d="m175.79,19.42h-.86v2.39h-.45v-2.39h-.86v-.37h2.18v.37Zm3.3,2.39h-.46v-2.3h-.01l-.9,2.3h-.29l-.91-2.3h-.01v2.3h-.45v-2.75h.7l.82,2.09.81-2.09h.7v2.75Z" style="fill:#191919; stroke-width:0px;"/><path d="m28.83,45.07c-7.9,0-8.97-5.15-8.97-13.27s1.07-13.27,8.97-13.27c8.51,0,8.98,6.19,8.98,13.27s-.47,13.27-8.98,13.27m-.03-4.01c2.43,0,2.79-2.25,2.79-9.26s-.36-9.26-2.79-9.26-2.72,2.25-2.72,9.26.36,9.26,2.72,9.26" style="fill:#191919; stroke-width:0px;"/><path d="m3.91.23h1.96l3.18,11.84h-1.52l-.85-3.25h-3.78l-.88,3.25H.49L3.91.23Zm-.71,7.39h3.18l-1.51-5.72h-.03l-1.64,5.72Z" style="fill:#191919; stroke-width:0px;"/><path d="m10.44.23h1.46v8.32c0,1.74.57,2.55,2.01,2.55,1.56,0,2.02-.9,2.02-2.55V.23h1.46v8.32c0,2.27-1.16,3.75-3.48,3.75s-3.46-1.31-3.46-3.75V.23Z" style="fill:#191919; stroke-width:0px;"/><path d="m24.9,3.3c0-1.24-.45-2.1-1.84-2.1-1.23,0-1.96.66-1.96,1.92,0,3.33,5.59,1.34,5.59,5.67,0,2.73-2.01,3.51-3.68,3.51-2.77,0-3.58-1.43-3.58-3.95h1.46c0,1.33.08,2.75,2.22,2.75,1.16,0,2.05-.83,2.05-2.09,0-3.35-5.59-1.41-5.59-5.76,0-1.09.46-3.27,3.46-3.27,2.26,0,3.28,1.13,3.32,3.3h-1.46Z" style="fill:#191919; stroke-width:0px;"/><polygon points="32.46 12.07 31 12.07 31 1.53 28.03 1.53 28.03 .23 35.44 .23 35.44 1.53 32.46 1.53 32.46 12.07" style="fill:#191919; stroke-width:0px;"/><path d="m37.23.23h3.83c1.86,0,3.03,1.09,3.03,2.97,0,1.3-.45,2.65-1.82,2.99v.03c1.03.12,1.61.96,1.68,1.98l.1,2.02c.07,1.31.28,1.64.63,1.86h-1.76c-.25-.25-.37-1.13-.4-1.71l-.1-1.84c-.11-1.62-1.01-1.73-1.76-1.73h-1.97v5.27h-1.46V.23Zm1.46,5.37h1.44c.86,0,2.44,0,2.44-2.29,0-1.16-.78-1.89-2.14-1.89h-1.74v4.18Z" style="fill:#191919; stroke-width:0px;"/><path d="m48.85.23h1.96l3.18,11.84h-1.52l-.85-3.25h-3.78l-.88,3.25h-1.52L48.85.23Zm-.71,7.39h3.18l-1.51-5.72h-.03l-1.64,5.72Z" style="fill:#191919; stroke-width:0px;"/><polygon points="55.52 .23 56.97 .23 56.97 10.78 61.78 10.78 61.78 12.07 55.52 12.07 55.52 .23" style="fill:#191919; stroke-width:0px;"/><rect x="63.57" y=".23" width="1.46" height="11.84" style="fill:#191919; stroke-width:0px;"/><path d="m69.97.23h1.96l3.18,11.84h-1.52l-.85-3.25h-3.78l-.88,3.25h-1.53L69.97.23Zm-.71,7.39h3.18l-1.51-5.72h-.03l-1.64,5.72Z" style="fill:#191919; stroke-width:0px;"/><path d="m75.99.23h1.52v1.44c0,1.26-.1,2.39-1.52,2.77v-.78c.58-.28.73-.62.73-1.28v-.4h-.73V.23Z" style="fill:#191919; stroke-width:0px;"/><path d="m85.42,3.3c0-1.24-.45-2.1-1.84-2.1-1.23,0-1.96.66-1.96,1.92,0,3.33,5.59,1.34,5.59,5.67,0,2.73-2.01,3.51-3.68,3.51-2.77,0-3.58-1.43-3.58-3.95h1.46c0,1.33.08,2.75,2.22,2.75,1.16,0,2.05-.83,2.05-2.09,0-3.35-5.59-1.41-5.59-5.76,0-1.09.46-3.27,3.46-3.27,2.26,0,3.28,1.13,3.32,3.3h-1.46Z" style="fill:#191919; stroke-width:0px;"/></svg>