<?xml version="1.0" encoding="UTF-8"?>
<svg id="Layer_1" data-name="Layer 1" xmlns="http://www.w3.org/2000/svg" viewBox="0 0 207.9 84.53">
  <defs>
    <style>
      .cls-1 {
        fill: #253148;
      }
    </style>
  </defs>
  <path class="cls-1" d="M0,27c1.78-.03,3.57-.08,5.35-.06,.22,0,.51,.4,.64,.68,1.37,2.9,2.7,5.8,4.05,8.71,.07,.16,.15,.31,.28,.57,.29-.6,.54-1.1,.77-1.62,1.19-2.56,2.4-5.12,3.56-7.7,.24-.53,.53-.71,1.11-.69,1.58,.04,3.16,.02,4.84,.02-.09,.26-.14,.44-.21,.61-2.63,5.68-5.27,11.35-7.89,17.04-.25,.54-.52,.82-1.16,.77-.92-.07-2.04,.27-2.71-.15-.67-.42-.9-1.55-1.28-2.38-2.31-4.97-4.61-9.94-6.92-14.91-.12-.25-.29-.47-.44-.71v-.17Z"/>
  <path class="cls-1" d="M32.14,39.94c1.4,1.08,3,1.45,4.66,1.42,.61-.01,1.31-.28,1.81-.64,.76-.55,.64-1.4-.23-1.78-.7-.31-1.5-.41-2.22-.68-1.32-.49-2.7-.9-3.9-1.6-2.77-1.6-3.28-5.18-1.17-7.6,1.47-1.69,3.38-2.5,5.58-2.55,2.49-.06,4.86,.44,7.07,1.9-.84,1.22-1.65,2.39-2.35,3.39-1.35-.33-2.57-.63-3.79-.9-.3-.07-.64-.06-.95-.01-.73,.12-1.37,.45-1.45,1.25-.08,.82,.55,1.14,1.22,1.34,1.4,.43,2.84,.78,4.2,1.3,2.22,.85,3.53,2.46,3.51,4.93-.02,2.48-1.23,4.29-3.49,5.21-3.87,1.58-7.54,.74-11.2-1.14,.95-1.36,1.81-2.58,2.69-3.83"/>
  <polygon class="cls-1" points="58.57 45.26 58.57 31.45 53.61 31.45 53.61 26.97 68.55 26.97 68.55 31.42 63.61 31.42 63.61 45.26 58.57 45.26"/>
  <rect class="cls-1" x="22.31" y="26.95" width="5.14" height="18.3"/>
  <rect class="cls-1" x="181.05" y="26.65" width="5.11" height="18.93"/>
  <rect class="cls-1" x="46.27" y="26.96" width="4.91" height="18.3"/>
  <path class="cls-1" d="M196.45,38.91c.54-1.24,1.06-2.43,1.65-3.79,.59,1.36,1.11,2.53,1.66,3.79h-3.31Zm10.98,5.65c-2.66-5.73-5.33-11.46-7.95-17.21-.34-.74-.78-.81-1.46-.84-.69-.03-1,.21-1.29,.83-2.67,5.82-5.37,11.63-8.06,17.44-.11,.25-.2,.51-.33,.85,1.41,0,2.71-.11,3.99,.03,1.26,.14,1.96-.3,2.21-1.51,.13-.61,.5-.72,1.07-.7,1.65,.04,3.29,.05,4.94,0,.67-.02,1.03,.19,1.18,.82,.05,.2,.18,.37,.23,.56,.16,.63,.53,.83,1.2,.82,1.59-.03,3.17,.03,4.75,.05v-.35c-.16-.27-.33-.52-.47-.8"/>
  <path class="cls-1" d="M99.03,45.39h-5.29V26.79h5.29v18.6Zm25.69-18.85c4.13-8.91,8.19-17.69,12.3-26.55H58.73c.09,.25,.13,.38,.19,.51,3.96,8.56,7.94,17.12,11.88,25.69,.21,.45,.48,.56,.93,.55,1.44-.02,2.89,.02,4.33-.03,.57-.02,.87,.14,1.1,.68,.74,1.69,1.54,3.36,2.32,5.03,.68,1.47,1.37,2.94,2.11,4.54,1.41-3.04,2.81-5.88,4.04-8.8,.48-1.12,1.03-1.59,2.28-1.47,1.35,.13,2.72,.03,4.13,.03-.06,.22-.07,.3-.1,.38-2.75,5.94-5.5,11.89-8.28,17.82-.12,.25-.54,.48-.84,.5-.98,.06-1.98,.02-3.1,.02,6.06,13.09,12.05,25.99,18.11,39.08,6.2-13.38,12.31-26.57,18.5-39.92-5.34,2.79-11.7,.64-14.04-4.45-2.23-4.86-.12-10.63,4.74-12.9,4.72-2.21,10.76-.41,12.75,3.84-1.42,.85-2.84,1.7-4.24,2.54-2.2-2.59-5.03-2.98-7.19-1.07-1.93,1.71-2.12,4.69-.4,6.61,.87,.97,1.95,1.52,3.26,1.58,1.86,.09,3.26-.75,4.32-2.25,.97,.58,1.88,1.12,2.83,1.68,.16-.32,.29-.57,.41-.82,1.15-2.49,2.29-4.98,3.47-7.46,.13-.27,.43-.64,.66-.65,1.29-.06,2.58-.03,3.99-.03v14.33h5.25v-14.34h5.18v-4.67h-12.61Z"/>
  <path class="cls-1" d="M148.87,40.88c-2.63,0-4.82-2.14-4.85-4.74-.03-2.63,2.19-4.82,4.86-4.81,2.62,0,4.8,2.18,4.8,4.78,0,2.59-2.2,4.76-4.82,4.77m.03-14.75c-5.84-.01-10.35,4.32-10.37,9.94-.01,5.62,4.5,9.99,10.32,10,5.76,.01,10.32-4.37,10.33-9.91,.01-5.64-4.48-10.02-10.29-10.03"/>
  <path class="cls-1" d="M172.47,33.69c-.13,1.14-.95,2-2,2.03-1.01,.03-2.02,0-3.03,0-.11,0-.22-.04-.39-.07v-4.35c1.3,0,2.57-.09,3.81,.03,.97,.09,1.72,1.35,1.6,2.37m2.05,5.57c.25-.2,.45-.36,.65-.53,2.37-2,3.2-4.64,2.32-7.36-.87-2.7-3.32-4.65-6.29-4.75-3.08-.11-6.17-.02-9.34-.02v18.97h5.22v-5.1c.59,0,1.08,.04,1.56-.01,.65-.07,.98,.17,1.23,.78,.54,1.31,1.16,2.58,1.77,3.85,.11,.22,.37,.52,.56,.53,1.8,.04,3.61,.02,5.56,.02-.59-1.16-1.11-2.19-1.62-3.21-.53-1.05-1.07-2.1-1.61-3.17"/>
</svg>