<?xml version="1.0" encoding="utf-8"?>
<!-- Generator: Adobe Illustrator 27.1.1, SVG Export Plug-In . SVG Version: 6.00 Build 0)  -->
<svg version="1.1" baseProfile="basic" id="Layer_1"
	 xmlns="http://www.w3.org/2000/svg" xmlns:xlink="http://www.w3.org/1999/xlink" x="0px" y="0px" width="233.7px" height="77.8px"
	 viewBox="0 0 233.7 77.8" xml:space="preserve">
<path fill="#253148" d="M139,30.6c0,2.8-2.6,5.2-6.8,5.2c-4.2,0-6.4-1.9-7.3-2.7l2.7-2.2c0.7,1,2.1,1.9,4.4,1.9c2.3,0,3-1.1,3-1.8
	c0-0.9-0.8-1.2-2.2-1.5l-1.9-0.3c-1.2-0.2-5.3-1-5.3-4.5c0-3,2.9-4.9,6.5-4.9c1.2,0,4.2,0.2,6.5,2.8L136,25
	c-0.8-1.6-2.4-2.3-4.1-2.3c-0.7,0-2.5,0.2-2.5,1.6c0,1,0.9,1.3,3.1,1.7l2.4,0.5C137.3,26.8,139,28.2,139,30.6L139,30.6z M182.3,13.9
	h-3.7v21.4h3.7V13.9z M213.2,35.3v-6.6c0-2.6,0.3-3.9,1.4-4.8c0.8-0.6,1.5-0.7,1.9-0.7c2.2,0,2.7,1.9,2.7,3.5v8.5h3.7V24.8
	c0-3-1.7-5.1-4.9-5.1c-0.6,0-3.4,0.2-4.8,2.2v-1.8h-3.7v15.2H213.2L213.2,35.3z M122.5,20.2h-3.6v6.6c0,2.6-0.3,3.9-1.4,4.8
	c-0.8,0.6-1.5,0.7-1.9,0.7c-2.2,0-2.7-1.9-2.7-3.5v-8.5h-3.7v10.6c0,3,1.7,5.1,4.9,5.1c0.6,0,3.4-0.2,4.8-2.2v1.8h3.7L122.5,20.2
	L122.5,20.2L122.5,20.2z M119.2,58.7l3.1,1.8c-1.2,1.6-3.4,3.8-7.4,3.8c-4.5,0-7.8-3.1-7.8-8.1c0-5.4,3.7-8,7.6-8
	c5.8,0,7.5,4.6,7.5,8.8h-11.3c0.1,0.8,0.8,3.8,4.3,3.8C117.8,60.8,118.8,59.2,119.2,58.7z M111,54.4h7.1c-0.1-0.8-0.6-3.2-3.4-3.2
	C111.7,51.2,111.2,53.8,111,54.4L111,54.4z M204,54.9l-2.4-0.5c-2.2-0.4-3.1-0.7-3.1-1.7c0-1.4,1.8-1.6,2.5-1.6
	c1.8,0,3.3,0.7,4.1,2.3l2.6-2.4c-2.3-2.6-5.3-2.8-6.5-2.8c-3.6,0-6.5,1.9-6.5,4.9c0,3.6,4.1,4.3,5.3,4.5l1.9,0.3
	c1.4,0.2,2.2,0.6,2.2,1.5c0,0.7-0.8,1.8-3,1.8s-3.6-1-4.4-1.9l-2.7,2.2c0.9,0.9,3.1,2.7,7.3,2.7s6.8-2.4,6.8-5.2
	C208.1,56.7,206.4,55.3,204,54.9L204,54.9z M219.7,54.9l-2.4-0.5c-2.2-0.4-3.1-0.7-3.1-1.7c0-1.4,1.8-1.6,2.5-1.6
	c1.8,0,3.3,0.7,4.1,2.3l2.6-2.4c-2.3-2.6-5.3-2.8-6.5-2.8c-3.6,0-6.5,1.9-6.5,4.9c0,3.6,4.1,4.3,5.3,4.5l1.9,0.3
	c1.4,0.2,2.2,0.6,2.2,1.5c0,0.7-0.8,1.8-3,1.8s-3.6-1-4.4-1.9l-2.7,2.2c0.9,0.9,3.1,2.7,7.3,2.7s6.8-2.4,6.8-5.2
	C223.8,56.7,222,55.3,219.7,54.9L219.7,54.9z M155.4,28.8c0-0.9,0-1.6,0.3-2.5c0.9-2.8,3.8-2.8,4.6-2.8v-3.7h-0.4
	c-0.7,0-3.4,0.1-4.5,2.5v-2.1h-3.7v15.2h3.7V28.8L155.4,28.8z M171.3,50.9v-2.2h-3.7v15.2h3.7v-6.5c0-0.9,0-1.6,0.3-2.5
	c0.9-2.8,3.8-2.8,4.6-2.8v-3.7h-0.3C175.1,48.4,172.4,48.5,171.3,50.9z M192.7,56.3c-0.1,4.1-2.6,8-7.8,8s-7.7-4-7.8-8
	c0.1-4.1,2.6-8,7.8-8S192.6,52.2,192.7,56.3z M188.8,56.3c0-2.3-1.3-4.7-4-4.7s-4,2.3-4,4.7s1.3,4.7,4,4.7S188.8,58.6,188.8,56.3z
	 M135,42.5h3.7v21.4H135v-1.5c-0.3,0.4-1.5,1.9-4.2,1.9c-3.2,0-6.7-2.2-6.7-7.7s3.3-8.3,6.9-8.3c1.2,0,3.1,0.5,4.1,1.7L135,42.5
	L135,42.5z M135.1,56.3c0-2.3-1.2-4.7-3.6-4.7c-2.4,0-3.6,2.3-3.6,4.7s1.2,4.7,3.6,4.7C133.9,61,135.1,58.6,135.1,56.3z M149.4,35.3
	v-3.1c-0.5,0.1-1,0.2-1.5,0.2c-0.1,0-0.9,0-1.4-0.5c-0.3-0.4-0.4-1-0.4-1.6v-7.5h3.2v-2.6h-3.2v-5.4h-3.7v5.4h-2.2v2.6h2.2v9
	c0,2.5,1,4,4.3,4C148,35.8,148.9,35.5,149.4,35.3L149.4,35.3z M171.4,34.2c-1,0.8-2.6,1.6-4.5,1.6c-3.5,0-5.5-2.2-5.5-4.7
	c0-3.3,2.5-4.6,5.4-5.1c2.3-0.4,3.7-0.8,4.7-1.1c0-1.1-0.3-2.3-2.6-2.3c-2.8,0-3.1,1.5-3.1,2.3l-3.7-0.2c0.1-1,0.3-4.9,6.6-4.9
	c4.5,0,6.4,1.7,6.4,4.3V33c0,1.1,0.1,1.5,0.7,2.4h-4.3L171.4,34.2L171.4,34.2z M171.5,29.8v-2c-0.6,0.3-1.5,0.6-2.9,0.9
	c-1.7,0.2-3.3,0.6-3.3,2.1c0,1,0.7,1.9,2.5,1.9C169.4,32.6,171.5,31.8,171.5,29.8z M197.9,35.8c-3.5,0-5.5-2.2-5.5-4.7
	c0-3.3,2.5-4.6,5.4-5.1c2.3-0.4,3.7-0.8,4.7-1.1c0-1.1-0.3-2.3-2.6-2.3c-2.8,0-3.1,1.5-3.1,2.3l-3.7-0.2c0.1-1,0.3-4.9,6.6-4.9
	c4.5,0,6.4,1.7,6.4,4.3V33c0,1.1,0.1,1.5,0.7,2.4h-4.3l-0.1-1.2C201.4,35,199.8,35.8,197.9,35.8L197.9,35.8z M198.8,32.6
	c1.7,0,3.7-0.9,3.7-2.8v-2c-0.6,0.3-1.5,0.6-2.9,0.9c-1.7,0.2-3.3,0.6-3.3,2.1C196.3,31.8,196.9,32.6,198.8,32.6z M189.8,13.9h-3.7
	v3.6h3.7V13.9z M189.8,20.2h-3.7v15.2h3.7V20.2L189.8,20.2z M99.7,13.9l7.2,21.4h-4.3l-1.2-4.2h-8l-1.2,4.2h-4.3l7.2-21.4
	C95.2,13.9,99.8,13.9,99.7,13.9z M100.4,27.6l-2.9-9.8l-2.9,9.8C94.5,27.6,100.4,27.6,100.4,27.6z M101.8,55.1l4.8,8.7H102l-4.2-8
	h-3.6v8h-4V42.5h8.7c4.2,0,7.1,2.8,7.1,6.8C106,51.3,105.2,54,101.8,55.1L101.8,55.1z M101.9,49.3c0-2.3-1.6-3.2-4.2-3.2h-3.6v6.5
	h3.1C100.1,52.6,101.9,51.8,101.9,49.3z M156.7,60.6c-4.8,0-5.9-4.7-5.9-7.5c0-4.7,2.5-7.4,6-7.4c2.4,0,4.3,1.6,4.6,3.9l4-1
	c-0.9-3-3.2-6.6-8.7-6.6c-7.5,0-10.2,6.2-10.2,11c0,7.9,4.9,11.4,10,11.4c6.2,0,8.6-4.7,9.2-6.5l-3.8-1.6
	C161.2,58.5,159.4,60.6,156.7,60.6L156.7,60.6z"/>
<polygon fill="#253148" points="74.1,28.2 52.7,28.2 52.7,6.8 31.3,6.8 31.3,28.2 9.9,28.2 9.9,49.6 31.3,49.6 31.3,71 52.7,71 
	52.7,49.6 74.1,49.6 "/>
</svg>
