<?xml version="1.0" encoding="UTF-8"?><svg id="a" xmlns="http://www.w3.org/2000/svg" width="212" height="95" viewBox="0 0 212 95"><path d="M69.83,21.59v3.74h-5.08v15.44h-4.67v-15.44h-5.08v-3.74h14.84Z" style="fill:#2d3b51;"/><path d="M72.14,40.03c-1.19-.64-2.13-1.55-2.81-2.73-.68-1.18-1.02-2.57-1.02-4.15s.35-2.95,1.04-4.14c.69-1.19,1.64-2.11,2.84-2.75,1.2-.64,2.55-.96,4.04-.96s2.84.32,4.04.96c1.2.64,2.15,1.55,2.84,2.75.69,1.19,1.04,2.57,1.04,4.14s-.35,2.95-1.05,4.14c-.7,1.19-1.66,2.11-2.87,2.75-1.21.64-2.56.96-4.06.96s-2.84-.32-4.03-.96ZM78.46,35.96c.63-.66.94-1.59.94-2.81s-.31-2.16-.92-2.82c-.61-.66-1.36-.98-2.25-.98s-1.67.32-2.27.97c-.6.65-.9,1.59-.9,2.83s.3,2.16.89,2.81c.59.66,1.33.98,2.23.98s1.65-.33,2.28-.98Z" style="fill:#2d3b51;"/><path d="M100.58,25.52v15.25h-4.67v-2.08c-.47.67-1.12,1.22-1.93,1.63-.81.41-1.71.61-2.69.61-1.17,0-2.2-.26-3.09-.78-.89-.52-1.59-1.27-2.08-2.25-.49-.98-.74-2.14-.74-3.47v-8.91h4.65v8.28c0,1.02.26,1.81.79,2.38.53.56,1.24.85,2.13.85s1.63-.28,2.16-.85c.53-.56.79-1.36.79-2.38v-8.28h4.67Z" style="fill:#2d3b51;"/><path d="M109.58,26.08c.82-.48,1.73-.72,2.73-.72v4.95h-1.28c-1.17,0-2.04.25-2.62.75-.58.5-.87,1.38-.87,2.64v7.08h-4.67v-15.25h4.67v2.54c.55-.84,1.23-1.5,2.05-1.98Z" style="fill:#2d3b51;"/><path d="M113.5,23.21c-.52-.48-.78-1.08-.78-1.79s.26-1.33.78-1.82c.52-.48,1.19-.72,2.01-.72s1.46.24,1.98.72c.52.48.78,1.09.78,1.82s-.26,1.31-.78,1.79c-.52.48-1.18.72-1.98.72s-1.49-.24-2.01-.72ZM117.83,25.52v15.25h-4.67v-15.25h4.67Z" style="fill:#2d3b51;"/><path d="M122.67,40.31c-1.04-.46-1.86-1.08-2.46-1.87-.6-.79-.94-1.68-1.01-2.66h4.62c.05.53.3.96.74,1.28.44.33.97.49,1.61.49.58,0,1.03-.11,1.35-.34.32-.23.48-.52.48-.89,0-.44-.23-.76-.68-.97-.46-.21-1.19-.44-2.21-.7-1.09-.25-2-.52-2.73-.81-.73-.28-1.36-.73-1.89-1.34-.53-.61-.79-1.43-.79-2.47,0-.87.24-1.67.72-2.39.48-.72,1.19-1.29,2.13-1.71.94-.42,2.05-.63,3.35-.63,1.91,0,3.42.47,4.52,1.42,1.1.95,1.74,2.2,1.9,3.77h-4.32c-.07-.53-.31-.95-.7-1.26-.39-.31-.91-.46-1.54-.46-.55,0-.97.11-1.26.31-.29.21-.44.5-.44.86,0,.44.23.77.7.98.46.22,1.19.44,2.17.66,1.13.29,2.05.58,2.76.86.71.28,1.33.74,1.87,1.37.54.63.82,1.47.83,2.53,0,.89-.25,1.69-.75,2.39-.5.7-1.22,1.25-2.16,1.65-.94.4-2.03.6-3.27.6-1.33,0-2.51-.23-3.55-.68Z" style="fill:#2d3b51;"/><path d="M158.06,27.08c1.12,1.15,1.68,2.74,1.68,4.78v8.91h-4.65v-8.28c0-.98-.26-1.74-.78-2.28s-1.23-.81-2.15-.81-1.63.27-2.15.81-.78,1.3-.78,2.28v8.28h-4.65v-8.28c0-.98-.26-1.74-.78-2.28s-1.23-.81-2.15-.81-1.63.27-2.15.81-.78,1.3-.78,2.28v8.28h-4.67v-15.25h4.67v1.91c.47-.64,1.09-1.14,1.86-1.52.77-.37,1.63-.56,2.6-.56,1.15,0,2.17.25,3.07.74.9.49,1.61,1.19,2.12,2.1.53-.84,1.25-1.52,2.16-2.05.91-.53,1.9-.79,2.98-.79,1.89,0,3.4.57,4.52,1.72Z" style="fill:#2d3b51;"/><path d="M73.07,46.5v19.19h-4.67v-11.51l-4.29,11.51h-3.77l-4.32-11.53v11.53h-4.67v-19.19h5.52l5.38,13.28,5.33-13.28h5.49Z" style="fill:#2d3b51;"/><path d="M75.94,48.12c-.52-.48-.78-1.08-.78-1.79s.26-1.33.78-1.82c.52-.48,1.19-.72,2.01-.72s1.46.24,1.98.72c.52.48.78,1.09.78,1.82s-.26,1.31-.78,1.79c-.52.48-1.18.72-1.98.72s-1.49-.24-2.01-.72ZM80.27,50.43v15.25h-4.67v-15.25h4.67Z" style="fill:#2d3b51;"/><path d="M82.55,53.9c.59-1.18,1.4-2.09,2.42-2.73,1.02-.64,2.16-.96,3.42-.96,1,0,1.92.21,2.75.63.83.42,1.48.98,1.95,1.69v-7.08h4.67v20.22h-4.67v-2.19c-.44.73-1.06,1.31-1.87,1.75-.81.44-1.75.66-2.83.66-1.26,0-2.4-.32-3.42-.97-1.02-.65-1.83-1.57-2.42-2.76-.59-1.19-.89-2.57-.89-4.14s.3-2.94.89-4.13ZM92.12,55.3c-.65-.67-1.43-1.01-2.36-1.01s-1.72.33-2.36,1c-.65.67-.97,1.58-.97,2.75s.32,2.09.97,2.77c.65.68,1.43,1.02,2.36,1.02s1.72-.34,2.36-1.01c.65-.67.97-1.59.97-2.76s-.32-2.09-.97-2.76Z" style="fill:#2d3b51;"/><path d="M121.88,50.43l-4.13,15.25h-5.17l-2.4-9.89-2.49,9.89h-5.14l-4.15-15.25h4.67l2.16,10.9,2.57-10.9h4.95l2.6,10.85,2.13-10.85h4.4Z" style="fill:#2d3b51;"/><path d="M136.61,59.18h-10.58c.07.95.38,1.67.92,2.17.54.5,1.2.75,1.98.75,1.17,0,1.98-.49,2.43-1.48h4.97c-.26,1-.72,1.9-1.38,2.71-.67.8-1.5,1.43-2.5,1.89-1,.46-2.12.68-3.36.68-1.49,0-2.82-.32-3.99-.96-1.17-.64-2.08-1.55-2.73-2.73-.66-1.18-.98-2.57-.98-4.15s.32-2.97.97-4.15c.65-1.18,1.55-2.09,2.72-2.73,1.17-.64,2.5-.96,4.02-.96s2.79.31,3.94.93c1.15.62,2.05,1.5,2.69,2.65.65,1.15.97,2.49.97,4.02,0,.44-.03.89-.08,1.37ZM131.91,56.58c0-.8-.27-1.44-.82-1.91-.55-.47-1.23-.71-2.05-.71s-1.44.23-1.98.68c-.54.46-.87,1.1-1,1.94h5.85Z" style="fill:#2d3b51;"/><path d="M140.56,65.22c-1.04-.46-1.86-1.08-2.46-1.87-.6-.79-.94-1.68-1.01-2.66h4.62c.05.53.3.96.74,1.28.44.33.97.49,1.61.49.58,0,1.03-.11,1.35-.34.32-.23.48-.52.48-.89,0-.44-.23-.76-.68-.97-.46-.21-1.19-.44-2.21-.7-1.09-.25-2-.52-2.73-.81-.73-.28-1.36-.73-1.89-1.34-.53-.61-.79-1.43-.79-2.47,0-.87.24-1.67.72-2.39.48-.72,1.19-1.29,2.13-1.71.94-.42,2.05-.63,3.35-.63,1.91,0,3.42.47,4.52,1.42,1.1.95,1.74,2.2,1.9,3.77h-4.32c-.07-.53-.31-.95-.7-1.26-.39-.31-.91-.46-1.54-.46-.55,0-.97.11-1.26.31-.29.21-.44.5-.44.86,0,.44.23.77.7.98.46.22,1.19.44,2.17.66,1.13.29,2.05.58,2.76.86.71.28,1.33.74,1.87,1.37.54.63.82,1.47.83,2.53,0,.89-.25,1.69-.75,2.39-.5.7-1.22,1.25-2.16,1.65-.94.4-2.03.6-3.27.6-1.33,0-2.51-.23-3.55-.68Z" style="fill:#2d3b51;"/><path d="M160.42,61.72v3.96h-2.38c-1.69,0-3.02-.41-3.96-1.24-.95-.83-1.42-2.18-1.42-4.06v-6.07h-1.86v-3.88h1.86v-3.72h4.67v3.72h3.06v3.88h-3.06v6.12c0,.46.11.78.33.98.22.2.58.3,1.09.3h1.67Z" style="fill:#2d3b51;"/><path d="M122.14,70.49l-3.11,8.77h-2.67l-3.11-8.77h2.27l2.17,6.62,2.19-6.62h2.26Z" style="fill:#2d3b51;"/><path d="M122.87,71.24c-.24-.22-.36-.49-.36-.82s.12-.61.36-.83.54-.33.92-.33.67.11.91.33c.24.22.36.5.36.83s-.12.6-.36.82c-.24.22-.54.33-.91.33s-.68-.11-.92-.33ZM124.85,72.29v6.97h-2.14v-6.97h2.14Z" style="fill:#2d3b51;"/><path d="M126.05,73.88c.3-.54.71-.96,1.24-1.25.53-.29,1.14-.44,1.82-.44.87,0,1.61.23,2.19.69.59.46.97,1.1,1.16,1.94h-2.27c-.19-.53-.56-.8-1.11-.8-.39,0-.7.15-.94.46-.23.3-.35.74-.35,1.31s.12,1,.35,1.31c.23.3.55.46.94.46.55,0,.92-.27,1.11-.8h2.27c-.18.82-.57,1.46-1.16,1.93-.59.47-1.32.7-2.19.7-.68,0-1.29-.15-1.82-.44s-.94-.71-1.24-1.25c-.3-.54-.44-1.18-.44-1.9s.15-1.36.44-1.9Z" style="fill:#2d3b51;"/><path d="M137.09,77.46v1.81h-1.09c-.78,0-1.38-.19-1.81-.57-.43-.38-.65-1-.65-1.86v-2.78h-.85v-1.77h.85v-1.7h2.14v1.7h1.4v1.77h-1.4v2.8c0,.21.05.36.15.45.1.09.27.14.5.14h.76Z" style="fill:#2d3b51;"/><path d="M139.2,78.93c-.55-.29-.97-.71-1.29-1.25s-.47-1.18-.47-1.9.16-1.35.48-1.89c.32-.55.75-.96,1.3-1.26.55-.29,1.17-.44,1.85-.44s1.3.15,1.85.44c.55.29.98.71,1.3,1.26.32.55.48,1.18.48,1.89s-.16,1.35-.48,1.89c-.32.55-.76.96-1.31,1.26-.55.29-1.17.44-1.86.44s-1.3-.15-1.84-.44ZM142.09,77.07c.29-.3.43-.73.43-1.29s-.14-.99-.42-1.29c-.28-.3-.62-.45-1.03-.45s-.76.15-1.04.44-.41.73-.41,1.29.14.99.41,1.29c.27.3.61.45,1.02.45s.76-.15,1.04-.45Z" style="fill:#2d3b51;"/><path d="M148.53,72.55c.37-.22.79-.33,1.25-.33v2.26h-.59c-.53,0-.93.11-1.2.34-.27.23-.4.63-.4,1.21v3.24h-2.14v-6.97h2.14v1.16c.25-.38.56-.69.94-.91Z" style="fill:#2d3b51;"/><path d="M150.45,71.24c-.24-.22-.36-.49-.36-.82s.12-.61.36-.83.54-.33.92-.33.67.11.91.33c.24.22.36.5.36.83s-.12.6-.36.82c-.24.22-.54.33-.91.33s-.68-.11-.92-.33ZM152.43,72.29v6.97h-2.14v-6.97h2.14Z" style="fill:#2d3b51;"/><path d="M153.59,73.88c.27-.54.64-.96,1.11-1.25.47-.29.99-.44,1.56-.44.49,0,.92.1,1.29.3s.66.46.86.79v-.99h2.14v6.97h-2.14v-.99c-.21.32-.5.59-.87.79s-.8.3-1.29.3c-.57,0-1.08-.15-1.55-.44-.47-.3-.84-.72-1.11-1.26-.27-.55-.41-1.18-.41-1.89s.14-1.35.41-1.89ZM157.97,74.52c-.3-.31-.66-.46-1.08-.46s-.79.15-1.08.46c-.3.3-.44.72-.44,1.26s.15.96.44,1.27c.3.31.66.47,1.08.47s.79-.15,1.08-.46c.3-.31.44-.73.44-1.26s-.15-.95-.44-1.26Z" style="fill:#2d3b51;"/></svg>