<?xml version="1.0" encoding="UTF-8"?><svg id="a" xmlns="http://www.w3.org/2000/svg" width="212" height="95" viewBox="0 0 212 95"><polygon points="53.27 61.26 63.03 55.55 63.03 66.9 72.86 72.55 82.69 66.9 82.69 32.9 72.86 27.26 53.27 38.55 33.6 27.26 23.76 32.9 23.76 66.9 33.6 72.55 43.43 66.9 43.43 55.55 53.27 61.26" style="fill:#2d3b51;"/><path d="M113.34,32.6h-6.86c-.15,0-.23.15-.23.23v2.21c0,.15.15.23.23.23h2.06v12.88c0,.15.15.23.23.23h2.21c.15,0,.23-.15.23-.23v-12.88h2.06c.15,0,.23-.15.23-.23v-2.21c.08-.15,0-.23-.15-.23M100.15,32.6h-5.11c-1.37,0-2.67,1.14-2.67,2.67v10.52c0,1.68,1.37,2.67,2.67,2.67h5.11c.15,0,.23-.15.23-.23v-2.21c0-.15-.15-.23-.23-.23h-4.12c-.61,0-.91-.23-.91-.69v-9.15c0-.53.15-.69.76-.69h4.27c.15,0,.23-.15.23-.23v-2.21c0-.15-.15-.23-.23-.23M104.65,32.6h-2.21c-.15,0-.23.15-.23.23v15.4c0,.15.15.23.23.23h2.21c.15,0,.23-.15.23-.23v-15.4c0-.15-.15-.23-.23-.23M123.48,32.6h-2.44c-.15,0-.23.08-.23.23l-.23,2.29-1.22,5.03-1.22-5.03-.3-2.29c0-.15-.15-.23-.23-.23h-2.44c-.15,0-.23.15-.23.23.15,1.3.23,2.29.69,3.89.69,2.44,2.21,7.01,2.44,7.62v3.81c0,.15.15.23.23.23h2.21c.15,0,.23-.15.23-.23v-3.81c.23-.61,1.75-5.11,2.36-7.55.46-1.83.46-2.29.69-3.96-.08-.15-.15-.23-.3-.23M135.07,45.03c0,.53-.46.69-.91.69h-.76c-.46,0-.91-.23-.91-.69v-9.07c0-.53.23-.69.76-.69h1.14c.53,0,.76.15.76.69v9.07h-.08ZM135.07,32.6h-2.67c-1.45,0-2.67,1.22-2.67,2.59v10.52c0,1.45,1.14,2.59,2.67,2.59h2.67c1.45,0,2.67-1.14,2.67-2.59v-10.44c0-1.45-1.3-2.67-2.67-2.67M147.57,32.6h-7.47c-.15,0-.23.15-.23.23v15.32c0,.15.15.23.23.23h2.21c.15,0,.23-.15.23-.23v-6.94h3.81c.15,0,.23-.15.23-.23v-2.13c0-.15-.15-.23-.23-.23h-3.81v-3.28h5.03c.15,0,.23-.15.23-.23v-2.13c0-.23-.08-.38-.23-.38" style="fill:#2d3b51;"/><path d="M164.72,61.34l.23-.15c.76-.53,1.22-1.6,1.22-2.67v-3.58c0-2.21-1.75-3.96-3.96-3.96h-4.04c-.15,0-.23.15-.23.23v15.32c0,.15.15.23.23.23h2.21c.15,0,.23-.15.23-.23v-4.04h1.52l1.68,4.19c.08.08.15.15.23.15h2.52c.23,0,.3-.15.23-.3l-2.06-5.18ZM163.5,58.44c0,.69-.61,1.37-1.3,1.37h-1.6v-6.18h1.6c.69,0,1.3.53,1.3,1.3v3.51Z" style="fill:#2d3b51;"/><path d="M141.85,50.97h-2.67c-1.45,0-2.67,1.22-2.67,2.67v10.52c0,1.45,1.14,2.67,2.67,2.67h2.67c1.45,0,2.67-1.14,2.67-2.67v-10.6c0-1.37-1.22-2.59-2.67-2.59ZM141.85,63.4c0,.53-.46.69-.91.69h-.76c-.46,0-.91-.23-.91-.69v-9.07c0-.53.23-.69.76-.69h1.14c.53,0,.76.15.76.69v9.07h-.08Z" style="fill:#2d3b51;"/><path d="M123.33,64.16h-4.42v-12.96c0-.15-.15-.23-.23-.23h-2.21c-.15,0-.23.15-.23.23v15.32c0,.15.15.23.23.23h6.78c.15,0,.23-.15.23-.23v-2.13c.08-.15-.08-.23-.15-.23" style="fill:#2d3b51;"/><path d="M154.96,50.97h-2.21c-.15,0-.23.15-.23.23v12.2c0,.53-.46.69-.91.69h-.76c-.46,0-.91-.23-.91-.69v-12.2c0-.15-.15-.23-.23-.23h-2.21c-.15,0-.23.15-.23.23v12.96c0,1.45,1.14,2.67,2.67,2.67h2.67c1.45,0,2.67-1.14,2.67-2.67v-12.96c-.08-.08-.23-.23-.3-.23" style="fill:#2d3b51;"/><path d="M187.9,53.64c.15,0,.23-.15.23-.23v-2.21c0-.15-.15-.23-.23-.23h-7.47c-.15,0-.23.15-.23.23v15.32c0,.15.15.23.23.23h7.47c.15,0,.23-.15.23-.23v-2.13c0-.15-.15-.23-.23-.23h-5.03v-4.5h3.81c.15,0,.23-.15.23-.23v-2.21c0-.15-.15-.23-.23-.23h-3.81v-3.35h5.03Z" style="fill:#2d3b51;"/><path d="M177.15,50.97h-2.21c-.08,0-.15.08-.15.08h0l-.08.08h0v6.1l-2.06-3.89-.38-2.21c0-.15-.15-.23-.23-.23h-2.82c-.15,0-.23.15-.23.23v15.32c0,.15.15.23.23.23h2.21c.15,0,.23-.15.23-.23v-9.68c1.07,2.36,2.9,5.18,3.05,5.72v4.12c0,.15.15.23.23.23h2.21c.15,0,.23-.15.23-.23v-15.32c0-.15-.08-.3-.23-.3" style="fill:#2d3b51;"/><path d="M113.87,50.97h-7.47c-.15,0-.23.15-.23.23v15.32c0,.15.15.23.23.23h7.47c.15,0,.23-.15.23-.23v-2.13c0-.15-.15-.23-.23-.23h-5.03v-4.5h3.81c.15,0,.23-.15.23-.23v-2.21c0-.15-.15-.23-.23-.23h-3.81v-3.35h5.03c.15,0,.23-.15.23-.23v-2.21c.08-.08-.08-.23-.23-.23" style="fill:#2d3b51;"/><path d="M133.77,55.55v-.84c0-2.21-1.75-3.74-3.96-3.74h-4.04c-.15,0-.23.15-.23.23v15.32c0,.15.15.23.23.23h4.04c2.21,0,3.96-1.75,3.96-3.96v-1.91c0-.91-.38-1.91-1.3-2.67.99-.61,1.3-1.75,1.3-2.67ZM131.03,62.86c0,.69-.61,1.3-1.3,1.3h-1.52v-4.5h1.6c.69,0,1.3.61,1.3,1.37v1.83h-.08ZM131.03,55.7c0,.69-.61,1.22-1.3,1.22h-1.52v-3.35h1.6c.69,0,1.3.61,1.3,1.37v.76h-.08Z" style="fill:#2d3b51;"/><path d="M103.12,50.97h-2.82c-.15,0-.23.08-.23.23l-.38,2.21-1.83,5.03-1.83-5.03-.38-2.21c0-.15-.15-.23-.23-.23h-2.82c-.15,0-.23.15-.23.23v15.32c0,.15.15.23.23.23h2.21c.15,0,.23-.15.23-.23v-8.46c.69,1.98,1.45,4.04,1.6,4.42.08.15.15.23.23.23h1.98c.08,0,.23-.08.23-.23.15-.38.91-2.44,1.6-4.42v8.46c0,.15.15.23.23.23h2.21c.15,0,.23-.15.23-.23v-15.25c.08-.15-.08-.3-.23-.3" style="fill:#2d3b51;"/></svg>