<?xml version="1.0" encoding="UTF-8"?><svg id="a" xmlns="http://www.w3.org/2000/svg" width="212" height="95" viewBox="0 0 212 95"><path d="M40.9,47.96c0-1.37-.15-3.54-1.99-3.54-2.05,0-2.29,2.08-2.29,7.74s.3,7.68,2.29,7.68c1.7,0,2.29-1.55,2.29-4.46v-.69h-2.35v-3.33h6.99v11.4h-3.42l-.12-2.02h-.06c-.77,1.9-2.65,2.44-4.58,2.44-5.33,0-6.22-3.96-6.22-10.59,0-6.96.47-11.48,7.56-11.48,6.45,0,6.73,4.46,6.73,6.87h-4.82Z" style="fill:#2d3b51;"/><path d="M55.45,63.16c-6.58,0-7.47-4.28-7.47-11.04s.89-11.04,7.47-11.04c7.08,0,7.47,5.15,7.47,11.04s-.39,11.04-7.47,11.04M55.42,59.83c2.02,0,2.32-1.87,2.32-7.71s-.3-7.71-2.32-7.71-2.26,1.87-2.26,7.71.3,7.71,2.26,7.71" style="fill:#2d3b51;"/><polygon points="65.54 41.5 70.54 41.5 70.54 58.7 77.77 58.7 77.77 62.75 65.54 62.75 65.54 41.5" style="fill:#2d3b51;"/><path d="M79.31,41.5h7.41c4.94,0,7.05,2.56,7.05,9.94s-.98,11.31-7.56,11.31h-6.9v-21.25ZM84.31,59.06h1.34c2.32,0,3.12-.92,3.12-7.29,0-5.18-.42-6.58-3.07-6.58h-1.4v13.87Z" style="fill:#2d3b51;"/><path d="M105.29,48.88c0-3.09-.36-4.46-2.02-4.46-1.99,0-2.17,1.9-2.17,7.47,0,6.31.21,7.94,2.29,7.94,1.84,0,2.05-2.11,2.08-5.42h4.82v.74c0,4.58-1.28,8-7.47,8s-6.9-4.79-6.9-11.19c0-5.44.3-10.89,7.38-10.89,4.4,0,6.81,1.9,6.81,6.9v.89h-4.82Z" style="fill:#2d3b51;"/><path d="M119.36,63.16c-6.57,0-7.47-4.28-7.47-11.04s.89-11.04,7.47-11.04c7.08,0,7.47,5.15,7.47,11.04s-.38,11.04-7.47,11.04M119.33,59.83c2.02,0,2.32-1.87,2.32-7.71s-.3-7.71-2.32-7.71-2.26,1.87-2.26,7.71.3,7.71,2.26,7.71" style="fill:#2d3b51;"/><path d="M132.85,41.5h6.25l5.3,21.25h-5.18l-.77-4.05h-5.09l-.74,4.05h-5.18l5.41-21.25ZM135.88,45.37h-.06l-1.75,9.46h3.63l-1.81-9.46Z" style="fill:#2d3b51;"/><path d="M150.14,56.26v.74c0,1.61.45,2.83,2.17,2.83s2.26-1.31,2.26-2.53c0-4.58-9.13-2.02-9.13-9.97,0-3.39,1.82-6.25,6.96-6.25s6.79,2.53,6.79,5.8v.51h-4.82c0-1.01-.12-1.76-.41-2.23-.3-.51-.77-.74-1.52-.74-1.25,0-1.99.74-1.99,2.29,0,4.43,9.13,2.2,9.13,9.7,0,4.82-2.68,6.75-7.26,6.75-3.63,0-6.99-1.1-6.99-5.53v-1.37h4.82Z" style="fill:#2d3b51;"/><polygon points="165.07 45.55 160.61 45.55 160.61 41.5 174.53 41.5 174.53 45.55 170.07 45.55 170.07 62.75 165.07 62.75 165.07 45.55" style="fill:#2d3b51;"/><path d="M180.45,59.84c0,1.61-1.31,2.92-2.91,2.92s-2.9-1.31-2.9-2.92,1.3-2.9,2.9-2.9,2.91,1.31,2.91,2.9" style="fill:#2d3b51;"/><path d="M177.71,41.81h-.72v1.99h-.38v-1.99h-.72v-.31h1.81v.31ZM180.45,43.79h-.38v-1.91h-.01l-.75,1.91h-.24l-.75-1.91h0v1.91h-.38v-2.29h.58l.69,1.74.67-1.74h.58v2.29Z" style="fill:#2d3b51;"/><path d="M55.43,63.15c-6.57,0-7.47-4.28-7.47-11.04s.89-11.04,7.47-11.04c7.08,0,7.47,5.15,7.47,11.04s-.39,11.04-7.47,11.04M55.4,59.82c2.02,0,2.32-1.87,2.32-7.71s-.3-7.71-2.32-7.71-2.26,1.88-2.26,7.71.3,7.71,2.26,7.71" style="fill:#2d3b51;"/><path d="M34.69,25.85h1.63l2.65,9.85h-1.27l-.71-2.7h-3.15l-.73,2.7h-1.27l2.84-9.85ZM34.1,32h2.65l-1.25-4.76h-.03l-1.37,4.76Z" style="fill:#2d3b51;"/><path d="M40.13,25.84h1.21v6.93c0,1.45.47,2.12,1.67,2.12,1.3,0,1.68-.75,1.68-2.12v-6.93h1.21v6.93c0,1.89-.97,3.12-2.9,3.12s-2.88-1.09-2.88-3.12v-6.93Z" style="fill:#2d3b51;"/><path d="M52.15,28.4c0-1.03-.37-1.75-1.53-1.75-1.02,0-1.63.55-1.63,1.6,0,2.77,4.65,1.12,4.65,4.72,0,2.28-1.67,2.92-3.06,2.92-2.3,0-2.98-1.19-2.98-3.28h1.22c0,1.1.07,2.29,1.85,2.29.96,0,1.71-.69,1.71-1.74,0-2.79-4.65-1.17-4.65-4.79,0-.91.39-2.72,2.88-2.72,1.88,0,2.73.94,2.76,2.75h-1.22Z" style="fill:#2d3b51;"/><polygon points="58.45 35.7 57.23 35.7 57.23 26.92 54.76 26.92 54.76 25.84 60.93 25.84 60.93 26.92 58.45 26.92 58.45 35.7" style="fill:#2d3b51;"/><path d="M62.42,25.85h3.19c1.55,0,2.52.91,2.52,2.47,0,1.08-.37,2.21-1.52,2.48v.03c.86.1,1.34.8,1.39,1.64l.08,1.68c.06,1.09.23,1.37.52,1.55h-1.46c-.21-.21-.3-.94-.33-1.42l-.08-1.53c-.1-1.35-.84-1.44-1.46-1.44h-1.64v4.39h-1.21v-9.85ZM63.63,30.32h1.2c.72,0,2.03,0,2.03-1.9,0-.97-.65-1.57-1.78-1.57h-1.45v3.48Z" style="fill:#2d3b51;"/><path d="M72.09,25.85h1.63l2.65,9.85h-1.27l-.71-2.7h-3.15l-.73,2.7h-1.27l2.84-9.85ZM71.49,32h2.65l-1.25-4.76h-.03l-1.37,4.76Z" style="fill:#2d3b51;"/><polygon points="77.63 25.84 78.85 25.84 78.85 34.62 82.85 34.62 82.85 35.7 77.63 35.7 77.63 25.84" style="fill:#2d3b51;"/><rect x="84.34" y="25.84" width="1.21" height="9.85" style="fill:#2d3b51;"/><path d="M89.66,25.85h1.63l2.65,9.85h-1.27l-.71-2.7h-3.15l-.73,2.7h-1.27l2.84-9.85ZM89.07,32h2.65l-1.25-4.76h-.03l-1.37,4.76Z" style="fill:#2d3b51;"/><path d="M94.67,25.84h1.27v1.2c0,1.05-.08,1.99-1.27,2.3v-.65c.48-.24.61-.51.61-1.06v-.33h-.61v-1.46Z" style="fill:#2d3b51;"/><path d="M102.52,28.4c0-1.03-.37-1.75-1.53-1.75-1.02,0-1.63.55-1.63,1.6,0,2.77,4.65,1.12,4.65,4.72,0,2.28-1.67,2.92-3.06,2.92-2.31,0-2.98-1.19-2.98-3.28h1.22c0,1.1.07,2.29,1.85,2.29.97,0,1.71-.69,1.71-1.74,0-2.79-4.65-1.17-4.65-4.79,0-.91.39-2.72,2.88-2.72,1.88,0,2.73.94,2.76,2.75h-1.22Z" style="fill:#2d3b51;"/></svg>