<?xml version="1.0" encoding="utf-8"?>
<!-- Generator: Adobe Illustrator 27.1.1, SVG Export Plug-In . SVG Version: 6.00 Build 0)  -->
<svg version="1.1" baseProfile="basic" id="Layer_1"
	 xmlns="http://www.w3.org/2000/svg" xmlns:xlink="http://www.w3.org/1999/xlink" x="0px" y="0px" width="212.6px" height="85px"
	 viewBox="0 0 212.6 85" xml:space="preserve">
<g>
	<g>
		<path fill="#253148" d="M75.2,6.6c0.6-0.3,1.6-0.3,2.3-0.1l0,3.3c-0.5-0.1-1.1-0.4-1.7-0.9c-0.6-0.5-0.9-1.1-0.9-1.8
			C74.9,6.8,75,6.7,75.2,6.6 M80,6.4C81.3,6,82.7,6,83.5,6.3l0,6.8c-1-0.3-2.9-1.4-3.5-2.5L80,6.4L80,6.4z M86.1,6.3
			c2.1-1.1,4.8-1,6.2-0.1v12.1c-0.2,0-0.6-0.1-1.1-0.3c-2-0.8-4.3-2.7-5-4.2L86.1,6.3L86.1,6.3z M94.8,6.3c3.2-2,7.7-2.1,9.9-0.1
			v20.5c-0.1,0-0.3,0.1-0.7,0c-2.7-0.3-7.8-4.3-9.3-7.8C94.7,18.9,94.8,6.3,94.8,6.3z M107.2,6.4c3.5-1.8,7.4-2.2,10.4-1.2
			c3.2,1.1,5.6,3.8,7.3,7.9c2.7,6.6,5.5,10.2,9.8,12.3c0,0.9,0,2.2,0,2.2c0,0.2-0.1,0.3-0.2,0.3c-1.5,0.1-2.7,1.3-2.7,2.8
			c0,0.3-0.2,0.3-0.3,0.3c-0.7-0.1-1.4,0-1.9,0.3c-0.7,0.4-1.1,1-1.4,1.7c0,0.1-0.1,0.2-0.2,0.2c-0.1,0-0.1,0-0.2,0
			c-1.3-0.7-2.9-0.2-3.7,1.1c-0.1,0.2-0.3,0.2-0.4,0.2c-1.1-1-2.8-0.9-3.9,0.2c-0.1,0.1-0.2,0.1-0.3,0.1c-0.1,0-0.1,0-0.2-0.1
			c-0.9-1.2-2.4-1.6-3.8-0.8c-0.1,0-0.2,0.1-0.3,0.1c-0.1,0-0.1-0.1-0.2-0.1c-0.5-1.4-2-2.1-3.5-1.7c-0.1,0-0.2,0-0.3,0
			c-0.1,0-0.1-0.1-0.1-0.1c-0.2-1.5-1.4-2.6-2.9-2.5c-0.1,0-0.2,0-0.3-0.1c-0.1,0-0.1-0.2-0.1-0.3v-0.1l0-0.1c0-0.2-0.1-0.5-0.1-0.7
			c-0.1-0.6-0.2-1.3-0.7-1.9L107.2,6.4L107.2,6.4z M76.3,12c0.4,0.2,1.2,0.4,1.9,0.4c1.3,1.6,3.8,3.1,5.4,3.3c0.2,0,0.4,0,0.6,0
			c1.6,2.4,5.2,4.9,7.6,5.2c0.4,0,0.7,0,1,0c2.1,3.9,7.4,8.1,10.9,8.4c0.7,0.1,1.2,0,1.7-0.2c0,0.2,0,0.3,0.1,0.5
			c0.1,0.7,0.4,1.4,0.9,1.9c0.5,0.5,1.3,0.8,2,0.8c0.2,0,0.4,0.1,0.4,0.3v0.2l0,0.2c0.2,0.7,0.7,1.3,1.3,1.7
			c0.7,0.4,1.4,0.4,2.2,0.2c0.2-0.1,0.4,0,0.4,0.2l0,0.1l0.1,0.1c0.4,0.7,1,1.1,1.7,1.3c0.7,0.2,1.5,0.1,2.2-0.3
			c0.2-0.1,0.4-0.1,0.5,0.1l0.1,0.1l0.1,0.1c0.6,0.5,1.3,0.8,2,0.8s1.5-0.3,2-0.8c0.2-0.2,0.3-0.2,0.5,0l0.1,0.1l0.1,0.1
			c1.4,0.8,3.1,0.4,3.9-1c0.1-0.2,0.3-0.3,0.5-0.1l0.1,0.1l0.1,0.1c0.7,0.2,1.5,0.1,2.2-0.2c0.7-0.4,1.1-1,1.3-1.7
			c0-0.1,0.1-0.2,0.2-0.2c0.1-0.1,0.2,0,0.3,0l0.2,0h0.2c1.6,0,2.9-1.2,2.9-2.8c0-0.2,0.1-0.4,0.4-0.4h0.2l0.1,0
			c1.3-0.3,2.2-1.4,2.2-2.8v-3l0-0.8l-0.7-0.3c-4-1.8-6.6-4.9-9.2-11.3c-2-4.9-4.9-8-8.8-9.3c-5-1.8-9.8,0-12.3,1.2
			c-3.1-2.5-8.5-2.5-12.6,0c-2.3-1.4-5.9-1.4-8.7,0.1c-1.6-0.8-4.1-0.8-6.1,0.1c-1.2-0.5-3.2-0.6-4.6,0c-1.1,0.6-1.8,1.6-1.8,2.8
			C72.4,9.7,74.4,11.3,76.3,12"/>
		<path fill="#253148" d="M108.7,8.6c-0.2,0.1-0.3,0.3-0.3,0.6c0,0.4,0.3,0.7,0.7,0.7c0.4,0,0.7-0.3,0.7-0.7c0-0.3-0.2-0.5-0.4-0.6
			c0.2-0.1,0.3-0.3,0.3-0.6c0-0.4-0.3-0.7-0.7-0.7s-0.7,0.3-0.7,0.7C108.3,8.2,108.5,8.5,108.7,8.6"/>
		<path fill="#253148" d="M96.3,8.2c0.4,0,0.7-0.3,0.7-0.7s-0.3-0.7-0.7-0.7c-0.4,0-0.7,0.3-0.7,0.7C95.7,7.9,96,8.2,96.3,8.2"/>
		<path fill="#253148" d="M87.6,8.1c0.4,0,0.7-0.3,0.7-0.7S88,6.8,87.6,6.8s-0.7,0.3-0.7,0.7S87.2,8.1,87.6,8.1"/>
		<path fill="#253148" d="M81.3,8.2c0.4,0,0.7-0.3,0.7-0.7c0-0.4-0.3-0.7-0.7-0.7s-0.7,0.3-0.7,0.7C80.6,7.9,80.9,8.2,81.3,8.2"/>
		<path fill="#253148" d="M81.3,10.6c0.1,0,0.1,0,0.2,0c0,0.4,0.3,0.7,0.7,0.7s0.7-0.3,0.7-0.7s-0.3-0.7-0.7-0.7c-0.1,0-0.1,0-0.2,0
			c0-0.2-0.1-0.3-0.2-0.5C81.9,9.3,82,9.1,82,8.9c0-0.4-0.3-0.7-0.7-0.7s-0.7,0.3-0.7,0.7c0,0.2,0.1,0.4,0.2,0.5
			c-0.2,0.1-0.3,0.3-0.3,0.5C80.6,10.3,80.9,10.6,81.3,10.6"/>
		<path fill="#253148" d="M88.1,14.4c0.1,0,0.2,0,0.3-0.1v0c0,0.4,0.3,0.7,0.7,0.7h0c0,0.3,0.3,0.6,0.7,0.6c0.1,0,0.1,0,0.2,0v0.1
			c0,0.4,0.3,0.7,0.7,0.7c0.4,0,0.7-0.3,0.7-0.7c0-0.4-0.7-0.7-0.6-0.7c0.4,0,0.7-0.3,0.7-0.7s-0.3-0.7-0.7-0.7h-0.1
			c0-0.3-0.3-0.6-0.7-0.6c-0.2,0-0.3,0-0.4,0.2C89.4,13.1,89.2,13,89,13s-0.4,0.1-0.5,0.2l-0.1-0.1c0-0.1,0-0.3,0-0.4v-0.1
			c0.1,0.1,0.2,0.1,0.4,0.1c0.4,0,0.7-0.3,0.7-0.6s-0.3-0.5-0.7-0.5c-0.1,0-0.1,0-0.2,0c0-0.1-0.1-0.1-0.2-0.2
			c0.2-0.1,0.3-0.3,0.3-0.6c0-0.3-0.2-0.5-0.4-0.6c0-0.2-0.2-0.3-0.3-0.3c0.2-0.1,0.4-0.3,0.4-0.6c0-0.4-0.3-0.7-0.7-0.7
			S87.1,9,87.1,9.3c0,0.3,0.2,0.5,0.4,0.6c-0.2,0.1-0.4,0.3-0.4,0.6c0,0.2,0.1,0.4,0.2,0.5c-0.3,0.1-0.5,0.3-0.5,0.6
			c0,0.4,0.3,0.6,0.6,0.7c-0.2,0.1-0.3,0.3-0.3,0.6c0,0.2,0.1,0.4,0.3,0.6c0,0.1,0,0.1,0,0.2C87.4,14,87.7,14.3,88.1,14.4"/>
		<path fill="#253148" d="M97.8,20.6c0,0.1-0.1,0.2-0.1,0.3c0,0.3,0.2,0.6,0.5,0.7c0,0.1-0.1,0.2-0.1,0.2c0,0.4,0.3,0.7,0.7,0.7
			c0.1,0,0.2,0,0.3-0.1v0c0,0.4,0.3,0.7,0.7,0.7c0.1,0,0.2,0,0.3-0.1l0,0.1c0,0.4,0.3,0.7,0.7,0.7l0.1,0c0.1,0.1,0.3,0.2,0.4,0.2
			c0.3,0,0.6-0.3,0.7-0.6l0,0c0.1,0.1,0.1,0.2,0.3,0.3c-0.2,0.1-0.4,0.3-0.4,0.6c0,0.4,0.3,0.7,0.7,0.7c0.4,0,0.7-0.3,0.7-0.7
			c0-0.2-0.1-0.4-0.3-0.5c0.2-0.1,0.4-0.3,0.4-0.6c0-0.3-0.3-0.6-0.7-0.7l0,0c0.4,0,0.7-0.3,0.7-0.7s-0.3-0.7-0.7-0.7
			c-0.3,0-0.5,0.2-0.6,0.5l0,0c0-0.1,0.1-0.2,0.1-0.3c0-0.4-0.3-0.7-0.7-0.7c-0.2,0-0.3,0.1-0.4,0.2c0-0.1,0.1-0.2,0.1-0.3
			c0-0.4-0.3-0.7-0.7-0.7c-0.2,0-0.4,0.1-0.5,0.2l0,0c0-0.1,0-0.1,0-0.2c0-0.4-0.3-0.7-0.7-0.7h0c0-0.1,0.1-0.2,0.1-0.3
			c0.1,0.1,0.2,0.1,0.4,0.1c0.4,0,0.7-0.3,0.7-0.7c0-0.4-0.3-0.7-0.7-0.7c-0.3,0-0.6,0.3-0.7,0.6c-0.1-0.1-0.2-0.1-0.4-0.1
			c-0.2,0-0.5,0.1-0.5,0.1c0.1-0.1,0.2-0.3,0.2-0.5c0-0.4-0.3-0.7-0.7-0.7c-0.1,0,0-0.2,0-0.4c0-0.4-0.3-0.7-0.7-0.7
			c0,0,0.6-0.3,0.6-0.7c0-0.4-0.3-0.7-0.7-0.7h0c0-0.3-0.1-0.5-0.3-0.6c0.2-0.1,0.3-0.3,0.3-0.5c0-0.1,0-0.2-0.1-0.3
			c0.2-0.1,0.4-0.3,0.4-0.6c0-0.2-0.1-0.4-0.3-0.5c0.2-0.1,0.3-0.3,0.3-0.6c0-0.3-0.2-0.5-0.4-0.6c-0.1-0.2-0.2-0.3-0.3-0.3
			c0.2-0.1,0.4-0.3,0.4-0.6c0-0.4-0.3-0.7-0.7-0.7s-0.7,0.3-0.7,0.7c0,0.3,0.1,0.5,0.4,0.6c-0.2,0.1-0.4,0.3-0.4,0.6
			c0,0.2,0.1,0.4,0.2,0.5c-0.3,0.1-0.5,0.3-0.5,0.7c0,0.4,0.3,0.6,0.6,0.7c-0.2,0.1-0.3,0.3-0.3,0.6c0,0.2,0.1,0.5,0.3,0.6
			c-0.2,0.1-0.3,0.3-0.3,0.5c0,0.3,0.2,0.5,0.4,0.6c-0.3,0.1-0.5,0.3-0.5,0.6c0,0.3,0.2,0.6,0.5,0.6C96,16.6,96,16.8,96,16.9
			c0,0.3,0.2,0.5,0.5,0.6l0,0l-0.1,0c-0.4,0-0.7,0.3-0.7,0.7c0,0.3,0.3,0.7,0.6,0.7V19c0,0.4,0.3,0.7,0.7,0.7h0.1
			c0,0.1-0.1,0.2-0.1,0.3c0,0.4,0.3,0.7,0.7,0.7C97.7,20.7,97.8,20.6,97.8,20.6"/>
		<path fill="#253148" d="M102.8,20.6c0.4,0,0.7-0.3,0.7-0.7c0-0.4-0.3-0.7-0.7-0.7s-0.7,0.3-0.7,0.7
			C102.1,20.3,102.4,20.6,102.8,20.6"/>
		<path fill="#253148" d="M108.7,17.5c-0.2,0.1-0.3,0.3-0.3,0.6c0,0.4,0.3,0.6,0.6,0.7v0.2c-0.3,0.1-0.6,0.3-0.6,0.7
			c0,0.2,0.1,0.3,0.1,0.4c-0.1,0.1-0.2,0.3-0.2,0.5c0,0.3,0.2,0.5,0.5,0.6c-0.1,0.1-0.2,0.3-0.2,0.4c0,0.2,0.1,0.4,0.3,0.5v0.1
			c-0.3,0-0.6,0.3-0.6,0.7c0,0.3,0.1,0.5,0.4,0.6c-0.2,0.1-0.4,0.3-0.4,0.6c0,0.2,0.1,0.4,0.2,0.5c-0.3,0.1-0.4,0.3-0.4,0.6
			c0,0.3,0.2,0.6,0.5,0.7c-0.2,0.1-0.3,0.3-0.3,0.6c0,0.4,0.3,0.7,0.7,0.7l0.1,0c0,0.3,0.3,0.6,0.7,0.6c0.2,0,0.3-0.1,0.4-0.2v0.1
			c0,0.4,0.3,0.7,0.7,0.7c0.3,0,0.6-0.2,0.6-0.5c0.1,0.3,0.3,0.4,0.6,0.4c0.2,0,0.4-0.1,0.6-0.3c0.1,0.3,0.3,0.4,0.6,0.4
			c0.1,0,0.3,0,0.3-0.1c0,0.4,0.3,0.7,0.7,0.7s0.7-0.3,0.7-0.7c0,0,0.3,0.3,0.6,0.3c0.1,0,0.2,0,0.3,0c0.1,0.1,0.3,0.2,0.5,0.2
			c0.3,0,0.6-0.2,0.6-0.5c0.1,0.2,0.3,0.4,0.6,0.4c0.4,0,0.7-0.3,0.7-0.7c0,0,0.3,0.4,0.7,0.4c0.2,0,0.3,0,0.4-0.1
			c0.1,0.2,0.3,0.3,0.6,0.3c0.3,0,0.5-0.2,0.6-0.4c0.1,0.1,0.3,0.1,0.4,0.1c0.4,0,0.7-0.3,0.7-0.7l0.1-0.1c0,0.4,0.3,0.7,0.7,0.7
			c0.3,0,0.6-0.3,0.7-0.6c0.1,0.1,0.3,0.2,0.4,0.2c0.3,0,0.5-0.2,0.6-0.4c0.2-0.1,0.3-0.3,0.3-0.5c0.1,0.2,0.3,0.4,0.6,0.4
			c0.4,0,0.7-0.3,0.7-0.7c0-0.4-0.3-0.7-0.7-0.7c-0.3,0-0.6,0.3-0.7,0.6c-0.1-0.1-0.2-0.3-0.3-0.3c-0.1-0.3-0.3-0.4-0.6-0.4
			c-0.3,0-0.5,0.2-0.6,0.4c-0.1-0.1-0.3-0.2-0.5-0.2c-0.1,0-0.1,0-0.2,0c0-0.1,0-0.2,0-0.3c0.2-0.1,0.4-0.3,0.4-0.6
			c0-0.4-0.3-0.7-0.7-0.7c-0.4,0-0.7,0.3-0.7,0.7c0,0.1,0,0.2,0.1,0.3c-0.2,0.1-0.4,0.6-0.5,0.6v-0.1c0-0.4-0.3-0.7-0.7-0.7
			c-0.1,0-0.1,0-0.2,0c0-0.3-0.3-0.6-0.7-0.6c-0.3,0-0.5,0.1-0.6,0.4c-0.1-0.2-0.3-0.4-0.6-0.4c-0.3,0-0.5,0.2-0.6,0.4
			c-0.1-0.3-0.3-0.5-0.7-0.5c-0.2,0-0.6,0.3-0.6,0.3c0.1-0.1,0.1-0.2,0.1-0.3c0-0.4-0.3-0.7-0.7-0.7c-0.3,0-0.5,0.2-0.5,0v-0.1
			c0.3-0.1,0.6-0.3,0.6-0.7c0-0.4-0.3-0.7-0.7-0.7s-0.7,0.3-0.7,0.7l0,0.1h-0.2l0-0.2c0-0.5-0.5-0.6-0.6-0.6c-0.3,0-0.5,0.2-0.6,0.4
			c-0.1-0.3-0.3-0.5-0.6-0.5c0.1-0.1,0.2-0.3,0.2-0.5c0-0.4-0.3-0.7-0.7-0.7c-0.1,0-0.2,0-0.3,0.1c0-0.1,0-0.1,0-0.2v-0.1h0.1
			c0.4,0,0.7-0.3,0.7-0.7c0-0.4-0.2-0.6-0.5-0.6c-0.4,0-0.7,0.2-0.7,0.5l-0.1,0.3l-0.2,0.1c-0.2,0-0.3,0.1-0.4,0.3
			c0-0.1-0.1-0.3-0.1-0.4l0.1,0c0.4,0,0.7-0.3,0.7-0.7c0-0.4-0.3-0.7-0.7-0.7h-0.1c0.2-0.1,0.3-0.2,0.3-0.4c0.3-0.1,0.4-0.3,0.4-0.6
			c0-0.4-0.3-0.7-0.7-0.7c-0.1,0-0.3,0.1-0.4,0.1c0-0.1,0-0.2,0-0.3c0-0.2-0.1-0.4-0.3-0.6c0.1-0.1,0.2-0.2,0.3-0.4
			c0.1-0.1,0.2-0.3,0.2-0.5c0-0.4-0.3-0.7-0.7-0.7c-0.1,0-0.1,0-0.2,0l0,0c0.2-0.1,0.4-0.3,0.4-0.6c0-0.2-0.1-0.5-0.3-0.6
			c0.3-0.1,0.6-0.3,0.6-0.7c0-0.3-0.2-0.6-0.5-0.6c0.1-0.1,0.2-0.3,0.2-0.5c0-0.3-0.2-0.5-0.4-0.6c0.2-0.1,0.4-0.3,0.4-0.6
			c0-0.4-0.3-0.7-0.7-0.7s-0.7,0.3-0.7,0.7c0,0.2,0.1,0.5,0.4,0.6c-0.2,0.1-0.4,0.3-0.4,0.6c0,0.3,0.2,0.6,0.5,0.6
			c-0.1,0.1-0.2,0.3-0.2,0.5c0,0.2,0.1,0.4,0.3,0.6c-0.3,0.1-0.5,0.3-0.5,0.7c0,0.3,0.1,0.5,0.4,0.6c-0.2,0.1-0.4,0.3-0.4,0.6
			c0,0.2,0.1,0.4,0.2,0.5c-0.3,0.1-0.5,0.3-0.5,0.7C108.1,17.1,108.3,17.4,108.7,17.5"/>
		<path fill="#253148" d="M127,26.5c0.4,0,0.7-0.3,0.7-0.7s-0.3-0.7-0.7-0.7s-0.7,0.3-0.7,0.7S126.6,26.5,127,26.5"/>
		<path fill="#253148" d="M125.5,29.3L125.5,29.3c0,0.1-0.1,0.2-0.1,0.3c-0.1-0.1-0.2-0.1-0.4-0.1c-0.3,0-0.6,0.2-0.7,0.5
			c-0.1-0.1-0.3-0.2-0.5-0.2c-0.2,0-0.4,0.1-0.5,0.3c-0.1-0.1-0.3-0.2-0.5-0.2c-0.4,0-0.7,0.3-0.7,0.7s0.3,0.7,0.7,0.7
			c0.2,0,0.4-0.1,0.6-0.3c0.1,0.1,0.3,0.2,0.5,0.2c0.3,0,0.6-0.2,0.7-0.5c0.1,0.1,0.3,0.2,0.5,0.2c0.3,0,0.5-0.2,0.6-0.4
			c0.1,0.1,0.3,0.1,0.4,0.1c0.3,0,0.5-0.2,0.6-0.4c0.1,0.1,0.3,0.2,0.4,0.2c0.3,0,0.6-0.3,0.7-0.6c0.1,0.1,0.2,0.1,0.4,0.1
			c0.3,0,0.6-0.3,0.7-0.6c0.1,0.1,0.3,0.2,0.4,0.2c0.4,0,0.7-0.3,0.7-0.7l0-0.2c0.1,0.1,0.2,0.1,0.4,0.1c0.4,0,0.7-0.3,0.7-0.7
			c0.1,0.1,0.2,0.1,0.4,0.1c0.4,0,0.7-0.3,0.7-0.7v-0.1c0.1,0,0.2,0.1,0.3,0.1c0.4,0,0.7-0.3,0.7-0.7s-0.3-0.7-0.7-0.7
			c-0.2,0-0.3,0.1-0.4,0.2c-0.1-0.2-0.3-0.3-0.6-0.3c-0.4,0-0.7,0.3-0.7,0.7c0,0.2,0.1,0.4,0.2,0.5l0,0.1c-0.1-0.3-0.3-0.6-0.7-0.6
			c-0.4,0-0.7,0.3-0.7,0.7c0,0,0,0.1,0,0.2c-0.1-0.1-0.2-0.1-0.4-0.1c-0.4,0-0.7,0.3-0.7,0.7c0,0.2,0.1,0.4,0.3,0.5l0,0.1
			c-0.1-0.1-0.1-0.1-0.2-0.1c-0.1-0.2-0.3-0.4-0.6-0.4c-0.4,0-0.7,0.3-0.7,0.7l0,0.2c-0.1,0-0.2,0-0.3,0.1c-0.1-0.2-0.3-0.3-0.6-0.3
			C125.8,28.6,125.5,28.9,125.5,29.3"/>
		<path fill="#253148" d="M117.8,23.7c0.4,0,0.7-0.3,0.7-0.7s-0.3-0.7-0.7-0.7s-0.7,0.3-0.7,0.7C117.2,23.4,117.5,23.7,117.8,23.7"
			/>
		<path fill="#253148" d="M113.7,21.3c0.4,0,0.7-0.3,0.7-0.7S114,20,113.7,20s-0.7,0.3-0.7,0.7C113,21.1,113.3,21.3,113.7,21.3"/>
		<path fill="#253148" d="M111.7,17.2c0.4,0,0.7-0.3,0.7-0.7c0-0.4-0.3-0.7-0.7-0.7s-0.7,0.3-0.7,0.7S111.3,17.2,111.7,17.2"/>
		<path fill="#253148" d="M121.4,29.9c-0.4,0-0.7,0.3-0.7,0.7s0.3,0.7,0.7,0.7s0.7-0.3,0.7-0.7C122.1,30.2,121.8,29.9,121.4,29.9"/>
		<path fill="#253148" d="M119.7,29.9c-0.4,0-0.7,0.3-0.7,0.7s0.3,0.7,0.7,0.7s0.7-0.3,0.7-0.7C120.3,30.2,120,29.9,119.7,29.9"/>
		<path fill="#253148" d="M117.2,30c-0.4,0-0.7,0.3-0.7,0.7s0.3,0.7,0.7,0.7s0.7-0.3,0.7-0.7S117.6,30,117.2,30"/>
		<path fill="#253148" d="M88.9,27.8c0-0.4-0.3-0.7-0.7-0.7c-0.4,0-0.7,0.3-0.7,0.7c0,0.4,0.3,0.7,0.7,0.7
			C88.6,28.5,88.9,28.2,88.9,27.8"/>
		<path fill="#253148" d="M90.8,29.9c0-0.4-0.3-0.7-0.7-0.7s-0.7,0.3-0.7,0.7c0,0.4,0.3,0.7,0.7,0.7C90.5,30.6,90.8,30.3,90.8,29.9"
			/>
		<path fill="#253148" d="M97.5,32.4c0-0.4-0.3-0.7-0.7-0.7s-0.7,0.3-0.7,0.7s0.3,0.7,0.7,0.7S97.5,32.8,97.5,32.4"/>
		<path fill="#253148" d="M100.5,35.6c0-0.4-0.3-0.7-0.7-0.7s-0.7,0.3-0.7,0.7s0.3,0.7,0.7,0.7C100.2,36.3,100.5,36,100.5,35.6"/>
		<path fill="#253148" d="M102,40.6c0.4,0,0.7-0.3,0.7-0.7c0-0.4-0.3-0.7-0.7-0.7s-0.7,0.3-0.7,0.7C101.3,40.3,101.6,40.6,102,40.6"
			/>
		<path fill="#253148" d="M96.4,30.6c0,0.3,0.3,0.6,0.7,0.6c0.2,0,0.3-0.1,0.5-0.2v0.1c0,0.4,0.3,0.7,0.7,0.7c0.3,0,0.5-0.2,0.6-0.5
			l0,0.1c-0.1,0.1-0.1,0.2-0.1,0.3c0,0.4,0.3,0.7,0.7,0.7s0.7-0.3,0.7-0.7c0-0.1,0-0.4,0-0.4c0.1,0.2,0.3,0.6,0.6,0.6
			c0.3,0,0.5-0.1,0.6-0.3c0.1,0.2,0.3,0.4,0.6,0.4c0.2,0,0.4-0.1,0.5-0.3V32c0,0.1,0,0.2,0,0.3c-0.3,0.1-0.5,0.3-0.5,0.7
			c0,0,0,0.2-0.1,0.3c-0.1,0-0.1,0-0.2,0c-0.2,0-0.4,0.1-0.5,0.2H101c-0.4,0-0.7,0.3-0.7,0.7c0,0.4,0.3,0.7,0.7,0.7
			c0.2,0,0.3-0.2,0.4-0.4l0.2,0c0.1,0,0.1,0.2,0.2,0.2c0,0,0,0.1-0.3,0.2c-0.3,0-0.4,0.1-0.4,0.5c0,0.2,0,0.5,0.2,0.6
			c-0.2,0.1-0.3,0.3-0.3,0.5c0,0.1,0.1,0.3,0.2,0.4l-0.2,0c-0.4,0-0.7,0.3-0.7,0.7s0.3,0.7,0.7,0.7c0.3,0,0.5-0.1,0.6-0.3
			c0.1,0.1,0.3,0.2,0.5,0.2c0.1,0,0.2,0,0.2,0c0,0.1,0,0.1,0,0.2c0,0.4,0.3,0.7,0.7,0.7s0.7-0.3,0.7-0.7l0-0.1
			c0.1,0,0.3,0.1,0.4,0.2c-0.2,0.1-0.3,0.3-0.3,0.6c0,0.4,0.1,0.6,0.5,0.6c0.1,0,0.3,0,0.4-0.1c0,0.3,0.3,0.6,0.7,0.6
			c0.2,0,0.3-0.1,0.4-0.2c0.1,0.1,0.1,0.1,0.2,0.1c-0.3,0-0.6,0.3-0.6,0.7s0.3,0.7,0.7,0.7s0.7-0.3,0.7-0.7c0-0.3-0.2-0.6-0.5-0.6
			c0.1,0,0.2,0,0.3-0.1c0.1,0.2,0.3,0.3,0.6,0.3c0.2,0,0.5-0.1,0.6-0.3l0,0c0,0.4,0.3,0.7,0.7,0.7c0.4,0,0.7-0.3,0.7-0.7l0,0h0.1
			v0.1c0,0.3,0.2,0.6,0.5,0.7c-0.2,0.1-0.3,0.3-0.3,0.5c0,0.4,0.3,0.7,0.7,0.7s0.7-0.3,0.7-0.7c0-0.1,0-0.1,0-0.2
			c0.1,0,0.2,0.1,0.3,0.1c0.3,0,0.6-0.3,0.7-0.6c0.1,0.3,0.3,0.5,0.6,0.5c0.2,0,0.4-0.1,0.6-0.3c0,0.4,0.3,0.7,0.7,0.7h0
			c0.1,0.3,0.3,0.6,0.7,0.6c0.4,0,0.7-0.3,0.7-0.7V41c0.3,0,0.6-0.3,0.6-0.7c0-0.1,0-0.2-0.1-0.3h0.1c0.1,0.3,0.3,0.4,0.6,0.5
			c0,0.1,0,0.1,0,0.2c0,0.4,0.3,0.7,0.7,0.7s0.7-0.3,0.7-0.7l0-0.2h0.1c0.3,0,0.6-0.3,0.7-0.6c0.1,0.1,0.3,0.2,0.5,0.2
			c0.3,0,0.5-0.2,0.6-0.4c0.1,0.3,0.3,0.4,0.6,0.4c0.3,0,0.6-0.2,0.6-0.5c0.1,0.1,0.3,0.2,0.5,0.2c0.3,0,0.6-0.2,0.7-0.5
			c0.1,0.1,0.2,0.1,0.4,0.1c0.4,0,0.7-0.3,0.7-0.7s-0.3-0.7-0.7-0.7c-0.3,0-0.6,0.2-0.7,0.5c-0.1-0.1-0.2-0.1-0.4-0.1
			c-0.3,0-0.6,0.2-0.6,0.5c-0.1-0.1-0.3-0.2-0.5-0.2c-0.3,0-0.5,0.2-0.6,0.5c-0.1-0.3-0.3-0.5-0.6-0.5c-0.2,0-0.3,0.1-0.5,0.2
			c0-0.3-0.3-0.6-0.7-0.6h0c0-0.3-0.3-0.5-0.7-0.5c-0.2,0-0.4,0.1-0.5,0.3c-0.1,0-0.1,0-0.2,0c-0.4,0-0.7,0.3-0.7,0.7
			c0-0.4-0.3-0.7-0.7-0.7c-0.3,0-0.6,0.2-0.6,0.5l-0.1,0l0-0.1c0-0.4-0.3-0.7-0.7-0.7c-0.2,0-0.5,0.1-0.6,0.3l0,0
			c0-0.1,0.1-0.2,0.1-0.3c0-0.4-0.3-0.7-0.7-0.7c0-0.1,0-0.1,0-0.2c0-0.4-0.3-0.7-0.7-0.7c-0.4,0-0.4,0.3-0.4,0.6
			c0,0.1-0.2,0.3-0.1,0.5c-0.1,0-0.2-0.1-0.2-0.1c0.1-0.1,0.1-0.2,0.1-0.4c0-0.4-0.3-0.7-0.7-0.7c-0.1,0-0.3,0.1-0.4,0.1
			c-0.1-0.3-0.3-0.5-0.7-0.5h-0.1c-0.1-0.3-0.3-0.6-0.7-0.6c-0.2,0-0.3,0.1-0.5,0.2c0.1-0.1,0.2-0.3,0.2-0.5c0-0.3-0.2-0.6-0.5-0.7
			c0-0.1,0.1-0.2,0.1-0.3c0-0.4-0.3-0.7-0.7-0.7c-0.2,0-0.4,0.1-0.5,0.2c-0.1-0.2-0.3-0.4-0.6-0.4l-0.1,0c0-0.3-0.3-0.6-0.7-0.6
			l-0.1,0c0.1-0.1,0.1-0.2,0.1-0.4c0-0.4-0.3-0.7-0.7-0.7c0.1-0.1,0.1-0.2,0.1-0.4c0-0.4-0.3-0.7-0.7-0.7c-0.3,0-0.6,0.2-0.7,0.5h0
			v-0.1c0-0.4-0.3-0.7-0.7-0.7c-0.1,0-0.2,0-0.3,0.1c-0.1-0.2-0.3-0.3-0.6-0.3c-0.1,0-0.3,0-0.4,0.1c0-0.3-0.3-0.6-0.7-0.6
			c-0.2,0-0.3,0.1-0.5,0.2c-0.1-0.3-0.3-0.5-0.7-0.5c-0.1,0-0.3,0-0.4,0.1v-0.1c0-0.4-0.3-0.7-0.7-0.7c-0.2,0-0.3,0.1-0.4,0.2
			c0-0.3-0.3-0.5-0.6-0.6v0c0-0.4-0.3-0.7-0.7-0.7l-0.1,0c0-0.1,0-0.1,0-0.2c0-0.4-0.3-0.7-0.7-0.7c-0.3,0-0.3,0.1-0.3-0.2
			c0-0.4-0.3-0.7-0.7-0.7c-0.1,0-0.1,0-0.2,0c0-0.1,0.1-0.2,0.1-0.3c0-0.4-0.3-0.7-0.7-0.7c-0.1,0-0.2,0-0.3,0c0-0.1,0-0.2,0-0.2
			c0-0.4-0.3-0.7-0.7-0.7h0v-0.1c0-0.4-0.3-0.7-0.7-0.7h0c0,0,0-0.1,0-0.1c0-0.4-0.3-0.7-0.7-0.7c-0.2,0-0.3,0.1-0.4,0.2
			c-0.1-0.3-0.3-0.5-0.6-0.5c-0.1,0-0.2,0-0.3,0.1C90.2,22,90.1,22,90,22c-0.1-0.2-0.3-0.4-0.6-0.4s-0.5,0.2-0.6,0.4l0,0
			c0.1-0.1,0.1-0.2,0.1-0.4c0-0.4-0.3-0.7-0.7-0.7c-0.1,0-0.2,0-0.3,0.1c-0.1-0.2-0.3-0.4-0.6-0.4c-0.2,0-0.4,0.1-0.5,0.2
			c0-0.1,0-0.2,0-0.2c0-0.4-0.3-0.7-0.7-0.7c-0.2,0-0.4,0.1-0.5,0.2l0,0c0.1-0.1,0.1-0.2,0.1-0.3c0-0.4-0.3-0.7-0.7-0.7
			c-0.1,0-0.1,0-0.2,0l0-0.2c0-0.4-0.3-0.7-0.7-0.7h0l0,0c0-0.3-0.1-0.5-0.3-0.6c0-0.1,0-0.1,0-0.2c0-0.4-0.3-0.7-0.7-0.7
			c-0.3,0-0.5,0.2-0.6,0.4c-0.1-0.2-0.3-0.4-0.6-0.4c-0.1,0-0.3,0-0.4,0.1c0-0.3-0.3-0.6-0.7-0.6c-0.2,0-0.4,0.1-0.5,0.2
			c0-0.3-0.2-0.6-0.6-0.6c0-0.3-0.3-0.6-0.7-0.6c-0.1,0-0.2,0-0.3,0.1v0c0-0.4-0.3-0.7-0.7-0.7c-0.1,0-0.2,0-0.2,0v-0.1
			c0-0.4-0.3-0.7-0.7-0.7c-0.1,0-0.2,0-0.3,0.1c-0.1-0.3-0.3-0.5-0.6-0.5c-0.2,0-0.4,0.1-0.5,0.3c0-0.3-0.3-0.6-0.7-0.6h-0.1
			c-0.1-0.3-0.3-0.5-0.7-0.5c-0.2,0-0.4,0.1-0.5,0.3c0,0,0-0.1,0-0.2c0-0.4-0.3-0.7-0.7-0.7c-0.1,0-0.2,0-0.2,0.1c0-0.1,0-0.1,0-0.2
			c0-0.4-0.3-0.7-0.7-0.7h-0.1l0-0.1c0-0.3-0.2-0.5-0.4-0.6c0-0.3-0.3-0.6-0.7-0.6c-0.3,0-0.5,0.2-0.6,0.4c-0.1-0.1-0.3-0.2-0.5-0.2
			c-0.4,0-0.7,0.3-0.7,0.7c0,0.2,0.1,0.4,0.2,0.5c-0.1,0.1-0.2,0.3-0.2,0.4c0,0.4,0.3,0.7,0.7,0.7c0.1,0,0.2,0,0.2,0v0.1
			c-0.3,0.1-0.5,0.3-0.5,0.6c0,0.4,0.3,0.7,0.7,0.7c0.4,0,0.7-0.3,0.7-0.7l0-0.1c0.1,0,0.2,0,0.2-0.1c0,0.3,0.3,0.6,0.7,0.6
			c0.2,0,0.5-0.1,0.6-0.3c0.1,0.2,0.3,0.3,0.5,0.3s0.4-0.1,0.5-0.3l0,0.2c0,0.4,0.3,0.7,0.7,0.7h0.1c0.1,0.3,0.3,0.5,0.6,0.5
			l-0.1,0.1c-0.3,0-0.6,0.3-0.6,0.7c0,0.4,0.3,0.6,0.6,0.7l0,0.2c0,0.4,0.3,0.7,0.7,0.7c0.2,0,0.5-0.1,0.6-0.3
			c0,0.3,0.3,0.6,0.7,0.6c0.3,0,0.5-0.2,0.6-0.5l0.1,0.1l0,0.2c0,0.4,0.3,0.7,0.7,0.7c0.2,0,0.3-0.1,0.5-0.2H79c0.1,0,0.1,0,0.2,0
			c0.1,0.3,0.3,0.5,0.7,0.5s0.5-0.2,0.6-0.5c0.1,0.2,0.3,0.3,0.6,0.3c0.1,0,0.3,0,0.4-0.1c0,0.1,0.1,0.2,0.1,0.3c-0.1,0-0.2,0-0.2,0
			c-0.3,0-0.6,0.2-0.7,0.5C80.2,18.4,80,18.7,80,19c0,0.4,0.3,0.7,0.7,0.7l0.1,0c0,0.1-0.1,0.2-0.1,0.3c0,0.4,0.3,0.7,0.7,0.7
			c0.2,0,0.3-0.1,0.4-0.1l0,0c0,0.4,0.3,0.7,0.7,0.7c0.1,0,0.2,0,0.3-0.1v0c0,0.1,0,0.1,0,0.2c-0.1,0-0.1,0-0.2,0
			c-0.4,0-0.7,0.3-0.7,0.7c0,0.4,0.3,0.7,0.7,0.7c0.4,0,0.7-0.3,0.7-0.7c0-0.1,0-0.2,0-0.2c0.1,0,0.1,0,0.2,0c0.2,0,0.4-0.1,0.6-0.3
			c0,0.1,0.1,0.3,0.2,0.3c-0.1,0.1-0.1,0.2-0.1,0.3c0,0.4,0.3,0.7,0.7,0.7c0.3,0,0.5-0.2,0.6-0.4c0.1,0,0.2,0.1,0.3,0.1
			c0.2,0,0.4-0.1,0.5-0.3l0,0.1c0,0.4,0.3,0.7,0.7,0.7c0.1,0,0.3,0,0.4-0.1c0.1,0.1,0.3,0.2,0.5,0.2c0.1,0,0.2,0,0.3-0.1
			c0.1,0.2,0.3,0.2,0.5,0.2c0.3,0,0.5-0.2,0.6-0.4h0.1c0.1,0.3,0.3,0.4,0.6,0.4c0.1,0,0.2,0,0.3-0.1c0.1,0,0.1,0.1,0.2,0.1
			c0,0.1,0,0.1,0,0.2l-0.2,0c-0.3,0-0.6,0.3-0.7,0.6l-0.1,0c-0.4,0-0.7,0.3-0.7,0.7c0,0.1,0,0.2,0.1,0.3c-0.1-0.1-0.3-0.2-0.5-0.2
			c-0.4,0-0.7,0.3-0.7,0.7s0.3,0.7,0.7,0.7c0.2,0,0.3-0.1,0.4-0.2c0,0.2,0.1,0.3,0.2,0.4c-0.2,0.1-0.4,0.3-0.4,0.6
			c0,0.4,0.3,0.7,0.7,0.7c0.1,0,0.2,0,0.3-0.1c-0.1,0.1-0.1,0.2-0.1,0.3c0,0.4,0.3,0.7,0.7,0.7c0.1,0,0.2,0,0.2,0
			c0.1,0.3,0.3,0.5,0.7,0.5c0.1,0,0.2,0,0.3-0.1c0,0.3,0.2,0.5,0.4,0.6l0,0.1c0,0.4,0.3,0.7,0.7,0.7c0.2,0,0.4-0.1,0.6-0.3
			c0.1,0.1,0.2,0,0.3,0c0.1,0,0.2,0,0.3-0.1l0,0.2l0,0c-0.4,0-0.7,0.3-0.7,0.7c0,0.4,0.3,0.7,0.7,0.7c0.3,0,0.6-0.2,0.7-0.5h0
			c0.4,0,0.7-0.3,0.7-0.7l0-0.2l0.2,0c0,0.1-0.1,0.2-0.1,0.2c0,0.4,0.2,0.7,0.6,0.7C96,31.1,96.2,30.8,96.4,30.6"/>
		<path fill="#253148" d="M124.2,39.1c0-0.4-0.3-0.7-0.7-0.7s-0.7,0.3-0.7,0.7c0,0.4,0.3,0.7,0.7,0.7S124.2,39.5,124.2,39.1"/>
		<path fill="#253148" d="M126.4,38.6c0-0.4-0.3-0.7-0.7-0.7s-0.7,0.3-0.7,0.7c0,0.4,0.3,0.7,0.7,0.7
			C126,39.2,126.4,38.9,126.4,38.6"/>
		<path fill="#253148" d="M80.5,20.8c0-0.4-0.3-0.7-0.7-0.7c-0.4,0-0.7,0.3-0.7,0.7s0.3,0.7,0.7,0.7C80.2,21.4,80.5,21.1,80.5,20.8"
			/>
		<path fill="#253148" d="M77.7,18.2c0-0.4-0.3-0.7-0.7-0.7s-0.7,0.3-0.7,0.7s0.3,0.7,0.7,0.7C77.4,18.9,77.7,18.6,77.7,18.2"/>
		<path fill="#253148" d="M74.3,16c0-0.4-0.3-0.7-0.7-0.7s-0.7,0.3-0.7,0.7c0,0.4,0.3,0.7,0.7,0.7C73.9,16.7,74.3,16.4,74.3,16"/>
		<path fill="#253148" d="M68.6,12.3c0.4,0,0.7-0.3,0.7-0.7c0-0.4-0.3-0.7-0.7-0.7s-0.7,0.3-0.7,0.7C67.9,12,68.2,12.3,68.6,12.3"/>
		<path fill="#253148" d="M91.3,83.8c1.5,0,2.5-0.9,2.5-2.3c0-1.3-0.9-1.8-2.3-2.4c-1.5-0.6-2.2-1.2-2.2-2.4c0-1.5,1.1-2.5,2.8-2.5
			c1.8,0,2.9,1,2.9,2.8v0h-0.4v-0.1c0-1.5-0.9-2.3-2.4-2.3c-1.5,0-2.4,0.9-2.4,2.1c0,1.4,1.1,1.7,2.5,2.3c1.3,0.6,2,1.3,2,2.5
			c0,1.6-1.1,2.7-3.1,2.7c-1.9,0-3-1.1-3-3v-0.1h0.4C88.6,82.9,89.5,83.8,91.3,83.8"/>
		<path fill="#253148" d="M91.3,83.8c1.5,0,2.5-0.9,2.5-2.3c0-1.3-0.9-1.8-2.3-2.4c-1.5-0.6-2.2-1.2-2.2-2.4c0-1.5,1.1-2.5,2.8-2.5
			c1.8,0,2.9,1,2.9,2.8v0h-0.4v-0.1c0-1.5-0.9-2.3-2.4-2.3c-1.5,0-2.4,0.9-2.4,2.1c0,1.4,1.1,1.7,2.5,2.3c1.3,0.6,2,1.3,2,2.5
			c0,1.6-1.1,2.7-3.1,2.7c-1.9,0-3-1.1-3-3v-0.1h0.4C88.6,82.9,89.5,83.8,91.3,83.8"/>
		<path fill="#253148" d="M99.4,74.4h0.4l-0.8,4c0.7-0.9,1.5-1.4,2.6-1.4c1.3,0,2,0.7,2,1.7c0,0.3-0.1,0.7-0.2,1.1l-0.9,4.2h-0.4
			l1-4.6c0-0.2,0.1-0.4,0.1-0.6c0-0.9-0.5-1.4-1.6-1.4c-1.5,0-2.6,1.1-3,3.2L97.8,84h-0.4L99.4,74.4L99.4,74.4z"/>
		<path fill="#253148" d="M99.4,74.4h0.4l-0.8,4c0.7-0.9,1.5-1.4,2.6-1.4c1.3,0,2,0.7,2,1.7c0,0.3-0.1,0.7-0.2,1.1l-0.9,4.2h-0.4
			l1-4.6c0-0.2,0.1-0.4,0.1-0.6c0-0.9-0.5-1.4-1.6-1.4c-1.5,0-2.6,1.1-3,3.2L97.8,84h-0.4L99.4,74.4L99.4,74.4z"/>
	</g>
	<path fill="#253148" d="M108.5,74.4l-0.2,1.1h0.5l0.2-1.1H108.5z M108,77.1l-1.5,6.9h0.4l1.5-6.9C108.4,77.1,108,77.1,108,77.1z"/>
	<path fill="#253148" d="M108.5,74.4l-0.2,1.1h0.5l0.2-1.1H108.5z M108,77.1l-1.5,6.9h0.4l1.5-6.9C108.4,77.1,108,77.1,108,77.1z"/>
	<g>
		<path fill="#253148" d="M112.5,77.1h0.4l-0.2,1.1c0.4-0.8,1-1.2,1.7-1.2c0.2,0,0.4,0,0.6,0.1l-0.1,0.4c-0.2-0.1-0.4-0.1-0.6-0.1
			c-0.9,0-1.7,0.9-2.1,2.6l-0.9,4H111L112.5,77.1L112.5,77.1z"/>
		<path fill="#253148" d="M112.5,77.1h0.4l-0.2,1.1c0.4-0.8,1-1.2,1.7-1.2c0.2,0,0.4,0,0.6,0.1l-0.1,0.4c-0.2-0.1-0.4-0.1-0.6-0.1
			c-0.9,0-1.7,0.9-2.1,2.6l-0.9,4H111L112.5,77.1L112.5,77.1z"/>
		<path fill="#253148" d="M117.7,81.4c0,1.4,0.8,2.4,2,2.4c1.2,0,2.2-0.7,2.7-2h0.5c-0.5,1.4-1.7,2.4-3,2.4c-1.6,0-2.5-1.1-2.5-2.9
			c0-2.4,1.4-4.4,3.5-4.4c1.6,0,2.5,1,2.5,2.9c0,0.1,0,0.3,0,0.7h-5.5C117.7,81,117.7,81.3,117.7,81.4 M122.8,80.2
			c0-0.1,0-0.2,0-0.3c0-1.7-0.8-2.6-2.2-2.6c-1.2,0-2.4,1-2.8,2.8H122.8L122.8,80.2z"/>
		<path fill="#253148" d="M117.7,81.4c0,1.4,0.8,2.4,2,2.4c1.2,0,2.2-0.7,2.7-2h0.5c-0.5,1.4-1.7,2.4-3,2.4c-1.6,0-2.5-1.1-2.5-2.9
			c0-2.4,1.4-4.4,3.5-4.4c1.6,0,2.5,1,2.5,2.9c0,0.1,0,0.3,0,0.7h-5.5C117.7,81,117.7,81.3,117.7,81.4 M122.8,80.2
			c0-0.1,0-0.2,0-0.3c0-1.7-0.8-2.6-2.2-2.6c-1.2,0-2.4,1-2.8,2.8H122.8L122.8,80.2z"/>
	</g>
	<polygon fill="#253148" points="57.2,46.2 53.4,54.6 49.7,46.2 47.6,46.2 47.6,55.8 48.9,55.8 48.9,47.2 52.7,55.8 54.1,55.8 
		58,47.2 57.9,55.8 59.2,55.8 59.2,46.2 	"/>
	<polygon fill="#253148" points="57.2,46.2 53.4,54.6 49.7,46.2 47.6,46.2 47.6,55.8 48.9,55.8 48.9,47.2 52.7,55.8 54.1,55.8 
		58,47.2 57.9,55.8 59.2,55.8 59.2,46.2 	"/>
	<g>
		<path fill="#253148" d="M67.6,45.9c3.3,0,5.3,2,5.3,5.1s-2,5.1-5.3,5.1s-5.3-2-5.3-5.1S64.3,45.9,67.6,45.9 M67.6,54.8
			c2.5,0,3.9-1.4,3.9-3.8s-1.4-3.8-3.9-3.8s-3.9,1.4-3.9,3.8C63.7,53.4,65.1,54.8,67.6,54.8"/>
		<path fill="#253148" d="M67.6,45.9c3.3,0,5.3,2,5.3,5.1s-2,5.1-5.3,5.1s-5.3-2-5.3-5.1S64.3,45.9,67.6,45.9 M67.6,54.8
			c2.5,0,3.9-1.4,3.9-3.8s-1.4-3.8-3.9-3.8s-3.9,1.4-3.9,3.8C63.7,53.4,65.1,54.8,67.6,54.8"/>
		<path fill="#253148" d="M75.9,46.2h5.1c2.2,0,3.4,0.9,3.4,2.6c0,1.2-0.5,2-1.7,2.4c1,0.1,1.4,0.7,1.5,1.8l0.1,1.6
			c0,0.5,0.1,0.9,0.3,1.3h-1.6c-0.1-0.3-0.1-0.6-0.2-1l-0.1-1.4c-0.1-1.3-0.5-1.7-1.9-1.7h-3.6v4.1h-1.3L75.9,46.2L75.9,46.2z
			 M77.2,47.3v3.2h3.2c1.8,0,2.6-0.3,2.6-1.6c0-1.3-0.9-1.6-2.7-1.6C80.3,47.3,77.2,47.3,77.2,47.3z"/>
		<path fill="#253148" d="M75.9,46.2h5.1c2.2,0,3.4,0.9,3.4,2.6c0,1.2-0.5,2-1.7,2.4c1,0.1,1.4,0.7,1.5,1.8l0.1,1.6
			c0,0.5,0.1,0.9,0.3,1.3h-1.6c-0.1-0.3-0.1-0.6-0.2-1l-0.1-1.4c-0.1-1.3-0.5-1.7-1.9-1.7h-3.6v4.1h-1.3L75.9,46.2L75.9,46.2z
			 M77.2,47.3v3.2h3.2c1.8,0,2.6-0.3,2.6-1.6c0-1.3-0.9-1.6-2.7-1.6C80.3,47.3,77.2,47.3,77.2,47.3z"/>
	</g>
	<polygon fill="#253148" points="87.7,46.2 89.6,46.2 95.7,54.4 95.7,46.2 97,46.2 97,55.8 95.2,55.8 89.1,47.6 89.1,55.8 
		87.7,55.8 	"/>
	<polygon fill="#253148" points="87.7,46.2 89.6,46.2 95.7,54.4 95.7,46.2 97,46.2 97,55.8 95.2,55.8 89.1,47.6 89.1,55.8 
		87.7,55.8 	"/>
	<rect x="100.7" y="46.2" fill="#253148" width="1.4" height="9.7"/>
	<rect x="100.7" y="46.2" fill="#253148" width="1.4" height="9.7"/>
	<polygon fill="#253148" points="105.7,46.2 107.5,46.2 113.6,54.4 113.6,46.2 114.9,46.2 114.9,55.8 113.1,55.8 107,47.6 107,55.8 
		105.7,55.8 	"/>
	<polygon fill="#253148" points="105.7,46.2 107.5,46.2 113.6,54.4 113.6,46.2 114.9,46.2 114.9,55.8 113.1,55.8 107,47.6 107,55.8 
		105.7,55.8 	"/>
	<g>
		<path fill="#253148" d="M123,47.2c-2.2,0-3.6,1.5-3.6,3.8s1.4,3.8,3.6,3.8c2,0,3.4-1.1,3.5-2.9h-3.1v-1.3h4.3v5.2h-1l-0.1-1.6
			c-0.7,1.2-2,1.9-3.7,1.9c-3,0-5-2-5-5.1c0-3,1.9-5.1,5.1-5.1c2.5,0,4.4,1.4,4.6,3.3h-1.4C125.9,47.9,124.7,47.2,123,47.2"/>
		<path fill="#253148" d="M123,47.2c-2.2,0-3.6,1.5-3.6,3.8s1.4,3.8,3.6,3.8c2,0,3.4-1.1,3.5-2.9h-3.1v-1.3h4.3v5.2h-1l-0.1-1.6
			c-0.7,1.2-2,1.9-3.7,1.9c-3,0-5-2-5-5.1c0-3,1.9-5.1,5.1-5.1c2.5,0,4.4,1.4,4.6,3.3h-1.4C125.9,47.9,124.7,47.2,123,47.2"/>
	</g>
	<polygon fill="#253148" points="134.9,55.8 133.6,55.8 133.6,47.4 129.9,47.4 129.9,46.2 138.6,46.2 138.6,47.4 134.9,47.4 	"/>
	<polygon fill="#253148" points="134.9,55.8 133.6,55.8 133.6,47.4 129.9,47.4 129.9,46.2 138.6,46.2 138.6,47.4 134.9,47.4 	"/>
	<g>
		<path fill="#253148" d="M145.8,45.9c3.3,0,5.3,2,5.3,5.1s-2,5.1-5.3,5.1s-5.3-2-5.3-5.1S142.5,45.9,145.8,45.9 M145.8,54.8
			c2.5,0,3.9-1.4,3.9-3.8s-1.4-3.8-3.9-3.8s-3.9,1.4-3.9,3.8C141.9,53.4,143.3,54.8,145.8,54.8"/>
		<path fill="#253148" d="M145.8,45.9c3.3,0,5.3,2,5.3,5.1s-2,5.1-5.3,5.1s-5.3-2-5.3-5.1S142.5,45.9,145.8,45.9 M145.8,54.8
			c2.5,0,3.9-1.4,3.9-3.8s-1.4-3.8-3.9-3.8s-3.9,1.4-3.9,3.8C141.9,53.4,143.3,54.8,145.8,54.8"/>
	</g>
	<polygon fill="#253148" points="162,46.2 162,54.4 155.9,46.2 154.1,46.2 154.1,55.8 155.4,55.8 155.4,47.6 161.5,55.8 163.3,55.8 
		163.3,46.2 	"/>
	<polygon fill="#253148" points="162,46.2 162,54.4 155.9,46.2 154.1,46.2 154.1,55.8 155.4,55.8 155.4,47.6 161.5,55.8 163.3,55.8 
		163.3,46.2 	"/>
	<g>
		<path fill="#253148" d="M58.6,60.1h4.5c2.4,0,3.5,0.9,3.5,2.8c0,2-1.2,2.8-3.5,2.8H60v4h-1.4V60.1L58.6,60.1z M62.5,64.6
			c1.9,0,2.7-0.3,2.7-1.7c0-1.3-0.8-1.7-2.6-1.7H60v3.4H62.5z"/>
		<path fill="#253148" d="M58.6,60.1h4.5c2.4,0,3.5,0.9,3.5,2.8c0,2-1.2,2.8-3.5,2.8H60v4h-1.4V60.1L58.6,60.1z M62.5,64.6
			c1.9,0,2.7-0.3,2.7-1.7c0-1.3-0.8-1.7-2.6-1.7H60v3.4H62.5z"/>
	</g>
	<polygon fill="#253148" points="69.5,60.1 77.2,60.1 77.2,61.3 70.8,61.3 70.8,64.1 76.8,64.1 76.8,65.4 70.8,65.4 70.8,68.4 
		77.2,68.4 77.2,69.7 69.5,69.7 	"/>
	<polygon fill="#253148" points="69.5,60.1 77.2,60.1 77.2,61.3 70.8,61.3 70.8,64.1 76.8,64.1 76.8,65.4 70.8,65.4 70.8,68.4 
		77.2,68.4 77.2,69.7 69.5,69.7 	"/>
	<polygon fill="#253148" points="80.3,60.1 82.2,60.1 88.3,68.3 88.3,60.1 89.6,60.1 89.6,69.7 87.7,69.7 81.7,61.5 81.7,69.7 
		80.3,69.7 	"/>
	<polygon fill="#253148" points="80.3,60.1 82.2,60.1 88.3,68.3 88.3,60.1 89.6,60.1 89.6,69.7 87.7,69.7 81.7,61.5 81.7,69.7 
		80.3,69.7 	"/>
	<rect x="93.2" y="60.1" fill="#253148" width="1.4" height="9.7"/>
	<rect x="93.2" y="60.1" fill="#253148" width="1.4" height="9.7"/>
	<polygon fill="#253148" points="98.3,60.1 100.1,60.1 106.2,68.3 106.2,60.1 107.5,60.1 107.5,69.7 105.7,69.7 99.6,61.5 
		99.6,69.7 98.3,69.7 	"/>
	<polygon fill="#253148" points="98.3,60.1 100.1,60.1 106.2,68.3 106.2,60.1 107.5,60.1 107.5,69.7 105.7,69.7 99.6,61.5 
		99.6,69.7 98.3,69.7 	"/>
	<g>
		<path fill="#253148" d="M112.1,66.5c0.1,1.5,1,2.2,3,2.2c1.7,0,2.7-0.6,2.7-1.6c0-0.8-0.5-1.2-1.7-1.4l-2.4-0.4
			c-1.9-0.3-2.8-1.1-2.8-2.6c0-1.8,1.4-2.9,4.1-2.9c2.5,0,3.8,1.1,3.9,3.1h-1.4c-0.1-1.2-0.9-1.8-2.6-1.8c-1.7,0-2.5,0.6-2.5,1.5
			c0,0.8,0.5,1.1,1.7,1.3l2.1,0.4c2,0.4,3,1,3,2.6c0,1.9-1.5,3-4.2,3c-2.9,0-4.4-1.2-4.4-3.5L112.1,66.5L112.1,66.5z"/>
		<path fill="#253148" d="M112.1,66.5c0.1,1.5,1,2.2,3,2.2c1.7,0,2.7-0.6,2.7-1.6c0-0.8-0.5-1.2-1.7-1.4l-2.4-0.4
			c-1.9-0.3-2.8-1.1-2.8-2.6c0-1.8,1.4-2.9,4.1-2.9c2.5,0,3.8,1.1,3.9,3.1h-1.4c-0.1-1.2-0.9-1.8-2.6-1.8c-1.7,0-2.5,0.6-2.5,1.5
			c0,0.8,0.5,1.1,1.7,1.3l2.1,0.4c2,0.4,3,1,3,2.6c0,1.9-1.5,3-4.2,3c-2.9,0-4.4-1.2-4.4-3.5L112.1,66.5L112.1,66.5z"/>
		<path fill="#253148" d="M130.8,66.1c0,2.5-1.5,3.9-4.3,3.9c-2.8,0-4.3-1.3-4.3-3.9v-6.1h1.4v5.5c0,2.1,0.9,3.1,2.9,3.1
			c2,0,2.9-1,2.9-3.1v-5.5h1.4V66.1z"/>
		<path fill="#253148" d="M130.8,66.1c0,2.5-1.5,3.9-4.3,3.9c-2.8,0-4.3-1.3-4.3-3.9v-6.1h1.4v5.5c0,2.1,0.9,3.1,2.9,3.1
			c2,0,2.9-1,2.9-3.1v-5.5h1.4V66.1z"/>
	</g>
	<polygon fill="#253148" points="134.1,60.1 135.5,60.1 135.5,68.4 141.4,68.4 141.4,69.7 134.1,69.7 	"/>
	<polygon fill="#253148" points="134.1,60.1 135.5,60.1 135.5,68.4 141.4,68.4 141.4,69.7 134.1,69.7 	"/>
	<path fill="#253148" d="M147.7,60.1h1.4l4.3,9.7H152l-1.2-2.8h-4.9l-1.3,2.8h-1.4L147.7,60.1L147.7,60.1z M150.2,65.7l-1.8-4.1
		l-2,4.1H150.2z"/>
	<path fill="#253148" d="M147.7,60.1h1.4l4.3,9.7H152l-1.2-2.8h-4.9l-1.3,2.8h-1.4L147.7,60.1L147.7,60.1z M150.2,65.7l-1.8-4.1
		l-2,4.1H150.2z"/>
</g>
</svg>
