<?xml version="1.0" encoding="utf-8"?>
<!-- Generator: Adobe Illustrator 27.2.0, SVG Export Plug-In . SVG Version: 6.00 Build 0)  -->
<svg version="1.1" id="Layer_1" xmlns="http://www.w3.org/2000/svg" xmlns:xlink="http://www.w3.org/1999/xlink" x="0px" y="0px"
	 width="198.4px" height="85px" viewBox="0 0 198.4 85" style="enable-background:new 0 0 198.4 85;" xml:space="preserve">
<style type="text/css">
	.st0{fill:#CE2029;}
	.st1{fill:#FFFFFF;}
	.st2{fill:#702A88;}
	.st3{fill:#288AA7;}
	.st4{fill-rule:evenodd;clip-rule:evenodd;fill:#CE2029;}
	.st5{fill-rule:evenodd;clip-rule:evenodd;fill:#288AA7;}
	.st6{fill-rule:evenodd;clip-rule:evenodd;fill:#702A88;}
</style>
<g>
	<g>
		<polygon class="st0" points="44.4,65.5 23.7,16.1 41.9,16.1 52.2,44.3 62.6,16.1 67,16.1 67,29.3 75.2,29.3 60.1,65.5 		"/>
		<path class="st1" d="M60.3,65.9H44.2l-21-50.2h19l0.1,0.2l10,27.3l10.1-27.5h5V29h8.4L60.3,65.9z M44.6,65.2h15.2l14.9-35.5h-8
			V16.4h-3.8L52.2,45.3L41.6,16.4H24.2L44.6,65.2z"/>
		<polygon class="st2" points="82.7,65.5 82.7,29.3 75.2,29.3 80.8,16.1 82.7,16.1 98.7,16.1 108.5,16.1 108.5,29.3 98.7,29.3 
			98.7,65.5 		"/>
		<path class="st1" d="M99,65.9H82.4V29.7h-7.7l5.8-14h28.4v14H99V65.9z M83.1,65.2h15.2V29h9.9V16.4H81L75.8,29h7.3V65.2z"/>
		<polygon class="st3" points="66.6,29.8 66.6,16.1 80.6,16.1 75,29.8 		"/>
		<path class="st1" d="M75.2,30.1h-8.9V15.7h14.8L75.2,30.1z M67,29.4h7.7l5.3-13H67V29.4z"/>
		<g>
			<path class="st4" d="M123.6,23.4v-7.3H114v13.3h-5.5v36.2h15v-8c-3.9-4.6-6.3-10.6-6.3-17.1S119.7,27.9,123.6,23.4"/>
			<path class="st1" d="M123.9,65.9h-15.7V29h5.5V15.7h10.3v7.8l-0.1,0.1c-4,4.7-6.2,10.7-6.2,16.9s2.2,12.2,6.2,16.9l0.1,0.1V65.9z
				 M108.9,65.2h14.3v-7.5c-4.1-4.8-6.3-10.9-6.3-17.2s2.2-12.5,6.3-17.2v-6.8h-8.9v13.3h-5.5V65.2z"/>
			<rect x="108.5" y="16.1" class="st5" width="5.4" height="13.7"/>
			<path class="st1" d="M114.4,30.1h-6.2V15.7h6.2V30.1z M108.9,29.4h4.7v-13h-4.7V29.4z"/>
			<path class="st6" d="M144.8,52.2c-6,0-10.8-5.4-10.8-12s4.9-11.9,10.8-11.9c4.1,0,7.7,2.5,9.5,6.3l13.2-7.5
				C162.9,19.2,154.1,14,144,14c-8.2,0-15.5,3.5-20.5,9v34.7c5,5.5,12.3,9,20.5,9c10.1,0,18.9-5.3,23.6-13.1L154.4,46
				C152.5,49.7,148.9,52.2,144.8,52.2"/>
			<path class="st1" d="M144,66.9c-7.9,0-15.5-3.3-20.7-9.1l-0.1-0.1v-35l0.1-0.1c5.2-5.8,12.8-9.1,20.7-9.1
				c9.8,0,18.9,5.1,23.9,13.3l0.2,0.3l-13.9,7.9l-0.2-0.3c-1.8-3.7-5.4-6.1-9.2-6.1c-5.8,0-10.5,5.2-10.5,11.6
				c0,6.4,4.7,11.6,10.5,11.6c3.8,0,7.4-2.3,9.2-6.1l0.2-0.3l13.9,7.9l-0.2,0.3C163,61.8,153.8,66.9,144,66.9z M123.9,57.5
				c5.1,5.6,12.4,8.7,20.1,8.7c9.4,0,18.2-4.8,23.1-12.6l-12.6-7.1c-2,3.8-5.7,6.1-9.7,6.1c-6.2,0-11.2-5.5-11.2-12.3
				c0-6.8,5-12.3,11.2-12.3c4,0,7.7,2.3,9.7,6.1l12.6-7.1c-4.8-7.8-13.6-12.6-23.1-12.6c-7.7,0-15,3.2-20.1,8.7V57.5z"/>
			<path class="st5" d="M117.1,40.8c0,6.7,2.4,12.7,6.4,17.4V23.4C119.6,28.1,117.1,34.1,117.1,40.8"/>
			<path class="st1" d="M123.9,59.1l-0.6-0.7c-4.2-4.9-6.5-11.1-6.5-17.6c0-6.5,2.3-12.7,6.5-17.6l0.6-0.7V59.1z M123.2,24.4
				c-3.7,4.6-5.7,10.4-5.7,16.4c0,6,2,11.8,5.7,16.4V24.4z"/>
		</g>
	</g>
</g>
</svg>
