<?xml version="1.0" encoding="UTF-8"?><svg id="a" xmlns="http://www.w3.org/2000/svg" width="212" height="95" viewBox="0 0 212 95"><path d="M95.59,28.42c0-2.87,2.17-4.84,4.98-4.84,2.06,0,3.25,1.12,3.91,2.29l-1.71.84c-.39-.76-1.23-1.36-2.2-1.36-1.7,0-2.93,1.3-2.93,3.07s1.23,3.07,2.93,3.07c.97,0,1.81-.59,2.2-1.36l1.71.83c-.67,1.16-1.85,2.3-3.91,2.3-2.8,0-4.98-1.96-4.98-4.84" style="fill:#2d3b51;"/><polygon points="107.52 33.09 107.52 23.74 114.14 23.74 114.14 25.49 109.51 25.49 109.51 27.47 114.04 27.47 114.04 29.22 109.51 29.22 109.51 31.34 114.14 31.34 114.14 33.09 107.52 33.09" style="fill:#2d3b51;"/><polygon points="123.94 33.09 119.48 26.99 119.48 33.09 117.49 33.09 117.49 23.74 119.54 23.74 123.87 29.61 123.87 23.74 125.86 23.74 125.86 33.09 123.94 33.09" style="fill:#2d3b51;"/><polygon points="131.36 33.09 131.36 25.49 128.63 25.49 128.63 23.74 136.09 23.74 136.09 25.49 133.37 25.49 133.37 33.09 131.36 33.09" style="fill:#2d3b51;"/><path d="M144.14,33.09l-1.84-3.32h-1.46v3.32h-1.99v-9.35h4.37c1.95,0,3.14,1.28,3.14,3.01s-1.04,2.54-2.05,2.78l2.1,3.56h-2.29ZM144.34,26.75c0-.79-.6-1.26-1.4-1.26h-2.09v2.52h2.09c.8,0,1.4-.48,1.4-1.26" style="fill:#2d3b51;"/><path d="M156.44,33.09l-.58-1.58h-4.01l-.59,1.58h-2.27l3.62-9.35h2.49l3.6,9.35h-2.27ZM153.86,25.73l-1.46,4.02h2.92l-1.46-4.02Z" style="fill:#2d3b51;"/><polygon points="161.65 33.09 161.65 23.74 163.64 23.74 163.64 31.34 167.59 31.34 167.59 33.09 161.65 33.09" style="fill:#2d3b51;"/><path d="M95.64,46.66v-8.75h3.45c2.74,0,4.64,1.74,4.64,4.38s-1.9,4.37-4.64,4.37h-3.45ZM101.83,42.29c0-1.55-.94-2.74-2.74-2.74h-1.59v5.47h1.59c1.73,0,2.74-1.25,2.74-2.73" style="fill:#2d3b51;"/><polygon points="107.16 46.66 107.16 37.91 113.35 37.91 113.35 39.55 109.02 39.55 109.02 41.4 113.26 41.4 113.26 43.04 109.02 43.04 109.02 45.02 113.35 45.02 113.35 46.66 107.16 46.66" style="fill:#2d3b51;"/><path d="M116.9,46.66v-8.75h4.6c1.67,0,2.52,1.06,2.52,2.23,0,1.1-.68,1.84-1.51,2.01.93.14,1.68,1.05,1.68,2.15,0,1.31-.88,2.36-2.54,2.36h-4.75ZM122.12,40.47c0-.55-.39-.96-1.02-.96h-2.33v1.9h2.33c.63,0,1.02-.39,1.02-.94M122.29,44.03c0-.55-.39-1.02-1.13-1.02h-2.4v2.03h2.4c.71,0,1.13-.38,1.13-1.01" style="fill:#2d3b51;"/><path d="M126.35,42.29c0-2.64,1.93-4.53,4.56-4.53s4.58,1.89,4.58,4.53-1.93,4.53-4.58,4.53-4.56-1.89-4.56-4.53M133.58,42.29c0-1.64-1.05-2.87-2.66-2.87s-2.65,1.23-2.65,2.87,1.04,2.87,2.65,2.87,2.66-1.25,2.66-2.87" style="fill:#2d3b51;"/><path d="M143.05,46.66l-1.72-3.11h-1.36v3.11h-1.86v-8.75h4.09c1.82,0,2.94,1.19,2.94,2.82s-.97,2.37-1.92,2.6l1.97,3.33h-2.14ZM143.24,40.73c0-.73-.56-1.18-1.31-1.18h-1.95v2.36h1.95c.75,0,1.31-.45,1.31-1.18" style="fill:#2d3b51;"/><path d="M154.75,46.66l-.54-1.48h-3.75l-.55,1.48h-2.13l3.39-8.75h2.33l3.37,8.75h-2.13ZM152.33,39.78l-1.36,3.76h2.73l-1.36-3.76Z" style="fill:#2d3b51;"/><polygon points="165.73 46.66 165.73 42.98 161.6 42.98 161.6 46.66 159.73 46.66 159.73 37.91 161.6 37.91 161.6 41.34 165.73 41.34 165.73 37.91 167.6 37.91 167.6 46.66 165.73 46.66" style="fill:#2d3b51;"/><path d="M95.56,55.56c0-2.39,1.81-3.9,4.01-3.9,1.57,0,2.55.79,3.12,1.68l-1.33.72c-.34-.53-.98-.98-1.79-.98-1.37,0-2.36,1.05-2.36,2.48s.99,2.48,2.36,2.48c.67,0,1.3-.29,1.61-.58v-.9h-1.99v-1.4h3.59v2.89c-.77.86-1.84,1.42-3.21,1.42-2.2,0-4.01-1.54-4.01-3.91" style="fill:#2d3b51;"/><path d="M105.51,55.56c0-2.27,1.66-3.9,3.93-3.9s3.94,1.63,3.94,3.9-1.66,3.9-3.94,3.9-3.93-1.63-3.93-3.9M111.74,55.56c0-1.41-.9-2.48-2.29-2.48s-2.28,1.06-2.28,2.48.89,2.48,2.28,2.48,2.29-1.07,2.29-2.48" style="fill:#2d3b51;"/><polygon points="116.33 59.32 116.33 51.78 117.94 51.78 117.94 57.91 121.12 57.91 121.12 59.32 116.33 59.32" style="fill:#2d3b51;"/><path d="M124.05,59.32v-7.54h2.97c2.36,0,4,1.5,4,3.78s-1.64,3.76-4,3.76h-2.97ZM129.39,55.56c0-1.33-.81-2.36-2.36-2.36h-1.37v4.71h1.37c1.49,0,2.36-1.07,2.36-2.35" style="fill:#2d3b51;"/><polygon points="143.24 59.32 143.24 54.04 141.12 59.32 140.42 59.32 138.29 54.04 138.29 59.32 136.68 59.32 136.68 51.78 138.93 51.78 140.77 56.34 142.6 51.78 144.86 51.78 144.86 59.32 143.24 59.32" style="fill:#2d3b51;"/><rect x="147.86" y="51.78" width="1.6" height="7.54" style="fill:#2d3b51;"/><polygon points="157.77 59.32 154.18 54.4 154.18 59.32 152.57 59.32 152.57 51.78 154.22 51.78 157.71 56.52 157.71 51.78 159.32 51.78 159.32 59.32 157.77 59.32" style="fill:#2d3b51;"/><polygon points="162.23 59.32 162.23 51.78 167.57 51.78 167.57 53.19 163.84 53.19 163.84 54.79 167.49 54.79 167.49 56.2 163.84 56.2 163.84 57.91 167.57 57.91 167.57 59.32 162.23 59.32" style="fill:#2d3b51;"/><path d="M107.75,71.53v-6.03h3.18c1.15,0,1.74.73,1.74,1.54,0,.76-.47,1.27-1.04,1.38.64.1,1.16.72,1.16,1.48,0,.9-.61,1.63-1.76,1.63h-3.28ZM111.35,67.26c0-.38-.27-.66-.71-.66h-1.61v1.31h1.61c.43,0,.71-.27.71-.65M111.47,69.72c0-.38-.27-.71-.78-.71h-1.66v1.4h1.66c.49,0,.78-.26.78-.7" style="fill:#2d3b51;"/><polygon points="115.2 71.53 115.2 65.49 119.46 65.49 119.46 66.63 116.48 66.63 116.48 67.9 119.4 67.9 119.4 69.03 116.48 69.03 116.48 70.4 119.46 70.4 119.46 71.53 115.2 71.53" style="fill:#2d3b51;"/><polygon points="126.08 71.53 123.2 67.59 123.2 71.53 121.92 71.53 121.92 65.49 123.24 65.49 126.03 69.28 126.03 65.49 127.32 65.49 127.32 71.53 126.08 71.53" style="fill:#2d3b51;"/><path d="M129.96,71.53v-6.03h2.38c1.89,0,3.2,1.2,3.2,3.02s-1.31,3.01-3.2,3.01h-2.38ZM134.23,68.52c0-1.07-.65-1.89-1.89-1.89h-1.09v3.77h1.09c1.19,0,1.89-.86,1.89-1.88" style="fill:#2d3b51;"/><rect x="137.9" y="65.5" width="1.28" height="6.03" style="fill:#2d3b51;"/><path d="M141.53,68.52c0-1.91,1.45-3.12,3.21-3.12,1.26,0,2.04.63,2.5,1.35l-1.07.58c-.27-.42-.79-.79-1.43-.79-1.09,0-1.89.84-1.89,1.98s.8,1.98,1.89,1.98c.53,0,1.04-.24,1.28-.46v-.72h-1.59v-1.12h2.88v2.32c-.61.69-1.47,1.14-2.57,1.14-1.76,0-3.21-1.23-3.21-3.13" style="fill:#2d3b51;"/><path d="M149.49,68.52c0-1.82,1.33-3.12,3.15-3.12s3.16,1.3,3.16,3.12-1.33,3.12-3.16,3.12-3.15-1.3-3.15-3.12M154.48,68.52c0-1.13-.72-1.98-1.84-1.98s-1.83.85-1.83,1.98.72,1.98,1.83,1.98,1.84-.86,1.84-1.98" style="fill:#2d3b51;"/><polyline points="64.8 59.74 64.81 59.72 64.8 59.73 64.8 59.74" style="fill:#2d3b51;"/><path d="M73.88,13.49s-.02-.08-.05-.11c0,0,0,0,0,0,.02-.08.02-.16.01-.25-.01-.1-.07-.18-.16-.23-.02-.01-.04-.02-.07-.03h0s-.04-.03-.06-.05c0,0,0-.01,0-.02,0-.08-.06-.21-.12-.26.03.03.04.06.05.06-.03-.11-.11-.19-.21-.22-.03-.03-.06-.06-.1-.1-.03-.05-.06-.08-.08-.11-.03-.03-.05-.05-.06-.09-.04-.07-.1-.12-.17-.15-.03-.03-.05-.04-.1-.04-.03-.01-.07-.02-.11-.02-.01-.02-.03-.04-.04-.05-.02-.06-.06-.12-.11-.16l-.1-.06c-.12-.13-.24-.22-.35-.27-.04-.02-.08-.04-.12-.05,0,0,0,0-.01,0l-.18-.08s-.03-.03-.05-.04c-.11-.06-.22-.1-.34-.15-.14-.05-.28-.11-.41-.19-.03-.02-.08-.04-.12-.05-.05-.01-.09-.02-.15-.04-.05-.05-.11-.09-.18-.1-.03,0-.08-.02-.12-.04-.07-.02-.14-.05-.2-.06-.16-.1-.38-.12-.6-.14-.08,0-.15-.01-.2-.03-.06-.01-.13,0-.19.03-.1,0-.21,0-.36.01-.04,0-.09.02-.12.04-.03,0-.06,0-.09,0-.06,0-.13,0-.2-.01-.24-.06-.46,0-.63.05-.09.03-.18.05-.24.05-.04,0-.12,0-.17.03-.01,0-.02,0-.03,0h-.09c-.05,0-.1.01-.15.04-.04,0-.08,0-.12.02-.06.02-.12.05-.16.1-.03,0-.05.02-.08.03-.08,0-.17.02-.23.08-.02,0-.04.02-.06.03-.08.04-.17.08-.24.15-.02,0-.04.01-.06.02-.08,0-.17.02-.23.07-.08,0-.15.02-.21.08-.07.07-.11.1-.14.12-.03.02-.05.04-.08.07-.02,0-.05.02-.07.03-.04.02-.08.06-.11.11-.13.03-.29.13-.59.35l-.59.48s-.06.06-.08.1c-.06.02-.11.05-.16.11-.04.05-.08.09-.12.13-.04.04-.08.08-.11.13-.05.02-.1.05-.13.1-.13.17-.17.31-.16.44,0,0-.02.02-.02.02,0,0-.26.3-.32.55-.02.05-.04.08-.04.1-.09.15-.1.17-.17.35-.02.04-.02.09-.02.13,0,.01-.01.02-.02.03,0,0,0,.01-.01.02-.1.17-.12.24-.14.33,0,.02-.02.05-.05.11-.03.07-.04.14-.01.21-.05.09-.1.2-.11.33,0,0,0,0,0,0-.07.03-.13.09-.16.17-.03.08-.07.18-.05.29-.01.04-.02.07-.02.08-.03.09-.03.21-.03.49v.15c0,.16.19.3.35.31,0,0,.08,0,.08,0,.09,0,.14,0,.16,0,.02,0,.04,0,.07,0,.06,0,.13-.02.18-.06.03,0,.07,0,.1.01.1.02.22.03.35.01.02,0,.05,0,.07,0l.22-.03c.08,0,.15-.02.2-.03.03,0,.07.02.12.03.1.02.24-.01.32-.08.05-.05.09-.13.1-.2.01-.06.02-.13.02-.21.07-.04.12-.11.14-.19.02-.1,0-.19-.06-.27l.03-.17s.01-.03.02-.05c.05-.14.07-.24.07-.33.11-.22.14-.31.18-.46.03-.03.06-.08.08-.13.02-.03.05-.07.09-.12.07-.09.15-.2.22-.31.03-.02.05-.05.07-.08.05-.09.16-.19.27-.28.14-.12.29-.26.34-.43l.09-.11s0,0,0,0c.04-.02.08-.05.12-.07.01,0,.02-.01.03-.02.05,0,.09-.02.13-.05.36-.25.8-.42,1.38-.55.02,0,.04-.01.06-.02.02,0,.04,0,.06-.01.04,0,.08,0,.12,0l.1-.02c.05-.01.1-.03.14-.07.04.01.07.02.11.02h0s.04,0,.07,0h.23c.07,0,.13-.03.18-.07.08.01.18.02.28.02l.2.03c.08.01.15.02.14,0,.05.03.12.03.16.05.13.02.22.02.35.07.02,0,.03,0,.05.01.05.03.1.05.14.07.03.01.07.03.06,0,0,.02.02.03.03.05.07.09.17.12.27.12.02,0,.05.02.07.03,0,0,0,0,.01.01.03.03.07.06.11.07.2.07.41.25.63.45l.11.09s.04.03.06.04c.02.05.05.09.09.12.02.02.07.04.11.06.03.05.08.08.13.1.39.49.79,1.04.84,1.65,0,.08.05.15.1.2v.1c0,.06.03.12.06.18,0,.02,0,.03,0,.05.01.12.04.3.21.39.05.11.16.18.28.18h1.31c.09,0,.17-.03.23-.1.06-.06.09-.15.08-.23-.07-1.06-.41-2.09-1-3" style="fill:#2d3b51;"/><path d="M73.41,21.46c-.05-.11-.19-.19-.28-.18h-2.26s-.1.02-.14.05c0,0-.09.05-.1.05-.04.02-.08.04-.12.07,0,0,0,.01-.01.02-.02,0-.05.02-.07.02-.11,0-.2.03-.27.12,0,0,0,0,0,.01-.02.01-.06.03-.08.04-.04.02-.09.04-.14.07-.02,0-.03,0-.05.01-.13.05-.23.07-.35.07-.06,0-.07,0-.11.02-.04.01-.11.02-.18.03l-.16.02c-.12,0-.22.01-.32.03-.05-.04-.11-.06-.18-.06h-.19s-.07,0-.11,0h0s-.08,0-.11.01c-.04-.03-.09-.06-.14-.07l-.12-.02s-.07,0-.11,0c-.02,0-.04,0-.05-.01-.02,0-.04-.02-.06-.02-.44-.1-.8-.23-1.11-.39-.05-.02-.11-.05-.15-.04h-2.52c-.12.01-.23.08-.28.19-.05.11-.03.24.04.33l.09.1s.07.08.12.13c.04.05.1.09.15.1.02.04.05.07.08.1l.6.5c.29.21.44.31.57.35.04.04.08.07.12.09.02.01.04.02.06.03.03.03.06.05.09.07.03.02.07.05.15.12.06.05.14.08.21.07.05.04.12.06.19.06.03.02.07.03.1.04.07.06.16.11.24.15.02.01.04.02.06.03.06.06.15.08.23.08.01,0,.03.01.05.02.05.06.13.11.22.11.03,0,.07,0,.11,0,.05.02.1.04.15.04.04.01.08.01.11.01h0s.09.03.15.03c.05-.01.15.02.24.05.18.05.39.11.64.05.07,0,.13,0,.2-.01.04,0,.08,0,.11,0,.05.03.12.05.17.05.1,0,.18.01.26,0,.04.02.09.04.15.04.02,0,.05,0,.07,0,.05-.01.12-.02.2-.03.22-.02.44-.04.6-.14.06-.01.13-.03.2-.06.04-.02.09-.03.12-.04.05,0,.11-.05.15-.09.07-.03.13-.04.19-.05.03,0,.07-.02.1-.04.14-.09.28-.14.41-.19.12-.05.23-.09.34-.15.02,0,.04-.02.05-.03l.18-.08s0,0,.01,0c.04-.01.08-.03.12-.05.11-.04.22-.13.31-.23l.14-.1c.05-.04.09-.09.1-.15.02-.02.04-.04.05-.07.05,0,.11-.02.16-.05.09-.02.18-.07.22-.16.02-.03.04-.05.06-.09.02-.03.05-.07.08-.11.04-.03.08-.07.11-.1.01-.01.02-.02.03-.03.08-.04.14-.1.18-.18.04-.06.07-.15.07-.2,0-.12-.05-.23-.14-.29,0-.01,0-.02-.01-.03" style="fill:#2d3b51;"/><path d="M90.61,84.87l2.25-1.3-4.76-20.02c-.13-.57-.22-.97-.22-1h-.02s-.18-.77-.18-.77c0-.07-.01-.19-.11-.56-.02-.03-.04-.08-.06-.14l-.24-1.02c-.06-.32-.12-.61-.18-.75.08.07.09-.28.05-.69-.02-.02-.42-.95-.51-1.24,0-.11.02-.09.07.12-.04-.19-.2-.96-.21-.99.28-.32.45-.67.35-1.06.03-.09,0-.13-.04-.16,0,0,0,0,0,0,0-.12,0-.24,0-.36-.1.08-.2.17-.3.25.08.03.17.06.25.1-.1-.02-.27,0-.43.02-.15-.57-.36-1.52-.3-.97-.05-.62-.22-1.05-.33-1.86-.02.03.02.29-.13-.41-.02-.04-.04-.1-.06-.15,0-.02,0-.03,0-.05v.04s0-.03,0,.01c.03.17.05.3.05.36-.11-.26-.3-1.01-.44-1.49.04,0-.02-.14-.05-.37l-.18-.55c.04-.07-.18-1.11.08-.15l-.18-.73s-.03-.14-.03-.14c-.1-.52-.26-1.23-.39-1.66-.09-.41-.31-1.02-.18-.68l-.37-1.36v-.02c-.32-1.35-.76-2.75-1.05-4.32-.12-.45-.26-.92-.43-1.68v-.16c-.06-.25-.14-.62-.22-.98l-.06.26-4.31-18.13c.07-.28.14-.56.21-.91-.22-.3-.29-.56-.66-.69-.07-.05-.14-.09-.2-.14-.02.09-.05.17-.08.23-.1-.09-.19-.18-.25-.23-.07-.06-.11-.09-.11-.07l.08.13c.09.08.17.14.25.2-.01.01-.02.02-.04.04-.06-.08-.13-.16-.2-.22l-.02-.02s-.04-.03-.07-.05c-.23-.22-.24-.18-.17-.07-.03-.01-.05-.02-.08-.03-.1-.07-.2-.14-.28-.2,0,0-.01-.02-.02-.02,0-.07,0-.14.01-.21-.05.04-.09.07-.12.09-.05-.04-.09-.08-.13-.12-.3,0-.44,0-.66,0-.2,0-.4,0-.56-.04-.09.02-.36.03-.68.04v.04c-.06,0-.11,0-.15.02-.47-.02.05-.07-.51-.09-.4.02-.92.07-1.38.04h0c-1.12-.07-1.71.08-2.72.02l.11-.02c-.36-.03-1.07.01-1.72-.02.19.01.35.05-.04.06-.75-.04-1.26,0-1.8-.04l-.36.04c-.28,0-.56,0-.86,0,.03-.03-1.4-.38-1.53,0-.65,0-1.28-.02-1.84-.04.09.03.1.04.06.05-.02,0-.06,0-.11,0-.07,0-.15,0-.24,0-.1.07-.21.16-.32.24-.18.1-.36.23-.49.4-.01.01-.02.03-.03.04-.13.07-.38.26-.08-.02-.1.09-.2.17-.29.25-.06.29-.11.54-.15.77-.04.2-.08.39-.12.57-.07.31-.12.61-.15.93l-.04.16s.02-.26-.02-.17c-.01.1-.05.38-.09.5-.04.12,0-.18.03-.37-.09.48-.14.78-.15.99l-4.53,19.05s0-.04,0-.05c-.08.32-.12.51-.15.64l-.08.33s-.01.02-.02.03c0,0,0,0,0,.02l-.64,2.69c-.04.14-.08.29-.11.43,0,0,0,0,0,0,0,.02,0,.04-.01.05-1.98,7.54-3.97,15.04-4.07,15.61v-.11c-.26,1.17-1.71,7.66-2.02,9.02l.05-.18c-.21,1.18-.55,2.83-.63,3.21l-.02-.02c-.11.55-.31,1.78-.5,2.72l-.03.13-.04-.04c0,.06,0,.11,0,.15l-1.82,7.66,2.25,1.3,2.72-11.45s.02-.04.04-.06l1.95-1.98c1.36-1.24,3.07-2.84,3.84-3.74.05-.02,0,.02-.02.07.39-.48.75-.89,1.1-1.33.12-.1.17-.12.21-.14-.03.01.13-.18.36-.46l1.57-1.6s.01,0,.02.01c-.07-.04,2.33-.04,2.37-.03l.03-.09c.46,0,.13.1.55.08.17-.13.7.01.85-.05,0,.01.2.01.19.05.06-.07.21-.02.34-.03.05-.02-.03-.02-.07-.04l.3-.02c.12.02.15.06.02.07.78.02,3.7.09,4.54.06-.11-.05-.37-.02-.47-.1.22-.05.33.02.42-.03.09.12.49.03.66.15l.06-.07.11.04c.98-.07.22-.03,1.09-.02.5-.01.74-.1,1.02-.07-.04,0-.15-.04-.02-.06.02.06.35-.04.41.02.13,0,.54,0,.4-.08.07.04.44.06.22.09.12,0,.24.01.33,0l-.16-.02c.42-.01.65.05.92-.02l-.15-.03c.25,0,.46-.01.56.07l-.26.02c.42,0,.67,0,1.01-.05h-.12c.16-.03.57-.06,1.05-.09.09,0,.18,0,.24.01.48-.08,1.08-.02,1.56-.07l-.05.02c.35-.02,1.27,0,2.12.02l4.66,4.74s.03.04.04.06c0,0,0,0,0,0l2.75,2.8c.02.06.04.11.07.15.14.17.39.38.67.6l1.11,1.13,2.74,11.54ZM70.27,52.11l4.82-4.9s.02,0,.03,0c0,0,0-.02,0-.03l.51-.52c-.05.09-.11.18-.2.24.1,0,.02-.03.16-.05-.14,0,.31-.28.12-.25.15,0,.18-.11.35-.15-.02-.01-.07,0,.04-.08,0,0,0-.02,0-.04h0s0,0,0,0c0,0,0,0,0,0-.03.01-.06.02-.08.02.01-.09.17-.23.21-.3.07-.05,0,.04.04.03l.05-.11s.22-.08.1.07l.13-.12c.09-.05.2-.13.25-.21.07-.05.11-.18.09-.1l.18-.21h.01c.2-.17.34-.43.63-.56.06-.07.11-.15.23-.24h.05c.07-.08.28-.19.29-.26.18,0,.43-.36.59-.48l-.04-.05c.1-.09.19-.2.3-.33l-.04-.03c.08-.13.31-.23.48-.4,0,.03-.05.06-.09.08.25-.09.36-.37.54-.51l-.02-.12.36.23c.08.33.55,1.93,1.18,4.05l3.5,14.74c-.4,0-1,.01-1.2-.01.08.01.15.05-.02.06-.32-.04-.54,0-.77-.04l-.23.06c-.22,0-.56,0-.98,0-.24,0-.49,0-.73,0h0s-1.54.02-1.54.02l-9.32-9.48ZM57.3,61.74s-.02.03-.04.04c-.07-.02-.15-.03-.29-.04.05.09-.37.14-.55.15h0v-.02s-.11,0-.17.02c-.07,0-.14,0-.19,0-.28-.03-.05-.1-.05-.11-.34.02-.15.07-.44.06-.08-.01.02-.05.06-.06-.13,0-.24-.01-.25.01.16.02.09.1.16.15h-.35s0-.01,0-.01c0,0-.01,0-.02,0l.02-.05s-.09.03-.17.06c-.36.03-.87.02-1.08.02-.27,0-1.44-.03-1.8-.05h0s.01,0,.02,0h-.02l3.04-12.77h.06l.21-1.09c.11-.35.22-.69.32-1.01.06,0,.14-.04.21-.1-.02,0-.04-.01-.04-.16-.03.04-.11.24-.14.19.02-.08.05-.16.07-.23.06-.02.14-.06.22-.12h.03s0-.02,0-.02c.04-.03.07-.05.11-.08.11.46-.03.29.18.47-.03-.19-.07-.39-.1-.58.59.08.79.03,1-.58-.06-.16-.12-.31-.18-.47-.02.27-.04.54-.06.81-.16.06-.31.12-.47.18-.1-.21-.21-.43-.31-.64,0-.01,0-.02,0-.03.01-.02.02-.03.03-.05,0,0-.01,0-.02,0,.07-.26-.07-.05.22-.27-.03-.08-.03-.14-.02-.19.06.02.13.04.19.06.12.21-.08.11.25.26.02-.07.04-.14.06-.21-.17-.03-.33-.07-.5-.1.08-.28.84.08,1.1-.5.14-.32.03-.21-.12-.68-.24.14-.48.29-.72.43,0-.12-.03-.21-.07-.31.03-.15.06-.31.08-.44.05.04.1.1.19.21.1-.02.19-.03.29-.05-.12-.23-.24-.46-.35-.69l.15-.69c.07.02.13.04.2.06,0-.1.01-.2.02-.3l9.73,9.9-9.46,9.62h-.25ZM59.62,39.39s-.11.03-.03-.05c.19-.12.29-.24.44-.31l.08-.14c.6-.49,2.88-2.51,3.46-3.02l-.02.03c.15-.13.31-.27.47-.41.05.04.13.06.21.06,0-.02-.02-.04.08-.16-.06.01-.29.17-.22.05.04-.04.08-.07.12-.1.03-.02.06,0,.11-.03-.03,0-.03-.02-.02-.04.18-.16.36-.31.55-.47,0,.01-.02.02-.02.04l.15-.05c-.1.13-.19.33-.36.43.11,0,.03-.04.18-.05-.15-.02.38-.32.17-.29.17,0,.21-.12.4-.17-.02-.02-.08,0,.05-.09,0-.01,0-.03.01-.04h0s0,0,0,0c0,0,0,0,0,0-.04.02-.07.02-.08.02,0-.03.03-.07.06-.1.04,0,.09.01.13.02,0,0-.01.01-.02.02.01,0,.02,0,.02,0,0,0,0,0,.01-.01.04,0,.09.01.13.02.05-.05.1-.09.15-.14,0-.05,0-.1,0-.15l.15-.12c.11-.05.24-.15.31-.23.08-.05.15-.21.11-.12l.17-.18c.05,0,.11,0,.16,0,.03-.07.05-.14.08-.22.17-.18.35-.38.6-.49.07-.08.15-.17.29-.27l.05.02c.09-.1.34-.23.35-.31.07,0,.16-.05.26-.13.07-.06.05-.04.06-.06l.02-.03s.02,0,.03.02l.02-.07.03.02s.07.04.1.07c.07.04.15.09.24.14l.02-.06c.16.07.34.31.57.47-.03,0-.08-.04-.11-.08.2.31.61.34.8.61.07.03.11.07.15.11h-.02s.02.01.02.01c.02.03.05.06.07.09-.02-.03-.04-.06-.05-.08.05.03.12.08.2.12v.07s0,0,.02.01c.06.07.07.02.06-.05.04.02.08.03.11.04,0,.13.2.11.22.26.07,0,.37.23.46.16,0,.01.01.04-.03,0,.07.07.14.14.23.16v.09s.2.03.2.03c0,0,.02.01.02.02.07.11.09.16-.03.14.29.1.22.12.47.2l-.04.04c.08.05.23.09.25.16.12.21.82.63,1.2,1.03,0-.19.17.21.24.12,0,.05.06.11-.03.09.24.13.3.3.5.32,0,.05-.07,0-.06.04.02,0,.08.03.1.06.01.03-.05,0-.09-.01.23.16.3.09.37.01.09.13.15.16.26.17.02.06.07.14-.07.04.08.06.45.4.5.34.01.04.11.09.13.09.17.14.18.15.36.28h0c.32.26.57.49.67.59.13.15-.04.1-.05.1.19.13.12.01.27.15.03.04-.04.03-.07.02.07.05.12.12.14.1-.07-.09.02-.12.01-.19l.19.17-.04.03s.2,0,.37.17c.31.29.68.57,1,.86-.02.02-.1-.03-.18-.07.04.04.11.09.14.14-.03-.07.03-.02.08.01-.08,0-.15,0-.23-.02l-.15.05s-.11,0-.18,0c-.27,0-.53-.02-.8-.01-.02-.02,0-.02.03-.03-.3.02-.57.01-.84.03-.08-.02-.1-.05-.12-.07.05.04-1.51.04-1.53.03l-.02.09c-.3,0-.09-.1-.36-.08-.11.12-.45-.01-.55.05,0,0-.13-.01-.12-.05-.04.07-.14.02-.22.03-.03.02.02.02.05.04l-.19.02c-.08-.02-.09-.06-.01-.07-.51-.02-2.93-.09-3.48-.06.07.05.24.02.3.1-.14.05-.21-.02-.28.03-.06-.12-.32-.03-.43-.15l-.04.07-.07-.04c-.63.07-.14.03-.71.02-.33.01-.48.1-.66.07.03,0,.1.04.01.06-.01-.06-.22.04-.27-.02-.08,0-.35,0-.26.08-.05-.04-.28-.06-.14-.09-.08,0-.16-.01-.22,0l.1.02c-.27.01-.42-.05-.6.02l.1.03c-.16,0-.3.01-.36-.07l.17-.02c-.27,0-.43,0-.66.05h.08c-.13.04-.51.07-.91.11-.27,0-.49-.02-.62-.03-.31.08-.7.02-1.01.07l.03-.02c-.33.03-2.19-.04-2.57-.02h.05c-.33.06-.29-.03-.55-.05,0,.02,0,.03-.02.04-.09.02-.05.05-.2.05-.05-.01.01-.05.04-.06-.08,0-.16-.01-.16.01.07.01.07.05.08.09-.04,0-.07.01-.1.01v-.02s-.07,0-.11.01h0s0,0-.01,0c-.19.03-.47.08-.68.09v-.05s0,0,0,0c.05-.06.11-.11.19-.16v.04c.09-.04.22-.21.39-.31M71.46,29.04c.19-.17.4-.33.55-.5v.04c.11-.13.58-.51,1.05-.88.04.05.12.09.19.09,0-.02-.02-.04.05-.14-.05,0-.24.12-.19.01.11-.12.11-.07.18-.09-.03,0-.02-.03-.01-.06.16-.13.3-.25.43-.36,0,.02-.02.03-.02.05l.12-.03c-.07.11-.14.27-.27.35.09.02.02-.03.15-.02-.13-.04.3-.24.12-.24.14.02.17-.08.33-.1-.02-.02-.07,0,.04-.08,0,0,0-.03,0-.04h0s0,0,0,0c0,0,0,0,0,0-.03,0-.06.01-.07,0,.02-.09.17-.22.21-.28.06-.04,0,.05.04.04l.05-.1s.2-.05.09.09l.12-.1c.09-.03.19-.1.24-.17.06-.04.11-.17.08-.09l.17-.19h0c.11-.07.45-.66.78-1.16.03-.03.07-.06.09-.08.08-.06.18-.13.28-.2.5,2.16.96,4.18,1.18,5.13l-.03-.1c.42,1.83,1.04,4.57,1.67,7.38-.06-.05-.11-.1-.16-.16l-.15-.06c-.18-.15-.52-.44-.93-.77l.08-.13s-.1-.05-.17-.12c-.06-.06-.13-.13-.19-.19-.12-.12-.23-.21-.34-.15l-.2-.08s.01.01.02.02c-.05-.04-.11-.09-.16-.13-.08-.07-.17-.14-.15-.17-.44-.32-.83-.7-1.24-1.01v.07c-.06-.05-.1-.08-.15-.12,0-.01.04-.01.09.03-.02-.06-.1-.08-.15-.08-.02-.02-.06-.05-.08-.07h.03s-.02,0-.04-.02c.04,0,.14.03.11,0l-.09-.06v.02s-.04,0-.07,0c-.06-.05-.12-.1-.19-.15,0,0,0-.02,0-.03,0,0,0-.02-.05-.04l-.18-.14v.03c-.98-.81-2.43-2.02-3.26-2.64-.11-.16-.32-.32-.46-.46.07.09.02.09-.05.04-.45-.39-.06,0-.53-.37-.06-.05-.15-.12-.25-.19.44-.35.83-.66,1.01-.79.06-.08.14-.16.22-.24,0,.01.01.02.02.03,0-.01,0-.03,0-.04M66.09,33.96h0c.1-.06.06-.04,0,0M65.85,34.21s0-.05,0-.08c.04,0,.06,0,0,.08M61.06,41.97c.08.02.1.05.12.07-.05-.04,1.51-.04,1.54-.03l.02-.09c.3,0,.09.1.36.08.11-.12.45.01.55-.05,0,0,.13.01.12.05.04-.07.14-.02.22-.03.03-.02-.02-.02-.05-.04l.19-.02c.08.02.09.06.01.07.51.02,2.93.09,3.48.06-.07-.05-.24-.02-.3-.1.14-.05.21.02.28-.03.05.12.32.03.42.15l.04-.07.07.04c.63-.07.14-.03.71-.02.33-.01.48-.1.66-.07-.03,0-.1-.04-.01-.06.01.06.22-.04.26.02.08,0,.35,0,.26-.08.05.04.28.06.14.09.08,0,.16.01.22,0l-.1-.02c.27-.01.42.05.6-.02l-.1-.03c.16,0,.3-.01.36.07l-.17.02c.27,0,.43,0,.66-.05h-.08c.13-.04.51-.07.91-.11.27,0,.49.02.62.03.31-.08.7-.02,1.01-.07l-.03.02c.33-.03,2.19.04,2.57.02h-.05c.33-.06.29.03.55.05,0-.02,0-.03.02-.04.06-.01.06-.03.1-.04l-6.13,6.23c-.11.08-.22.17-.33.24.13-.07.06,0-.01.07.02-.02.03,0,.03,0l-.18.18-.16.11c0,.1-.26.27-.3.37l-.17.17h0s-.23.24-.23.24l-1.09,1.11-8.31-8.45c.26-.01.49-.01.73-.03M62.69,26.69s-.02.01-.05,0c-.48-.35-.16-.09.5.4,0,.03.01.07.02.09l.03.02s-.02,0-.02,0c0,0,0,0,0,0,.01,0,.03,0,.05,0l.04.03s.03.08.04.1l-.1-.05c.02.06.04.1.06.09.01.05.05.12-.07.05.06.05.35.31.4.25,0,.03.08.07.1.07.13.1.14.12.28.21l-.03-.04c.1-.05.12.06.24.13h0c.21.25.12.06.33.3l.02-.06s.04-.01.06,0c.02.01.03.03.05.04.06.08.14.21.24.25l-.03-.07c.1.02.13.31.2.39.01.02-.04,0-.06-.01.17.22.07-.05.23.04,0,.06-.09.07,0,.15.03.07.37.09.47.27-.01-.05-.03-.1.05-.07.11.07.23.32.38.3,0,.02,0,.03,0,.04.04.01.09.04.14.07.12.11.26.23.41.36,0,0-.01,0-.02,0v.08s-.07.02-.07.02c-.47.49-.1.13-.56.5-.26.23-.32.41-.49.51.02-.02.11-.04.05.04-.05-.04-.16.19-.23.17-.06.06-.28.24-.16.24-.06,0-.27.15-.18.03-.07.05-.14.1-.17.15l.1-.05c-.21.2-.37.25-.47.43l.1-.04c-.13.12-.24.21-.34.2l.12-.13c-.22.19-.35.3-.5.49l.07-.05c-.05.08-.2.23-.38.41l-.1.08h.02c-.19.19-.41.4-.6.6-.05.04-.09.07-.11.08-.08.14-.18.23-.31.33.01,0,.03,0,.04,0-.02.03-.05.06-.06.08l.06-.02s-.02.03-.05.05c0-.03-.02-.03-.04-.03,0-.04,0-.07,0-.07-.02.02-.06.05-.08.07-.08.04-.19.14-.29.12.11,0-.2.22-.16.27,0,0-.01.01-.02.02-.01-.02-.02-.04-.07-.03-.19.25-.51.38-.78.64,0,.02.07.01.03.09l-.21.03c-.05.06.02.15-.12.17.02,0,.06,0,.03.05-.42.26-.76.64-1.15.96-.16.09-.09-.06-.09-.06-.16.17-.03.12-.19.24-.05.03-.02-.05,0-.07-.06.06-.14.1-.12.12.1-.05.11.04.18.04l-.2.16-.02-.05s-.02.2-.23.34c-.28.21-.55.45-.83.68.14-.82.51-2.64.82-4.23l2.04-8.59c.59.54,1.18,1.07,1.81,1.59M51.93,64.09l-.05.02c.15.03,1.29-.01,1.57.02-.08-.01-.15-.05.02-.06.32.04.54,0,.77.04l.23-.05c.18,0,.46,0,.78,0-.01.01-.02.02-.03.04l-.95.97.12-.25c-.41.55-.5.51-.88.9.11,0-.84.76-.99.93l-.19.38-.62.63c-.18.1-.37.22-.54.42l-.02-.05c-.16.24-.44.56-.68.84l1.14-4.79c.1,0,.2-.02.32,0M81.67,63.71c.31,0,.6.01.63,0,.36-.03.87-.02,1.08-.02.27,0,1.44.03,1.8.05,0,0-.01,0-.02,0,.02,0,.05,0,.08,0,.03,0,.05,0,.08,0,.05,0,.09,0,.12.01-.01,0-.02,0-.02-.01.05,0,.11,0,.16,0l1.18,4.94c-.11-.04-.21-.09-.32-.13l-4.77-4.85ZM73.99,17.93v.03s-.05,0-.08,0c0-.01.02-.02.08-.03M66.68,20.4s.07.06,0,.1c.19-.08.19-.05.31-.1.01,0,.03,0,.04,0v.03s.06-.01.09-.02c.05,0,.09,0,.14,0,0,0,.03,0,.04,0h-.07s.1.02.16.02c.23.03.64,0,.94.06-.07-.14.17.06.19-.04.02.03.07.05.01.08.19-.03.28.05.41-.04.02.03-.04.05-.02.07.02,0,.06-.03.08,0,.02.02-.03.03-.06.04.19,0,.21-.1.23-.19.01,0,.02,0,.03,0,.05.02.09.02.12,0,.03,0,.07,0,.1,0,.01.02,0,.03-.07.04.07,0,.41.05.42-.03.02.02.07,0,.1,0,.03,0,.07,0,.1,0,.07,0,.11,0,.19,0,.23,0,.45,0,.67.02l.4-.04c.07.05.16.13.21.14.02.01-.03.02-.06.02.23.07.03-.07.2-.09.03.04-.04.1.07.11.06.03.33-.13.48-.05-.03-.03-.07-.06.01-.08.12-.01.32.12.43.02.02,0,.02.02.02.02.09-.02.3-.04.35-.09.08.19.57-.09.57.09h.28s0,0,0,0c.18.01.24-.03.31-.07.04.01.01.03,0,.04.26.04.29.03.51-.06l.02.06c.05-.03.31.06.55.03l.23,1.23h.03c.07.11.03.33.07.53,0,0,0-.01,0-.02l.05.29c.04.09.06.17.07.26-.07.03-.04-.06-.17.05-.83.65-1.64,1.26-2.45,1.95-.03,0,0-.02,0-.05-.23.22-.45.4-.66.6-.08.04-.11.03-.14.03.06,0-1.2,1.07-1.23,1.08l.04.08c-.24.2-.14-.02-.34.19,0,.17-.38.3-.41.42,0,0-.12.08-.13.04,0,.08-.1.11-.16.18-.01.04.03,0,.06,0l-.14.15c-.08.04-.12.02-.05-.04-.21.16-.8.63-1.39,1.11-.44-.39-.82-.74-.99-.9-.31-.15-.59-.47-.87-.64h.04c-.29-.2-1.76-1.53-2.09-1.77l.03.04c-.3-.19-.21-.23-.41-.43-.03.09-.3-.07-.39-.14h.02c-.14-.11-.5-.31-.73-.49l.04-.03c-.22-.12-.55-.42-.69-.53-.25-.24-.6-.61-.98-.9l.52-2.18c.15-.05.36-.13.58-.21.06,0,.11-.01.14-.02.47.02-.05.07.51.09.4-.02.93-.07,1.39-.04h0c.87.05,1.42-.02,2.1-.03M75.34,61.63l-.24.02s-.05-.01-.06-.02l-8.99.05s-.07.03-.02.06c-.04-.02-.17-.04-.24-.05h-1.04s-.02,0-.02.01l.15.03c-.19,0-.33,0-.44-.03h0c-.2.03-.55.05-.96.08-.09,0-.18,0-.24,0-.48.08-1.09.02-1.56.07l.05-.02c-.15,0-.52,0-.98,0l4.26-4.33s.11.01.17,0c-.01-.02-.02-.03.07-.16-.03.01-.12.07-.18.1l.71-.72.11-.05c-.09.14-.18.33-.33.45.11-.01.03-.04.19-.08-.16.01.37-.35.15-.29.17-.03.21-.14.4-.22-.02-.01-.08.01.05-.09,0-.01,0-.03.01-.04h0s0,0,0,0c0,0,0,0,0,0-.04.02-.07.03-.09.03.02-.1.21-.28.26-.36.08-.06-.01.05.05.03l.07-.12s.25-.12.1.06l.15-.14c.11-.06.24-.17.3-.26.08-.06.14-.22.11-.13l.21-.25h.01c.24-.21.42-.52.75-.71.07-.09.14-.18.28-.29h.06s.22-.29.22-.29l7.55,7.68h-1.01Z" style="fill:#2d3b51;"/></svg>