<?xml version="1.0" encoding="UTF-8"?><svg id="a" xmlns="http://www.w3.org/2000/svg" width="212" height="95" viewBox="0 0 212 95"><path d="M107.16,29.12c.31-.29.98-.65,1.22-.63.22.02-.97,1.56-.97,1.56-.41-.34-.45-.74-.24-.93M91.99,33.41s-.05-.13-.05-.17c-.2-1.29.36-2.59.44-2.74.2-.37.85-.81,1.18-.62.11.06.13.07.18.19.1.17-.18.92-.4,1.39-.36.76-.93,1.5-.97,1.54-.02.02-.13.15-.23.28-.06.08-.09.12-.15.12M85.3,31.8s.08-.46.11-.57c.03-.13.08-.3.09-.33.03-.11.08-.22.12-.32.04-.09.08-.18.12-.27l.06-.14c.26-.57.4-.86.69-1.25.08-.1.28-.35.41-.43.2-.13.35-.1.5,0,.16.11.17.31.17.38.01.85-.6,1.91-1.36,2.49-.28.22-.61.47-.7.52-.05.03-.11.16-.19.11-.07-.03-.02-.14-.03-.2M108.26,31.29s-.05-.11-.06-.14c0-.03.01-.06.03-.09.18-.3,1.38-1.9,1.33-2.74-.04-.59-.57-.84-1.05-.95-.31-.07-.96.04-1.54.38-.52.31-.73.25-1.09.54-.34.27-.69.56-.69,1.19,0,.72.27.83.41,1.07.26.42.8.75.64,1.02-.2.33-.52.84-.7,1.07-.36.48-.61.85-.95,1.45-.19.33-1.1,1.4-1.39,1.5-.07,0-.39-.29-.07-1.58.06-.23.22-.93.27-1.12.11-.42.13-.63.16-.79.04-.25-.15-.73-.25-.89-.13-.2-.26-.39-.38-.52-.21-.22-.43-.41-.65-.53-.25-.13-.55-.21-.79-.24-.58-.07-.92.13-1.19.28-.36.2-.51.32-.79.53-.25.19-.2-.03-.23-.31-.02-.14-.18-.38-.29-.46-.19-.13-.41-.24-.7-.31-.21-.05-.59-.02-.79.19-.21.21-.17.64-.22.88-.14.72-.38,1.07-.64,1.57-.49.92-.96,1.58-1.7,2.23-.6.52-1.31,1.03-1.67,1.15-.36.13-.53.16-.87-.35-.08-.12-.09-.38.01-.47.45-.37.83-.69,1.18-1.06.65-.69,1.2-1.18,1.54-1.93.46-1,.49-1.73-.41-2.49-.78-.67-2.18-.77-3.09-.32-.39.19-.71.48-.99.8-.32.36-.6.76-.72,1.16-.18.56-.26,1.39-.19,1.94.05.46.25.64.46,1.12l.03.07c.09.19.17.4.13.47-.08.15-.72.58-1.24.89-.29.17-1.03.59-1.45.76-.5.21-.64.21-.93.15-.39-.08-.62-.41-.76-.64-.63-1.02-.83-2.04-.75-2.83,0-.05.17-.17.22-.15.39.18.83.09,1.12-.04.63-.26.85-.6,1.18-.9.65-.59,1.59-1.91,1.54-2.6-.08-1.1-.39-1.53-1.75-1.76-.15-.03-.3-.05-.45-.05-.32,0-.71.08-1.04.15-.53.11-1.09.37-1.35.61-.32.31-.43.69-.66,1.06-.31.49-.44,1.02-.55,1.54-.03.12-.05.24-.08.35-.12.49-.16,1.02-.14,1.57.02.61.09,1.46.28,2.07.21.69.81,1.16,1.56,1.68.68.47,1.52.78,2.4.78h0c.89,0,2.83-.94,3.71-1.53.04-.03.1-.04.14-.01.6.43,1.04.67,1.62.77.71.12,1.33.03,2-.34.31-.17.63-.34.92-.63.61-.6.81-.86.91-.83.24.01.09.28.07.55-.02.44.13.58.29.69.15.1.36.12.48.13.27.02.41.04.59-.12.14-.12.28-.41.34-.61.08-.28.45-1.27.89-1.94.48-.74,1.06-1.51,1.48-1.79,1.37-.92.51,1.26.42,1.64-.12.48-.41,1.62-.07,2.48.23.58.74,1.02,1.76,1.07.28.01.55-.08.8-.25.51-.33.75-.36,1.26-1.06.23-.31.6-1.04.87-1.37.26-.32.5-.62.65-.81.47-.62.47-.67.6-.91.02-.04.09-.04.12,0,.34.33.69.7.96,1.09.29.42.54.86.54,1.3,0,.33-.17.66-.44.97-.4.46-1.15.59-1.68.21-.31-.23-.42-.62-.63-.78-.13-.05-.27.08-.35.21-.04.07-.04.38.01.57.1.37.31.64.66.97.62.6,1.74.82,2.62.73.28-.03,1.74-.59,1.96-1.78.24-1.33.03-2.04-.85-2.86-.85-.79-1.77-1.54-1.88-1.73" style="fill:#2d3b51;"/><path d="M82.37,35.61c-.05-.22-.12-.8-.17-1.69-.02-.29.01-.68.04-1.02.03-.37.18-.65.22-.79.15-.48.05-.76-.14-.91-.16-.13-.47-.31-.84-.29-.3.02-.57.11-.74.35-.2.28-.74,1.18-1.02,1.59-.31.45-.89,1.41-1.31,1.9-.17.2-.3.45-.41.42-.04,0-.07-.16-.07-.2-.07-1.58.39-3.13,1.11-4.57.17-.35.27-.53.61-1.03.21-.3.36-.35.45-.62.08-.23-.05-.38-.28-.58-.29-.25-1.01-.57-1.45-.44-.48.14-.66.32-.95.66-.35.42-.46.76-.85,1.35-.19.29-.76,1.12-1.48,1.73-.56.47-.71.53-.44.65,1.17.39,1.77-.29,1.72-.12-.09.33-.13.83-.17,1-.06.24-.18.68-.2.92-.03.48-.1.85-.08,1.08.02.16.22.43.45.74.16.22.39.45.72.64.51.31.82.33,1.17.25.34-.07.57-.33.81-.51.78-.56,1.34-1.23,1.58-1.72,0,.1.03.23.07.39.03.11.07.32.15.46.12.21.31.36.54.49.88.51,1.05.21.96-.14" style="fill:#2d3b51;"/><path d="M65.24,36.38c-.69.06-1.17-.08-1.59-.35-.23-.15-.56-.16-.56-.77,0-.28.41-.65,1.1-.54.77.12,1.19.28,1.9.64.73.37.73.46.73.46,0,0-1.06.52-1.57.57M80.51,37.28c-.08.01-.82.36-1.05.47-.31.14-.6.34-1.46.7-1.59.66-2.1.36-3.18.06-.82-.23-1.22-.4-2.09-.93-.62-.38-1.02-.73-1.39-.92-.16-.08-1.01-.83-1.01-.83,0-.02.28-.29.91-1.02.29-.33.62-.75.97-1.24.17-.24.43-.46.61-.74.28-.44.35-.72.51-.99.27-.46.41-.76.67-1.31.43-.88.69-1.32.96-2.14.32-.97.6-1.04.87-3.09.18-1.41.01-2.8-.21-3.92-.24-1.22-.63-2.26-1.22-3.09-.97-1.47-3.33-2.5-4.8-2.5-3.02,0-5.34,1.99-5.81,2.46-1.33,1.33-2.69,3.24-3.82,6.21-.2.53-.45,1.3-.62,1.96-.06.24-.15.47-.19.67-.05.3-.04.61-.07.91-.12,1.11-.11,2.13-.11,2.13,0,.89.03,1.54.16,2.04.2.75.44,1.14.73,1.41.04.04.09.07.13.09,0,0,.28.14.59.07.69-.17,1.15-.84,1.39-1.25.15-.25.11-.48-.07-.68-.26-.29-.54-.63-.64-1.63-.16-2.27-.12-4.35,1.76-8.05.36-.63.7-1.19,1.01-1.67.09-.14.14-.26.23-.39.1-.15.23-.28.32-.42,1.02-1.42,1.74-2.02,2.22-2.3.83-.48,1.87-.44,2.88-.07.54.2,1.12.48,1.62.81.62.42,1.14.97,1.51,1.72.62,1.25.83,1.83.83,3.08,0,1.03.22,1.64-.5,4.26-.08.38-.66,1.7-.9,2.17-.38.95-.69,1.29-1.25,2.14l-.76,1.13c-.75.99-1.06,1.38-1.64,1.85,0,0-.56-.36-1.06-.74-.29-.22-.63-.37-.87-.5-.11-.06-.45-.24-1.02-.39-.35-.09-.72-.11-1.11-.11-.58,0-1.23.2-1.53.47-.52.47-.72.72-.84,1.01-.44,1.1-.08,1.81.17,2.26.34.61.7.84,1.19,1.03.51.2.94.33,1.79.36,1.67.07,2.68-.53,2.68-.53l.46-.19c.44.37,1.46,1.03,2.76,1.61.13.06.27.14.41.2.1.04.2.03.3.07.1.04.21.14.32.18,1.32.48,2.15.67,4,.68.53,0,1.2-.03,1.86-.2.29-.07.87-.25,1.12-.35.27-.11.73-.42.91-.6.38-.38,1.11-1.54.36-1.45" style="fill:#2d3b51;"/><path d="M143.73,24.69c-.2.5-.27.92-.78,1.86-.1.18-.34.58-.64.99-.09.13-.28.33-.36.31-.04-.01.02-.37.03-.41,0-.02.68-3.66,1.25-5.13.55-1.43.89-2.91,1.25-3.3,0-.04.2-.19.23-.2.03-.01.09,0,.09,0,.36.09.59,1.82-1.08,5.88M139.29,31.87c-.26.71-1.13,1.86-1.67,2.35-.1.09-.21.2-.32.3-.37.36-.72.7-.99.71-.08,0-.16-.02-.22-.09-.3-.31,0-1.23.22-1.9.23-.76,1.81-2.73,2.26-3.1.32-.26.71-.15.8-.1.25.13.18.61-.08,1.83M146.35,20.46c.02-.89-.06-1.54-.27-1.9-.33-.55-.67-.96-1.48-.96-.48,0-.96.28-1.25.69-.46.63-.96,1.31-1.31,2.03-.11.23-.58,1.33-.67,1.56-.08.21-.41,1.2-.66,2.25-.22.92-.36,1.72-.52,2.39-.06.25-.11.47-.17.68-.06.24-.12.46-.17.65-.05.19-.1.36-.14.5-.07.26-.12.41-.12.44-.07.27-.11.28-.34.23-.05,0-.63-.14-.66-.14-.3-.05-1.1.03-1.42.17-.83.36-1.31.95-1.8,1.47-.24.25-.54.39-.93,1.23-.24.52-.27.81-.33.95-.21.51-.41,1.3-.73,1.74-.19.26-1,1.23-1.53,1.17-.17-.02-.34-.29-.32-.58,0-.15,0-.3.03-.48.02-.12.07-.24.09-.36.05-.25.09-.51.15-.77.1-.43.33-.87.43-1.24.13-.49.14-.87.15-1.02.04-.49-.04-.84-.28-1.19-.29-.43-.92-.67-1.25-.68-.88-.03-1.26-.02-2.12.77-.07.06-.25.34-.4.33-.17,0-.06-.56-.28-.67-.36-.17-.8-.3-1.22-.13-.36.14-.61.6-.64,1.11-.02.3-.02.6-.14.98-.09.31-.22.71-.3,1.05-.29,1.25-.54,2.52-1.44,2.52-.37,0-.72-1.46-.72-1.46-.08-.51-.06-.83.02-1.53l.04-.17c.07-.32.14-.55.19-.94.03-.22.01-.45.04-.68,0-.07-.07-.15-.18-.23-.42-.31-.91-.23-1.42-.15h-.04c-.3.05-.41.3-.52.53-.14.3-.28.57-.43.85-.06.11-.11.22-.17.33-.21.41-.42.83-.68,1.22-.08.13-.26.38-.47.67-.08.07-.12.13-.15.2-.95,1.23-1.18,1.15-1.28,1.11-.18-.07-.17-.32-.17-.4.03-.14.06-.27.09-.39.03-.14.07-.28.1-.42.14-.7.45-1.45.91-2.23.42-.72.86-1.31,1.46-1.98.14-.14.53-.63,1-.88.35-.18.51-.3.88.03.26.23.38.35.87.28.43-.06.62-.43.4-.8-.11-.18-.37-.37-.79-.49-.21-.06-.5-.12-1.23-.11-.39,0-.88.07-1.26.25-.54.25-.86.65-1.1.87-.63.57-1.3,1.35-1.92,2.39-.56.94-.86,1.7-1,2.48l-.02.12c-.09.49-.16.91,0,1.38.15.43.47.85.92,1.21l.1.11c.35.12.46.31.87.33.28.01.62-.08.95-.19.45-.14.88-.37,1.13-.61.28-.27.84-.93,1.07-1.21.02-.01.03-.02.03-.03.02-.04.18-.23.23-.22.06,0,.09.33.39.68.29.34.78.54,1.15.68,0,0,.55.12.73.18.65.19,1.41.37,2.17-.17.16-.11.4-.33.56-.58.27-.41.44-.91.56-1.17.78-1.38,1.09-2.16,1.91-2.74.12-.08.62.09.49.55-.5,1.81-.52,3.23.14,4.18.19.27.75.9,1.24.93.52.03,1.24-.15,2.21-1.01.06-.05.5-.58.63-.74.03-.03.1-.1.14-.09,0,0,.06,0,.12.1.06.09.16.17.17.19.19.23.46.4.72.56.91.57,1.74.51,2.51-.19.06-.05.39-.37.46-.42.25-.23.77-.76,1.03-1.04.04.5.31,1.4.67,2.2.1.23.25.4.37.6.11.19.2.41.34.58.47.55,1.06.92,1.69.96.33.02.72.02.65-.34-.03-.17-.14-.3-.41-.69-.45-.64-.89-2.15-1.03-3.09-.29-1.89-.27-3.03,0-3.37.54-.7,1.13-1.53,1.68-2.43.39-.64.77-1.31,1.1-1.98.39-.8.63-1.05.99-1.97.13-.33.5-1.17.64-1.59.17-.52.19-1.01.25-1.48.05-.37.03-.96.03-1.25" style="fill:#2d3b51;"/><path d="M116.06,25.47h0c.08-.3,1.27-4.17,1.95-5.99.23-.62,1.42-3.75,2.01-4.14.09-.06.19-.1.28-.12.02,0,.04,0,.05,0,.01,0,.02,0,.03,0,.11,0,.21.03.29.09.17.13.27.36.29.68.05.56-.4,2.62-.86,4-.47,1.37-1.55,3.16-2.16,4.11-.34.53-1.31,1.7-1.73,1.71-.03,0-.05,0-.07-.01-.11-.04-.14-.15-.09-.32M121.82,38.33c.36-.94-.33-.49-.52-.44-.09.02-.66.35-.71.38-.37.19-1.31.57-1.95.76-.53.16-.89.14-1.4-.02-.52-.16-1.03-.58-1.35-.94-.35-.4-.7-1.27-.85-1.93-.05-.21-.12-.97-.1-1.3.02-.33.02-.87.06-1.17.02-.16.21-.74.32-1.83.02-.17.03-.78.1-1.15.02-.1.25-1.09.34-1.19.3-.34.53-.69.78-1.05l.07-.1c.31-.45,1.24-1.58,1.98-2.49.4-.49.79-.92.92-1.08.41-.54,1.12-1.79,1.4-2.27,0,0,.54-1.01.72-1.44.08-.18.18-.36.26-.54.03-.08.34-.95.42-1.29.1-.41.15-.83.19-1.24.15-1.59-.02-1.77-.25-2.59-.13-.48-.91-.73-1.13-.84-.65-.26-.96-.24-1.74.12-.78.36-1.72,1.19-2.17,2.03-.16.3-.32.89-.46,1.2-.06.14-.16.28-.22.42-.34.74-.6,1.52-.85,2.2-.09.24-.72,2.26-.92,3-.08.3-.25,1.1-.42,1.87-.17.79-.35,1.61-.43,1.94-.12.44-.25.95-.32,1.49,0,.02,0,.03-.02.04-.88,1.16-1.45,1.93-1.62,2.16-.07.09-.15.19-.24.3-.18.22-.45.58-.43.7.05.24.71.11.83.08.27-.06.51-.26.63-.33l.14-.08s.04-.01.06-.01c.03,0,.06.01.08.03.05.04.09.06.1.14.03.29,0,.38-.04.61-.02.1-.06.62-.07.71-.05.44-.04.55-.06.95-.02.65-.06,1.21.03,1.63.18.91.39,1.57.89,2.2.2.25.54.49.81.77.18.19.39.41.63.54,1.03.57,2.01.89,3.39.82.51-.03,1.68-.27,2.04-.46.53-.29,1.02-1.09,1.1-1.29" style="fill:#2d3b51;"/><path d="M47.33,68.28c-3.01,0-5.61-.66-7.81-2-2.19-1.33-3.88-3.19-5.07-5.57-1.18-2.38-1.78-5.15-1.78-8.31s.59-5.89,1.78-8.29c1.18-2.4,2.87-4.26,5.07-5.59,2.19-1.33,4.79-2,7.81-2,3.6,0,6.51.86,8.75,2.59,2.24,1.73,3.66,4.15,4.28,7.28h-4.82c-.44-1.81-1.34-3.26-2.7-4.34-1.36-1.08-3.19-1.62-5.5-1.62-2.08,0-3.88.48-5.42,1.45-1.53.97-2.71,2.34-3.53,4.12-.82,1.78-1.23,3.92-1.23,6.4s.41,4.63,1.23,6.43c.82,1.8,2,3.17,3.53,4.12,1.54.95,3.34,1.43,5.42,1.43,2.31,0,4.14-.52,5.5-1.56,1.36-1.04,2.26-2.45,2.7-4.23h4.82c-.61,3.04-2.04,5.42-4.28,7.13-2.24,1.71-5.15,2.57-8.75,2.57" style="fill:#2d3b51;"/><path d="M72.48,64.51c1.17,0,2.25-.29,3.25-.86.99-.57,1.79-1.43,2.39-2.59.6-1.15.9-2.58.9-4.28s-.3-3.16-.9-4.3c-.6-1.14-1.39-2-2.37-2.59-.98-.58-2.05-.88-3.22-.88s-2.17.29-3.18.88c-1.01.59-1.81,1.45-2.41,2.59-.6,1.14-.9,2.57-.9,4.3s.3,3.12.9,4.28c.6,1.16,1.39,2.02,2.37,2.59.98.57,2.04.86,3.18.86M72.48,68.28c-2.08,0-3.94-.48-5.59-1.43-1.65-.95-2.95-2.29-3.9-4.04-.95-1.74-1.43-3.75-1.43-6.03s.48-4.33,1.45-6.05c.97-1.72,2.28-3.07,3.95-4.03,1.67-.97,3.52-1.45,5.57-1.45s3.98.48,5.64,1.45c1.65.96,2.95,2.3,3.9,4.01.95,1.71,1.43,3.74,1.43,6.07s-.48,4.33-1.45,6.05c-.96,1.73-2.28,3.06-3.95,4.01-1.67.95-3.54,1.43-5.61,1.43" style="fill:#2d3b51;"/><path d="M137.47,67.75c-1.37,0-2.57-.22-3.6-.66-1.02-.44-1.81-1.17-2.37-2.19-.56-1.02-.83-2.41-.83-4.17v-11.23h-3.82v-3.73h3.82l.53-5.48h3.86v5.48h6.23v3.73h-6.23v11.27c0,1.26.26,2.11.77,2.57.51.45,1.43.68,2.74.68h2.5v3.73h-3.6Z" style="fill:#2d3b51;"/><path d="M142.62,67.75v-21.97h3.95l.4,4.17c.5-.97,1.13-1.8,1.91-2.5.77-.7,1.69-1.24,2.74-1.62,1.05-.38,2.25-.57,3.6-.57v4.65h-1.4c-.94,0-1.82.12-2.65.35-.83.23-1.56.61-2.17,1.12-.61.51-1.1,1.22-1.45,2.13-.35.91-.53,2.05-.53,3.42v10.83h-4.39Z" style="fill:#2d3b51;"/><polygon points="174.76 45.78 167.78 61.74 160.85 45.78 156.07 45.78 164.8 65.3 166.12 65.3 160.72 77.4 165.33 77.4 179.36 45.78 174.76 45.78" style="fill:#2d3b51;"/><path d="M88.85,67.23c1.27.7,2.77,1.05,4.5,1.05s3.19-.39,4.5-1.16c1.3-.77,2.29-1.82,2.96-3.14l.31,3.77h3.9v-21.97h-4.39v11.62c0,1.52-.26,2.81-.79,3.88-.53,1.07-1.25,1.88-2.17,2.43-.92.56-1.97.83-3.14.83-1.73,0-3.03-.53-3.93-1.6-.89-1.07-1.34-2.64-1.34-4.71v-12.46h-4.39v12.89c0,2.13.34,3.92,1.03,5.35.69,1.43,1.67,2.5,2.94,3.2" style="fill:#2d3b51;"/><path d="M110.92,56.18c0-1.55.26-2.85.79-3.9.53-1.05,1.25-1.86,2.17-2.41.92-.56,1.97-.83,3.14-.83,1.72,0,3.03.53,3.93,1.6.89,1.07,1.34,2.64,1.34,4.71v12.41h4.39v-12.85c0-2.16-.34-3.95-1.03-5.37-.69-1.42-1.66-2.49-2.92-3.2-1.26-.72-2.76-1.07-4.52-1.07s-3.19.39-4.47,1.16c-1.29.77-2.28,1.84-2.98,3.18l-.26-3.82h-3.95v21.97h4.39v-11.58Z" style="fill:#2d3b51;"/><path d="M152.81,77.43v-3.55l1.41,2.81h.81l1.41-2.81v3.55h1.02v-5.28h-1.21l-1.61,3.29-1.63-3.29h-1.21v5.28h1.02ZM147.22,77.3c.28-.15.49-.34.63-.57.14-.24.22-.49.22-.77,0-.32-.07-.58-.2-.78s-.31-.36-.52-.48c-.22-.12-.46-.23-.73-.32-.18-.06-.34-.11-.49-.16-.15-.05-.28-.11-.39-.17-.11-.06-.2-.14-.26-.22-.06-.09-.09-.19-.09-.32s.03-.24.09-.33c.06-.09.15-.15.25-.2.11-.05.22-.07.35-.06.16,0,.29.03.4.09.11.06.2.15.26.25.06.1.09.21.1.33h1.09c-.01-.31-.09-.58-.25-.82-.16-.23-.37-.41-.64-.53-.27-.12-.59-.18-.94-.18s-.66.06-.93.18c-.27.12-.48.29-.63.52-.15.23-.23.5-.23.81,0,.37.11.67.32.9.22.23.53.41.95.54.19.06.36.12.53.18.17.06.31.12.45.19.13.07.23.16.31.26.08.1.11.23.11.38,0,.13-.03.24-.1.34-.07.1-.16.17-.28.22-.12.05-.26.08-.41.08-.19,0-.35-.04-.48-.11-.14-.07-.24-.17-.32-.3-.08-.13-.12-.27-.12-.42h-1.08c0,.36.1.66.27.91.17.25.41.44.71.57.3.13.64.2,1.02.2.41,0,.75-.07,1.03-.22M140.01,72.15h-1.02v5.28h1.02v-5.28ZM131.8,73h.89c.32,0,.55.07.69.22.14.14.22.34.22.58s-.07.44-.22.6c-.15.15-.37.23-.69.23h-.89v-1.62ZM134.68,77.43l-1.15-2.32h-1.1l1.09,2.32h1.16ZM131.64,77.43v-2.07h.94c.44,0,.8-.07,1.07-.22.28-.15.49-.34.62-.59.13-.24.2-.51.2-.79,0-.3-.07-.57-.2-.81-.14-.24-.34-.44-.62-.58-.28-.15-.63-.22-1.05-.22h-1.98v5.28h1.02ZM125.35,77.29c.32-.16.58-.39.77-.7.19-.31.29-.71.29-1.19v-3.24h-1.02v3.25c0,.26-.04.48-.13.66-.09.18-.21.31-.38.4-.16.09-.36.13-.59.13s-.42-.04-.58-.13c-.16-.09-.29-.22-.37-.4-.09-.18-.13-.4-.13-.66v-3.25h-1.02v3.24c0,.48.09.88.28,1.19.19.31.44.55.75.7.32.16.67.23,1.06.23s.75-.08,1.07-.23M115.37,76.38c-.24-.15-.42-.36-.55-.63-.13-.27-.2-.59-.2-.97s.07-.7.2-.97c.13-.27.32-.48.55-.62.24-.15.52-.22.84-.22s.6.07.84.22c.24.15.42.35.55.62.13.27.19.59.19.97s-.06.69-.19.97c-.13.27-.31.48-.55.63-.24.15-.52.22-.84.22s-.6-.07-.84-.22M117.58,77.17c.39-.23.7-.55.92-.96.22-.41.33-.88.33-1.42s-.11-1.01-.33-1.42c-.22-.41-.53-.73-.92-.96-.4-.23-.85-.35-1.38-.35s-.97.12-1.36.35c-.39.23-.7.55-.93.96-.22.41-.34.88-.34,1.42s.11,1.01.34,1.42c.22.41.53.73.93.96.39.23.85.35,1.36.35s.98-.12,1.38-.35M109.07,77.43v-4.46h1.54v-.82h-4.1v.82h1.54v4.46h1.02Z" style="fill:#2d3b51;"/></svg>