<?xml version="1.0" encoding="utf-8"?>
<!-- Generator: Adobe Illustrator 27.2.0, SVG Export Plug-In . SVG Version: 6.00 Build 0)  -->
<svg version="1.1" id="Layer_1" xmlns="http://www.w3.org/2000/svg" xmlns:xlink="http://www.w3.org/1999/xlink" x="0px" y="0px"
	 width="198.4px" height="85px" viewBox="0 0 198.4 85" style="enable-background:new 0 0 198.4 85;" xml:space="preserve">
<style type="text/css">
	.st0{fill:#29A8DD;}
	.st1{fill:#0E8B44;}
	.st2{fill:#005395;}
	.st3{fill:#F6861F;}
</style>
<g>
	<g>
		<path class="st0" d="M42.2,44.6c4.3-0.3,6.5,1,6.5,1c-1.8-10,6.4-15.3,6.4-15.3s-1.8-1.5-1.9-5.1c-0.1-2.1,0.7-4.6,2-6.1
			c-1.9-0.7-2.9-0.6-4.5-0.6c-4,0-9-0.2-19.5,0.3c-3.6,0.2-6.1,1.3-8,3C32.9,29.1,42.2,44.6,42.2,44.6z"/>
		<path class="st1" d="M29.8,56.5c2-9.6,9.3-11.5,9.3-11.5c-6.2-11-14.8-18.4-17.9-20.9c-2.2,3.1-3.1,7.2-4.1,10.5
			c-1,3.6-2.2,9.1-3.1,14.1C24.6,50.6,29.8,56.5,29.8,56.5z"/>
		<path class="st2" d="M28.8,59.9c0,0-3.7-6.1-15.1-8.7c-0.5,3-0.9,5.7-1.1,7.8c-0.5,5.9,3.2,7.5,7.2,7.5c0,0,2.9,0,7,0h3
			C29.8,66.4,28.5,62.2,28.8,59.9z"/>
		<path class="st3" d="M59.5,54.8c0.8-2.9,1.3-6.1,1.7-9.6c0-0.2,0-0.3,0-0.3s-10-1.6-14.4,6.9c-3.3,6.3-3.1,11.2-2.6,14.7
			c0.6,0,1.2,0,1.7,0C56.7,66.4,57.6,61.9,59.5,54.8z"/>
		<path class="st3" d="M33,52.4c-2.9,8.4-0.2,14-0.2,14l8,0c0,0-2-13.7,7.9-20.8C48.7,45.7,36.6,41.9,33,52.4z"/>
		<path class="st3" d="M55.1,30.8c0,0-5.2,4.5-3.8,13.5c0,0,4.7-2.2,9.8,0.2c0,0,0.1,0,0.1,0c0.4-3.8,0.5-8,0.6-12.4l-0.4,0.2
			C61.4,32.3,58.5,33.1,55.1,30.8z"/>
		<path class="st3" d="M58.4,30.3c1.2,0.6,2.5,0.6,3.4,0.4c0-0.6,0-1.2,0-1.8c0-5.7-2.4-8.1-5.1-9.3c-0.9,1.3-1.4,2.7-1.6,4
			C54.9,25.6,56.6,29.3,58.4,30.3z"/>
	</g>
	<g>
		<path class="st2" d="M95.6,32.2h-8.8c-6.2-0.1-8.9,2.3-9.2,8.5h17.9v4.6H77.7c0.3,5.9,3.1,8.6,9.2,8.5h8.8v4.6h-9.4
			c-5.5,0-8.8-1.1-11.1-3.6c-2.5-2.8-3.7-6.6-3.7-11.6c0-5.7,1.7-10,5-12.9c2.2-1.9,4.9-2.7,9.5-2.7h9.8V32.2z"/>
		<path class="st2" d="M106.4,58.4h-5.5V27.6h7l14.1,23.9V27.6h5.5v30.8h-6.8l-14.4-23.7V58.4z"/>
		<path class="st2" d="M143.5,27.6h7L163,58.4h-6.4l-3.1-7.6h-13.3l-3.1,7.6h-6.3L143.5,27.6z M141.7,46.2H152L146.9,33L141.7,46.2z
			"/>
		<path class="st2" d="M159.5,32.2v-4.6h26.4v4.6h-10.4v26.2h-5.6V32.2H159.5z"/>
	</g>
</g>
</svg>
