<?xml version="1.0" encoding="utf-8"?>
<!-- Generator: Adobe Illustrator 27.2.0, SVG Export Plug-In . SVG Version: 6.00 Build 0)  -->
<svg version="1.1"
	 id="svg2" xmlns:inkscape="http://www.inkscape.org/namespaces/inkscape" xmlns:sodipodi="http://sodipodi.sourceforge.net/DTD/sodipodi-0.dtd" xmlns:svg="http://www.w3.org/2000/svg"
	 xmlns="http://www.w3.org/2000/svg" xmlns:xlink="http://www.w3.org/1999/xlink" x="0px" y="0px" width="212.6px" height="85px"
	 viewBox="0 0 212.6 85" style="enable-background:new 0 0 212.6 85;" xml:space="preserve">
<style type="text/css">
	.st0{fill:#253148;}
	.st1{fill:#FFFFFF;}
</style>
<sodipodi:namedview  bordercolor="#666666" borderopacity="1.0" id="namedview4" inkscape:pagecheckerboard="0" inkscape:pageopacity="0.0" inkscape:pageshadow="2" pagecolor="#ffffff">
	</sodipodi:namedview>
<rect x="38.7" y="8.7" class="st0" width="135.3" height="67.7"/>
<g>
	<path class="st1" d="M69.7,39.2c-0.7-0.4-1.5-0.7-1.5-0.7l3.4-5.4c-3.2,0-8.3,0-9.6,0c-1.9,0-2.5,0.6-2.6,0.7
		c-0.6,0.7-2.7,3.4-2.8,3.4c-0.5,0.7-1.5,0.8-2.2,0.3c-0.7-0.5-0.8-1.5-0.3-2.2c0.1-0.1,2.2-2.8,2.8-3.5c0.7-0.8,2.1-1.8,4.9-1.8
		c2,0,12,0,12.4,0c0.6,0,1.1,0.3,1.3,0.8c0.3,0.5,0.3,1.1,0,1.6L70.9,40C70.9,40,70.5,39.6,69.7,39.2z"/>
	<path class="st1" d="M77.7,62.4c-0.2,0-0.3,0-0.5-0.1c-0.8-0.3-1.2-1.2-1-2l4-11.4c0.2-0.5,0.3-1.1,0.3-1.4c0,0-0.1,0-0.1,0
		c-1.2,0.3-3.9,1.1-3.9,1.1s-0.2-0.7-0.5-1.6c-0.3-0.8-0.6-1.4-0.6-1.4c0,0,3-0.7,4.2-1.1c1.3-0.4,2.8,0.2,3.5,1.3
		c0.9,1.4,0.3,3.4-0.1,4.2l-3.9,11.3C79,62,78.4,62.4,77.7,62.4z"/>
	<circle class="st1" cx="80.1" cy="25.4" r="4.3"/>
	<path class="st1" d="M61.7,64.7c-6.9,0-12.6-5.6-12.6-12.6s5.6-12.6,12.6-12.6s12.6,5.6,12.6,12.6S68.6,64.7,61.7,64.7z M61.7,42.7
		c-5.2,0-9.5,4.3-9.5,9.5s4.3,9.5,9.5,9.5s9.5-4.3,9.5-9.5S66.9,42.7,61.7,42.7z"/>
	<g>
		<path class="st1" d="M106.4,26.8v6.8h-2l-0.1-1.5c-0.8,1.2-2,1.7-3.8,1.7c-1.2,0-2.2-0.3-3.1-0.8s-1.6-1.3-2.1-2.3
			c-0.5-1-0.7-2.2-0.7-3.5c0-1.4,0.3-2.5,0.8-3.5c0.5-1,1.2-1.8,2.2-2.3c0.9-0.5,2-0.8,3.3-0.8c1.4,0,2.5,0.3,3.4,0.8
			c0.9,0.5,1.6,1.3,2.1,2.4l-2.5,1.1c-0.2-0.7-0.5-1.2-1.1-1.5c-0.5-0.3-1.1-0.5-1.9-0.5c-1.1,0-2,0.4-2.6,1.1
			c-0.6,0.8-0.9,1.8-0.9,3.3c0,1.5,0.3,2.6,0.9,3.3c0.6,0.8,1.5,1.1,2.7,1.1c0.9,0,1.6-0.2,2.2-0.7c0.6-0.4,0.9-1.1,0.9-1.9v-0.3
			h-3.7v-2H106.4z"/>
		<path class="st1" d="M118.1,29.7h-6.9c0.3,1.4,1.1,2.1,2.4,2.1c0.6,0,1-0.1,1.4-0.3c0.4-0.2,0.6-0.5,0.8-0.9l2.2,0.8
			c-0.3,0.8-0.8,1.4-1.6,1.8c-0.7,0.4-1.6,0.6-2.7,0.6c-1.6,0-2.8-0.4-3.7-1.3c-0.9-0.9-1.3-2.1-1.3-3.7c0-1.6,0.4-2.8,1.3-3.7
			c0.9-0.9,2.1-1.3,3.6-1.3c1.5,0,2.7,0.4,3.5,1.3c0.8,0.9,1.2,2.1,1.2,3.7C118.2,29.1,118.1,29.4,118.1,29.7z M111.9,26.2
			c-0.4,0.4-0.6,0.9-0.7,1.7h4.5c-0.1-0.7-0.3-1.3-0.7-1.7c-0.4-0.4-0.9-0.6-1.5-0.6C112.8,25.7,112.3,25.8,111.9,26.2z"/>
		<path class="st1" d="M126.9,33c-0.3,0.2-0.7,0.4-1.2,0.6c-0.5,0.1-1,0.2-1.5,0.2c-2.2,0-3.2-1-3.2-2.9v-5h-1.8v-2h1.8v-2.2
			l2.7-0.7v3h3.1v2h-3.1v4.6c0,0.9,0.4,1.3,1.3,1.3c0.6,0,1.1-0.2,1.5-0.5L126.9,33z"/>
		<path class="st1" d="M103.1,36.6c0.9,0.4,1.6,1,2.3,1.9l-1.8,1.8c-0.3-0.7-0.8-1.2-1.3-1.6c-0.6-0.3-1.3-0.5-2.1-0.5
			c-0.8,0-1.4,0.1-1.8,0.4c-0.4,0.3-0.6,0.7-0.6,1.2c0,0.4,0.2,0.8,0.6,1c0.4,0.3,1.2,0.5,2.3,0.7c1.2,0.2,2.1,0.5,2.8,0.8
			c0.7,0.3,1.2,0.7,1.5,1.2c0.3,0.5,0.5,1.1,0.5,1.8c0,0.8-0.2,1.5-0.7,2c-0.4,0.6-1.1,1-1.9,1.3c-0.8,0.3-1.7,0.5-2.7,0.5
			c-1.4,0-2.6-0.2-3.5-0.6c-0.9-0.4-1.6-1-2.2-1.8L96,45c0.5,0.8,1,1.3,1.6,1.6C98.3,46.9,99,47,100,47c0.8,0,1.5-0.1,1.9-0.4
			c0.4-0.3,0.7-0.6,0.7-1.1c0-0.3-0.2-0.6-0.6-0.9c-0.4-0.2-1.1-0.5-2.2-0.7c-1.2-0.2-2.2-0.5-2.9-0.9c-0.7-0.3-1.2-0.7-1.6-1.2
			c-0.3-0.5-0.5-1.1-0.5-1.8c0-0.8,0.2-1.5,0.6-2.1c0.4-0.6,1-1.1,1.8-1.4C98,36.2,98.9,36,100,36C101.2,36,102.2,36.2,103.1,36.6z"
			/>
		<path class="st1" d="M112,44.8l-1.8,1.9V49h-2.7v-14h2.7v8.7l4.2-4.4h3l-3.6,3.8l3.9,5.9h-3L112,44.8z"/>
		<path class="st1" d="M118.9,36.5c0-1,0.5-1.4,1.6-1.4c1.1,0,1.6,0.5,1.6,1.4c0,0.9-0.6,1.4-1.6,1.4
			C119.5,37.9,118.9,37.5,118.9,36.5z M121.9,49h-2.7v-9.7h2.7V49z"/>
		<path class="st1" d="M127.3,46c0,0.5,0.1,0.8,0.2,1s0.4,0.3,0.7,0.3c0.2,0,0.4,0,0.6,0c0.2,0,0.4-0.1,0.6-0.2l-0.2,1.8
			c-0.2,0.1-0.5,0.2-0.8,0.3c-0.3,0.1-0.7,0.1-1,0.1c-0.9,0-1.6-0.2-2.1-0.7c-0.4-0.5-0.7-1.2-0.7-2.2V35.1h2.7V46z"/>
		<path class="st1" d="M133.5,46c0,0.5,0.1,0.8,0.2,1c0.1,0.2,0.4,0.3,0.7,0.3c0.2,0,0.4,0,0.6,0c0.2,0,0.4-0.1,0.6-0.2l-0.2,1.8
			c-0.2,0.1-0.5,0.2-0.8,0.3c-0.3,0.1-0.7,0.1-1,0.1c-0.9,0-1.6-0.2-2.1-0.7c-0.4-0.5-0.7-1.2-0.7-2.2V35.1h2.7V46z"/>
		<path class="st1" d="M146.1,45.2h-6.9c0.3,1.4,1.1,2.1,2.4,2.1c0.6,0,1-0.1,1.4-0.3c0.4-0.2,0.6-0.5,0.8-0.9l2.2,0.8
			c-0.3,0.8-0.8,1.4-1.6,1.8c-0.7,0.4-1.6,0.6-2.7,0.6c-1.6,0-2.8-0.4-3.7-1.3c-0.9-0.9-1.3-2.1-1.3-3.7s0.4-2.8,1.3-3.7
			c0.9-0.9,2.1-1.3,3.6-1.3c1.5,0,2.7,0.4,3.5,1.3c0.8,0.9,1.2,2.1,1.2,3.7C146.1,44.5,146.1,44.9,146.1,45.2z M139.9,41.7
			c-0.4,0.4-0.6,0.9-0.7,1.7h4.5c-0.1-0.7-0.3-1.3-0.7-1.7c-0.4-0.4-0.9-0.6-1.5-0.6C140.8,41.1,140.3,41.3,139.9,41.7z"/>
		<path class="st1" d="M157.8,35.1v14h-2.4l-0.1-1.8c-0.3,0.6-0.7,1.1-1.3,1.5c-0.6,0.4-1.2,0.5-1.9,0.5c-1.3,0-2.3-0.4-3-1.3
			c-0.7-0.9-1.1-2.1-1.1-3.7c0-1.6,0.4-2.8,1.1-3.7c0.7-0.9,1.8-1.3,3-1.3c0.7,0,1.3,0.2,1.8,0.5c0.5,0.3,0.9,0.8,1.2,1.3v-5.8
			H157.8z M154.5,46.4c0.4-0.5,0.6-1.2,0.6-2.2v-0.2c0-0.9-0.2-1.6-0.6-2.1c-0.4-0.5-1-0.8-1.6-0.8c-0.7,0-1.3,0.3-1.7,0.8
			c-0.4,0.5-0.6,1.3-0.6,2.2s0.2,1.7,0.6,2.2c0.4,0.5,1,0.8,1.7,0.8C153.6,47.2,154.1,47,154.5,46.4z"/>
		<path class="st1" d="M102.6,61.4h-4.9l-1,3.1h-2.7l4.7-12.8h3.2l4.7,12.8h-2.8L102.6,61.4z M102,59.4l-1.2-3.6l-0.6-1.9h0
			l-0.5,1.9l-1.2,3.6H102z"/>
		<path class="st1" d="M115.3,55.4c0.7,0.5,1.2,1.2,1.5,2.1l-2.5,0.9c-0.2-1.2-0.9-1.8-1.9-1.8c-0.8,0-1.3,0.3-1.8,0.8
			c-0.4,0.5-0.6,1.3-0.6,2.3c0,1,0.2,1.8,0.6,2.3c0.4,0.5,1,0.8,1.7,0.8c1.1,0,1.8-0.6,2-1.7l2.4,0.8c-0.2,0.9-0.7,1.6-1.4,2.1
			c-0.8,0.5-1.7,0.8-2.9,0.8c-1.6,0-2.8-0.4-3.7-1.3c-0.9-0.9-1.3-2.1-1.3-3.7s0.4-2.8,1.3-3.7c0.9-0.9,2.1-1.3,3.6-1.3
			C113.6,54.6,114.6,54.9,115.3,55.4z"/>
		<path class="st1" d="M126.3,55.4c0.7,0.5,1.2,1.2,1.5,2.1l-2.5,0.9c-0.2-1.2-0.9-1.8-1.9-1.8c-0.8,0-1.3,0.3-1.8,0.8
			c-0.4,0.5-0.6,1.3-0.6,2.3c0,1,0.2,1.8,0.6,2.3c0.4,0.5,1,0.8,1.7,0.8c1.1,0,1.8-0.6,2-1.7l2.4,0.8c-0.2,0.9-0.7,1.6-1.4,2.1
			c-0.8,0.5-1.7,0.8-2.9,0.8c-1.6,0-2.8-0.4-3.7-1.3c-0.9-0.9-1.3-2.1-1.3-3.7s0.4-2.8,1.3-3.7c0.9-0.9,2.1-1.3,3.6-1.3
			C124.6,54.6,125.6,54.9,126.3,55.4z"/>
		<path class="st1" d="M138.9,60.7H132c0.3,1.4,1.1,2.1,2.4,2.1c0.6,0,1-0.1,1.4-0.3c0.4-0.2,0.6-0.5,0.8-0.9l2.2,0.8
			c-0.3,0.8-0.8,1.4-1.6,1.8c-0.7,0.4-1.6,0.6-2.7,0.6c-1.6,0-2.8-0.4-3.7-1.3c-0.9-0.9-1.3-2.1-1.3-3.7s0.4-2.8,1.3-3.7
			c0.9-0.9,2.1-1.3,3.6-1.3c1.5,0,2.7,0.4,3.5,1.3c0.8,0.9,1.2,2.1,1.2,3.7C139,60,139,60.3,138.9,60.7z M132.7,57.1
			c-0.4,0.4-0.6,0.9-0.7,1.7h4.5c-0.1-0.7-0.3-1.3-0.7-1.7c-0.4-0.4-0.9-0.6-1.5-0.6C133.6,56.6,133.1,56.8,132.7,57.1z"/>
		<path class="st1" d="M140.5,62.8l1.6-1.6c0.3,0.6,0.6,0.9,1.1,1.2c0.5,0.2,1.1,0.3,1.8,0.3c0.6,0,1-0.1,1.3-0.2
			c0.3-0.2,0.5-0.4,0.5-0.6c0-0.2-0.1-0.4-0.4-0.6c-0.3-0.2-0.8-0.3-1.5-0.4c-1.5-0.3-2.5-0.7-3.1-1.2c-0.6-0.5-0.9-1.1-0.9-2
			c0-0.5,0.2-1.1,0.5-1.5c0.3-0.5,0.8-0.9,1.5-1.2c0.7-0.3,1.4-0.4,2.4-0.4c1.1,0,2,0.2,2.6,0.5c0.7,0.3,1.2,0.9,1.7,1.6l-1.6,1.4
			c-0.3-0.5-0.6-0.9-1.1-1.1c-0.4-0.2-0.9-0.4-1.6-0.4c-0.5,0-1,0.1-1.3,0.3c-0.3,0.2-0.5,0.4-0.5,0.7c0,0.3,0.2,0.5,0.5,0.7
			c0.3,0.2,0.9,0.3,1.6,0.5c1.4,0.3,2.4,0.7,3,1.1c0.6,0.5,0.9,1.1,0.9,1.9c0,0.9-0.4,1.6-1.2,2.2c-0.8,0.6-1.9,0.8-3.3,0.8
			C142.8,64.7,141.3,64.1,140.5,62.8z"/>
		<path class="st1" d="M150.8,62.8l1.6-1.6c0.3,0.6,0.6,0.9,1.1,1.2c0.5,0.2,1.1,0.3,1.8,0.3c0.6,0,1-0.1,1.3-0.2
			c0.3-0.2,0.5-0.4,0.5-0.6c0-0.2-0.1-0.4-0.4-0.6c-0.3-0.2-0.8-0.3-1.5-0.4c-1.5-0.3-2.5-0.7-3.1-1.2c-0.6-0.5-0.9-1.1-0.9-2
			c0-0.5,0.2-1.1,0.5-1.5c0.3-0.5,0.8-0.9,1.5-1.2c0.7-0.3,1.4-0.4,2.4-0.4c1.1,0,2,0.2,2.6,0.5c0.7,0.3,1.2,0.9,1.7,1.6l-1.6,1.4
			c-0.3-0.5-0.6-0.9-1.1-1.1c-0.4-0.2-0.9-0.4-1.6-0.4c-0.5,0-1,0.1-1.3,0.3s-0.5,0.4-0.5,0.7c0,0.3,0.2,0.5,0.5,0.7
			c0.3,0.2,0.9,0.3,1.6,0.5c1.4,0.3,2.4,0.7,3,1.1c0.6,0.5,0.9,1.1,0.9,1.9c0,0.9-0.4,1.6-1.2,2.2c-0.8,0.6-1.9,0.8-3.3,0.8
			C153.1,64.7,151.6,64.1,150.8,62.8z"/>
	</g>
</g>
</svg>
