<?xml version="1.0" encoding="utf-8"?>
<!-- Generator: Adobe Illustrator 27.2.0, SVG Export Plug-In . SVG Version: 6.00 Build 0)  -->
<svg version="1.1" id="Layer_1" xmlns="http://www.w3.org/2000/svg" xmlns:xlink="http://www.w3.org/1999/xlink" x="0px" y="0px"
	 width="198.4px" height="85px" viewBox="0 0 198.4 85" style="enable-background:new 0 0 198.4 85;" xml:space="preserve">
<style type="text/css">
	.st0{fill:#F3702B;}
	.st1{fill:#004A8F;}
</style>
<g>
	<g>
		<g>
			<g id="Page-1_00000092454632422236788420000003626985275909951882_">
				<g id="TFA_Logo_CMYK_00000124868983575726443330000003875181139048898464_" transform="translate(-1.000000, 0.000000)">
					<g id="tfa-logo_00000051373753717100103630000001085330278969523128_">
						<path class="st0" d="M31.8,40.2c-2.3,0.2-4.6,1.4-5.9,3.3c1.1-0.3,2.1-0.5,2.9-0.7c0.4-0.2,1.1-0.4,1.5-0.4s1.3-0.2,1.7-0.2
							h0.4H34h0.2c1.3,0,2.6,0,3.9,0.2h0.2C36.6,40.8,34.1,40,31.8,40.2z"/>
						<path class="st0" d="M69.3,18.3c-5.9-5.9-13.7-9.1-21.9-9.1C30.5,9.2,16.9,23.1,16.9,40c0,2.5,0.3,4.8,0.8,7.1
							c1.4-1,3-1.8,4.6-2.4c1.3-3.9,5-6.7,9.3-7.1c4.2-0.4,8.1,1.8,10.2,5.2c0.8,0.1,1.5,0.3,2.2,0.5c-0.4-1-1-1.9-1.6-2.7
							c1.1,0,2.2,0.2,3.3,0.7c0.8,0.4,1,1.7,0.9,2.8c2.3,0.7,4.5,1.6,6.7,2.6c1.9,1.1,3.9,1.8,6.1,2.2c0.6-4.8,1-7.4-0.7-10
							c-1.3-1.5-7.6-3.7-7.8-5c0-1.5,1.7-0.9,3.3,0.2c1.3,0.9,2.6,1.3,4.1,1.3c1.7,0.2,3.5-0.7,4.6-2.2c2-2.2,2.8-4.6,4.3-3.3
							c1.1,1.1-1.3,2.8-2.8,5.2c-1.7,2.6-0.7,3.7-0.2,4.8c0.9,3,2.1,4.9,1.7,9.1c1.4,0.1,2.9,0.8,3.7,1.9c0.4-0.9,0.7-1.5,1.1-2.2
							c1.3-2.8,2.6-5.6,5.9-5.6c0.6,0,1.2,0.1,1.7,0.3c0.1-1.2,0.2-2.3,0.2-3.5C78.4,31.8,75.2,24.2,69.3,18.3z M42.7,20.3
							c1.3-0.2,2.4,0.7,3,1.7s0.4,2.6-0.4,3.5c-0.9,0.9-2.2,1.3-3.5,0.9c-1.3-0.4-2.2-1.5-2.2-2.8C39.4,21.8,40.7,20.3,42.7,20.3z
							 M43.3,32.6c-0.7,0.9-1.3,3.3-2.4,6.3c-2.4-2.2-5.4-3.3-8.5-3.3c1.5-1.3,3-2.8,4.3-4.6c0.7-0.9-0.9-2.6-2.8-4.1
							c-2-1.3-5.4-4.1-4.8-5.2c1.3-2,3.9,1.3,6.1,3c3.9,3.3,5.2,3.5,7.4,3.5c1.5,0,4.1-1.3,6.1-2.6c2.2-1.1,4.6-2.4,4.6,0
							C53.1,27.4,44.4,31.3,43.3,32.6z M59.1,33.5c-1.3,0-2.4-1.1-2.4-2.4c0-1.3,1.1-2.4,2.4-2.4s2.4,1.3,2.4,2.4
							C61.5,32.4,60.4,33.5,59.1,33.5z"/>
						<path id="Shape_00000147899121918202739040000009653027455950481061_" class="st1" d="M16.7,54.7
							c5.9,12.1,17.1,19.5,30.8,19.5c14.5,0,27.5-9.1,32.3-23c1.3-5.2-2.6-6.1-2.6-6.1c-3.9-0.7-3.9,4.6-7.8,10
							C58.9,69,36.8,47.6,49,54.3c12.8,7.4,20.4,0.2,19.1-2c-2-3.5-5,1.5-15.6-3.9c-3.9-1.7-8.2-3-12.4-3.9h-0.2
							c-0.4,0-0.9-0.2-1.5-0.2h-0.2c-1.1-0.2-2.2-0.2-3.5-0.4h-0.4h-1.5h-0.4c-0.7,0-1.1,0-1.7,0.2c-0.4,0.4-0.9,0.7-1.3,0.7
							C27.1,45.2,13.6,48.5,16.7,54.7"/>
					</g>
				</g>
			</g>
		</g>
	</g>
	<g>
		<path class="st1" d="M91.8,25v1.4h4.1v9.4c0,1.4,0.9,2.3,2.1,2.3h1.5V26.3h2.2c1.1,0,2.1-1.1,2.1-2v-1.2h-9.9
			C92.7,23,91.8,24,91.8,25z"/>
		<path class="st1" d="M111.6,22.7c-4.3,0-7.2,3.1-7.2,7.9c0,4.3,3,7.5,6.8,7.5c4.3,0,7.2-3.2,7.2-7.9
			C118.3,25.3,114.9,22.7,111.6,22.7z M111.3,26.1c2.8,0,3.5,2.5,3.5,4.6c0,2.7-1.1,4.3-3.2,4.3c-1.5,0-3.5-0.5-3.5-4.7
			C108.1,27.8,109.3,26.1,111.3,26.1z"/>
		<path class="st1" d="M130.7,23h-1.5v8.3c0,3-1.2,3.5-2.5,3.5c-1.9,0-2.7-1-2.7-3.5v-5.2c0-2.8-1.6-3-2.1-3h-1.5v8.4
			c0,4.2,2.3,6.8,6,6.8c4.1,0,6.3-2.5,6.3-7v-5.2C132.9,23.4,131.4,23,130.7,23z"/>
		<path class="st1" d="M147,36.8c-0.1-0.2-0.5-0.6-0.7-1.2l-1.1-2.6c-0.2-0.7-0.7-1.2-1.1-1.7c1.4-0.6,2.3-2.1,2.3-3.8
			c0-2.6-2.1-4.4-5.1-4.4h-1.6c-1.1,0-3.1,0.2-3.7,0.5l-0.2,0.1v12.1c0,1.4,0.9,2.3,2.3,2.3h1.4v-5.7c0.2,0,0.6,0.1,0.9,0.1
			c0.7,0.1,1.1,0.2,1.6,1.5l1,2.6c0.4,1,1.2,1.5,2.5,1.5c0.9,0,1.2-0.1,1.6-0.6l0.2-0.2l-0.1-0.2C147.1,36.9,147.1,36.8,147,36.8z
			 M142.6,27.8c0,1.1-0.9,1.5-1.7,1.5c-0.6,0-1.1,0-1.6-0.1v-3.1c0.2,0,0.6-0.1,0.9-0.1h0.7C142,26.2,142.6,26.4,142.6,27.8z"/>
		<path class="st1" d="M150.8,23h-1.7v12.6c0,1.5,1.1,2.2,2.1,2.2h1.5V25C152.6,23.9,151.6,23,150.8,23z"/>
		<path class="st1" d="M161.8,29c-2.7-0.6-3-1-3-1.5c0-0.4,0-1.4,2.6-1.4c1.5,0,2.6,0.4,3.3,1.2l0.1,0.1h0.6v-1.7c0-0.7-0.4-3-4.7-3
			c-3.7,0-5.7,2.6-5.7,4.9c0,1.5,0.7,3.3,4.1,4.1c3.1,0.6,3.1,1,3.1,1.6c0,0.5,0,1.5-2.3,1.5c-1.4,0-2.6-0.5-3.7-1.4l-0.1-0.1h-0.6
			V35c0,2,1.7,3.2,4.7,3.2c3.6,0,5.7-2,5.7-5.1C166,31.6,165.2,29.8,161.8,29z"/>
		<path class="st1" d="M181.4,23h-0.5l-0.1,0.1c-0.6,0.5-1.6,1.9-2.3,4.3l-1.6,4.9c-0.1-0.4-0.2-0.7-0.4-1.2l-2-5.6
			c-0.6-1.7-2.1-2.7-4.2-2.7h-1v0.4c-0.5,2.7-1.1,9-1.1,12.3c0,1.4,0.9,2.2,2.2,2.2h1.4v-0.4c0-2.2,0.1-6.2,0.4-8.6
			c0.1,0.2,0.1,0.4,0.2,0.5l2,5.9c0.7,2.2,2,2.5,2.6,2.5h1l0.1-0.1c0.4-0.6,0.9-1.6,1.2-2.6l2-6v-0.1c0.1,2.1,0.4,5.3,0.4,6.7
			c0,1.5,0.9,2.2,2.2,2.2h1.5v-0.4c0-3-0.4-9.1-0.7-11.2C184.3,24.2,183.1,23,181.4,23z"/>
		<g>
			<path class="st1" d="M93.8,48.4v10.2c0,1.2,0.7,2.1,2.1,2.1h1.6v-6h3.2c0.9,0,1.7-0.6,1.7-1.9v-1.2h-5.1v-2.7h3.9
				c1.4,0,2-1,2-1.9v-1.2h-6.7C94.9,45.9,93.8,46.3,93.8,48.4z"/>
			<path class="st1" d="M111.5,45.6c-4.3,0-7.2,3.1-7.2,7.9c0,4.3,3,7.5,6.8,7.5c4.3,0,7.2-3.2,7.2-7.9
				C118.4,48.2,114.9,45.6,111.5,45.6z M111.2,48.9c2.8,0,3.5,2.5,3.5,4.6c0,2.7-1.1,4.3-3.2,4.3c-1.5,0-3.5-0.5-3.5-4.7
				C108.1,50.7,109.4,48.9,111.2,48.9z"/>
			<path class="st1" d="M132.1,59.7c-0.1-0.2-0.5-0.6-0.7-1.2l-1.1-2.6c-0.2-0.7-0.7-1.2-1.1-1.7c1.4-0.6,2.3-2.1,2.3-3.8
				c0-2.6-2.1-4.4-5.1-4.4h-1.6c-1.1,0-3.1,0.2-3.7,0.5l-0.2,0.1v12.1c0,1.4,0.9,2.3,2.3,2.3h1.4v-5.7c0.2,0,0.6,0.1,0.9,0.1
				c0.7,0.1,1.1,0.2,1.6,1.5l1,2.6c0.4,1,1.2,1.5,2.5,1.5c0.9,0,1.2-0.1,1.6-0.6l0.2-0.2L132.1,59.7
				C132.2,59.8,132.1,59.7,132.1,59.7z M127.7,50.7c0,1.1-0.9,1.5-1.7,1.5c-0.6,0-1.1,0-1.6-0.1v-3.1c0.2,0,0.6-0.1,0.9-0.1h0.7
				C127.1,49.1,127.7,49.3,127.7,50.7z"/>
			<path class="st1" d="M147.9,47.5c-0.5-1-1.5-1.5-2.6-1.5h-1.4l-0.1,0.1c-2.2,2.5-4.9,10.9-4.9,13c0,1.1,0.6,1.7,1.7,1.7h1.5v-0.4
				c0.2-1.1,0.4-2.2,0.6-3.2h4.9c0.1,0.5,0.2,1.1,0.4,1.9c0.1,0.9,0.9,1.7,2.3,1.7h1.6v-0.5C151.3,55.8,149.1,49.7,147.9,47.5z
				 M146.9,54.1h-3.3c0.4-1.5,1-3.1,1.6-4.3C145.8,50.9,146.4,52.6,146.9,54.1z"/>
			<path class="st1" d="M160.1,57.6h-0.7c-1.9,0-2.2-0.5-2.2-2.5v-6.8c0-2.1-1.4-2.5-2.1-2.5h-1.6v9.5c0,3.6,2,5.7,5.6,5.7h1.1
				c2.3,0,3.3-0.7,3.3-2.5V57l-0.6,0.2C162.3,57.3,161.2,57.6,160.1,57.6z"/>
			<path class="st1" d="M174.5,57.1c-0.6,0.2-1.6,0.5-2.8,0.5h-0.7c-1.9,0-2.2-0.5-2.2-2.5v-6.8c0-2.1-1.4-2.5-2.1-2.5H165v9.5
				c0,3.6,2,5.7,5.6,5.7h1.1c2.3,0,3.3-0.7,3.3-2.5V57L174.5,57.1z"/>
		</g>
	</g>
</g>
</svg>
