<?xml version="1.0" encoding="UTF-8"?>
<svg id="Layer_1" data-name="Layer 1" xmlns="http://www.w3.org/2000/svg" viewBox="0 0 142.35 106.82">
  <defs>
    <style>
      .cls-1 {
        fill: #253148;
      }
    </style>
  </defs>
  <g>
    <path class="cls-1" d="M33.97,5.5c.72-.41,2-.31,2.83-.11l-.02,4.04c-.6-.18-1.36-.51-2.04-1.08-.77-.64-1.15-1.37-1.15-2.18,0-.39,.13-.56,.38-.67m5.93-.19c1.5-.58,3.28-.56,4.32-.13l.02,8.33c-1.26-.33-3.54-1.74-4.35-3.02V5.32Zm7.45-.13c2.62-1.35,5.94-1.21,7.58-.13v14.92c-.27-.02-.75-.09-1.39-.36-2.44-.96-5.23-3.32-6.18-5.2V5.19Zm10.67-.08c3.94-2.5,9.52-2.59,12.21-.17V30.16c-.15,.06-.39,.11-.82,.06-3.31-.31-9.65-5.29-11.42-9.63l.03-15.49Zm15.29,.11c4.35-2.19,9.1-2.74,12.84-1.42,3.88,1.36,6.91,4.65,8.98,9.75,3.29,8.11,6.82,12.58,12.03,15.14,0,1.08,.02,2.71,.02,2.72,0,.22-.13,.33-.25,.38-1.84,.09-3.27,1.55-3.32,3.43,0,.32-.2,.42-.36,.43-.82-.16-1.67-.04-2.39,.37-.82,.44-1.41,1.21-1.67,2.13-.03,.11-.09,.24-.21,.3-.07,.05-.15,.06-.25,.05-1.66-.83-3.61-.24-4.56,1.38-.17,.28-.38,.28-.54,.22-1.4-1.21-3.43-1.14-4.77,.19-.07,.07-.19,.16-.32,.16-.08,0-.15-.05-.21-.09-1.07-1.52-3.01-1.97-4.65-.99-.08,.04-.22,.12-.34,.08-.08-.03-.15-.08-.19-.15-.66-1.74-2.43-2.63-4.27-2.11-.09,.03-.23,.04-.34-.02-.07-.03-.12-.1-.15-.17-.2-1.87-1.69-3.17-3.59-3.11-.15,0-.25-.03-.33-.11-.08-.06-.13-.2-.13-.35v-.14s-.04-.16-.04-.16c-.05-.27-.1-.57-.15-.84-.09-.69-.22-1.61-.83-2.31V5.22Zm-37.99,6.95c.5,.2,1.43,.46,2.34,.45,1.58,2.01,4.65,3.76,6.65,4,.27,.03,.55,.03,.78,0,2.01,3.01,6.34,6.06,9.38,6.38,.49,.05,.9,.02,1.27-.04,2.64,4.8,9.05,9.91,13.37,10.32,.82,.07,1.48-.02,2.04-.2,.03,.21,.06,.41,.11,.64,.07,.9,.45,1.71,1.08,2.31,.67,.63,1.56,.96,2.52,.93,.3,0,.45,.12,.46,.42v.19s.06,.19,.06,.19c.26,.92,.86,1.66,1.66,2.12,.81,.44,1.74,.54,2.68,.27,.28-.09,.47,.02,.54,.29l.04,.18,.1,.18c.49,.81,1.25,1.4,2.14,1.63,.89,.22,1.84,.08,2.67-.42,.25-.15,.44-.09,.6,.16l.1,.15,.12,.15c.69,.67,1.56,1.04,2.48,1.04s1.8-.37,2.49-1.04c.2-.22,.42-.22,.64-.01l.14,.14,.17,.1c1.7,1,3.83,.45,4.82-1.25,.15-.26,.37-.32,.62-.17l.18,.1,.18,.07c.92,.25,1.88,.15,2.68-.3,.82-.46,1.4-1.21,1.66-2.14,.03-.11,.1-.24,.21-.3,.12-.07,.26-.03,.35-.02l.19,.06h.2c1.98,.04,3.55-1.46,3.6-3.44,.01-.3,.18-.46,.47-.45h.2l.18-.04c1.62-.38,2.74-1.78,2.72-3.42v-3.7s-.02-.99-.02-.99l-.92-.41c-4.98-2.16-8.15-6.06-11.33-13.89-2.42-5.97-6.05-9.82-10.8-11.49-6.15-2.18-12.1,0-15.13,1.52-3.78-3.11-10.49-3.13-15.51,0-2.77-1.74-7.27-1.73-10.73,.1-2.02-.99-5.04-.98-7.48,.13-1.51-.58-3.93-.79-5.64,.04-1.4,.68-2.16,1.92-2.16,3.48,0,3.11,2.47,5.13,4.8,6"/>
    <path class="cls-1" d="M75.17,7.93c-.24,.13-.39,.41-.39,.69,0,.46,.37,.83,.83,.83s.82-.38,.82-.83c0-.33-.22-.62-.49-.75,.23-.13,.4-.4,.4-.7,0-.46-.37-.83-.83-.83s-.83,.37-.83,.83c0,.34,.21,.63,.49,.76"/>
    <path class="cls-1" d="M59.94,7.49c.46,0,.83-.37,.83-.83s-.37-.82-.83-.82-.81,.37-.81,.82,.36,.83,.81,.83"/>
    <path class="cls-1" d="M49.19,7.35c.45,0,.82-.36,.82-.83s-.37-.82-.82-.82-.84,.36-.84,.82,.38,.83,.84,.83"/>
    <path class="cls-1" d="M41.48,7.44c.46,0,.84-.37,.84-.83s-.38-.83-.84-.83-.83,.37-.83,.83,.37,.83,.83,.83"/>
    <path class="cls-1" d="M41.41,10.37c.08,0,.16,0,.24-.03,0,.45,.38,.82,.84,.82s.82-.37,.82-.82-.38-.83-.82-.83c-.09,0-.17,0-.25,.03,0-.22-.11-.43-.25-.59,.21-.14,.34-.39,.34-.67,0-.45-.36-.82-.82-.82s-.82,.37-.82,.82c0,.23,.09,.44,.25,.6-.21,.14-.34,.38-.34,.67,0,.44,.36,.82,.82,.82"/>
    <path class="cls-1" d="M49.8,15.04c.13,0,.23-.03,.33-.07v.04c0,.45,.37,.83,.82,.83h.05c.01,.43,.39,.79,.81,.79,.09,0,.18-.03,.26-.05v.09c0,.46,.37,.82,.82,.82s.83-.36,.83-.82-.86-.83-.72-.83c.45,0,.82-.38,.82-.83s-.37-.83-.82-.83h-.16c0-.43-.37-.79-.82-.79-.2,0-.37,.06-.51,.19-.15-.14-.35-.23-.57-.23s-.44,.1-.59,.25l-.11-.08c.03-.09,.05-.43,.05-.52v-.09c.13,.1,.29,.16,.47,.16,.46,0,.83-.31,.83-.77s-.37-.65-.83-.65c-.08,0-.14,0-.21,.03-.05-.09-.12-.16-.2-.23,.23-.15,.39-.41,.39-.71,0-.33-.22-.62-.5-.75-.06-.19-.2-.32-.39-.41,.27-.14,.44-.4,.44-.73,0-.46-.36-.82-.83-.82s-.82,.37-.82,.82c0,.33,.19,.59,.45,.73-.26,.14-.45,.41-.45,.73,0,.23,.1,.46,.26,.61-.37,.07-.65,.41-.65,.79,0,.45,.33,.79,.75,.83-.21,.14-.36,.4-.36,.69s.15,.54,.37,.68c-.03,.09-.04,.17-.04,.27,0,.46,.37,.84,.83,.84"/>
    <path class="cls-1" d="M61.81,22.75c-.06,.13-.1,.26-.1,.38,0,.38,.25,.68,.59,.8-.04,.08-.07,.19-.07,.3,0,.45,.38,.83,.84,.83,.14,0,.29-.04,.41-.11v.05c0,.46,.36,.81,.82,.81,.15,0,.3-.03,.43-.11l-.02,.17c0,.46,.36,.84,.84,.84l.14-.03c.16,.13,.34,.22,.55,.22,.43,0,.79-.33,.82-.74l.06-.02c.08,.13,.18,.28,.31,.36-.28,.14-.45,.42-.45,.73,0,.47,.37,.84,.83,.84s.82-.37,.82-.84c0-.27-.13-.51-.34-.66,.26-.14,.44-.41,.44-.75,0-.43-.36-.79-.8-.81h0c.45-.02,.8-.37,.8-.82s-.37-.84-.82-.84c-.37,0-.67,.25-.79,.58l-.05-.03c.05-.12,.1-.25,.1-.4,0-.46-.37-.83-.82-.83-.21,0-.37,.07-.52,.19,.06-.13,.12-.28,.12-.42,0-.48-.37-.83-.82-.83-.26,0-.47,.09-.62,.27h0c.03-.08,.04-.15,.04-.23,0-.44-.37-.83-.84-.83h-.05c.05-.08,.1-.2,.1-.32,.12,.08,.29,.14,.44,.14,.46,0,.83-.38,.83-.84s-.37-.82-.83-.82c-.43,0-.77,.34-.82,.76-.12-.08-.28-.12-.45-.12-.21,0-.6,.15-.62,.13,.16-.15,.25-.35,.25-.58,0-.46-.38-.84-.82-.84-.07,0-.02-.28-.02-.48,0-.46-.36-.83-.82-.83-.04,0,.73-.36,.73-.82s-.35-.8-.8-.83h.01c0-.31-.17-.57-.41-.72,.21-.15,.33-.38,.33-.67,0-.14-.04-.24-.09-.37,.28-.14,.48-.41,.48-.74,0-.28-.12-.52-.33-.67,.21-.15,.38-.41,.38-.7,0-.34-.21-.64-.5-.76-.08-.19-.22-.32-.38-.41,.26-.15,.44-.41,.44-.73,0-.46-.37-.82-.83-.82s-.81,.36-.81,.82c0,.32,.17,.58,.45,.73-.27,.15-.45,.41-.45,.72,0,.24,.1,.47,.26,.61-.38,.07-.66,.41-.66,.81,0,.44,.34,.78,.76,.82-.22,.15-.36,.41-.36,.68,0,.3,.15,.57,.38,.71-.2,.15-.33,.39-.33,.66,0,.34,.22,.64,.53,.77-.34,.11-.58,.41-.58,.79s.25,.68,.58,.79c-.12,.13-.2,.31-.2,.53,0,.35,.24,.67,.58,.77h0s-.15-.02-.15-.02c-.45,0-.81,.39-.81,.84,0,.42,.32,.8,.77,.82v.16c-.01,.47,.35,.83,.81,.83h.13c-.06,.1-.07,.21-.07,.35,0,.45,.37,.83,.83,.83,.07,0,.15-.03,.22-.06"/>
    <path class="cls-1" d="M67.91,22.75c.45,0,.82-.36,.82-.82s-.37-.82-.82-.82-.83,.36-.83,.82,.37,.82,.83,.82"/>
    <path class="cls-1" d="M75.15,18.85c-.23,.14-.37,.41-.37,.68,0,.45,.34,.79,.76,.83v.2c-.39,.07-.71,.41-.71,.83,0,.2,.07,.36,.17,.49-.14,.16-.23,.35-.23,.58,0,.38,.25,.67,.59,.78-.12,.15-.19,.33-.19,.52,0,.27,.12,.5,.31,.65v.16c-.41,.06-.7,.4-.7,.82,0,.31,.18,.58,.44,.73-.26,.14-.44,.41-.44,.71,0,.25,.11,.48,.28,.63-.31,.12-.52,.42-.52,.77,0,.4,.29,.73,.67,.81-.26,.14-.43,.41-.43,.72,0,.45,.37,.83,.83,.83l.15-.02c.06,.4,.4,.7,.82,.7,.21,0,.4-.07,.54-.21v.11c0,.47,.36,.83,.81,.83,.37,0,.69-.25,.78-.59,.12,.32,.42,.53,.77,.53,.28,0,.54-.15,.7-.34,.11,.31,.4,.54,.77,.54,.16,0,.31-.04,.43-.12,.01,.45,.37,.81,.83,.81s.83-.38,.83-.83c0-.06,.4,.36,.76,.36,.12,0,.23-.03,.32-.06,.15,.17,.37,.28,.63,.28,.37,0,.68-.26,.78-.6,.13,.29,.43,.51,.78,.51,.45,0,.82-.37,.82-.83,0-.06,.4,.53,.82,.53,.19,0,.36-.06,.49-.15,.15,.2,.4,.34,.68,.34,.36,0,.67-.23,.77-.55,.15,.1,.32,.17,.5,.17,.46,0,.83-.37,.83-.83l.1-.09c0,.45,.36,.83,.81,.83,.43,0,.76-.31,.82-.71,.15,.13,.34,.21,.55,.21,.35,0,.64-.21,.75-.5,.23-.12,.39-.36,.43-.62,.12,.3,.41,.53,.77,.53,.45,0,.82-.36,.82-.83s-.37-.83-.82-.83c-.41,0-.77,.32-.82,.72-.07-.18-.2-.32-.35-.42-.13-.31-.43-.55-.78-.55-.32,0-.6,.19-.73,.45-.14-.17-.37-.28-.65-.28-.07,0-.16,.02-.24,.04,0-.13-.02-.23-.06-.34,.26-.13,.45-.4,.45-.73,0-.47-.38-.84-.82-.84-.47,0-.84,.38-.84,.84,0,.11,.04,.23,.08,.33-.27,.14-.54,.77-.57,.77v-.12c.01-.47-.36-.82-.82-.82-.09,0-.17,0-.26,.04-.04-.41-.39-.74-.82-.74-.31,0-.58,.18-.72,.45-.14-.26-.41-.45-.73-.45s-.64,.22-.76,.51c-.1-.35-.41-.61-.8-.61-.29,0-.74,.4-.75,.4,.08-.14,.12-.29,.12-.43,0-.48-.37-.84-.82-.84-.42,0-.64,.3-.64,.04v-.15c.39-.07,.7-.41,.7-.82,0-.45-.38-.84-.84-.84s-.82,.4-.82,.84l.02,.16h-.3l.06-.3c0-.62-.63-.68-.71-.7-.34,0-.6,.21-.74,.5-.07-.37-.39-.66-.77-.66,.13-.15,.2-.34,.2-.56,0-.46-.36-.82-.82-.82-.15,0-.28,.04-.39,.09,.03-.07,.05-.15,.05-.24v-.15s.14,0,.14,0c.45,0,.83-.37,.83-.83s-.2-.74-.65-.74-.85,.19-.85,.64l-.11,.41-.25,.07c-.28,0-.4,.14-.55,.34-.04-.08-.13-.39-.18-.47l.09,.02c.47,0,.84-.37,.84-.84s-.37-.82-.84-.82h-.11c.22-.1,.39-.3,.43-.55,.31-.12,.52-.42,.52-.76,0-.47-.37-.84-.84-.84-.18,0-.36,.08-.49,.18,.04-.1,.06-.2,.06-.32,0-.28-.13-.5-.33-.68,.15-.09,.27-.25,.33-.44,.18-.14,.3-.36,.3-.61,0-.47-.38-.84-.83-.84-.09,0-.18,.02-.26,.05l-.04-.02c.27-.15,.45-.42,.45-.73,0-.3-.15-.56-.39-.7,.39-.08,.68-.41,.68-.81,0-.37-.25-.68-.59-.78,.18-.17,.3-.38,.3-.64,0-.32-.19-.59-.45-.72,.27-.15,.45-.43,.45-.73,0-.48-.38-.83-.82-.83s-.83,.35-.83,.83c0,.3,.18,.58,.44,.73-.26,.13-.44,.4-.44,.72,0,.39,.25,.69,.59,.78-.18,.17-.3,.39-.3,.64,0,.28,.15,.55,.38,.69-.38,.08-.67,.4-.67,.82,0,.32,.18,.58,.44,.73-.26,.13-.44,.41-.44,.73,0,.24,.09,.45,.25,.59-.37,.08-.65,.42-.65,.81,0,.43,.34,.78,.76,.83"/>
    <path class="cls-1" d="M97.62,29.96c.46,0,.82-.37,.82-.83s-.36-.82-.82-.82-.82,.37-.82,.82,.36,.83,.82,.83"/>
    <path class="cls-1" d="M95.82,33.42v.09c-.06,.09-.12,.16-.16,.28-.14-.12-.29-.18-.48-.18-.38,0-.7,.26-.81,.62-.15-.13-.34-.22-.56-.22-.28,0-.52,.13-.67,.34-.15-.15-.36-.25-.59-.25-.45,0-.83,.37-.83,.82s.38,.83,.83,.83c.28,0,.52-.13,.68-.35,.14,.15,.35,.26,.58,.26,.38,0,.7-.27,.81-.62,.15,.13,.34,.22,.57,.22,.35,0,.67-.23,.77-.55,.14,.11,.31,.17,.48,.17,.34,0,.62-.19,.75-.49,.14,.12,.32,.19,.52,.19,.42,0,.75-.31,.82-.72,.12,.08,.28,.14,.46,.14,.39,0,.75-.31,.8-.7,.15,.13,.34,.21,.55,.21,.46,0,.82-.37,.82-.83l-.02-.19c.14,.09,.3,.14,.46,.14,.45,0,.82-.37,.82-.81,.14,.08,.29,.12,.45,.12,.45,0,.82-.37,.82-.82v-.14c.09,.05,.21,.09,.34,.09,.46,0,.84-.37,.84-.83s-.38-.84-.84-.84c-.21,0-.4,.09-.55,.23-.15-.25-.41-.41-.71-.41-.46,0-.83,.37-.83,.81,0,.25,.1,.45,.26,.61l-.06,.11c-.07-.4-.4-.72-.82-.72-.47,0-.84,.38-.84,.83,0,.06,.01,.13,.03,.2-.15-.1-.29-.15-.47-.15-.45,0-.83,.37-.83,.83,0,.29,.14,.51,.35,.67l-.04,.13c-.09-.07-.18-.12-.28-.16-.14-.29-.42-.49-.76-.49-.46,0-.82,.37-.82,.83l.03,.19c-.11,0-.23,.03-.33,.07-.14-.25-.42-.41-.73-.41-.45,0-.81,.37-.81,.83"/>
    <path class="cls-1" d="M86.41,26.59c.45,0,.82-.37,.82-.82s-.37-.83-.82-.83-.84,.38-.84,.83,.37,.82,.84,.82"/>
    <path class="cls-1" d="M81.25,23.62c.48,0,.85-.37,.85-.82s-.37-.83-.85-.83-.83,.36-.83,.83,.37,.82,.83,.82"/>
    <path class="cls-1" d="M78.82,18.55c.46,0,.82-.36,.82-.82s-.37-.82-.82-.82-.82,.37-.82,.82,.37,.82,.82,.82"/>
    <path class="cls-1" d="M90.8,34.2c-.45,0-.82,.38-.82,.82s.37,.83,.82,.83,.83-.37,.83-.83-.37-.82-.83-.82"/>
    <path class="cls-1" d="M88.65,34.2c-.45,0-.83,.38-.83,.82s.38,.83,.83,.83,.83-.37,.83-.83-.37-.82-.83-.82"/>
    <path class="cls-1" d="M85.64,34.3c-.46,0-.83,.36-.83,.82s.37,.82,.83,.82,.83-.37,.83-.82-.36-.82-.83-.82"/>
    <path class="cls-1" d="M50.77,31.62c0-.46-.38-.82-.83-.82s-.84,.36-.84,.82,.37,.83,.84,.83,.83-.38,.83-.83"/>
    <path class="cls-1" d="M53.18,34.21c0-.44-.37-.82-.84-.82s-.82,.38-.82,.82c0,.47,.38,.84,.82,.84s.84-.37,.84-.84"/>
    <path class="cls-1" d="M61.36,37.22c0-.45-.38-.83-.84-.83s-.82,.38-.82,.83,.35,.82,.82,.82,.84-.36,.84-.82"/>
    <path class="cls-1" d="M65.08,41.17c0-.46-.37-.83-.83-.83s-.83,.38-.83,.83,.37,.82,.83,.82,.83-.37,.83-.82"/>
    <path class="cls-1" d="M66.88,47.32c.47,0,.83-.37,.83-.82s-.37-.84-.83-.84-.82,.38-.82,.84,.37,.82,.82,.82"/>
    <path class="cls-1" d="M60,35.06c.03,.43,.38,.77,.83,.77,.21,0,.41-.08,.56-.24v.08c0,.47,.37,.84,.82,.84,.37,0,.67-.24,.78-.57l.05,.07c-.07,.13-.11,.27-.11,.43,0,.45,.36,.82,.83,.82s.83-.37,.83-.82c0-.08,.06-.44,.04-.5,.13,.29,.34,.78,.69,.78,.31,0,.57-.16,.71-.39,.13,.26,.42,.44,.73,.44,.27,0,.5-.12,.65-.32v.33c0,.11,.01,.21,.06,.31-.39,.08-.67,.41-.67,.82,0,.04-.06,.3-.08,.39-.08-.05-.17-.06-.26-.06-.26,0-.49,.12-.64,.3h-.11c-.45-.01-.82,.36-.82,.83s.38,.81,.82,.81c.26,0,.37-.3,.53-.48l.22-.03c.09,0,.16,.21,.24,.2-.01,.04-.02,.18-.35,.22-.37,.05-.46,.18-.46,.64,0,.29-.01,.62,.2,.79-.21,.14-.37,.4-.37,.67,0,.18,.07,.36,.19,.51l-.19-.03c-.45,0-.82,.37-.82,.84s.37,.82,.82,.82c.32,0,.58-.17,.73-.41,.14,.17,.37,.27,.6,.27,.09,0,.19-.03,.27-.05-.01,.07-.02,.12-.02,.19,0,.46,.37,.84,.82,.84s.84-.38,.84-.84l-.02-.07c.09,.05,.41,.14,.5,.2-.22,.15-.38,.4-.38,.7,0,.45,.15,.79,.61,.79,.17,0,.32-.05,.44-.13,.06,.39,.41,.7,.82,.7,.2,0,.38-.07,.54-.2,.08,.07,.18,.13,.26,.15-.43,.03-.77,.4-.77,.84s.36,.82,.82,.82,.82-.37,.82-.82c0-.38-.25-.69-.56-.79,.12,0,.22-.03,.33-.09,.14,.24,.4,.38,.69,.38s.59-.17,.72-.43h0c0,.46,.38,.83,.83,.83s.82-.37,.82-.82h0s.11,0,.11,0v.08c0,.4,.27,.73,.63,.81-.21,.15-.34,.4-.34,.67,0,.45,.36,.83,.83,.83s.81-.38,.81-.83c0-.1,0-.18-.03-.27,.11,.06,.25,.09,.4,.09,.42,0,.78-.32,.81-.75,.1,.33,.42,.58,.79,.58,.28,0,.53-.14,.68-.37,0,.46,.37,.83,.83,.83h.05c.08,.38,.41,.68,.82,.68,.45,0,.82-.37,.82-.82v-.15c.43-.01,.78-.38,.78-.82,0-.13-.03-.25-.07-.36h.11c.08,.31,.36,.55,.69,.59-.03,.08-.05,.16-.05,.25,0,.45,.37,.83,.83,.83s.83-.37,.83-.83l-.04-.2h.1c.42,0,.78-.31,.83-.71,.15,.17,.37,.27,.62,.27,.36,0,.66-.22,.77-.54,.13,.32,.43,.54,.79,.54s.71-.26,.79-.6c.15,.13,.35,.22,.56,.22,.4,0,.72-.28,.81-.63,.12,.09,.29,.15,.47,.15,.44,0,.82-.38,.82-.84s-.38-.83-.82-.83c-.39,0-.72,.27-.81,.64-.13-.1-.3-.14-.47-.14-.37,0-.7,.27-.79,.6-.16-.14-.36-.22-.57-.22-.36,0-.66,.24-.79,.57-.1-.33-.41-.57-.77-.57-.21,0-.41,.08-.56,.22-.06-.38-.39-.7-.81-.7h-.06c-.06-.38-.41-.67-.82-.67-.26,0-.49,.12-.65,.31-.07,0-.14-.03-.22-.03-.46,0-.82,.37-.82,.82,0-.45-.38-.82-.84-.82-.37,0-.68,.26-.79,.58l-.17-.06,.04-.18c0-.46-.39-.82-.84-.82-.3,0-.57,.16-.72,.42h0c.06-.12,.1-.25,.1-.38,0-.46-.37-.82-.82-.82,.02-.08,.03-.17,.03-.25,0-.45-.37-.83-.83-.83s-.53,.31-.53,.76c0,.17-.24,.4-.14,.56-.1-.05-.19-.1-.29-.15,.09-.12,.13-.27,.13-.44,0-.46-.38-.83-.83-.83-.17,0-.34,.07-.46,.16-.09-.37-.42-.64-.8-.64h-.17c-.07-.37-.39-.68-.82-.68-.22,0-.42,.1-.57,.24,.14-.15,.23-.35,.23-.57,0-.37-.24-.68-.58-.8,.05-.12,.09-.25,.09-.38,0-.45-.36-.82-.82-.82-.22,0-.44,.1-.59,.24-.12-.3-.42-.53-.77-.53l-.16,.03c-.06-.41-.41-.71-.82-.71l-.18,.03c.09-.14,.15-.3,.15-.48,0-.45-.37-.8-.82-.82,.08-.13,.13-.27,.13-.44,0-.47-.38-.83-.83-.83-.38,0-.71,.26-.81,.61h-.04s0-.08,0-.08c0-.45-.36-.82-.82-.82-.13,0-.26,.03-.36,.08-.16-.23-.41-.39-.69-.39-.18,0-.33,.05-.47,.14-.04-.41-.39-.72-.81-.72-.22,0-.43,.09-.57,.22-.1-.34-.41-.6-.8-.6-.15,0-.31,.05-.44,.13v-.08c.01-.46-.36-.83-.82-.83-.21,0-.4,.07-.55,.19-.06-.37-.38-.64-.78-.68v-.05c0-.46-.37-.82-.81-.82l-.18,.02c.03-.07,.03-.15,.03-.22,0-.46-.36-.84-.83-.84-.39,0-.43,.1-.43-.24,0-.46-.38-.82-.82-.82-.09,0-.17,.02-.24,.03,.06-.12,.1-.24,.1-.38,0-.46-.37-.82-.83-.82-.11,0-.22,0-.31,.05,.03-.08,.05-.19,.05-.3,0-.46-.37-.84-.82-.84h-.06s0-.14,0-.14c0-.46-.37-.84-.82-.84h-.03s.03-.11,.03-.18c0-.45-.38-.84-.84-.84-.19,0-.38,.09-.52,.21-.11-.34-.42-.59-.78-.59-.16,0-.3,.06-.42,.11-.11-.05-.25-.11-.4-.11-.13-.29-.41-.48-.75-.48s-.63,.21-.76,.51h0c.1-.15,.13-.3,.13-.48,0-.45-.37-.83-.82-.83-.11,0-.23,.04-.33,.1-.13-.28-.42-.48-.74-.48-.23,0-.45,.09-.6,.26,.03-.1,.06-.19,.06-.3,0-.46-.37-.83-.83-.83-.24,0-.46,.13-.61,.3l-.04-.02c.07-.14,.12-.27,.12-.42,0-.46-.37-.82-.83-.82-.1,0-.18,.02-.28,.04l.03-.19c0-.46-.37-.83-.82-.83h-.05s-.02-.05-.02-.05c0-.31-.16-.58-.42-.71,.03-.08,.05-.16,.05-.26,0-.46-.38-.82-.83-.82-.31,0-.59,.19-.73,.44-.15-.25-.41-.44-.74-.44-.16,0-.33,.04-.44,.13-.06-.4-.39-.71-.82-.71-.25,0-.48,.12-.64,.3-.01-.38-.3-.7-.68-.78-.01-.43-.38-.79-.83-.79-.11,0-.23,.03-.33,.08v-.03c0-.45-.37-.82-.83-.82-.11,0-.2,0-.28,.05v-.13c.01-.47-.36-.83-.81-.83-.16,0-.27,.03-.39,.09-.11-.34-.42-.57-.79-.57-.28,0-.5,.13-.67,.32-.02-.41-.38-.76-.82-.76h-.13c-.09-.37-.42-.65-.82-.65-.26,0-.51,.13-.65,.34,0-.06,.02-.13,.02-.21,0-.46-.36-.84-.82-.84-.1,0-.2,.03-.3,.07,.03-.08,.04-.16,.04-.25,0-.46-.37-.84-.83-.84h-.12s.02-.14,.02-.14c0-.33-.21-.62-.5-.76-.03-.42-.39-.75-.82-.75-.33,0-.63,.21-.75,.5-.14-.14-.35-.24-.58-.24-.45,0-.83,.38-.83,.83,0,.25,.11,.46,.28,.61-.12,.14-.2,.32-.2,.53,0,.46,.37,.83,.82,.83,.11,0,.19-.03,.28-.06v.14c-.35,.09-.62,.41-.62,.79,0,.46,.38,.82,.83,.82s.83-.36,.83-.82l-.02-.14c.11-.04,.21-.06,.3-.15,.04,.43,.39,.76,.82,.76,.3,0,.56-.15,.71-.39,.14,.19,.38,.31,.64,.31s.5-.12,.66-.33l-.02,.21c0,.45,.36,.82,.82,.82h.14c.07,.34,.38,.6,.75,.64l-.09,.1c-.42,.03-.76,.37-.76,.81s.33,.78,.75,.82l-.03,.2c0,.45,.38,.82,.82,.82,.3,0,.56-.15,.7-.39,.05,.42,.39,.75,.83,.75,.37,0,.67-.24,.78-.57l.17,.12-.03,.2c0,.47,.37,.82,.83,.82,.22,0,.42-.08,.57-.21h.1c.07,0,.14,0,.22-.04,.09,.37,.41,.62,.8,.62s.67-.25,.77-.58c.16,.24,.42,.4,.71,.4,.16,0,.32-.06,.44-.15,.02,.14,.07,.25,.13,.35-.09-.05-.2-.06-.3-.06-.4,0-.74,.29-.82,.67-.38,.07-.66,.41-.66,.81,0,.45,.37,.84,.83,.84l.16-.03c-.05,.12-.07,.2-.07,.34,0,.47,.37,.82,.82,.82,.2,0,.38-.07,.53-.18l-.02,.04c0,.45,.38,.82,.84,.82,.12,0,.24-.03,.34-.07v.06c0,.08,.02,.17,.04,.26-.08-.02-.16-.06-.27-.06-.46,0-.82,.38-.82,.84s.37,.82,.82,.82,.83-.37,.83-.82c0-.11-.02-.19-.05-.28,.08,.05,.17,.05,.26,.05,.28,0,.53-.13,.69-.36,.06,.16,.15,.32,.3,.42-.08,.11-.12,.27-.12,.43,0,.46,.37,.83,.82,.83,.36,0,.66-.22,.77-.53,.12,.06,.25,.1,.4,.1,.26,0,.49-.12,.64-.31l-.02,.07c0,.46,.38,.82,.83,.82,.18,0,.34-.04,.47-.15,.15,.18,.37,.29,.62,.29,.12,0,.23-.04,.32-.07,.16,.19,.38,.29,.63,.29,.34,0,.64-.19,.76-.5h.14c.12,.31,.41,.5,.75,.5,.15,0,.29-.04,.41-.12,.09,.05,.17,.09,.27,.11-.01,.07-.03,.14-.03,.21l-.19-.02c-.42,0-.76,.31-.82,.72l-.17-.02c-.46,0-.83,.36-.83,.82,0,.13,.03,.25,.09,.35-.15-.17-.39-.29-.63-.29-.47,0-.83,.37-.83,.82s.37,.83,.83,.83c.19,0,.37-.07,.51-.2,.03,.2,.09,.36,.23,.49-.3,.13-.51,.42-.51,.76,0,.46,.37,.83,.82,.83,.12,0,.25-.03,.36-.08-.07,.12-.1,.26-.1,.39,0,.46,.37,.83,.82,.83,.1,0,.2-.04,.29-.06,.08,.38,.41,.66,.82,.66,.13,0,.25-.02,.37-.08,0,.33,.19,.61,.48,.74l-.02,.16c0,.46,.37,.82,.83,.82,.28,0,.54-.14,.69-.36,.12,.09,.24,0,.41,0s.24-.02,.37-.11l.06,.28-.06-.02c-.46,0-.83,.36-.83,.82s.37,.84,.83,.84c.4,0,.73-.29,.81-.67h.06c.45,0,.82-.37,.82-.84l-.03-.19,.28,.03c-.03,.08-.11,.2-.11,.29,0,.46,.25,.8,.7,.8,.38,0,.7-.25,.79-.58"/>
    <path class="cls-1" d="M94.26,45.5c0-.46-.38-.83-.84-.83s-.81,.37-.81,.83,.37,.82,.81,.82,.84-.36,.84-.82"/>
    <path class="cls-1" d="M96.89,44.81c0-.45-.37-.81-.84-.81s-.81,.36-.81,.81c0,.47,.37,.84,.81,.84s.84-.37,.84-.84"/>
    <path class="cls-1" d="M40.51,22.91c0-.47-.37-.83-.82-.83s-.82,.37-.82,.83,.37,.82,.82,.82,.82-.37,.82-.82"/>
    <path class="cls-1" d="M37.02,19.75c0-.46-.36-.82-.82-.82s-.84,.36-.84,.82,.37,.83,.84,.83,.82-.37,.82-.83"/>
    <path class="cls-1" d="M32.79,17.11c0-.47-.37-.84-.83-.84s-.83,.37-.83,.84,.38,.82,.83,.82,.83-.37,.83-.82"/>
    <path class="cls-1" d="M25.84,12.48c.45,0,.82-.37,.82-.83s-.37-.82-.82-.82-.84,.36-.84,.82,.38,.83,.84,.83"/>
    <path class="cls-1" d="M53.71,106.32c1.84,0,3.11-1.05,3.11-2.81,0-1.65-1.1-2.22-2.83-2.9-1.84-.72-2.75-1.51-2.75-3.01,0-1.84,1.35-3.11,3.45-3.11,2.25,0,3.55,1.25,3.55,3.44v.05h-.54v-.11c0-1.84-1.1-2.88-2.96-2.88s-2.94,1.05-2.94,2.58c0,1.69,1.32,2.09,3.09,2.85,1.66,.71,2.48,1.56,2.48,3.09,0,2.01-1.4,3.31-3.77,3.31s-3.7-1.33-3.7-3.7v-.16h.53c0,2.22,1.14,3.37,3.27,3.37"/>
    <path class="cls-1" d="M53.71,106.32c1.84,0,3.11-1.05,3.11-2.81,0-1.65-1.1-2.22-2.83-2.9-1.84-.72-2.75-1.51-2.75-3.01,0-1.84,1.35-3.11,3.45-3.11,2.25,0,3.55,1.25,3.55,3.44v.05h-.54v-.11c0-1.84-1.1-2.88-2.96-2.88s-2.94,1.05-2.94,2.58c0,1.69,1.32,2.09,3.09,2.85,1.66,.71,2.48,1.56,2.48,3.09,0,2.01-1.4,3.31-3.77,3.31s-3.7-1.33-3.7-3.7v-.16h.53c0,2.22,1.14,3.37,3.27,3.37"/>
    <path class="cls-1" d="M63.76,94.74h.51l-1.04,4.87c.82-1.14,1.89-1.73,3.17-1.73,1.55,0,2.4,.81,2.4,2.14,0,.43-.1,.89-.2,1.38l-1.08,5.15h-.51l1.2-5.69c.05-.26,.08-.53,.08-.77,0-1.14-.67-1.76-1.91-1.76-1.88,0-3.18,1.3-3.73,3.93l-.91,4.29h-.51l2.52-11.81Z"/>
    <path class="cls-1" d="M63.76,94.74h.51l-1.04,4.87c.82-1.14,1.89-1.73,3.17-1.73,1.55,0,2.4,.81,2.4,2.14,0,.43-.1,.89-.2,1.38l-1.08,5.15h-.51l1.2-5.69c.05-.26,.08-.53,.08-.77,0-1.14-.67-1.76-1.91-1.76-1.88,0-3.18,1.3-3.73,3.93l-.91,4.29h-.51l2.52-11.81Z"/>
  </g>
  <path class="cls-1" d="M74.91,94.74l-.3,1.38h.62l.3-1.38h-.62Zm-.64,3.28l-1.81,8.54h.51l1.83-8.54h-.53Z"/>
  <path class="cls-1" d="M74.91,94.74l-.3,1.38h.62l.3-1.38h-.62Zm-.64,3.28l-1.81,8.54h.51l1.83-8.54h-.53Z"/>
  <g>
    <path class="cls-1" d="M79.81,98.02h.51l-.3,1.35c.49-.96,1.23-1.46,2.09-1.46,.23,0,.48,.03,.79,.11l-.11,.49c-.26-.07-.49-.11-.69-.11-1.15,0-2.11,1.14-2.55,3.22l-1.05,4.93h-.49l1.81-8.54Z"/>
    <path class="cls-1" d="M79.81,98.02h.51l-.3,1.35c.49-.96,1.23-1.46,2.09-1.46,.23,0,.48,.03,.79,.11l-.11,.49c-.26-.07-.49-.11-.69-.11-1.15,0-2.11,1.14-2.55,3.22l-1.05,4.93h-.49l1.81-8.54Z"/>
    <path class="cls-1" d="M86.19,103.33c0,1.78,1.04,2.98,2.5,2.98s2.66-.9,3.27-2.43h.56c-.64,1.78-2.09,2.9-3.75,2.9-1.91,0-3.12-1.33-3.12-3.52,0-2.99,1.78-5.4,4.26-5.4,1.91,0,3.1,1.28,3.1,3.59,0,.1,0,.38-.03,.84h-6.73c-.05,.53-.05,.87-.05,1.05m6.29-1.51c0-.11,.02-.25,.02-.36,0-2.04-.97-3.14-2.68-3.14-1.53,0-2.95,1.27-3.45,3.5h6.12Z"/>
    <path class="cls-1" d="M86.19,103.33c0,1.78,1.04,2.98,2.5,2.98s2.66-.9,3.27-2.43h.56c-.64,1.78-2.09,2.9-3.75,2.9-1.91,0-3.12-1.33-3.12-3.52,0-2.99,1.78-5.4,4.26-5.4,1.91,0,3.1,1.28,3.1,3.59,0,.1,0,.38-.03,.84h-6.73c-.05,.53-.05,.87-.05,1.05m6.29-1.51c0-.11,.02-.25,.02-.36,0-2.04-.97-3.14-2.68-3.14-1.53,0-2.95,1.27-3.45,3.5h6.12Z"/>
  </g>
  <polygon class="cls-1" points="11.83 57.66 7.12 68 2.53 57.66 0 57.66 0 69.53 1.64 69.53 1.55 58.89 6.27 69.53 7.98 69.53 12.78 58.89 12.68 69.53 14.33 69.53 14.33 57.66 11.83 57.66"/>
  <polygon class="cls-1" points="11.83 57.66 7.12 68 2.53 57.66 0 57.66 0 69.53 1.64 69.53 1.55 58.89 6.27 69.53 7.98 69.53 12.78 58.89 12.68 69.53 14.33 69.53 14.33 57.66 11.83 57.66"/>
  <g>
    <path class="cls-1" d="M24.56,57.35c4.05,0,6.5,2.47,6.5,6.25s-2.45,6.25-6.51,6.25-6.5-2.47-6.5-6.25,2.45-6.25,6.52-6.25m0,10.92c3.03,0,4.75-1.78,4.75-4.67s-1.74-4.67-4.77-4.67-4.76,1.76-4.76,4.67,1.75,4.67,4.77,4.67"/>
    <path class="cls-1" d="M24.56,57.35c4.05,0,6.5,2.47,6.5,6.25s-2.45,6.25-6.51,6.25-6.5-2.47-6.5-6.25,2.45-6.25,6.52-6.25m0,10.92c3.03,0,4.75-1.78,4.75-4.67s-1.74-4.67-4.77-4.67-4.76,1.76-4.76,4.67,1.75,4.67,4.77,4.67"/>
    <path class="cls-1" d="M34.77,57.66h6.25c2.76,0,4.21,1.14,4.21,3.24,0,1.53-.67,2.48-2.04,2.91,1.23,.18,1.73,.85,1.82,2.25l.15,1.93c.05,.59,.1,1.09,.43,1.55h-1.96c-.13-.31-.18-.72-.21-1.23l-.15-1.76c-.13-1.59-.62-2.11-2.39-2.11h-4.46v5.1h-1.66v-11.88Zm1.66,1.43v3.88h3.93c2.17,0,3.19-.41,3.19-1.94,0-1.61-1.05-1.94-3.34-1.94h-3.78Z"/>
    <path class="cls-1" d="M34.77,57.66h6.25c2.76,0,4.21,1.14,4.21,3.24,0,1.53-.67,2.48-2.04,2.91,1.23,.18,1.73,.85,1.82,2.25l.15,1.93c.05,.59,.1,1.09,.43,1.55h-1.96c-.13-.31-.18-.72-.21-1.23l-.15-1.76c-.13-1.59-.62-2.11-2.39-2.11h-4.46v5.1h-1.66v-11.88Zm1.66,1.43v3.88h3.93c2.17,0,3.19-.41,3.19-1.94,0-1.61-1.05-1.94-3.34-1.94h-3.78Z"/>
  </g>
  <polygon class="cls-1" points="49.39 57.66 51.66 57.66 59.14 67.79 59.14 57.66 60.77 57.66 60.77 69.54 58.5 69.54 51.03 59.4 51.03 69.54 49.39 69.54 49.39 57.66"/>
  <polygon class="cls-1" points="49.39 57.66 51.66 57.66 59.14 67.79 59.14 57.66 60.77 57.66 60.77 69.54 58.5 69.54 51.03 59.4 51.03 69.54 49.39 69.54 49.39 57.66"/>
  <rect class="cls-1" x="65.27" y="57.66" width="1.68" height="11.88"/>
  <rect class="cls-1" x="65.27" y="57.66" width="1.68" height="11.88"/>
  <polygon class="cls-1" points="71.44 57.66 73.71 57.66 81.2 67.79 81.2 57.66 82.83 57.66 82.83 69.54 80.56 69.54 73.09 59.4 73.09 69.54 71.44 69.54 71.44 57.66"/>
  <polygon class="cls-1" points="71.44 57.66 73.71 57.66 81.2 67.79 81.2 57.66 82.83 57.66 82.83 69.54 80.56 69.54 73.09 59.4 73.09 69.54 71.44 69.54 71.44 57.66"/>
  <g>
    <path class="cls-1" d="M92.73,58.92c-2.76,0-4.48,1.79-4.48,4.67s1.73,4.67,4.43,4.67c2.45,0,4.14-1.4,4.36-3.54h-3.77v-1.56h5.33v6.37h-1.17l-.16-1.99c-.92,1.5-2.52,2.3-4.61,2.3-3.7,0-6.1-2.5-6.1-6.25s2.37-6.25,6.3-6.25c3.09,0,5.4,1.73,5.63,4.06h-1.71c-.44-1.58-1.89-2.48-4.05-2.48"/>
    <path class="cls-1" d="M92.73,58.92c-2.76,0-4.48,1.79-4.48,4.67s1.73,4.67,4.43,4.67c2.45,0,4.14-1.4,4.36-3.54h-3.77v-1.56h5.33v6.37h-1.17l-.16-1.99c-.92,1.5-2.52,2.3-4.61,2.3-3.7,0-6.1-2.5-6.1-6.25s2.37-6.25,6.3-6.25c3.09,0,5.4,1.73,5.63,4.06h-1.71c-.44-1.58-1.89-2.48-4.05-2.48"/>
  </g>
  <polygon class="cls-1" points="107.44 69.53 105.77 69.53 105.77 59.2 101.26 59.2 101.26 57.66 111.97 57.66 111.97 59.2 107.44 59.2 107.44 69.53"/>
  <polygon class="cls-1" points="107.44 69.53 105.77 69.53 105.77 59.2 101.26 59.2 101.26 57.66 111.97 57.66 111.97 59.2 107.44 59.2 107.44 69.53"/>
  <g>
    <path class="cls-1" d="M120.75,57.35c4.05,0,6.5,2.47,6.5,6.25s-2.45,6.25-6.51,6.25-6.5-2.47-6.5-6.25,2.45-6.25,6.52-6.25m0,10.92c3.03,0,4.75-1.78,4.75-4.67s-1.74-4.67-4.77-4.67-4.76,1.76-4.76,4.67,1.75,4.67,4.77,4.67"/>
    <path class="cls-1" d="M120.75,57.35c4.05,0,6.5,2.47,6.5,6.25s-2.45,6.25-6.51,6.25-6.5-2.47-6.5-6.25,2.45-6.25,6.52-6.25m0,10.92c3.03,0,4.75-1.78,4.75-4.67s-1.74-4.67-4.77-4.67-4.76,1.76-4.76,4.67,1.75,4.67,4.77,4.67"/>
  </g>
  <polygon class="cls-1" points="140.72 57.66 140.72 67.79 133.23 57.66 130.96 57.66 130.96 69.53 132.61 69.53 132.61 59.4 140.07 69.53 142.35 69.53 142.35 57.66 140.72 57.66"/>
  <polygon class="cls-1" points="140.72 57.66 140.72 67.79 133.23 57.66 130.96 57.66 130.96 69.53 132.61 69.53 132.61 59.4 140.07 69.53 142.35 69.53 142.35 57.66 140.72 57.66"/>
  <g>
    <path class="cls-1" d="M13.54,75.93h5.48c2.93,0,4.36,1.1,4.36,3.5s-1.43,3.5-4.36,3.5h-3.8v4.87h-1.68v-11.88Zm4.8,5.61c2.29,0,3.35-.41,3.35-2.06s-1.03-2.07-3.24-2.07h-3.24v4.13h3.13Z"/>
    <path class="cls-1" d="M13.54,75.93h5.48c2.93,0,4.36,1.1,4.36,3.5s-1.43,3.5-4.36,3.5h-3.8v4.87h-1.68v-11.88Zm4.8,5.61c2.29,0,3.35-.41,3.35-2.06s-1.03-2.07-3.24-2.07h-3.24v4.13h3.13Z"/>
  </g>
  <polygon class="cls-1" points="26.91 75.93 36.36 75.93 36.36 77.44 28.59 77.44 28.59 80.95 35.88 80.95 35.88 82.51 28.59 82.51 28.59 86.21 36.47 86.21 36.47 87.81 26.91 87.81 26.91 75.93"/>
  <polygon class="cls-1" points="26.91 75.93 36.36 75.93 36.36 77.44 28.59 77.44 28.59 80.95 35.88 80.95 35.88 82.51 28.59 82.51 28.59 86.21 36.47 86.21 36.47 87.81 26.91 87.81 26.91 75.93"/>
  <polygon class="cls-1" points="40.25 75.93 42.52 75.93 50.01 86.06 50.01 75.93 51.64 75.93 51.64 87.81 49.37 87.81 41.9 77.67 41.9 87.81 40.25 87.81 40.25 75.93"/>
  <polygon class="cls-1" points="40.25 75.93 42.52 75.93 50.01 86.06 50.01 75.93 51.64 75.93 51.64 87.81 49.37 87.81 41.9 77.67 41.9 87.81 40.25 87.81 40.25 75.93"/>
  <rect class="cls-1" x="56.14" y="75.93" width="1.68" height="11.88"/>
  <rect class="cls-1" x="56.14" y="75.93" width="1.68" height="11.88"/>
  <polygon class="cls-1" points="62.31 75.93 64.58 75.93 72.06 86.06 72.06 75.93 73.69 75.93 73.69 87.81 71.42 87.81 63.95 77.67 63.95 87.81 62.31 87.81 62.31 75.93"/>
  <polygon class="cls-1" points="62.31 75.93 64.58 75.93 72.06 86.06 72.06 75.93 73.69 75.93 73.69 87.81 71.42 87.81 63.95 77.67 63.95 87.81 62.31 87.81 62.31 75.93"/>
  <g>
    <path class="cls-1" d="M79.31,83.79c.07,1.88,1.28,2.76,3.73,2.76,2.14,0,3.29-.76,3.29-2.01,0-.99-.64-1.43-2.04-1.68l-2.94-.53c-2.32-.41-3.44-1.35-3.44-3.14,0-2.24,1.73-3.59,5.02-3.59,3.04,0,4.71,1.35,4.74,3.77h-1.68c-.12-1.53-1.14-2.22-3.19-2.22s-3.11,.69-3.11,1.89c0,.97,.67,1.33,2.11,1.61l2.62,.51c2.5,.48,3.69,1.23,3.69,3.22,0,2.3-1.81,3.72-5.15,3.72-3.55,0-5.36-1.46-5.41-4.33h1.78Z"/>
    <path class="cls-1" d="M79.31,83.79c.07,1.88,1.28,2.76,3.73,2.76,2.14,0,3.29-.76,3.29-2.01,0-.99-.64-1.43-2.04-1.68l-2.94-.53c-2.32-.41-3.44-1.35-3.44-3.14,0-2.24,1.73-3.59,5.02-3.59,3.04,0,4.71,1.35,4.74,3.77h-1.68c-.12-1.53-1.14-2.22-3.19-2.22s-3.11,.69-3.11,1.89c0,.97,.67,1.33,2.11,1.61l2.62,.51c2.5,.48,3.69,1.23,3.69,3.22,0,2.3-1.81,3.72-5.15,3.72-3.55,0-5.36-1.46-5.41-4.33h1.78Z"/>
    <path class="cls-1" d="M102.37,83.38c0,3.09-1.81,4.74-5.25,4.74s-5.25-1.64-5.25-4.74v-7.45h1.68v6.74c0,2.6,1.1,3.83,3.57,3.83s3.57-1.23,3.57-3.83v-6.74h1.68v7.45Z"/>
    <path class="cls-1" d="M102.37,83.38c0,3.09-1.81,4.74-5.25,4.74s-5.25-1.64-5.25-4.74v-7.45h1.68v6.74c0,2.6,1.1,3.83,3.57,3.83s3.57-1.23,3.57-3.83v-6.74h1.68v7.45Z"/>
  </g>
  <polygon class="cls-1" points="106.45 75.93 108.13 75.93 108.13 86.21 115.4 86.21 115.4 87.81 106.45 87.81 106.45 75.93"/>
  <polygon class="cls-1" points="106.45 75.93 108.13 75.93 108.13 86.21 115.4 86.21 115.4 87.81 106.45 87.81 106.45 75.93"/>
  <path class="cls-1" d="M123.11,75.93h1.76l5.28,11.88h-1.75l-1.51-3.39h-6.07l-1.58,3.39h-1.78l5.64-11.88Zm3.09,6.94l-2.27-5.07-2.4,5.07h4.67Z"/>
  <path class="cls-1" d="M123.11,75.93h1.76l5.28,11.88h-1.75l-1.51-3.39h-6.07l-1.58,3.39h-1.78l5.64-11.88Zm3.09,6.94l-2.27-5.07-2.4,5.07h4.67Z"/>
</svg>