<?xml version="1.0" encoding="UTF-8"?><svg id="a" xmlns="http://www.w3.org/2000/svg" width="212" height="95" viewBox="0 0 212 95"><path d="M24.19,38.36c1.41-.02,2.81-.07,4.22-.05.17,0,.4.32.5.53,1.08,2.28,2.13,4.57,3.19,6.85.06.12.12.24.22.45.23-.47.42-.87.61-1.27.94-2.02,1.89-4.03,2.8-6.06.19-.42.42-.56.87-.55,1.24.03,2.49.01,3.81.01-.07.2-.11.35-.17.48-2.07,4.47-4.15,8.94-6.21,13.41-.2.42-.41.64-.91.6-.72-.06-1.61.21-2.13-.12-.52-.33-.71-1.22-1.01-1.87-1.82-3.91-3.63-7.83-5.45-11.74-.09-.2-.23-.37-.35-.56v-.14Z" style="fill:#2d3b51;"/><path d="M49.49,48.54c1.1.85,2.36,1.15,3.67,1.12.48-.01,1.03-.22,1.42-.5.6-.43.5-1.1-.18-1.4-.55-.25-1.18-.32-1.75-.54-1.04-.39-2.12-.71-3.07-1.26-2.18-1.26-2.58-4.08-.92-5.99,1.16-1.33,2.66-1.97,4.39-2.01,1.96-.05,3.83.35,5.57,1.49-.66.96-1.3,1.88-1.85,2.67-1.06-.26-2.02-.5-2.98-.71-.24-.05-.5-.05-.75-.01-.57.1-1.08.35-1.15.99-.06.64.43.89.96,1.06,1.1.34,2.23.61,3.31,1.03,1.75.67,2.78,1.94,2.76,3.88-.02,1.95-.97,3.37-2.74,4.1-3.05,1.24-5.93.58-8.82-.9.75-1.07,1.43-2.03,2.12-3.02" style="fill:#2d3b51;"/><polygon points="70.3 52.73 70.3 41.86 66.39 41.86 66.39 38.33 78.16 38.33 78.16 41.84 74.26 41.84 74.26 52.73 70.3 52.73" style="fill:#2d3b51;"/><rect x="41.75" y="38.32" width="4.05" height="14.41" style="fill:#2d3b51;"/><rect x="166.72" y="38.08" width="4.03" height="14.91" style="fill:#2d3b51;"/><rect x="60.61" y="38.32" width="3.87" height="14.41" style="fill:#2d3b51;"/><path d="M178.84,47.73c.42-.97.83-1.91,1.3-2.98.47,1.07.87,1.99,1.31,2.98h-2.6ZM187.49,52.18c-2.09-4.51-4.2-9.02-6.26-13.55-.27-.58-.61-.64-1.15-.66-.54-.02-.79.16-1.01.65-2.1,4.59-4.23,9.16-6.35,13.73-.09.19-.16.4-.26.67,1.11,0,2.13-.08,3.14.02.99.11,1.54-.24,1.74-1.19.1-.48.39-.56.84-.55,1.3.03,2.59.04,3.89,0,.53-.02.81.15.93.65.04.15.14.29.18.44.13.5.42.66.94.65,1.25-.02,2.5.02,3.74.04v-.27c-.12-.21-.26-.41-.37-.63" style="fill:#2d3b51;"/><path d="M102.15,52.84h-4.16v-14.65h4.16v14.65ZM122.37,38c3.25-7.02,6.45-13.92,9.68-20.9h-61.64c.07.19.1.3.15.4,3.12,6.74,6.25,13.48,9.36,20.22.17.36.38.44.73.43,1.14-.02,2.27.02,3.41-.02.45-.02.68.11.87.54.58,1.33,1.21,2.64,1.82,3.96.54,1.16,1.08,2.32,1.66,3.57,1.11-2.39,2.21-4.63,3.18-6.93.38-.88.81-1.25,1.79-1.16,1.06.1,2.14.02,3.25.02-.05.17-.05.24-.08.3-2.16,4.68-4.33,9.36-6.52,14.03-.09.2-.43.38-.66.4-.78.05-1.56.02-2.44.02,4.77,10.3,9.48,20.46,14.26,30.77,4.88-10.54,9.69-20.92,14.56-31.43-4.2,2.2-9.21.5-11.05-3.5-1.76-3.83-.09-8.37,3.73-10.15,3.72-1.74,8.47-.32,10.04,3.02-1.12.67-2.23,1.34-3.34,2-1.73-2.04-3.96-2.35-5.66-.84-1.52,1.35-1.67,3.69-.32,5.21.68.77,1.54,1.2,2.56,1.25,1.46.07,2.57-.59,3.4-1.77.77.45,1.48.88,2.23,1.32.13-.25.23-.45.32-.65.91-1.96,1.8-3.92,2.73-5.87.1-.21.34-.5.52-.51,1.01-.05,2.03-.02,3.14-.02v11.28h4.13v-11.29h4.08v-3.68h-9.93Z" style="fill:#2d3b51;"/><path d="M141.39,49.28c-2.07,0-3.79-1.68-3.82-3.73-.02-2.07,1.72-3.79,3.83-3.79,2.06,0,3.78,1.72,3.78,3.76,0,2.04-1.73,3.75-3.79,3.76M141.41,37.67c-4.59,0-8.15,3.4-8.16,7.83-.01,4.42,3.54,7.86,8.13,7.87,4.53,0,8.13-3.44,8.14-7.8.01-4.44-3.53-7.89-8.1-7.9" style="fill:#2d3b51;"/><path d="M159.96,43.63c-.1.9-.75,1.57-1.57,1.6-.8.02-1.59,0-2.39,0-.09,0-.17-.03-.31-.06v-3.43c1.02,0,2.02-.07,3,.02.77.07,1.35,1.06,1.26,1.86M161.58,48.01c.19-.16.35-.28.51-.42,1.86-1.57,2.52-3.65,1.83-5.79-.69-2.13-2.61-3.66-4.96-3.74-2.43-.09-4.86-.02-7.35-.02v14.93h4.11v-4.01c.46,0,.85.03,1.23,0,.51-.05.77.13.97.61.42,1.03.91,2.03,1.4,3.03.09.17.29.41.44.42,1.42.03,2.84.02,4.37.02-.46-.92-.87-1.72-1.28-2.53-.42-.83-.84-1.65-1.27-2.49" style="fill:#2d3b51;"/></svg>