<?xml version="1.0" encoding="UTF-8"?><svg id="a" xmlns="http://www.w3.org/2000/svg" width="212" height="95" viewBox="0 0 212 95"><polygon points="78.98 45.9 78.95 45.91 78.9 45.95 78.66 46.05 78.62 46.34 78.82 46.44 79.06 46.53 79.16 46.48 79.21 46.53 79.31 46.55 79.44 46.44 79.59 46.35 79.71 46.19 79.73 46.15 79.75 46.12 79.68 46.06 79.32 45.98 78.98 45.9" style="fill:#2d3b51;"/><polygon points="60.47 46.66 60.44 46.71 60.47 46.7 60.47 46.66" style="fill:#2d3b51;"/><polygon points="96.79 48.54 96.78 48.57 96.79 48.54 96.79 48.54" style="fill:#2d3b51;"/><path d="M61.28,52h.06s.06.07.06.07l.06-.02-.02-.03-.02-.02.08.02c.26.07.48.07.71-.08l.17-.02c.04-.06.15-.1.31-.12.16-.03.28-.06.36-.09v.03l.1-.1.07-.05.16-.05.11-.16.07.07h.07l.07-.02-.03-.02-.02-.02.2-.16.23-.15.02.03h.02v-.02l-.02-.03h.07l.08-.02.05-.05-.02.05.16-.13.28-.18.28-.18-.02.07.08-.1.05-.08.04-.02.07-.03-.02.06v.06l.06-.11.07-.06-.02.03v.02l.25-.23.29-.2-.02-.11.06.07.03-.02v-.03s.02-.02.02-.02l-.02.02h-.03s.18-.15.18-.15c.32-.2.34-.28.38-.64l-.04-.06.04-.07-.07-.13-.09-.03-.06.02c-.14.09-.27.21-.37.36-.11.15-.23.27-.38.36l-.15.08-.29.28v-.03s.02-.03.02-.03l-.06.04v.04s-.34.23-.34.23l-.33.21-.24.13-.17.09-.1.04-.26.19-.29.09h-.03s-.02-.05-.02-.05l-.02.07-.03.07-.15.05.02-.02.03-.02-.16.05-.02.02-.02.03h-.03l-.02.02h-.07v.02h-.02l-.03-.02c-.14.09-.29.15-.45.18-.16.03-.32.07-.5.11l-.16.05-.11.02-.13-.02-.23-.05-.06-.02-.06-.02-.07-.11-.06-.07-.07-.08-.09-.18c-.05-.12-.09-.27-.11-.46-.02-.18-.03-.37-.02-.57,0-.2.02-.39.05-.58.03-.19.07-.35.12-.48l.03-.12-.02-.03v-.02s.05-.09.05-.09c.18-.12.32-.23.42-.32l.27-.24.13-.13.11-.15.1-.13.1-.1v-.1s.07-.05.07-.05l.13-.14.13-.16c.28-.42.63-.83.95-1.23l.04-.05.11-.11c.14-.23.29-.45.46-.65.16-.21.28-.45.34-.72l.13-.22.1-.25.02-.06.02-.07.05-.23.04-.08.03-.07.02-.1v-.15l-.03-.07.03-.07-.03-.03c-.64-.71-1.04-.45-1.63.1l-.15.13c-.15.14-.27.26-.36.34l-.22.24c-.29.41-.96,1.27-1.11,1.72l-.07.05c-.09.27-.21.51-.38.72v.06s.07-.06.07-.06v.03l-.05.08-.03.07-.15.29-.09.26c-.04.06-.06.16-.07.31l-.04.1-.04.13h-.02v.14l-.05.15h-.05v.09s0,.06,0,.06l-.1.28v.06s0,.06,0,.06l-.03.03-.02.02v.06s.02.07.02.07l-.02.03-.23.2-.14.07-.28.27v-.05s0-.05,0-.05l-.04.06v.06s-.34.2-.34.2l-.32.24-.02-.02-.03-.02-.11.19-.29.12-.02.02v-.02s-.04.06-.04.06l-.03.06c-.19.09-.36.19-.53.31-.17.12-.35.22-.53.31l-.05.05h-.05s-.03.02-.03.02l-.02.03v-.02h-.02l-.03-.02c-.14.09-.29.16-.45.22-.16.06-.32.12-.5.19l-.3.09c-.08,0-.23,0-.43-.04l-.05-.02h-.03l-.02-.02-.04-.23-.03.02-.06.02s-.05-.1-.1-.26c-.07-.28-.09-.57-.07-.86.02-.29.05-.55.11-.77v-.11l.07-.05c.18-.12.32-.24.42-.37l.25-.3.09-.07.07-.1.14-.18.15-.16.02-.07.06-.04.11-.16.11-.15.32-.42.33-.39.06-.13.11-.08c.1-.13.18-.27.25-.42.07-.15.16-.29.27-.41.14-.23.3-.45.47-.65.17-.21.29-.44.36-.7l.13-.22.1-.25.11-.13.03-.24.13-.2.03-.1v-.07s0-.08,0-.08l-.05-.07v-.07s-.07-.04-.07-.04l-.16-.14-.2-.09c-.26-.18-.52-.2-.77-.05l-.23.08-.18.11c-.32.21-.56.44-.75.71-.19.27-.37.53-.56.79l-.16.24-.13.23-.23.31-.16.31-.02.09-.07.06c-.08.24-.2.48-.38.72-.01.15-.07.3-.18.44v.05l-.03.07-.03.06-.08.15c-.01.15-.05.29-.13.42-.08.13-.12.27-.13.43l-.03.03-.03.07h-.02l.02.15-.03.16h-.07l.02.07-.02.06-.1.29.02.05-.02.05-.03.03-.02.02v.06s.02.07.02.07l-.04.33h0s0,.04,0,.04v.02s0-.02,0-.02v-.04s-.36.31-.36.31c-.16.14-.27.2-.33.2v-.02l-.03-.02-.24.21-.27.2c-.26.14-.52.29-.77.43-.25.15-.57.24-.95.28-.07-.22-.06-.47.02-.77.08-.29.14-.57.18-.82.09-.15.17-.34.24-.57.07-.23.1-.44.07-.64l-.03-.07-.05-.07h-.07s-.04.02-.04.02l-.27-.16-.3-.07-.07.05-.08.07-.21.1-.21.15c-.07-.19-.19-.34-.36-.42-.17-.09-.37-.14-.6-.16l-.16-.04-.18.04-.24.13-.2.13c-.21.21-.41.42-.6.63-.19.21-.38.44-.56.69-.1.15-.2.32-.31.5-.11.18-.19.37-.25.58l-.1.31-.03.29c.01.15.03.27.06.34l.22.2.12.11.15.07.38.13.36-.11.34-.22.29-.23.03-.04v-.03c.17-.16.34-.35.53-.57l.2-.18.18-.25c.14-.15.28-.31.42-.48.14-.17.29-.31.44-.43-.06.2-.1.4-.13.6-.03.21-.05.41-.04.6,0,.19.04.36.09.51.06.15.14.26.26.33l.1.15.16.08.11.11.33-.02.33-.07h.15l.21-.03.28-.1.32-.2.21-.1.03.02.15-.12.13-.12.11-.08.12-.11.09-.02.07-.08v.02h.03l.25-.24.24-.2-.02.05.03-.04v-.56h0s0,0,0,0v.56h.01s-.02.12-.01.25l-.02.1c.03.32.11.6.24.86.13.25.3.48.51.68l.12.04.07.06h.07s.03.08.03.08l.07-.02-.02-.03-.02-.02h.08c.2.06.38.07.55.03.17-.04.32-.07.45-.09l.2-.1.22-.03.15-.08.27-.11.29-.11.19-.08h.02l.09-.07.07-.06.14-.05.11-.16h.06s.02.02.02.02h.05s.07-.02.07-.02l-.03-.02-.02-.02.18-.17.21-.16.03.03h.02s0-.02,0-.02v-.04s.06,0,.06,0l.07-.02.07-.05-.02.05.16-.13.28-.17.28-.17-.03.06v.02s.08-.1.08-.1l.04-.1h.06s.07-.02.07-.02l-.02.05v.05s.06-.09.06-.09l.07-.04v.03l.11-.12.16-.12v.08l-.02.06-.03.07.03.21c.04.3.08.59.11.86.03.27.12.53.28.77l.15.15.3.16.32.11.24.04ZM64.06,50.92l.02.07-.02.03v-.04s0-.06,0-.06ZM63.95,51.01h-.02s.03,0,.03,0h0ZM63.86,51.01h.07s.01.02.01.02l-.02.03-.04.02v-.05l-.03.05.02-.07ZM63.58,51.13l.1-.1-.04.08-.09.07-.02-.03.05-.02ZM61.17,47.17l.1-.21c.46-1.36,1.33-2.57,2.28-3.65l.28-.2c.03.15-.01.28-.13.38-.03.15-.08.3-.15.43l-.21.4c-.12.25-.26.5-.43.75-.17.25-.34.49-.51.72l-.12.21c-.3.37-.56.78-.86,1.16l-.28.37-.02-.11.05-.23ZM55.21,47.28l.11-.21c.11-.58.51-1.07.74-1.61l.08-.02c.15-.32.3-.63.46-.93.15-.3.37-.58.65-.82l.2-.24.16-.27.23-.24.28-.19c.03.16-.01.28-.13.36-.03.15-.08.3-.15.43l-.21.42c-.12.25-.26.49-.43.73-.17.23-.34.46-.51.69l-.12.23-.15.23-.02.02c-.21.28-.4.56-.59.82-.19.27-.39.54-.62.82h-.02l.06-.23ZM49.88,48.11l-.08.07-.08.09c-.28.35-.57.69-.86,1.02-.29.33-.59.65-.91.95l-.24.18-.28.16.08-.32.11-.3h.02s.03-.02.03-.02l.08-.2.08-.15c.09-.17.19-.36.3-.55.11-.19.23-.36.35-.51l.23-.26.08-.12.07-.09.08-.06.08-.07.26-.29c.15-.08.26-.07.32.03l.12.36.15.03v.03ZM54.73,48.9l.02-.05-.02.05h0ZM54.96,48.52h0s0,.03,0,.03h0s0-.03,0-.03ZM54.96,48.55l.03-.05.03-.07-.03.07-.03.05ZM55.01,48.33h-.07s.07,0,.07,0h0ZM54.9,48.33h-.06s-.04-.02-.08,0c.04-.02.07-.02.08,0h.06ZM54.22,48.18l.02.08-.02-.04v-.04ZM54.59,48.44c.06-.04.1-.06.13-.08-.04.02-.08.04-.13.09-.14.1-.29.23-.45.36.16-.14.31-.26.45-.37ZM54.66,48.88l-.09.11.09-.11h0ZM54.04,49.52l.04-.02s-.04.02-.05.03h0ZM54.23,49.4l.18-.2.06-.08.08-.11c-.13.21-.24.32-.33.39ZM57.98,50.43l-.07.07-.05-.03-.1.11-.13.05-.05.05h-.04s-.03,0-.03,0v-.04l.07.02v-.02s-.02-.02-.02-.02h.07l.19-.17.19-.09-.02.08ZM58.06,50.33l-.04.02.08-.05-.04.03ZM58.28,50.32l-.04.05-.04.02v-.07l-.03.07-.02-.05.08-.03h.05v.02ZM58.36,50.3v-.03s0-.05,0-.05l.02.05-.02.03ZM58.66,50.13l-.16.09.02-.07.05-.05h.02s0,.02,0,.02l.2-.13-.13.14ZM58.9,50.01h-.06s.04-.04.04-.04l.06-.03-.04.07ZM59.38,49.63l-.07.05.04-.08.12-.03-.09.07ZM59.72,49.45l.07-.15.02.12-.08.03ZM60.17,48.11v-.02s.02.07.02.07l-.02-.04Z" style="fill:#2d3b51;"/><path d="M78.7,51.21l.39-.18.25-.11.19-.18.13-.06.08-.07h.03l.02.02.02-.07.12-.05.09-.07.08-.03.06-.05.06.02.09-.08.07-.08v.02s0,.02,0,.02l.08-.03.05-.07h-.05l.03-.04h.03s0,.06,0,.06l.18-.16.07-.11h.05v-.06h.05s0-.03,0-.03v-.02s.04.02.04.02l.08-.07c-.04.15-.09.3-.13.46l-.03.04-.03.06v.15s-.03.16-.03.16c0,.15.03.24.1.25l.28.09v.07l.32.05.24-.02.13-.1.13-.07c.33-.46.69-.87,1.09-1.25.4-.37.78-.76,1.15-1.15l.23-.17.23-.17c-.03.39-.06.72-.07,1-.01.27.02.58.08.91l.06.05.02.11.15.18.15.2-.02-.04.03-.03.05.05.02.05-.05.02c.12.07.25.12.4.18.15.05.3.09.47.1l.39.13.33-.08-.02-.04-.02-.02h.08s.05,0,.05,0v.07l.1-.06.11-.11v.07s0,.02,0,.02l.09-.03.07-.08-.04-.02-.04.02.07-.07.08-.05h0s.02,0,.02,0v-.02h0s0,.02,0,.02l.02-.03h.02l.07.03.05-.07h.05s.26-.22.26-.22l-.23.28.13-.04.06-.12.05-.11h.07s-.02.09-.02.09l-.06.02.06.02v.03l.03-.02h.03l-.02-.03h-.03,0s.2-.1.2-.1l.15-.11.07-.11.11-.11-.07.1v.11l.15-.13.16-.19.13-.14.06.02.08-.07.03-.1c.06-.14.1-.28.15-.43l.11-.16-.1.16c-.04.15-.09.3-.15.43l-.03.1.8-.68h0s-.8.68-.8.68l-.08.33c-.05.18-.1.37-.15.55-.04.18-.04.38.02.6l.1.13.08.16c.43.35,1.17.36,1.52-.16l.06-.06.04-.02.03-.04.02-.04h.03s0-.02,0-.02l.16-.24.19-.21.14-.19v-.05l.05-.06.1-.02.11-.1.08-.33.05.02h.03l.05-.16.08-.07.02.03.02.03.02-.19.08-.14.05-.02.02-.13.06-.02v-.08s.07-.02.07-.02l.04-.03h.03s.03.03.03.03l.1-.28.02.04h.03s-.02-.05-.02-.05l.02-.06.03.07-.02-.08.02-.08v.03s.02.02.02.02l.05-.13v.03s.03.02.03.02l.02-.11.07-.07.03.05.07-.24.15-.21c-.02.1-.04.22-.07.38-.02.15-.04.31-.07.48-.02.17-.04.33-.07.48-.02.15-.04.28-.05.38v.16c.02.25.09.47.2.65.11.19.26.34.43.47h.2l.18.13.1-.07v.05l.02.05.12-.05.17-.05.03.05.05-.02-.07.07-.07.03h.21s.15-.08.15-.08l.03.02.03-.02.11-.07.09-.07h.07l.1-.05-.02.05.02.03.39-.25.38-.22.03-.03h0s.16-.11.16-.11h.02s.03,0,.03,0l.03-.07.07-.09.15-.06.13-.16.05-.03.17-.16.17-.15-.12.16-.11.13.31-.29.23-.27.02-.1.16-.16.15-.18h0s0,0,0,0h0s0,0,0,0h0s.05-.03.05-.03c.5-.46,1.06-.88,1.54-1.39l.16-.15c.09.17.14.38.15.62.01.24,0,.45-.05.64-.15.07-.29.14-.41.23l-.39.21-.25.18-.26.16-.07.05-.1.07-.1.11-.04.02-.02.02-.03.09-.03.06-.02.02-.13.11-.11.03c-.03.13-.13.23-.28.31l.04-.09.06-.07-.17.19-.12.2-.1.05-.11.02-.08.27-.13.16v-.05s.02-.05.02-.05c-.07.05-.1.16-.1.33l-.11.04-.04.09v.03h.03v.07s-.02.07-.02.07l.07-.03.07-.05v.08s0,.05,0,.05h.04s.04.02.04.02c.09.13.2.24.35.32.15.08.33.12.55.1l.03-.02.02-.02.16.02.13-.02v.03l.02-.05.11-.03.11.05h-.07s-.03.03-.03.03h.06l.04.02c.23-.07.42-.18.58-.32.16-.14.31-.28.46-.45v-.03s-.02,0-.02,0l.15-.2.17-.2v-.11h.05s.03-.05.03-.05l.02-.07.08-.06.02-.09v-.06l.15-.19.08-.19h-.02s.02-.07.02-.07l.1-.07.11-.29c.05-.07.08-.18.11-.34l.23-.19c.7-.37,1.47-.62,2.23-.87l.15.02.05-.08.3-.06.27-.07.13-.1.18-.03-.03-.02-.02-.03h.11s.15-.03.15-.03v-.07s-.05-.07-.05-.07l-.02.02-.03-.02-.02-.02v-.02s0-.04,0-.04l-.07-.03-.23-.05-.11.02-.14-.02-.24.03h-.29l-.03.08v-.05l-.08.06h-.08s-.23.11-.23.11l-.25.06h-.06s-.04-.02-.04-.02l-.03.03c-.07,0-.18.02-.33.07-.16.05-.33.1-.51.16-.18.06-.35.12-.51.17-.16.06-.28.08-.34.08l-.02-.24-.05-.3-.06-.28-.08-.2-.19-.26c-.07-.06-.18-.08-.33-.08-.09-.07-.22-.1-.39-.07-.18.03-.31.15-.41.37l-.22.25-.27.32-.1.07-.13.09-.04.08-.04.08-.15.1-.15.08-.06.1h0s-.01.03-.01.03h0s0,0,0,0h0s0,.03,0,.03h0s0,0,0,0h0s-.06.11-.06.11l-.18.15h-.02s.02,0,.02,0l.18-.15.06-.12-.04-.03-.05.03-.2.18-.18.18h-.03s-.03.02-.03.02l-.11.15-.15.15v-.08l-.13.14-.15.09-.02-.02c-.12.15-.27.29-.45.42-.18.13-.35.24-.51.35-.23.13-.46.26-.69.39-.23.13-.49.22-.77.26l-.15-.32c-.13-.42.1-1.47.17-1.93l.03-.08c.04-.15.08-.29.12-.42.04-.13.06-.28.07-.46l.06-.07.06-.09c.02-.19.07-.35.15-.49.08-.14.14-.3.18-.47h.03s.03.02.03.02l.07-.23.07-.23h.07l.02-.12c.13-.17.14-.39.26-.56v-.05l.04-.02.02-.02.05-.13.08-.15.17-.28.17-.27.08-.14v-.03l.2-.31.1-.1v-.03s-.02-.02-.02-.02l.08-.08.05-.21.07-.07.03-.07-.04-.17-.12-.07-.02-.04-.04-.04-.29-.07-.28-.05-.13-.05-.07.1-.07.09.02.05.02.05-.07.05v.05s0,.03,0,.03c-.07.12-.15.28-.25.47s-.21.4-.33.6c-.11.21-.22.4-.33.59-.1.18-.19.33-.27.44l-.03.07h-.05l-.15.29-.13.26-.16.23-.11.15-.1.19.03-.1.02-.07-.07.11-.02.09h-.03s-.02-.03-.02-.03l-.11.24-.16.24-.13.23h-.02s-.02-.02-.02-.02l-.02.05-.13.18-.08.11-.07-.05-.11-.08h-.05s-.05-.02-.05-.02l-.05-.03-.03-.04-.19-.06-.14-.06h-.34s-.34,0-.34,0c-.15-.02-.26.02-.34.13l-.22.24-.28.39c-.09.12-.18.25-.28.41h0s0,.01,0,.01h0s-.19.05-.19.05v.07s-.05.05-.05.05l-.08.03-.12.04-.07.09-.15.09-.15.11-.2.15-.2.11-.08.13-.13.11.02-.08-.02.03-.1.07-.06.09h-.11s-.02.07-.02.07l-.02-.02-.02-.02-.02.06-.03.06-.23.03-.26.13h-.09s-.06.05-.06.05l-.31.17-.25.08-.27.02-.36-.04c-.09-.07-.16-.23-.21-.49-.06-.26-.06-.62,0-1.09l.02-.17.02-.09c.05-.1.09-.23.1-.39,0-.16.02-.29.03-.39l-.07-.16-.1-.07v-.03l-.29-.07-.24-.07-.2.09-.2.07c-.13.11-.28.21-.43.31-.16.1-.31.21-.46.33-.15.11-.3.23-.43.36-.14.13-.28.24-.43.34-.13.16-.27.34-.42.53-.15.19-.29.36-.43.51l.04-.07.03-.1c.05-.15.12-.32.19-.51.07-.18.13-.35.19-.49.09-.21.17-.4.26-.6.09-.19.14-.4.15-.63l-.07-.07-.06-.07-.28-.1-.21-.07-.23.02c-.17.5-.37,1-.59,1.49l-.04.1h0c.22-.18.47-.39.7-.58-.23.19-.48.4-.7.57h0s0,0,0,0l-.25.2-.16.11-.16.11-.44.34-.52.39-.13.08-.44.33c-.21.11-.4.21-.6.32-.19.1-.41.19-.66.25-.09-.16-.11-.3-.07-.42.04-.12.07-.27.11-.44.07-.18.13-.35.2-.51.07-.15.14-.32.23-.49l.11-.25.06-.19.04-.05.04-.05.16-.38.16-.37v-.07s.03-.06.03-.06l-.02-.12-.1-.09-.37-.11-.22.12h-.03l-.08.21-.15.2c-.11.22-.23.44-.37.68-.14.23-.25.46-.33.66l-.07.11-.06.13-.04.05-.02.08-.09.11h0s.02,0,.02,0h-.02s0,0,0,0h-.05s-.1-.03-.1-.03l-.04.07.06-.03-.05.05-.11.03-.06.05-.06.07-.02-.02v.02s-.06.04-.06.04l-.05.04c-.32.12-.63.24-.93.37-.31.13-.67.19-1.09.19-.15,0-.31-.02-.47-.07-.16-.04-.29-.12-.37-.24l-.07-.11-.08-.11-.03-.1.02-.13-.05-.1.1-.1.11-.1.03-.05c.22-.2.45-.39.69-.57.24-.18.48-.37.72-.57l.18-.11.16-.13.16-.16.02-.07.07-.05.06-.05-.03-.24-.11-.2-.22-.1-.22-.07-.2.11-.07.02-.07.03c-.15.08-.3.18-.46.29-.15.12-.29.23-.42.34l-.28.21-.15.16-.13.17c-.17.18-.35.37-.53.56-.18.19-.35.39-.5.6.09-.41.21-.82.36-1.22.15-.4.29-.8.41-1.21l.15-.3.16-.28c.09-.25.18-.5.28-.74.1-.25.19-.49.27-.73l.11-.2.11-.18.03-.15.03-.18.03-.02h.03s.12-.4.12-.4l.15-.34.04-.02.02-.02.02-.1.2-.28.21-.27v-.36l-.09-.1-.14-.06-.06-.06h-.04s-.1-.02-.1-.02l-.1-.03h-.06s-.08.02-.08.02h-.03l-.02-.02h-.13s-.11-.02-.11-.02c-.02.16-.06.3-.12.42l-.19.38c-.11.25-.21.5-.3.75s-.19.51-.3.78l-.03.03c-.15.41-.32.81-.51,1.19-.18.38-.34.79-.47,1.24l-.04.08-.04.11-.08.15c-.11.33-.21.65-.31.98-.1.33-.2.66-.29.99-.07.24-.14.46-.23.68-.09.21-.14.44-.16.68-.07.07-.1.17-.11.32,0,.15.02.26.07.35l.29.13.28.15.36-.2.07-.29.16-.25.02-.07.03-.07.08-.08.24-.39.25-.34.16.31.26.23c.2.15.45.27.75.36.15.06.31.1.48.12s.34.04.51.03l.15-.03.14-.06.31-.05.29-.11.07-.03.07-.03.09-.03.15-.03.05-.04.05-.06.11-.03.07.02.03-.06.07-.04.17-.05.03-.02h0s0,0,0,0v.05s-.07.06-.07.06l.03.09.03-.13v.13s-.03.13-.03.13l.05-.03v.03s-.02.02-.02.02l.05.08.05.05.12.2.19.2.24.07.32.05c.16.02.32.02.46,0l.39-.07ZM97.33,52.19l.06-.08.07-.03-.13.11ZM97.92,50.56c-.17.25-.37.47-.59.65l-.02.04v.07l-.35.15-.37.14-.02-.04-.03-.04.14-.24.17-.19.05-.03.13-.11v-.02s0-.03,0-.03l.03-.03.28-.29.28-.26v-.03s.02-.02.02-.02l.37-.28.34-.28.02.02c-.13.29-.28.56-.46.81ZM99.08,50.17v.02s-.03.04-.03.04l.03-.06ZM96.87,49.1l.04-.04.14-.2-.14.2-.04.04ZM97.19,48.54h-.02s.02-.06.02-.06h0s-.02.04-.02.04h.02ZM97,48.37l.04.05v.08s.05,0,.05,0h-.05s0-.08,0-.08l-.04-.05-.06.1v.03s0-.03,0-.03l.06-.1ZM96.85,48.56l.06.04h0s-.06-.04-.06-.04l-.04-.02.05.02ZM96.48,48.91l-.02.05h0s.02-.05.02-.05ZM96.3,49.75l.06-.09h.06s-.11.09-.11.09l-.02.03-.03.03-.02-.03.07-.03ZM95.71,50.1v.06s-.03.06-.03.06v-.07s.03-.05.03-.05ZM95.45,50.19l.02-.03-.03.08.02-.05ZM95.45,50.5l-.05.03h-.03l.08-.03ZM95.31,50.57l-.02.02h.01s0-.02,0-.02ZM95.27,50.59l-.02.03.02-.03h0ZM92.98,46.36l.07-.12-.03.13-.11.11.07-.12ZM89.11,49.21h0s-.06.05-.06.05h-.01s.07-.05.07-.05ZM89.06,49.26l.05-.05h0s.03-.03.03-.03l-.09.08ZM89.76,48.23l-.02.02.02-.02h0ZM89.73,48.28l.06.05-.06-.05h0ZM89.78,48.72v-.02s0,.02,0,.02l-.07.13.07-.13ZM90.43,48.42l.16-.32.23-.19c.05-.08.16-.12.31-.11l.21.21.15.28-.02.02-.14.22-.12.22c-.16.18-.31.38-.45.59-.14.21-.27.41-.4.62-.13.22-.28.42-.43.6-.16.18-.32.36-.48.53l-.03-.1-.03-.11.07-.38.14-.32v-.09l.02-.07.04-.06v-.09c.43-.63.25-.79.77-1.44ZM89.74,48.21h0s0,0,0,0l-.03-.02h0s.03.02.03.02ZM89.68,48.25l.02.05v.03h0v-.03l-.02-.05h0ZM89.63,48.29l-.02.06h0s.02-.06.02-.06h0ZM88.6,49.48l-.03.03-.08.03.11-.07ZM87.04,50.74v.08l-.04-.04.04-.04ZM81.08,49.66l-.04.03.03-.03.08-.06-.08.06ZM81.92,48.85l-.02.06.02-.06h0s0,0,0,0ZM81.87,48.94l.05-.09-.05.1h0ZM82.22,48.6h0s0,.04,0,.04h.01s-.01,0-.01,0v-.04ZM82.24,48.67h0s.03-.09.03-.09l.03-.06h0s-.03.06-.03.06l-.03.09ZM82.39,48.53l-.03.06v-.03s0,0,0,0h0s0,.03,0,.03l.03-.06.05-.04v-.09s0,.09,0,.09l-.05.04ZM82.47,48.08h0s-.06.09-.06.09l-.08.07h0s.08-.07.08-.07l.07-.09ZM82.36,48l.03.05-.03-.06-.06-.08h0s.06.08.06.08ZM82.1,48.7l-.05.05-.07.13h0s.06-.13.06-.13l.05-.05ZM81.95,48.78l-.07.04.07-.05h0ZM81.85,48.85v.04s0-.04,0-.04h0ZM81.86,48.99l-.05.09-.07.11h0s.07-.11.07-.11l.06-.09ZM81.73,49.17h0s0,0,0,0h0ZM81.63,49.21l-.04.02-.07.05.07-.05.04-.02ZM80.27,50.2v.06l-.07.02.07-.08ZM77.74,49.25h.02s0,0,0,0h-.01s-.05,0-.05,0h0s.05,0,.05,0ZM77.71,49.22h0s0,0,0,0h0s0-.02,0-.02v.02ZM77.68,49.24h0s0,0,0,0h0ZM77.66,49.26l-.03.06h0s.03-.06.03-.06ZM77.54,49.27l-.02-.03-.08.04.08-.04v.03ZM77.27,50.14h0s.07-.08.07-.08l.04-.02-.04.02-.06.08ZM77.02,49.89h0s-.02.03-.02.03h0s0,0,0,0l.04-.12h0s-.04.12-.04.12l.02-.03ZM77.04,49.86v-.02s0,.02,0,.02h0ZM77.06,49.74h0s0,.02,0,.02l.02-.04h0s0,0,0,0l-.02.05h0s0,0,0,0h0s0-.02,0-.02h0ZM76.97,50.02l.03-.07-.03.07-.06.13h0s.07-.13.07-.13ZM76.93,50.15h.03s0,0,0,0h-.03ZM77.02,50.25v.02s0-.02,0-.02h-.01s.02,0,.02,0ZM76.99,50.3h0s.01,0,.01,0l.04-.03-.04.03h-.02ZM77.27,50.19h-.1s0,0,0,0h.1l.08-.07-.07.07ZM77.66,49.79h-.03s-.03-.02-.03-.02l-.04.04.04-.04h.03s.03.02.03.02l.06-.11.02-.04-.02.03-.06.11ZM77.79,49.58v-.04s0,.04,0,.04h0Z" style="fill:#2d3b51;"/><polygon points="57.58 50.67 57.6 50.66 57.58 50.66 57.58 50.67" style="fill:#2d3b51;"/><polygon points="88.02 49.42 87.97 49.47 87.97 49.47 88.02 49.42" style="fill:#2d3b51;"/><path d="M130.58,49.13v.05s-.02.05-.02.05h-.03l.02.03.03.02-.02-.05.05.03.05-.06.02.02h.02s.07.1.07.1l.05.09.11.12.11.06h.08l.04.08.11.05.1.02h.11s.02.02.02.02h.03s.17.03.17.03l.34-.03.35-.07.2-.08.14-.04.22-.09.1-.03.1-.07.1-.07.07-.03.05-.11-.05.11h0s-.11.26-.11.26c-.08.21-.12.42-.15.65l-.06.33.09.25v.11s.07.1.07.1c.06.2.18.34.36.44l.12.05.11.08.08-.02.08.02-.02.02c.39.03.74,0,1.04-.08l.1-.07h.08l.2-.11.2-.16.06-.04.09-.06.17-.23.15-.26v-.07s.02.02.02.02l.07-.11.04-.05.05-.05.07-.11c.05-.04.16-.08.32-.11.16-.03.32-.05.5-.07l.15-.07.13-.07h.16s.08-.03.08-.03l.22-.09.19-.08.16-.09.62-.29.03-.02c.08-.24.17-.47.27-.69l.07-.17-.08.06c-.46.26-1.25.55-1.76.72l-.21.08c-.26.07-.42.09-.47.08.1-.2.16-.42.2-.66.03-.25.05-.47.05-.67s-.01-.36-.03-.47l-.05-.09-.11-.03.1.05.02.05h-.03l-.08-.05v-.05l-.2-.16-.2-.11-.07.05v-.08l-.1-.06-.16.02h-.03s0,0,0,0l-.05-.04-.1-.04-.03.02-.03-.02h-.05l-.06-.07-.06.02-.08.03-.15-.02-.29.18-.28.16-.28.26h0s-.05.05-.05.05c-.11.12-.23.25-.33.41-.11.15-.2.3-.28.44l-.06.1v.02s0-.02,0-.02l.06-.11c.08-.14.17-.29.28-.44.11-.15.22-.29.33-.41l.05-.05h-.22s-.16.1-.16.1l-.15.33-.24.29-.19.15-.09.1-.08.09-.16.11-.26.12-.33.12-.18.07-.27.07-.25.04-.11-.02-.16-.03-.15-.05-.34-.46-.03-.19.11-.23.15-.24.07-.22h.03l.02-.1-.04-.11.05-.03-.07-.06-.04-.06.07-.02.07-.03-.29-.11-.27-.11-.02.05-.04-.05h-.04l.02.02v.02l-.03-.02h0l-.1.02.06-.04h.02s-.08.02-.08.02l-.07.07-.07.02v.04s-.02.03-.02.03v-.03l-.07.09-.11.06c-.06.2-.1.35-.15.46-.04.11-.04.25.02.4v-.04s.03-.04.03-.04l-.1.25.02.12-.04.07-.07.06-.26.34v-.02l-.03.04-.03.02-.11.19-.13.19-.07.06h0v.03l-.07.07v-.03.04s-.05.02-.05.02l-.11.13v-.07.06s-.03.04-.03.04l-.02-.03-.03.08-.07-.02c-.13.14-.27.28-.42.4-.15.13-.32.21-.53.27l-.03-.15h-.04s0-.07,0-.07l-.02-.02h-.02v-.25s.03-.24.03-.24l-.02-.02.03-.08-.02-.07c.11-.25.18-.52.23-.8.05-.15.12-.32.19-.5.07-.18.06-.34-.04-.46l-.38-.03-.39-.06-.14.18-.11.21-.02.06-.03.05-.08.02-.02.14-.04.11c-.18.16-.36.35-.53.55-.17.2-.35.38-.55.53l-.24.24-.25.22-.37.31-.37.28v-.25s.07-.24.07-.24l.05-.03.03-.03c.08-.21.14-.41.2-.61.06-.2.11-.41.15-.63l.16-.33c.11-.56.37-.84.41-1.44l.13-.13-.37-.16c-.13-.03-.28-.04-.47-.03l-.18.08v.07s.02.04.02.04c-.11.22-.2.45-.29.69-.08.24-.17.49-.25.74l-.03.11-.04.11c-.06.18-.12.39-.2.61-.08.22-.15.45-.21.68-.05.23-.08.45-.09.66,0,.21.04.4.14.56v.02s-.02.03-.02.03c.1.1.23.15.4.15.17,0,.32,0,.46,0l.03.05v-.05c.18-.09.37-.19.55-.31.18-.12.34-.26.48-.41h.03l.07-.11.1-.05.21-.25.2-.27h.02s.04,0,.04,0v-.06s-.02-.09-.02-.09h.03s.05-.02.05-.02l.08-.15-.02.05.08-.11.13-.13v.27l.03.25-.02.03-.02.03.02.1.03.11v.13s.07.1.07.1l-.03.05.04.08.06.1.02-.03.02.05-.03.02.03.08.05.13.11.07.09.07-.11-.11-.07-.16.11.1.09.15.14.08.2.02h-.07s.02-.03.02-.03l.02-.03v-.02s-.12.06-.12.06l-.1-.06h.18l.03-.02h-.11l-.07-.03.09-.02.09-.02.07.08.07.07-.05.02h-.05l.05.03h.07s.03.02.03.02l.06.02.15-.02h.09v.05l.21-.02.17-.02.15-.12.15-.12v.02h.02l.26-.23.25-.26.08-.04.08-.04.16-.2.12-.13.1-.13c.16-.22.3-.44.46-.66l.05-.03.05-.1ZM135.07,48.42l.07-.03.06-.03h-.02s-.02-.02-.02-.02l.17-.22.22-.25.22-.22.17-.13c.07.02.1.12.11.28,0,.17,0,.36-.04.56s-.07.41-.12.61c-.05.2-.09.35-.12.45l-.28-.07-.21-.25-.14-.29-.07-.23v-.07s0,0,0,0l-.02-.02.02-.07ZM134.73,49.61c.1.18.27.31.5.36l.14.03.17.02-.07.21-.19.18-.12.17-.2.19c-.09.07-.23.15-.42.24l-.1.03-.16.03-.15.02h-.09s-.12-.12-.12-.12l-.05-.27v-.33l.04-.3.03-.15.07-.19.15-.26h-.02v-.03l.02-.03h0s0,0,0,0v.02l-.02.02.02.03v-.02l.02-.08h0s.02-.02.02-.02l.15-.14.13-.11c.08.15.17.32.27.51ZM134.54,47.68h0s-.08-.06-.08-.06l.08.06ZM134.35,48.21l.2-.31h0s-.2.31-.2.31l-.06.06.06-.07ZM134.11,48.49h0s0,0,0,0l-.09.13h0s.09-.13.09-.13ZM134.01,48.68h0s-.59.44-.59.44l-.07.1-.02.02.02-.02.07-.1.59-.44ZM133.59,48.68l-.04.07-.08.16.08-.16.04-.07ZM130.92,49.35v.06s-.05-.03-.05-.03l-.04-.07.09.04ZM127.2,50.54l-.04-.22.04.06h0s.02.03.02.03l-.02.04h.05l.04.11.02.15-.12-.17ZM127.48,50.94l-.03-.07.06.04.06.04-.08-.02Z" style="fill:#2d3b51;"/><polygon points="126.8 49.71 126.81 49.69 126.82 49.66 126.8 49.71" style="fill:#2d3b51;"/><polygon points="145.62 49.42 145.58 49.47 145.58 49.47 145.62 49.42" style="fill:#2d3b51;"/><rect x="144.81" y="50.61" width=".01" height=".01" transform="translate(6.62 117.23) rotate(-45)" style="fill:#2d3b51;"/><polygon points="163.13 51.47 163.14 51.47 163.12 51.47 163.13 51.47" style="fill:#2d3b51;"/><polygon points="112.87 50.07 112.84 50.15 112.85 50.12 112.87 50.07" style="fill:#2d3b51;"/><polygon points="112.92 50 112.92 49.99 112.87 50.07 112.91 50.01 112.92 50" style="fill:#2d3b51;"/><polygon points="112.82 50.06 112.87 50.01 112.94 49.96 112.94 49.94 112.79 50.01 112.81 50.06 112.77 50.12 112.82 50.06" style="fill:#2d3b51;"/><polygon points="112.74 50.19 112.72 50.21 112.72 50.27 112.76 50.24 112.74 50.19" style="fill:#2d3b51;"/><path d="M111.32,49.26c-.26.07-.42.09-.47.08.1-.2.16-.42.2-.66.03-.25.05-.47.05-.67s-.01-.36-.03-.47l-.05-.09-.11-.03.1.05.02.05h-.03l-.08-.05v-.05l-.2-.16-.2-.11-.07.05v-.08l-.1-.06-.16.02h-.03s0,0,0,0l-.05-.04-.1-.04-.03.02-.03-.02h-.05l-.06-.07-.06.02-.08.03-.15-.02-.29.18-.28.16-.33.31c-.11.12-.23.26-.33.41-.11.15-.2.3-.28.44l-.06.11-.03.04-.09.15-.15.32c-.06.11-.13.27-.21.46-.08.21-.12.42-.15.65l-.06.33.09.25v.11s.07.1.07.1c.06.2.18.34.36.44l.12.05.11.08.08-.02.08.02-.02.02c.39.03.74,0,1.04-.08l.1-.07h.08l.2-.11.2-.16.06-.04.09-.06.17-.23.15-.26v-.07s.02.02.02.02l.07-.11.04-.05.05-.05.07-.11c.05-.04.16-.08.32-.11.16-.03.32-.05.5-.07l.15-.07.13-.07h.16s.08-.03.08-.03l.22-.09.19-.08.16-.09.62-.29.06-.03.06-.03.05-.03.02.02.07-.16-.07.16h0s-.04.08-.04.08l.03-.03h0s-.04.08-.04.08l-.02-.03-.09.24-.07.25.1-.21.13-.23-.07.2-.08.18v.07l-.03.05-.02-.05-.02.02v.03h.02s.02.02.02.02l-.03.03-.03-.02v-.02l-.05.02.03.02v.04s-.02.02-.02.02v.02l-.02.04-.03.12-.07.11v-.1l-.07.19-.07.11-.07.28-.07.36-.08.36.07-.03-.02.04-.05.04v.02h.06s.02-.08.02-.08v.17s-.05.17-.05.17l-.12.21-.07.23h.02l.02.02-.02.1-.04-.03-.03-.06-.03.29.05-.11.06-.07-.03.18-.06.04h-.04s-.06.43-.06.43l-.07.42h-.03l-.04.21-.02.16v.21l-.03.28-.03.02v.2l-.02.05.02.1-.04.07.02.21v.29s-.02.02-.02.02v.05l-.03-.02-.05.03v.23l.02.34.08.36c.02.2.05.36.1.49l.21.36.11.1.15.03.28.05h.25l.25-.03.2-.19.08-.21.05-.22.04-.02.04-.02c.02-.15.06-.28.11-.39.05-.11.09-.24.11-.39v-.08l.07-.15v-.18c.06-.18.11-.37.16-.55.05-.18.09-.37.12-.58,0-.15.03-.29.06-.42.03-.12.05-.26.07-.42l.05.02-.02-.08.02-.08.03.04.03.04-.03-.18.02-.26.03-.07c0-.08,0-.19.02-.34.01-.15.02-.31.03-.47.01-.16.02-.32.03-.46l.02-.31-.02-.14-.07-.2-.07-.2v-.15s.35.08.35.08l.31.05.35.03c.13,0,.27,0,.43,0h.13c.29-.02.84-.3,1.15-.29l.14-.08.02.03h.03s.06-.05.06-.05l.11-.03.02-.08.11-.05.08-.05.24-.13v-.07l.34-.18.38-.3.34-.33.19-.26-.02-.09-.08-.03h-.04s-.05-.05-.05-.05l-.06-.05-.1.07c-.51.42-1.14.76-1.75,1.02l-.05.1h-.07c-.22.09-.44.15-.65.2-.22.04-.47.09-.77.15-.13.02-.3.01-.51-.03-.21-.04-.38-.09-.51-.15l-.1-.08v-.07l-.07-.08h-.11l-.03-.03-.06.04-.05.04-.03-.02.04-.02.09-.09.1-.09.08-.04.16-.1.21-.28.2-.28.11-.13.07-.05.07-.06.07-.15.22-.37.2-.37.14-.26.16-.24c.21-.39.42-.78.64-1.15.22-.38.42-.76.6-1.15l.11-.34.09-.36.03-.09.03-.11.04-.13v-.13s0-.05,0-.05l.02-.05-.06-.36-.19-.23-.02-.03-.02-.02-.12-.07-.14-.04-.27-.05-.28-.08-.06.07-.09.05c-.12.16-.24.32-.37.48-.12.16-.23.34-.32.55-.12.15-.23.32-.33.49-.1.17-.2.35-.31.52l-.02.07-.1.19-.11.19v.03c-.14.22-.26.45-.37.7-.1.25-.23.49-.37.7l-.07.24-.12.2c-.07.23-.15.44-.25.64l-.14.35h.01s-.01,0-.01,0l-.07.24.07-.24-.21.15c-.46.26-1.25.55-1.76.72l-.21.08ZM109.77,50.24l-.19.18-.12.17-.2.19c-.09.07-.23.15-.42.24l-.11.03-.16.03-.15.02h-.09s-.12-.12-.12-.12l-.05-.27v-.33l.04-.3.03-.15.07-.19.15-.26h-.02v-.03l.02-.03v-.02s0,.01,0,.01v.02l-.02.02.02.03v-.02l.02-.08h0s.02-.02.02-.02l.15-.14.13-.11c.08.15.17.32.27.51.1.18.27.31.5.36l.14.03.17.02-.07.21ZM110.31,48.38c-.03.21-.07.41-.12.61-.05.2-.09.35-.12.45l-.28-.07-.21-.25-.14-.29-.07-.23v-.07s0,0,0,0l-.02-.02.02-.07.07-.03.06-.03h-.02s-.02-.02-.02-.02l.17-.22.22-.25.22-.22.17-.13c.07.02.1.12.11.28,0,.17,0,.36-.04.56ZM111.97,54.37l.02-.11v.09s.02.14.02.14l-.03-.12ZM112.04,54.05l.02-.16.05-.14-.03.02v-.08s.03-.08.03-.08l-.02-.14.05-.09v.08h.02s.03-.02.03-.02l-.04.32-.11.29ZM112.17,55.23v-.2s.02.03.02.03v.09s-.02.07-.02.07ZM112.19,53.24l-.03.08-.02-.03-.03-.03.07-.16.05.03.02.05-.05.07ZM113.28,49.04v.05h0s0-.05,0-.05l.02-.07h0s-.02.07-.02.07ZM113.34,48.93l.08-.2h0l-.08.19h0ZM113.23,49.17h0s0,0,0,0l.03-.02h0s0,0,0,0h0s0,0,0,0h0s0,0,0,0l-.04.06h0s.03-.05.03-.05l-.03.02ZM113.03,49.99l.1-.16-.08.16-.06.07.04-.07ZM112.87,50.3v.05l-.05.07.05-.11ZM112.87,52.73v.08s-.05.08-.05.08l.05-.16ZM112.63,51.14l.06-.17-.1.36.04-.19ZM112.58,54.33v-.08s-.02-.07-.02-.07l.04.07-.03.08ZM112.63,54.07v-.1s0-.07,0-.07v.16ZM112.56,51.69l.05-.15.07-.15-.11.29ZM112.69,53.53v-.11s.07-.15.07-.15l-.07.26ZM113.79,52.52c-.03.3-.05.55-.07.73-.03.38-.09.74-.18,1.08-.09.34-.19.68-.31,1.03l-.1.26-.09.25-.1.23-.1-.21-.06-.25c-.02-.1-.02-.24-.02-.41s0-.39.02-.68l.08-.33.02-.38.07-.34.02-.38c.07-.13.1-.29.11-.48,0-.19.05-.34.12-.45v-.07l-.02-.07.1-.18.02-.21.12-.31.11-.34c.16.06.24.17.24.34.04.49.05.89.02,1.19ZM113.46,48.98l.13-.13h.03c-.05.03-.11.08-.16.13ZM113.68,48.78l.02-.03.08-.06s-.07.06-.1.09ZM114.47,47.64v-.11l.03-.08.02.02h.03s.02-.18.02-.18l.05-.14.07-.08c.05-.16.13-.31.22-.45.09-.14.17-.3.22-.48l.08-.14c.45-.75.97-1.73,1.52-2.41l.09-.07c.03.18,0,.37-.07.55-.08.18-.16.35-.24.51l-.14.39-.19.34c-.08.2-.17.36-.28.49-.15.28-.31.56-.47.84-.16.28-.33.56-.51.84l-.02.05-.24.34-.21.27-.2.26-.24.32.14-.34.06-.11h-.02s0,.01,0,.01h0s.02-.02.02-.02l.08-.25.03-.04.03-.04v-.09s-.02.03-.02.03v.03s-.02-.1-.02-.1l.08-.08v-.04s.05-.06.05-.06ZM114.06,47.12l-.03.06-.02.02v-.04s.05-.04.05-.04ZM113.96,47.98l.12-.08-.12.08-.11.08-.07.05.07-.05.11-.08ZM113.68,47.94l.09-.12-.05.15-.05.13v-.15ZM113.59,48.19l.03.02.03-.02v.02s.02-.02.02-.02l.07-.05-.07.05-.02.02-.13.37-.1.21.1-.21.13-.37-.11.08h0s.05-.09.05-.09ZM113.54,48.29l.02.07h0s-.02-.07-.02-.07h0Z" style="fill:#2d3b51;"/><path d="M165.27,49.07l-.25.04-.11.16-.07.16-.12.07-.07.04-.07.05-.23.23-.28.22-.25.22-.11.1c-.25.27-.63.33-.91.56l-.34.13-.03.02h0s-.1.04-.1.04l-.1.05h-.32l-.32-.08c-.09-.15-.12-.33-.09-.55.03-.21.07-.43.14-.64l.15-.26.1-.26.15-.18.11-.21.12-.18.1-.13.06-.16v-.25l-.24-.19-.22-.2-.28.02-.28.07-.15.07-.17.05c-.07.01-.19.01-.35,0l.11-.17.15-.16.09-.13.11-.1.21-.18.11-.2.08-.05.05-.05.07-.26-.07-.12-.11-.09-.33-.14-.29-.06-.32.29-.31.35c-.09.13-.16.28-.21.43-.05.16-.06.33-.02.52l-.05.13.13.21v.14s0,.02,0,.02h-.02s-.14.1-.14.1c-.38.22-.54.45-.95.7l-.1.07c-.15.12-.27.2-.34.25l-.29.21-.42.2-.05.02v-.02s0-.02,0-.02l-.06.02-.21.1c-.14.08-.3.15-.47.21l-.37.11-.33.07c-.36.11-.74.1-1.14-.02l-.39-.15-.31-.24-.06-.09v-.12s-.07-.02-.07-.02v-.03c.2.04.37.02.52-.08.15-.1.31-.16.48-.2l.3-.24.3-.24.05-.1.2-.15.2-.16.18-.2.16-.16.06-.13.06-.1.14-.14.11-.14.02-.07.03-.07.09-.21v-.23s-.11-.15-.11-.15l-.13-.11-.22-.22-.22-.22-.08.02-.07.03-.13.03-.13.03-.24.11-.25.15-.23.18-.2.14-.2.14-.19.2-.21.16-.24.33-.37.42c-.12.15-.21.33-.25.54v.04s-.01,0-.01,0c0,0,0,0,0,0l-.08.09-.15.15v-.08l-.13.14-.15.09-.02-.02c-.12.15-.27.29-.45.42-.18.12-.35.24-.51.35-.23.13-.46.26-.69.39-.23.13-.49.22-.77.26l-.15-.32c-.13-.42.1-1.47.17-1.93l.03-.08c.04-.15.08-.29.12-.42.04-.13.06-.28.07-.46l.06-.07.06-.09c.02-.18.07-.35.15-.49.07-.14.14-.3.18-.47h.03s.03.02.03.02l.07-.23.07-.23h.07l.02-.12c.12-.13.11-.33.26-.56v-.05l.04-.02.02-.02.05-.13.08-.15.17-.28.17-.27.08-.14v-.03l.19-.31.1-.1v-.02s-.02-.02-.02-.02l.08-.08.05-.21.07-.07.03-.07-.04-.17-.12-.07-.03-.04-.04-.04-.29-.07-.28-.05-.13-.05-.07.11-.07.09.02.05.02.05-.06.05v.05s0,.03,0,.03c-.07.12-.15.28-.25.47s-.21.4-.33.6c-.11.21-.22.4-.33.59-.1.18-.19.33-.27.44l-.03.07h-.05l-.15.29-.13.26-.16.23-.11.16-.1.19.03-.1.02-.07-.07.11-.02.09h-.03s-.02-.03-.02-.03l-.11.24-.16.24-.13.23h-.02s-.02-.02-.02-.02l-.02.05-.13.18-.08.11-.07-.05-.11-.08h-.05s-.05-.02-.05-.02l-.05-.02-.03-.04-.19-.06-.14-.06h-.34s-.34,0-.34,0c-.15-.02-.26.02-.33.13l-.22.24-.28.39c-.09.12-.18.26-.28.41h0s0,.01,0,.01h0s-.19.05-.19.05v.07s-.05.05-.05.05l-.08.03-.12.04-.07.09-.15.09-.15.11-.2.15-.2.11-.08.13-.13.11.02-.08-.02.03-.1.07-.06.09h-.11s-.02.07-.02.07l-.02-.02-.02-.02-.02.06-.03.06-.23.03-.26.13h-.09s-.06.05-.06.05l-.31.17-.25.08-.27.02-.36-.04c-.09-.07-.16-.23-.21-.49-.06-.26-.06-.62,0-1.09l.02-.17.02-.09c.05-.1.09-.23.1-.39,0-.16.02-.29.03-.39l-.07-.16-.1-.07v-.03l-.29-.07-.24-.07-.2.09-.2.07c-.13.11-.28.21-.43.31-.16.1-.31.21-.46.33-.15.11-.3.23-.43.36-.14.13-.28.24-.43.34-.13.16-.27.34-.42.53-.15.19-.29.36-.43.51l.04-.07.03-.1c.05-.15.12-.32.19-.51.07-.18.13-.35.19-.49.09-.21.17-.4.26-.6l.02-.05-.04.06-.17.19-.08.05c.09-.07.17-.14.25-.24l.04-.06.07-.21h0s.06-.37.06-.37l-.07-.07-.06-.07-.28-.1-.21-.07-.23.02c-.15.44-.33.89-.52,1.33,0,0,0,0,0,0l-.07.17c-.1.22-.18.45-.27.69h0c-.1.3-.19.6-.27.93l-.03.04-.03.06v.15s-.03.16-.03.16c0,.15.03.24.1.25l.28.09v.07l.32.05.24-.02.13-.1.13-.07c.33-.46.69-.87,1.09-1.25.4-.37.78-.76,1.15-1.15l.23-.17.23-.17c-.03.39-.05.72-.07,1-.01.27.02.58.08.91l.06.05.02.11.15.18.15.2-.02-.04.03-.03.05.05.02.05-.05.02c.12.07.25.12.4.18.15.05.3.09.47.1l.39.13.33-.08-.02-.04-.02-.02h.08s.05,0,.05,0v.07l.1-.06.11-.11v.07s0,.02,0,.02l.09-.03.07-.08-.04-.02-.04.02.07-.07.08-.05.02-.03h.02l.07.03.05-.07h.05s.26-.22.26-.22l-.23.28.13-.04.06-.12.05-.11h.07s-.02.09-.02.09l-.06.02.06.02v.03l.03-.02h.03l-.02-.03h-.03,0s.2-.1.2-.1l.15-.11.07-.11.11-.11-.07.1v.11l.15-.13.15-.19.13-.14.06.02.08-.07v-.04s0,.04,0,.04h0s-.08.33-.08.33c-.05.18-.1.37-.15.55-.04.18-.04.38.02.6l.1.13.08.15c.43.35,1.17.36,1.52-.15l.06-.06.04-.03.03-.04.02-.04h.02s0-.02,0-.02l.16-.25.19-.2.14-.19v-.05l.05-.06.1-.03.11-.1.08-.33.05.02h.03l.05-.16.08-.07.02.03.02.03.02-.19.08-.14.05-.02.02-.13.06-.02v-.08s.07-.02.07-.02l.04-.03h.03s.03.03.03.03l.1-.28.02.04h.03s-.02-.05-.02-.05l.02-.06.03.07-.02-.08.02-.08v.03s.02.02.02.02l.05-.13v.03s.03.02.03.02l.03-.11.07-.07.03.05.07-.24.15-.21c-.02.1-.04.22-.07.38-.02.15-.04.31-.07.48-.02.17-.04.33-.07.48-.02.15-.04.28-.05.37v.16c.02.25.09.47.2.65.11.18.26.34.43.47h.2l.18.13.1-.07v.05l.02.05.12-.05.17-.05.03.05.05-.02-.07.07-.07.03h.2s.16-.08.16-.08l.03.02.03-.02.11-.07.09-.07h.07l.1-.05-.02.05.02.03.39-.25.38-.22.03-.03h0s.16-.11.16-.11h-.03l.08-.03-.05.03h.02s.03,0,.03,0l.03-.07.07-.09.15-.06.13-.16.05-.03.17-.16.05-.05-.02-.18.03.18.04-.03-.04.03v.04s0,0,0,0h0s0,0,0,0h-.01s-.11.14-.11.14l.12-.13h0s0,0,0,0l.03-.02-.03.02.06.19.1.23.28.33.34.24.33.12.33.07.07-.02.1.03c.08-.01.2,0,.36.03l.02-.03.1.02.07.02.15-.04h.12s.02.02.02.02l.02.03.11-.03.1-.03h.11s.09-.02.09-.02l.11-.06.13-.03-.02.03.13-.03.11-.02.11-.03.09-.03.06-.02c.24-.09.44-.18.6-.29.16-.11.34-.22.52-.34l.23-.15.13-.08.28-.21.1-.08.13-.13.15-.11.29-.26.11-.16.14-.09.07-.06.07-.11.28-.34h.01s.02-.01.02-.01l.02-.04.11-.04c.18-.02.36-.06.54-.11.18-.05.32-.08.44-.08-.15.25-.32.51-.52.79-.19.28-.31.61-.37,1-.04.41.03.77.2,1.07.18.3.46.47.84.51v.03s-.02.02-.02.02l.24.07.2.02-.03-.03h-.05l.02-.05.18.03.18.03.11-.08h.18s.13-.08.13-.08l.03.05.12-.12.12-.06.02.03.05-.02h.05s.18-.15.18-.15c.13-.07.3-.18.51-.32l.1-.08c.54-.47,1.14-1.03,1.38-1.71l.03-.07-.2-.06ZM140.32,47.58v.03s0-.03,0-.03l-.08.07c-.05.03-.1.05-.14.08l.14-.08.08-.07ZM139.84,47.87l.06-.03c-.1.06-.2.13-.29.2l.06-.05.17-.11ZM139.37,48.2h.02c-.05.03-.11.07-.17.11l.15-.11ZM138.89,49.17l-.04.02.04-.02h.05l.06-.04-.05.04h-.05ZM139.29,48.85l-.1.09.1-.1.05-.02-.05.02ZM139.53,48.66c.09-.1.18-.18.26-.24h-.01s-.12.13-.12.13l-.12.11ZM144.64,50.82l-.04-.04.04-.04v.08ZM146.18,49.52l-.08.03.11-.07-.03.03ZM147.41,48.34l-.08-.06.02-.03h0s0,0,0,0l-.02.03.08.06ZM147.37,48.23h0s-.02-.02-.02-.02h-.02s.02,0,.02,0l.02.02ZM147.29,48.25l.02.05v.03h0v-.03l-.02-.05h0ZM147.24,48.29h0s0,0,0,0l-.02.07-.11.08.1-.08.02-.07ZM146.75,49.18l-.1.1.07-.07.03-.03ZM147.17,49.03l.11-.14.03-.05-.03.05-.11.14-.37.31.37-.31ZM149.08,48.31l-.14.22-.12.22c-.16.19-.31.38-.45.59-.14.21-.27.41-.4.62-.13.22-.27.42-.43.6s-.32.36-.48.53l-.03-.1-.03-.11.07-.38.14-.32v-.09l.02-.07.04-.06v-.09c.43-.63.25-.79.78-1.44l.16-.32.23-.19c.05-.08.16-.12.31-.11l.21.21.15.28-.02.02ZM150.63,46.37l-.11.11.07-.12.07-.12-.03.13ZM152.88,50.59h0l-.02.03.02-.03ZM152.9,50.59l.02-.02h0s-.02.02-.02.02h0ZM153.04,50.23l.02-.05.02-.03-.03.08ZM153.29,50.22v-.07s.03-.05.03-.05v.06s-.03.06-.03.06ZM154.61,48.38h0s-.06.1-.06.1l-.04.13h0s.04-.13.04-.13l.06-.1ZM154.47,48.58l-.02-.02h0s0,0,0,0l.02.02ZM154.4,48.54h0s0,.04,0,.04v.02s0,0,0,0v-.02s.02-.04.02-.04ZM154.09,48.78l.17-.16-.17.16-.16.16.16-.16ZM153.88,49.78l.02-.03h0s0,0,0,0l.11-.1h0s-.11.1-.11.1l-.02.03h-.01s0,0,0,0ZM153.86,49.81h0s0-.02,0-.02v.02ZM153.84,48.98h.03s.02-.01.02-.01h-.02s-.03.02-.03.02v.02s0-.02,0-.02ZM153.82,49.81h0s-.07.09-.07.09l.07-.09ZM154.31,49.29l-.16.16h0s.16-.16.16-.16l.02-.02h-.02s.02,0,.02,0l.17-.21.18-.26.04-.07-.18.2-.23.35h0s.23-.35.23-.35l.18-.2h0s.14-.16.14-.16c.67-.69.85-.87,1.64-1.31h.09s0,.12,0,.12l-.07.15-.32.37-.33.27-.18.2-.2.16c-.21.15-.4.3-.59.44-.18.14-.37.24-.57.3l-.02.03ZM160.16,48.43h0s0,0,0,0h0ZM160.79,47.16l.13-.12-.11.14-.16.12.15-.14Z" style="fill:#2d3b51;"/><path d="M140.71,59.4h-10.22v22.54h9.53c7.43,0,11.94-3.02,11.94-11.37s-4.52-11.18-11.25-11.18ZM139.38,75.47h-1.03v-9.61h1.34c2.87,0,4.1,1.34,4.1,4.71,0,4.29-1.23,4.9-4.4,4.9Z" style="fill:#2d3b51;"/><polygon points="68.68 59.4 60.84 59.4 60.84 81.94 76.53 81.94 76.53 75.2 68.68 75.2 68.68 59.4" style="fill:#2d3b51;"/><path d="M85.67,59.4l-7.39,22.54h7.81l.92-3.06h7.43l1,3.06h8.11l-7.43-22.54h-10.45ZM88.77,73.02l.8-3.1c.65-2.45,1-4.4,1-4.4h.15s.46,1.95,1.11,4.4l.81,3.1h-3.87Z" style="fill:#2d3b51;"/><path d="M119.23,65.71c0,2.14.08,3.98.08,3.98h-.15s-.88-1.53-2.37-3.67l-4.52-6.62h-6.89v22.54h7.85v-5.63c0-2.87-.08-4.63-.08-4.63h.15s.99,1.61,2.45,3.64l4.82,6.62h6.51v-22.54h-7.85v6.31Z" style="fill:#2d3b51;"/><path d="M69.79,37.41c2.94,0,4.86-.96,5.75-2.73l.74,2.31h4.86v-11.75h-9.79v4.54h2.48v.18c0,.92-.85,1.63-2.56,1.63-2.45,0-3.3-1.7-3.3-4.93,0-3.69,1.28-4.9,3.12-4.9,1.6,0,2.34,1.14,2.52,2.56l6.95-2.88c-1.03-3.55-4.61-5.78-9.37-5.78-7.1,0-10.79,3.97-10.79,10.97,0,7.63,4.22,10.79,9.37,10.79Z" style="fill:#2d3b51;"/><path d="M121.82,31.84h2.63c4.93,0,8.27-2.63,8.27-7.81s-2.84-7.95-8.27-7.95h-9.9v20.9h7.27v-5.15ZM121.82,22.19h1.74c1.1,0,1.74.53,1.74,1.92,0,1.45-.67,1.92-1.74,1.92h-1.74v-3.83Z" style="fill:#2d3b51;"/><path d="M112.58,24.03c0-5.36-2.84-7.95-8.27-7.95h-9.9v20.9h7.28v-5.15h2.63c4.93,0,8.27-2.63,8.27-7.81ZM103.43,26.02h-1.74v-3.83h1.74c1.1,0,1.74.53,1.74,1.92,0,1.45-.67,1.92-1.74,1.92Z" style="fill:#2d3b51;"/><rect x="84.23" y="16.08" width="7.28" height="20.9" style="fill:#2d3b51;"/><path d="M143.16,31.88c-1.1,0-1.92-.53-2.38-1.81l-6.6,2.38c.96,3.48,4.4,4.97,8.73,4.97,5.22,0,9.48-1.81,9.48-6.85,0-4.26-2.59-6.67-7.91-7.31-1.7-.21-2.31-.57-2.31-1.24,0-.57.46-.89,1.24-.89.96,0,1.7.35,1.88,1.49l6.99-1.56c-.85-3.8-4.05-5.39-8.63-5.39s-8.87,1.77-8.87,7.24c0,3.83,2.06,6,8.23,6.96,1.14.18,1.6.5,1.6,1.06,0,.64-.5.96-1.46.96Z" style="fill:#2d3b51;"/></svg>