<?xml version="1.0" encoding="UTF-8"?><svg id="a" xmlns="http://www.w3.org/2000/svg" width="150.02" height="83.5" viewBox="0 0 150.02 83.5"><path d="m18.62.36v5.09h-6.14v17.93h-6.4V5.45H0V.36h18.62Z" style="fill:#111; stroke-width:0px;"/><path d="m26.1,22.09c-1.8-1.01-3.24-2.41-4.3-4.21s-1.58-3.82-1.58-6.09.52-4.3,1.58-6.09,2.49-3.2,4.3-4.2C27.9.5,29.89,0,32.04,0s4.17.5,5.96,1.5c1.8,1.01,3.22,2.4,4.26,4.2,1.05,1.8,1.57,3.83,1.57,6.09s-.52,4.3-1.57,6.09-2.47,3.2-4.28,4.21-3.79,1.52-5.94,1.52-4.14-.51-5.94-1.52Zm9.82-6.02c.94-1.07,1.42-2.49,1.42-4.28s-.47-3.27-1.42-4.33c-.94-1.06-2.23-1.58-3.87-1.58s-2.95.53-3.89,1.58c-.94,1.06-1.4,2.5-1.4,4.33s.46,3.24,1.4,4.3c.94,1.06,2.23,1.58,3.89,1.58s2.92-.53,3.87-1.6Z" style="fill:#111; stroke-width:0px;"/><path d="m52.98.36v13.36c0,1.24.29,2.2.87,2.87s1.45,1.01,2.63,1.01,2.06-.34,2.66-1.03c.6-.69.9-1.64.9-2.86V.36h6.4v13.36c0,2.11-.45,3.91-1.34,5.4s-2.1,2.61-3.64,3.37c-1.54.75-3.24,1.13-5.11,1.13s-3.54-.38-5.02-1.13c-1.47-.76-2.63-1.87-3.46-3.35-.84-1.48-1.25-3.29-1.25-5.42V.36s6.37,0,6.37,0Z" style="fill:#111; stroke-width:0px;"/><path d="m81.63,23.38l-4.57-8.5h-.69v8.5h-6.4V.36h10.09c1.86,0,3.42.32,4.71.96s2.25,1.53,2.9,2.65c.65,1.13.98,2.38.98,3.77,0,1.57-.43,2.95-1.29,4.13-.86,1.19-2.12,2.03-3.77,2.53l5.2,8.99h-7.16Zm-5.26-12.87h3.17c.87,0,1.52-.21,1.96-.62.44-.41.65-1.01.65-1.8,0-.74-.22-1.32-.67-1.74-.45-.43-1.09-.64-1.94-.64h-3.17v4.8h0Z" style="fill:#111; stroke-width:0px;"/><path d="m97.96.36v23.03h-6.4V.36h6.4Z" style="fill:#111; stroke-width:0px;"/><path d="m103.7,21.7c-1.72-1.27-2.65-3.09-2.77-5.47h6.83c.07.81.3,1.39.72,1.76.41.37.94.56,1.6.56.59,0,1.07-.15,1.45-.44s.58-.7.58-1.23c0-.67-.32-1.19-.94-1.56-.63-.37-1.66-.78-3.07-1.25-1.5-.5-2.71-.99-3.64-1.45-.93-.46-1.73-1.15-2.41-2.05-.69-.9-1.03-2.09-1.03-3.55s.37-2.75,1.11-3.81,1.76-1.86,3.07-2.4c1.31-.54,2.78-.82,4.44-.82,2.68,0,4.82.63,6.42,1.87,1.6,1.25,2.46,3.02,2.56,5.27h-6.96c-.02-.7-.23-1.22-.64-1.57s-.92-.52-1.55-.52c-.48,0-.87.15-1.18.43s-.46.69-.46,1.21c0,.44.16.81.51,1.13.34.32.76.58,1.25.82s1.25.52,2.22.87c1.46.5,2.66,1,3.61,1.49.94.49,1.76,1.18,2.45,2.06.69.88,1.03,1.99,1.03,3.35s-.34,2.6-1.03,3.69-1.68,1.95-2.97,2.58c-1.3.64-2.83.94-4.59.94-2.68,0-4.88-.64-6.6-1.91h0Z" style="fill:#111; stroke-width:0px;"/><path d="m148.75.36v23.03h-6.4v-12.71l-4.35,12.71h-5.36l-4.37-12.8v12.8h-6.4V.36h7.74l5.78,14.96,5.65-14.96h7.71Z" style="fill:#111; stroke-width:0px;"/><path d="m57.45,53.33h-6.4l-8.52-12.87v12.87h-6.4v-23.03h6.4l8.52,13.03v-13.03h6.4s0,23.03,0,23.03Z" style="fill:#111; stroke-width:0px;"/><path d="m66.21,52.04c-1.8-1.01-3.24-2.42-4.3-4.22s-1.58-3.82-1.58-6.09.52-4.3,1.58-6.09,2.49-3.2,4.3-4.2c1.8-1,3.79-1.5,5.94-1.5s4.17.5,5.96,1.5c1.8,1.01,3.22,2.4,4.26,4.2,1.05,1.8,1.57,3.83,1.57,6.09s-.52,4.3-1.57,6.09-2.47,3.2-4.28,4.22c-1.8,1.01-3.79,1.52-5.94,1.52s-4.14-.51-5.94-1.52Zm9.82-6.03c.94-1.07,1.42-2.49,1.42-4.28s-.47-3.27-1.42-4.33-2.23-1.58-3.87-1.58-2.95.52-3.89,1.58c-.94,1.06-1.4,2.5-1.4,4.33s.46,3.24,1.4,4.3,2.23,1.58,3.89,1.58,2.92-.53,3.87-1.61h0Z" style="fill:#111; stroke-width:0px;"/><path d="m98.48,53.33l-4.57-8.5h-.69v8.5h-6.4v-23.03h10.09c1.86,0,3.42.32,4.71.96s2.25,1.53,2.9,2.65c.65,1.13.98,2.38.98,3.77,0,1.57-.43,2.95-1.29,4.13s-2.12,2.03-3.77,2.53l5.2,8.99h-7.16Zm-5.26-12.87h3.17c.87,0,1.52-.21,1.96-.62s.65-1.01.65-1.8c0-.74-.22-1.32-.67-1.74s-1.09-.64-1.94-.64h-3.17v4.8h0Z" style="fill:#111; stroke-width:0px;"/><path d="m125.75,30.3v5.09h-6.14v17.93h-6.4v-17.93h-6.07v-5.09h18.62,0Z" style="fill:#111; stroke-width:0px;"/><path d="m148.75,30.3v23.03h-6.4v-9.24h-7.81v9.24h-6.4v-23.03h6.4v8.65h7.81v-8.65s6.4,0,6.4,0Z" style="fill:#111; stroke-width:0px;"/><path d="m76.27,65.37v3.75h7.35v4.87h-7.35v4.15h8.33v5.13h-14.73v-23.03h14.73v5.13s-8.33,0-8.33,0Z" style="fill:#111; stroke-width:0px;"/><path d="m102.33,79.51h-8.17l-1.25,3.75h-6.73l8.39-23.03h7.38l8.36,23.03h-6.76l-1.25-3.75h.02Zm-1.6-4.9l-2.48-7.45-2.45,7.45h4.93Z" style="fill:#111; stroke-width:0px;"/><path d="m114.51,81.58c-1.72-1.27-2.65-3.09-2.77-5.47h6.83c.07.81.3,1.39.72,1.76.41.37.94.56,1.6.56.59,0,1.07-.15,1.45-.44.38-.29.58-.7.58-1.22,0-.68-.32-1.2-.94-1.57s-1.66-.78-3.07-1.25c-1.5-.5-2.71-.99-3.64-1.45s-1.73-1.15-2.41-2.05-1.03-2.09-1.03-3.54.37-2.75,1.11-3.81,1.76-1.86,3.07-2.4,2.78-.82,4.44-.82c2.68,0,4.82.63,6.42,1.87,1.6,1.25,2.46,3.02,2.56,5.27h-6.96c-.02-.7-.23-1.22-.64-1.57s-.92-.52-1.55-.52c-.48,0-.87.15-1.18.43s-.46.69-.46,1.21c0,.44.16.81.51,1.13.34.32.76.58,1.25.82s1.25.52,2.22.87c1.46.5,2.66,1,3.61,1.49.94.49,1.76,1.18,2.45,2.05.69.88,1.03,2,1.03,3.35s-.34,2.6-1.03,3.69c-.69,1.09-1.68,1.95-2.97,2.58-1.3.63-2.83.94-4.59.94-2.68,0-4.88-.64-6.6-1.91h0Z" style="fill:#111; stroke-width:0px;"/><path d="m150.02,60.24v5.09h-6.14v17.93h-6.4v-17.93h-6.07v-5.09h18.62Z" style="fill:#111; stroke-width:0px;"/></svg>