<?xml version="1.0" encoding="UTF-8"?><svg id="a" xmlns="http://www.w3.org/2000/svg" width="212" height="95" viewBox="0 0 212 95"><path d="M72.69,39.63c.55.15.94-.11,1.17-.91l.2-.72-1.75-.48-.2.72c-.22.81-.03,1.23.58,1.4Z" style="fill:#2d3b51;"/><polygon points="70.03 44.22 72.19 43.79 70.18 42.89 70.03 44.22" style="fill:#2d3b51;"/><path d="M137.87,60.07c-.57-.25-.89.07-1.18.73l-.32.75,1.44.62.32-.75c.28-.66.3-1.1-.27-1.35Z" style="fill:#2d3b51;"/><path d="M72,50.82c.62-.04.77-.46.72-1.18l-.05-.81-1.57.1.05.81c.04.72.22,1.12.85,1.08Z" style="fill:#2d3b51;"/><polygon points="120.62 14.27 119.16 15.92 120.4 16.46 120.62 14.27" style="fill:#2d3b51;"/><path d="M131.25,23.71l.55-.55c.72-.73.9-1.3.33-1.87l-.64-.64-2.75,2.78.64.64c.57.57,1.15.37,1.87-.36Z" style="fill:#2d3b51;"/><polygon points="77.33 69.6 78.62 67.82 76.53 68.52 77.33 69.6" style="fill:#2d3b51;"/><path d="M106.03,6.81c-22.53,0-40.8,18.26-40.8,40.8s18.26,40.8,40.8,40.8,40.8-18.26,40.8-40.8S128.56,6.81,106.03,6.81ZM140.95,48.18h.85c1.1-.03,1.61-.41,1.6-1.11-.01-.6-.32-.89-.92-1.01l-.02-1.15c1.34.18,1.94.92,1.96,2.14.02,1.34-.77,2.29-2.59,2.32h-.85c-1.84.05-2.65-.88-2.67-2.22-.02-1.18.59-2,1.89-2.22l.02,1.16c-.56.12-.9.46-.89,1.04.01.7.49,1.06,1.63,1.04ZM138.64,40.17l.4,2.47,1.32-.22-.36-2.22,1.01-.16.36,2.22,1.53-.25-.4-2.47,1.01-.16.6,3.67-5.88.96-.6-3.66,1.01-.17ZM132.85,20.56c.96.95,1.14,2.1-.2,3.45l-.55.55c-1.33,1.34-2.49,1.18-3.45.23l-1.5-1.49,4.2-4.23,1.5,1.49ZM125.62,14.85l.83.56-.18,4.4,2.11-3.09.95.65-3.36,4.92-.83-.57.16-4.35-2.08,3.05-.95-.65,3.36-4.92ZM120.78,12.47l1.06.46-.49,6.29-1.18-.52.12-1.18-1.83-.8-.79.89-1.19-.52,4.29-4.62ZM113.49,10.21l1.17.29-1.17,4.8,2.43.59-.24.99-3.61-.88,1.41-5.79ZM108.63,13.06c-1.14-.41-1.68-1.01-1.6-1.99.08-.94.76-1.62,2.17-1.5.95.08,1.63.45,2,1.14l-.96.57c-.22-.43-.52-.65-1.12-.7-.54-.04-.85.18-.89.59-.04.46.32.7,1.1.96,1.21.41,1.73.92,1.65,1.97-.08.97-.8,1.67-2.19,1.56-1.04-.09-1.74-.43-2.21-1.16l.97-.56c.29.42.63.65,1.24.7.69.06.95-.23.97-.59.03-.41-.2-.67-1.14-.99ZM101.24,9.79l2.67,3.51-.35-3.72,1.14-.11.55,5.93-1.01.09-2.66-3.46.34,3.67-1.14.11-.55-5.93,1-.09ZM97.93,10.32l.27.99-2.42.66.35,1.29,2.17-.59.27.98-2.17.59.41,1.5,2.42-.66.27.98-3.58.98-1.57-5.75,3.58-.98ZM92.2,12.05l.42.94-2.28,1.03.55,1.22,2.05-.92.42.93-2.05.92.64,1.42,2.28-1.03.42.93-3.38,1.53-2.45-5.43,3.38-1.53ZM83.78,16.67l1.99,2.94c.57.84,1.1,1.02,1.72.61.61-.42.64-.98.07-1.82l-1.99-2.94,1-.68,1.99,2.93c.99,1.46.6,2.61-.49,3.35-1.09.74-2.3.68-3.29-.77l-1.99-2.94,1-.68ZM79.18,20.48c.96-.95,2.19-1.04,3.48.26l.59.6c.41.41.67.81.81,1.2l1.09-.08.08.99-1.05.08c-.07.47-.31.9-.7,1.29-.95.94-2.19,1.03-3.47-.27l-.6-.6c-1.29-1.31-1.18-2.53-.23-3.48ZM106.03,17.5c16.63,0,30.1,13.48,30.1,30.1,0,.14,0,.28-.01.42h-2.96s-.02.73-.08,1.45c-.07.8-.18,1.65-.18,1.7.6,0,2.33,0,3.02,0-1.77,14.94-14.47,26.53-29.89,26.53s-28.1-11.58-29.88-26.51c1.61.07,3.39-.48,4.68.37.49.32,1.07.87,1.38,1.12.31.25,1.36-1.05,1.21-1.19l-.29-.3c1.34,0,2.45,0,3.61,0,.17.22.43.41.73.49.23.07.71.08,1.08-.15.18.58.56,1.04,1.15,1.15.61.12,1.26-.21,1.56-.85.22.32.61.72,1,.84.39.12.94.02,1.28-.28.36-.34.51-.72.56-1.2h7.46c.65.24,1.02.95,1.62,1.15.19.06.65.07,1.02-.18.25-.17.37-.33.4-.44.06-.19-.05-.36-.08-.53h4.84c.16.56.52.91,1.15,1,.49.05.97-.16,1.26-.39.2.51.44.84,1,1.02.63.2,1.84-.07,1.95-1.48.56.4,1.23.88,1.87.9.65.02,1.15-.3,1.56-1.03.33,0,3.88-.02,3.88-.02-.07-.91-.2-1.34-.3-1.71-.14-.51-.33-.99-.59-1.46h-3.33c.23-.91.87-1.59,1.74-1.95.63-.22,1.29-.14,1.71.26,2.14,2.3,2.1,6.04,1.63,9.08-1.05,4.43-4.07,8.32-7.87,10.41-2.38,1.58-5.35,2.46-8.47,2.82-3.2.15-6.18-.41-8.79-1.56-1.87-.99-3.91-2.17-3.99-4.66.05-1.15.86-2.08,1.86-2.36,1.38-.4,2.48.02,3.35.66.33.26.46.53.53.89.05.71-.33,1.23-.89,1.48-.97.28-1.55-.64-2.41-.58-.37.03-.53.3-.57.45-.11.43.13.87.23,1.01.54.78,1.48,1.26,2.51,1.22,1.59-.12,2.87-.95,3.28-2.48.23-1.02.13-2.13-.51-2.96-1.18-1.31-2.99-1.92-4.85-1.9-1.81.1-3.61,1.2-4.29,2.84-.8,1.64-.37,3.82.66,5.2,2.4,3.22,5.98,4.32,8.66,5.14,9.44,2.87,19.31-1.05,25.01-7.73,3.79-4.58,5.95-10.51,5.67-16.88-.38-8.73-5.62-16.19-12.74-19.88-.18-.18-.49-.2-.71-.39-5.6-2.91-14.26-3.3-20.04-.34-1.48.56-2.71,1.41-4.07,2.22-1.02-.3-1.87-.76-2.96-.87-2.63-.26-5.26.28-6.72,2.36-.34,0-.8.05-1.12.28-.33.23-.62.54-.74,1.03-.12.54.02,1.07.16,1.59-.82,1.21-1.31,2.95-.74,4.47.99,2.31,2.97,4.42,5.35,5.37.16,1.07.79,1.92,1.3,2.78.1.31.23.72,0,1-.72.74-1.68,1.38-2.59,1.95h-1.54c-.18-.43-.33-.95-.74-1.22,0,0-.05-.04-.14-.04-.1,0-.16.04-.16.04-.82.55-1.62.96-2.44,1.24h-5.46c0-.14-.01-.28-.01-.42,0-16.63,13.48-30.1,30.1-30.1ZM86.46,34.24c.87-.5,1.98-.2,2.48.66.31.53.45,1.1.44,1.61v.02c-.29.05-.58.12-.84.21h0c.07-.39-.03-.92-.32-1.42-.27-.47-.87-.63-1.34-.36-.47.27-.63.87-.36,1.33.25.44.6.77.93.93l-.31.76c-.51-.23-1-.67-1.35-1.27-.5-.87-.2-1.98.66-2.48ZM84.55,33.7s0-.01-.01-.02c-.51-.89-.3-1.98.48-2.43.73-.42,1.7-.13,2.25.64h0c-1.08.41-2.01,1.04-2.72,1.81ZM88.12,39.68c.13-.04.23-.13.27-.26h0s.33-.89.33-.89c.07-.19.21-.35.39-.46h0c.38-.22.89-.35,1.46-.35h0c.56,0,1.07.13,1.46.35h0c.17.11.31.27.39.46l.33.89h0c.04.12.15.22.27.26h0c.42.13.73.53.73,1,0,.32-.15.61-.38.81h0c-.46.37-1.02.65-1.64.81h0s-.08.02-.12.02c-.26,0-.46-.21-.46-.46,0-.15.07-.28.17-.36l.65-.53s.07-.08.07-.14c0-.1-.08-.19-.19-.19h0c-.27.03-.53.1-.75.2h0c-.16.07-.34.11-.53.11h0c-.19,0-.37-.04-.53-.11h0c-.22-.1-.48-.17-.75-.2h0c-.1,0-.19.09-.19.19,0,.06.02.11.07.14l.65.53c.11.08.17.22.17.36,0,.26-.21.46-.46.46-.04,0-.08,0-.12-.01h0c-.62-.16-1.18-.44-1.64-.81h0c-.23-.19-.38-.48-.38-.81,0-.47.31-.86.73-1ZM95.86,33.7c-.71-.78-1.64-1.4-2.72-1.81h0c.54-.78,1.51-1.07,2.25-.64.78.45,1,1.54.48,2.43,0,0,0,.01-.01.02h0ZM94.63,34.24c.87.5,1.17,1.61.66,2.48-.35.6-.84,1.04-1.35,1.27l-.31-.76c.33-.16.68-.49.93-.93.27-.47.11-1.07-.36-1.33-.47-.27-1.07-.11-1.34.36-.29.5-.4,1.03-.32,1.42h0c-.27-.09-.55-.16-.85-.21v-.02c0-.51.13-1.08.44-1.61.5-.87,1.61-1.17,2.48-.66ZM89.3,43.05l.25-.08c3.5.51,5.9-1.76,7.42-4.5,2.96-1.08,6.32-1.54,9.61-1.64,0,0,1.52.02,2.2.08,1.02.1,2.01.3,2.99.44.76-1.82,1.89-3.73,3.73-4.51.16-.07.27.02.32.11.05.09.13.23.07.3-.06.07-.22.19-.34.3-1.49,1.28-2.79,3.05-2.87,5.23-.25,1.99.16,4.25,1.89,5.29,1.46.9,3.25.95,4.84.43.13.11.15.31.1.46-1.59,1.07-2.89,2.28-3.51,4.14-.23.71.44.99.86,1.4.2.19.4.59.24.83-.16.24-.5.26-.76.12-.26-.14-1.75-1.38-2-1.33-.25.05-.46,1.46-.58,1.75-.12.29-.4.34-.58.31-.18-.03-.37-.2-.41-.43-.06-.36,0-.91.03-1.07.04-.33.1-.91.02-.95s-.2.12-.2.12c0,0-1.31,1.22-1.46,1.35s-.49.29-.7.1c-.22-.19-.16-.52.03-.73.19-.21,3.58-3.83,3.58-3.83.33-.39.38-1.05.16-1.59-.25-.51-.8-.8-1.38-.79h-9.72c-.08-.4-.11-.59-.21-.92-.08-.23-.15-.54-.41-.62-.26-.1-.62-.04-.67.26-.06.31-.03.81-.02.89.02.46.06.92-.12,1.36-1.49,3.66-6.72,1.54-8.83,4.31-.12.16-.33.42-.33.53,0,.11.05.18.09.27.15.3.41.61.51.9.08.23.02.45-.19.6-.16.11-.49.17-.77-.12-.28-.29-.95-1.48-1.08-1.47-.08,0-.12.11-.19.29-.16.38-.37,1.03-.56,1.23-.13.13-.36.13-.53.07-.18-.06-.27-.24-.28-.37,0-.13,0-.3.04-.47.09-.47.4-1.13.3-1.25-.13-.15-1.79,1.42-2.25.98-.26-.24-.19-.49-.07-.66.11-.15,1.26-.95,1.68-1.25,1.27-.9,2.53-1.79,3.68-2.73-1.54-.66-2.94-1.44-3.61-3.1ZM106.69,47.11c-.2-.25-.5-.41-.7-.36-.2.05-1.35.74-1.63.89-.65.35-1.21.56-2.02.59h-1.58c.95-.63,1.83-1.61,2.24-2.71,2.92-.05,5.86-.05,8.72,0-.87.97-1.56,1.82-2.51,2.71h-2.25c.03-.38-.03-.84-.26-1.12ZM100.19,61.08c.16-.07.53-.15.66-.15.3,1.71-.27,2.76-1.14,3.21-.51.3-1.17.46-1.92.35-.29-.04-.66-.23-.8-.33-.14-.09-.73-.53-.56-.77.18-.24.82.41,1.26.53.97.23,1.87-.26,2.33-1.03.28-.57.27-1.18.15-1.79ZM69.62,35.52l5.74,1.59-.57,2.06c-.37,1.32-1.2,1.98-2.43,1.64-1.22-.34-1.66-1.33-1.29-2.67l.25-.89-2.02-.56.32-1.16ZM67.82,44.67l1.16-.24.22-1.98-1.08-.49.14-1.29,5.69,2.72-.13,1.15-6.15,1.4.14-1.28ZM67.87,51.17l2.27-1.21-.06-.97-2.34.14-.07-1.21,5.95-.37.13,2.13c.08,1.37-.48,2.26-1.68,2.34-.8.05-1.35-.29-1.66-.92l-2.46,1.39-.08-1.33ZM69.12,57.93l2.08-2.07-1.07-.47-1.54.37-.29-1.17,5.79-1.41.29,1.17-2.5.61,2.95,1.22.34,1.39-2.77-1.2-2.93,2.95-.34-1.4ZM70.88,63.03c-.42-.96-.45-1.74-.02-2.5l.95.59c-.24.45-.27.86-.03,1.43.28.63.65.73.98.58.38-.17.49-.49.34-1.47-.18-1.2.1-1.96,1-2.36.86-.38,1.78-.1,2.35,1.2.38.87.37,1.65-.06,2.3l-.96-.57c.27-.4.33-.76.09-1.32-.22-.5-.56-.67-.94-.51-.43.19-.47.62-.33,1.42.21,1.26,0,1.96-.96,2.38-.89.39-1.85.09-2.41-1.19ZM76.77,72.47l-.76-1.03.69-.96-1.18-1.6-1.12.38-.77-1.04,6.02-1.87.69.93-3.56,5.2ZM80.68,76.35l.84-4.27-2.53,2.68-.84-.79,4.08-4.34.73.69-.87,4.32,2.56-2.72.84.79-4.08,4.34-.74-.69ZM88.93,78.16l-.42.65c-1.03,1.59-2.2,1.66-3.33.92l-1.77-1.15,3.25-4.99,1.77,1.15c1.13.73,1.54,1.83.51,3.42ZM97,84.91l-1.1-.34v-4.29s-2.41,3.54-2.41,3.54l-1.1-.34.46-6.09,1.24.38-.4,3.98,2.24-3.41,1.04.32-.05,4.11,1.92-3.54,1.24.38-3.07,5.28ZM101.55,85.65l-1.2-.16.79-5.91,1.2.16-.79,5.91ZM106.99,85.96l-3.71-.11.18-5.95,1.21.04-.15,4.94,2.5.08-.03,1.02ZM110.94,85.6l-2.1.27-.75-5.91,2.1-.27c1.34-.17,2.36.4,2.6,2.28l.1.77c.24,1.87-.61,2.69-1.94,2.86ZM115.26,84.82l-1.67-5.72,1.16-.34,1.39,4.74,2.4-.7.29.98-3.57,1.04ZM120.12,83.24l-2.28-5.5,1.12-.46,2.28,5.5-1.12.46ZM123.93,81.48l-1.06.58-2.85-5.23,3.26-1.78.49.9-2.2,1.2.71,1.3,1.97-1.07.49.89-1.97,1.07,1.17,2.14ZM127.63,79.29l-3.57-4.77,2.97-2.22.62.82-2,1.5.8,1.07,1.8-1.34.61.82-1.8,1.34.93,1.24,2-1.5.61.82-2.97,2.23ZM135.06,72.72c-.69.79-1.38,1.15-2.24,1.09l.12-1.12c.51.02.9-.12,1.3-.59.45-.52.38-.89.11-1.13-.31-.27-.65-.24-1.48.33-1,.68-1.81.75-2.55.11-.71-.62-.85-1.57.08-2.63.62-.72,1.33-1.05,2.11-.93l-.11,1.11c-.48-.07-.83.03-1.23.49-.36.41-.36.8-.06,1.06.35.31.76.16,1.43-.31,1.05-.73,1.77-.85,2.56-.16.74.64.88,1.63-.04,2.69ZM137.47,69.56l-5.03-3.2,1.99-3.13.87.55-1.34,2.11,1.13.72,1.2-1.89.86.55-1.2,1.89,1.31.83,1.34-2.11.86.55-1.99,3.13ZM141.71,61.62l-2.57.06-.38.89,2.15.92-.48,1.11-5.47-2.35.84-1.96c.54-1.26,1.44-1.81,2.55-1.33.74.32,1.08.87,1.07,1.57l2.82-.13-.52,1.22ZM143.18,56.98l-6.27.65.3-1.28,4.2-.35-3.6-2.19.3-1.28,5.32,3.39-.25,1.07ZM144.05,52.36l-5.92-.64.13-1.2,5.92.64-.13,1.2Z" style="fill:#2d3b51;"/><path d="M87.86,75.6l-.76-.49-2.13,3.28.76.49c.67.44,1.2.13,1.76-.73l.42-.65c.56-.86.62-1.46-.05-1.9Z" style="fill:#2d3b51;"/><path d="M111.58,82.12c-.13-1.02-.47-1.51-1.27-1.41l-.9.11.49,3.88.9-.11c.8-.1,1-.68.87-1.69l-.1-.77Z" style="fill:#2d3b51;"/><path d="M80.86,23.71c.8.81,1.4.89,1.9.39.15-.15.25-.31.29-.48l-.89.06-.07-1.01.68-.04c-.1-.14-.22-.29-.38-.44l-.59-.6c-.8-.81-1.41-.88-1.9-.39s-.43,1.09.37,1.9l.6.6Z" style="fill:#2d3b51;"/></svg>