<?xml version="1.0" encoding="utf-8"?>
<!-- Generator: Adobe Illustrator 27.2.0, SVG Export Plug-In . SVG Version: 6.00 Build 0)  -->
<svg version="1.1" id="Layer_1" xmlns="http://www.w3.org/2000/svg" xmlns:xlink="http://www.w3.org/1999/xlink" x="0px" y="0px"
	 width="198.4px" height="85px" viewBox="0 0 198.4 85" style="enable-background:new 0 0 198.4 85;" xml:space="preserve">
<style type="text/css">
	.st0{fill:#253148;}
</style>
<g>
	<polygon class="st0" points="74.1,48.1 74.1,45.9 75.5,45.9 75.8,45.6 75.8,40.7 68.1,40.7 68.1,45.6 68.5,45.9 69.9,45.9 
		69.9,48.1 64.1,48.1 64.1,45.9 65.6,45.9 65.9,45.6 65.9,34.3 65.5,34 64.1,34 64.1,31.8 69.9,31.8 69.9,34 68.5,34 68.1,34.3 
		68.1,38.5 75.8,38.5 75.8,34.3 75.5,34 74.1,34 74.1,31.8 79.9,31.8 79.9,34 78.4,34 78.1,34.3 78.1,45.6 78.4,45.9 79.9,45.9 
		79.9,48.1 	"/>
	<g>
		<path class="st0" d="M87.3,37.5c-2.5,0-4.3,1.8-4.3,4.4c0,2.5,1.8,4.4,4.3,4.4c2.5,0,4.3-1.8,4.3-4.4
			C91.6,39.4,89.7,37.5,87.3,37.5 M87.3,48.4c-3.8,0-6.7-2.8-6.7-6.5c0-3.7,2.9-6.6,6.7-6.6c3.8,0,6.7,2.8,6.7,6.6
			C93.9,45.6,91.1,48.4,87.3,48.4"/>
		<path class="st0" d="M102,48.4c-2.2,0-4.7-0.9-4.7-5.3v-4.9l-0.3-0.3h-2.7v-2.2h3.1v-4.1h2.3v4.1h5.7v2.2h-5.4l-0.3,0.3v4.7
			c0,2.8,0.9,3.3,2.5,3.3c1.5,0,2.5-1.3,2.9-2.1l0.2-0.5l1.7,1.1l-0.1,0.4C106,46.7,104.2,48.4,102,48.4"/>
		<path class="st0" d="M118.6,40.6c-0.5-1.9-1.9-3.1-3.8-3.1c-2,0-3.7,1.2-4.2,3.1H118.6z M114.8,48.4c-3.8,0-6.7-2.8-6.7-6.5
			c0-3.7,2.9-6.6,6.7-6.6c3.7,0,6.4,2.8,6.4,6.8v0.5h-10.7c0.3,2.2,2.1,3.7,4.4,3.7c1.6,0,3.1-0.6,4.2-1.7l0.4-0.4l1.3,1.7l-0.3,0.3
			C119,47.6,117,48.4,114.8,48.4"/>
	</g>
	<polygon class="st0" points="122.4,48.1 122.4,45.9 125.4,45.9 125.8,45.6 125.8,33.9 125.4,33.6 122.4,33.6 122.4,31.5 128,31.5 
		128,45.6 128.3,45.9 131.4,45.9 131.4,48.1 	"/>
	<polygon class="st0" points="147.8,48.1 147.8,45.9 150.9,45.9 151.2,45.6 151.2,33.9 150.9,33.6 147.8,33.6 147.8,31.5 
		153.4,31.5 153.4,45.6 153.8,45.9 156.9,45.9 156.9,48.1 	"/>
	<g>
		<path class="st0" d="M139.3,48.4c-4.4,0-7.5-3.5-7.5-8.5s3.1-8.5,7.4-8.5c1.6,0,3.1,0.6,4.1,1.7v-1.3h2.2v6h-1.8l-0.1-0.3
			c-0.8-2.5-2.3-3.8-4.4-3.8c-3.7,0-5.1,3.4-5.1,6.2c0,3.1,1.6,6.2,5.1,6.2c1.8,0,3.5-0.8,4.7-2.2l0.3-0.4l1.5,1.7l-0.3,0.3
			C143.9,47.4,141.7,48.4,139.3,48.4"/>
		<path class="st0" d="M163.3,48.4c-2.9,0-4.7-1.8-4.7-4.8v-5.5l-0.3-0.3h-1.5v-2.2h4v7.6c0,2.6,1.4,2.9,2.5,2.9
			c1.6,0,2.9-0.9,3.8-2.6v-5.5l-0.3-0.3h-1.5v-2.2h4.1v9.9l0.3,0.3h1.5v2.2h-4v-1.3C166.2,47.7,164.9,48.4,163.3,48.4"/>
		<path class="st0" d="M176.6,43.3c0.9,1.9,2.3,2.9,4.1,2.9c2.3,0,3.9-1.8,3.9-4.4c0-2.5-1.7-4.4-3.9-4.4c-1.9,0-3.2,1-4.1,2.9V43.3
			z M180.8,48.4c-1.6,0-3.1-0.6-4.2-1.8v1.4h-3.9v-2.2h1.5l0.2-0.2V33l-0.2,0.7h-1.7v-2.2h4.1v5.7c1.1-1.1,2.5-1.8,4.2-1.8
			c3.5,0,6.2,2.8,6.2,6.6C187,45.6,184.4,48.4,180.8,48.4"/>
		<path class="st0" d="M28,21.6C17.8,21.6,9.5,29.9,9.5,40c0,10.2,8.3,18.4,18.5,18.4c10.2,0,18.5-8.3,18.5-18.4
			C46.4,29.9,38.2,21.6,28,21.6 M28,60.6C16.7,60.6,7.5,51.4,7.5,40c0-11.3,9.2-20.5,20.5-20.5c11.3,0,20.5,9.2,20.5,20.5
			C48.5,51.4,39.3,60.6,28,60.6"/>
	</g>
	<polygon class="st0" points="24.8,47.2 24.8,41.6 19,41.6 19,47.2 15.8,47.2 15.8,32.8 19,32.8 19,38.6 24.8,38.6 24.8,32.8 
		28,32.8 28,47.2 	"/>
	<g>
		<path class="st0" d="M30.2,38.1L30.2,38.1c0-3,2.3-5.3,5.4-5.3c2.1,0,3.4,0.9,4.3,2.1l-2.1,1.6c-0.6-0.7-1.2-1.2-2.2-1.2
			c-1.4,0-2.4,1.2-2.4,2.7v0c0,1.5,1,2.7,2.4,2.7c1.1,0,1.7-0.5,2.3-1.2l2.1,1.5c-1,1.3-2.3,2.3-4.5,2.3
			C32.6,43.4,30.2,41.2,30.2,38.1"/>
	</g>
	<rect x="30.9" y="45" class="st0" width="8.4" height="2.2"/>
</g>
</svg>
