<?xml version="1.0" encoding="UTF-8"?>
<svg id="Layer_1" data-name="Layer 1" xmlns="http://www.w3.org/2000/svg" viewBox="0 0 116.72 77.88">
  <defs>
    <style>
      .cls-1 {
        fill: #253148;
      }
    </style>
  </defs>
  <polygon class="cls-1" points="95.64 18.28 84.22 11.21 72.79 18.28 61.37 11.21 49.95 18.28 49.95 23.99 61.37 16.93 72.79 23.99 84.22 16.93 95.64 23.99 95.64 18.28"/>
  <polygon class="cls-1" points="72.79 7.06 61.37 0 49.95 7.06 38.53 0 27.1 7.06 27.1 12.77 38.53 5.61 49.95 12.77 61.37 5.61 72.79 12.77 72.79 7.06"/>
  <g>
    <path class="cls-1" d="M8.1,63.55h2.08l5.09,12.15,5.09-12.15h2.18l-6.13,13.91h-2.28l-6.02-13.91Z"/>
    <path class="cls-1" d="M24.71,63.66h1.97v13.91h-1.97v-13.91Z"/>
    <path class="cls-1" d="M36.66,77.88c-4.78,0-7.58-2.91-7.58-7.27s2.91-7.27,7.58-7.27c3.84,0,6.54,2.18,6.85,5.4h-2.08c-.42-2.18-2.18-3.53-4.88-3.53-3.53,0-5.5,2.08-5.5,5.5s2.08,5.5,5.61,5.5c2.7,0,4.67-1.56,4.98-3.84h2.08c-.31,3.22-3.12,5.5-7.06,5.5Z"/>
    <path class="cls-1" d="M50.99,77.47h-1.97v-12.05h-5.3v-1.77h12.46v1.77h-5.3v12.05h.1Z"/>
    <path class="cls-1" d="M64.07,63.24c4.78,0,7.58,2.91,7.58,7.27s-2.91,7.27-7.58,7.27-7.58-2.91-7.58-7.27,2.8-7.27,7.58-7.27Zm0,12.77c3.53,0,5.5-2.08,5.5-5.5s-2.08-5.5-5.61-5.5-5.5,2.08-5.5,5.5,2.08,5.5,5.61,5.5Z"/>
    <path class="cls-1" d="M73.94,63.66h7.27c3.22,0,4.88,1.35,4.88,3.74,0,1.77-.83,2.91-2.39,3.43,1.45,.21,1.97,1.04,2.18,2.6l.21,2.28c.1,.73,.1,1.25,.52,1.77h-2.28c-.1-.42-.21-.83-.21-1.45l-.21-2.08c-.1-1.87-.73-2.49-2.8-2.49h-5.19v5.92h-1.97v-13.71Zm1.87,1.66v4.57h4.57c2.49,0,3.74-.52,3.74-2.28,0-1.87-1.25-2.28-3.95-2.28h-4.36Z"/>
    <path class="cls-1" d="M89.62,63.66h1.97v13.91h-1.97v-13.91Z"/>
    <path class="cls-1" d="M100.42,63.66h2.08l6.13,13.91h-2.08l-1.77-3.95h-7.06l-1.87,3.95h-2.08l6.65-13.91Zm3.63,8.1l-2.7-5.92-2.8,5.92h5.5Z"/>
  </g>
  <g>
    <path class="cls-1" d="M0,20.87H14.95c8.41,0,12.56,3.22,12.56,10.07s-4.15,10.07-12.56,10.07H5.5v16.51H0V20.87Zm13.08,16.1c6.54,0,9.66-1.14,9.66-5.92s-3.01-5.92-9.35-5.92H5.5v11.84h7.58Z"/>
    <path class="cls-1" d="M29.39,34.79c.52-1.56,.42-4.36,.42-4.36,.83-.1,1.97-.1,2.91-.1,8.41,0,11.63,2.18,11.63,8.41v10.28c0,2.7,.52,3.74,2.28,3.74,.42,0,.83,0,1.35-.1v3.74c-1.45,.21-2.7,.21-3.53,.21-2.7,0-4.05-1.14-4.47-3.95-2.28,2.91-5.92,4.57-10.7,4.57-6.33,0-9.76-2.91-9.76-7.58,0-2.7,1.25-4.67,3.63-6.13,1.56-.93,4.26-1.25,8.1-1.66,5.61-.62,8.41-.52,8.41-3.53,0-2.7-1.97-3.84-6.54-3.84-2.49-.1-3.74,.31-3.74,.31Zm2.7,10.49c-4.88,.52-7.58,1.04-7.58,4.05,0,2.39,1.97,3.95,5.5,3.95,5.92,0,9.76-2.8,9.76-5.92v-3.74c-1.35,.73-3.84,1.25-7.68,1.66Z"/>
    <path class="cls-1" d="M49.95,31.26h4.57v4.26c2.28-3.32,5.61-5.09,9.35-5.09,.83,0,1.45,.1,2.08,.42v4.88c-1.25-.42-2.28-.52-3.22-.52-4.36,0-8.1,3.63-8.1,9.03v12.46h-4.57V31.26h-.1Z"/>
    <path class="cls-1" d="M67.91,30.43h4.57v11.84l13.29-11.11h6.85l-12.05,9.66,12.98,15.68h-5.82l-10.59-12.77-4.67,3.74v9.14h-4.57V30.43Z"/>
    <path class="cls-1" d="M96.68,48.29c.42,3.22,3.01,5.09,7.48,5.09,5.19,0,7.89-1.56,7.89-3.84,0-1.97-1.45-2.6-4.57-3.12l-5.71-1.04c-5.92-1.04-8.93-2.28-8.93-6.96,0-5.3,3.84-8.1,11.42-8.1s11.53,3.01,11.53,8.31v.21h-4.47c-.31-3.22-2.7-4.57-7.37-4.57-4.36,0-6.54,1.25-6.54,3.43,0,2.39,1.87,2.91,5.71,3.53l5.5,.93c5.61,.93,8.1,2.6,8.1,7.17,0,5.19-4.36,8.2-12.67,8.2s-11.84-2.91-12.46-9.14h5.09v-.1Z"/>
  </g>
</svg>