<?xml version="1.0" encoding="UTF-8"?><svg id="a" xmlns="http://www.w3.org/2000/svg" width="163.25" height="62.14" viewBox="0 0 163.25 62.14"><path d="m37.94,7.03c-6.09,2.97-8.62,10.31-5.65,16.4,2.97,6.09,10.31,8.62,16.41,5.65,6.09-2.97,8.62-10.32,5.64-16.41-2.12-4.36-6.49-6.89-11.04-6.89-1.8,0-3.63.4-5.37,1.25" style="fill:#b38530; stroke-width:0px;"/><path d="m24.57,11.09c1.49-4.98,7.45-11.09,7.45-11.09H0l26.36,61.9s18.52.1,23.98.07C18.5,26.84,23.25,15.5,24.57,11.09" style="fill:#b38530; stroke-width:0px;"/><path d="m81.33,2.89l-5.87,16.58h-2.42l-5.87-16.58h2.4l3.69,10.66c.14.37.26.76.39,1.17.12.41.23.82.34,1.23.11.41.19.78.26,1.12.07-.34.15-.71.26-1.12.1-.41.22-.82.35-1.24.13-.42.26-.82.39-1.2l3.67-10.63h2.43Z" style="fill:#253148; stroke-width:0px;"/><path d="m83.93,2.25c.36,0,.67.11.94.32.26.21.39.56.39,1.03s-.13.82-.39,1.04c-.26.22-.57.32-.94.32s-.68-.11-.94-.32-.38-.56-.38-1.04.13-.82.38-1.03c.25-.21.57-.32.94-.32Zm1.12,4.73v12.5h-2.28V6.98h2.28Z" style="fill:#253148; stroke-width:0px;"/><path d="m93.51,19.7c-1.15,0-2.15-.23-3.02-.69-.86-.46-1.53-1.17-2-2.12-.47-.95-.71-2.15-.71-3.6s.25-2.75.76-3.71,1.21-1.68,2.1-2.14c.9-.46,1.92-.69,3.08-.69.68,0,1.32.07,1.91.2.59.14,1.09.31,1.49.51l-.68,1.85c-.42-.17-.88-.31-1.37-.44-.49-.13-.95-.19-1.39-.19-.8,0-1.46.18-1.99.53-.53.35-.92.87-1.19,1.55s-.4,1.52-.4,2.52.13,1.79.39,2.46c.26.67.65,1.18,1.16,1.53.51.35,1.15.52,1.91.52.67,0,1.28-.08,1.81-.23.54-.15,1.03-.34,1.49-.58v2.01c-.44.24-.92.42-1.45.54-.53.12-1.17.18-1.92.18Z" style="fill:#253148; stroke-width:0px;"/><path d="m104.49,17.85c.32,0,.65-.03.99-.08.33-.06.62-.13.86-.22v1.75c-.26.11-.6.21-1.03.29-.43.08-.86.12-1.31.12-.68,0-1.3-.12-1.85-.35-.55-.23-.99-.64-1.32-1.2-.33-.57-.49-1.35-.49-2.36v-7.05h-1.74v-1.05l1.81-.84.81-2.7h1.41v2.84h3.62v1.76h-3.62v7.02c0,.7.17,1.23.5,1.58.34.35.79.52,1.36.52Z" style="fill:#253148; stroke-width:0px;"/><path d="m120,13.2c0,1.03-.13,1.94-.4,2.75-.27.81-.66,1.49-1.17,2.04-.51.56-1.12.98-1.84,1.27s-1.53.44-2.44.44c-.85,0-1.62-.15-2.33-.44-.71-.29-1.32-.71-1.83-1.27-.51-.56-.91-1.24-1.19-2.04-.28-.81-.42-1.72-.42-2.75,0-1.37.23-2.53.7-3.5.47-.96,1.14-1.7,2.01-2.2.87-.5,1.91-.75,3.12-.75s2.16.25,3.03.76c.87.51,1.55,1.24,2.03,2.2s.73,2.12.73,3.49Zm-9.29,0c0,.96.12,1.79.37,2.48.25.69.62,1.22,1.13,1.59.51.37,1.17.56,1.98.56s1.45-.18,1.96-.56c.51-.37.89-.9,1.13-1.59.24-.69.36-1.52.36-2.48s-.12-1.77-.36-2.45c-.24-.68-.62-1.2-1.13-1.57-.51-.36-1.17-.54-1.99-.54-1.19,0-2.07.4-2.63,1.2s-.83,1.92-.83,3.36Z" style="fill:#253148; stroke-width:0px;"/><path d="m129.16,6.75c.23,0,.47.01.74.04.26.03.49.06.68.1l-.24,2.12c-.18-.05-.39-.08-.63-.11s-.46-.05-.66-.05c-.48,0-.95.09-1.38.27-.44.18-.82.44-1.16.79-.33.34-.59.76-.78,1.26-.19.5-.28,1.06-.28,1.7v6.61h-2.29V6.98h1.84l.27,2.26h.1c.26-.45.57-.87.94-1.25.37-.38.79-.68,1.27-.9.48-.22,1.01-.33,1.59-.33Z" style="fill:#253148; stroke-width:0px;"/><path d="m134.18,2.25c.36,0,.67.11.94.32.26.21.39.56.39,1.03s-.13.82-.39,1.04-.57.32-.94.32-.68-.11-.94-.32-.38-.56-.38-1.04.13-.82.38-1.03c.25-.21.57-.32.94-.32Zm1.12,4.73v12.5h-2.28V6.98h2.28Z" style="fill:#253148; stroke-width:0px;"/><path d="m143.98,6.76c1.54,0,2.7.34,3.46,1.03.76.68,1.15,1.76,1.15,3.24v8.45h-1.63l-.44-1.81h-.09c-.35.45-.71.83-1.09,1.13-.38.3-.81.53-1.31.68-.49.15-1.1.23-1.81.23-.76,0-1.43-.14-2.02-.41s-1.05-.68-1.39-1.23-.5-1.25-.5-2.09c0-1.27.49-2.23,1.46-2.89.98-.66,2.45-1.02,4.43-1.08l2.15-.09v-.7c0-.98-.22-1.66-.65-2.06-.44-.4-1.04-.6-1.82-.6-.64,0-1.26.09-1.85.28-.59.18-1.16.41-1.7.66l-.73-1.66c.59-.3,1.26-.56,2.01-.76.75-.2,1.54-.31,2.36-.31Zm2.35,6.65l-1.75.08c-1.44.05-2.46.29-3.05.72-.59.43-.88,1.02-.88,1.79,0,.67.2,1.15.6,1.46s.93.47,1.59.47c1.01,0,1.85-.29,2.5-.86.65-.57.98-1.42.98-2.54v-1.12Z" style="fill:#253148; stroke-width:0px;"/><path d="m158.76,6.75c1.44,0,2.55.36,3.33,1.09.77.73,1.16,1.89,1.16,3.49v8.14h-2.26v-7.84c0-1-.22-1.75-.66-2.25-.44-.5-1.11-.75-2.02-.75-1.29,0-2.2.38-2.72,1.15-.52.76-.78,1.87-.78,3.32v6.37h-2.28V6.98h1.8l.33,1.76h.13c.26-.44.6-.8,1.01-1.1.41-.29.86-.52,1.37-.66.5-.15,1.03-.22,1.58-.22Z" style="fill:#253148; stroke-width:0px;"/><path d="m74.8,39.84h-2.34v-14.57h-5.04v-2.01h12.4v2.01h-5.02v14.57Z" style="fill:#253148; stroke-width:0px;"/><path d="m89.96,33.57c0,1.03-.13,1.94-.4,2.75-.27.8-.66,1.49-1.17,2.04-.51.56-1.12.98-1.84,1.27-.72.29-1.53.44-2.44.44-.85,0-1.62-.15-2.33-.44-.71-.29-1.32-.71-1.83-1.27-.51-.56-.91-1.24-1.19-2.04-.28-.81-.42-1.72-.42-2.75,0-1.37.23-2.54.7-3.5.47-.96,1.14-1.7,2.01-2.2s1.91-.75,3.12-.75,2.16.25,3.03.76c.87.51,1.55,1.24,2.03,2.2s.73,2.12.73,3.49Zm-9.29,0c0,.96.12,1.79.37,2.48.25.69.62,1.22,1.13,1.59.51.37,1.17.56,1.98.56s1.45-.19,1.96-.56c.51-.37.89-.9,1.13-1.59.24-.69.36-1.52.36-2.48s-.12-1.77-.36-2.45c-.24-.68-.62-1.2-1.13-1.57-.51-.36-1.17-.54-1.99-.54-1.19,0-2.07.4-2.63,1.2-.56.8-.83,1.92-.83,3.36Z" style="fill:#253148; stroke-width:0px;"/><path d="m103.31,27.35v12.5h-1.83l-.32-1.71h-.12c-.26.43-.59.79-1,1.08-.41.29-.87.5-1.37.65-.51.14-1.04.22-1.61.22-.96,0-1.77-.16-2.44-.48-.67-.32-1.18-.81-1.52-1.48-.34-.67-.52-1.53-.52-2.59v-8.18h2.29v7.86c0,1.01.22,1.76.65,2.26.43.5,1.1.75,1.99.75s1.56-.17,2.07-.52c.51-.34.88-.85,1.1-1.51.22-.66.33-1.47.33-2.43v-6.41h2.29Z" style="fill:#253148; stroke-width:0px;"/><path d="m113.22,27.12c.23,0,.47.01.74.04.26.03.49.06.68.1l-.24,2.12c-.18-.05-.39-.08-.63-.11-.24-.03-.46-.05-.66-.05-.48,0-.95.09-1.38.27-.44.18-.82.44-1.16.79-.33.34-.59.76-.78,1.26-.19.5-.28,1.06-.28,1.7v6.61h-2.29v-12.5h1.84l.27,2.26h.1c.26-.45.57-.87.94-1.25.37-.38.79-.68,1.27-.9.48-.22,1.01-.33,1.59-.33Z" style="fill:#253148; stroke-width:0px;"/><path d="m118.11,22.62c.36,0,.67.11.94.32.26.21.39.56.39,1.03s-.13.82-.39,1.04c-.26.22-.57.32-.94.32s-.68-.11-.94-.32c-.25-.22-.38-.56-.38-1.04s.13-.82.38-1.03c.25-.21.57-.32.94-.32Zm1.12,4.73v12.5h-2.28v-12.5h2.28Z" style="fill:#253148; stroke-width:0px;"/><path d="m131.37,36.35c0,.81-.2,1.49-.6,2.05-.4.56-.97.97-1.73,1.25-.76.28-1.66.42-2.72.42-.88,0-1.63-.07-2.27-.2-.64-.13-1.21-.32-1.72-.57v-2.02c.55.26,1.19.5,1.92.7s1.44.31,2.13.31c.98,0,1.68-.15,2.12-.46.43-.31.65-.73.65-1.26,0-.31-.09-.58-.26-.82-.17-.24-.48-.48-.91-.71-.43-.24-1.06-.51-1.87-.82-.79-.31-1.47-.62-2.04-.93-.56-.31-.99-.68-1.29-1.12s-.44-1.01-.44-1.7c0-1.08.43-1.91,1.3-2.48s2.01-.86,3.43-.86c.76,0,1.47.08,2.14.23.67.15,1.31.36,1.92.64l-.74,1.76c-.54-.23-1.1-.43-1.68-.58-.57-.15-1.16-.23-1.76-.23-.78,0-1.37.13-1.79.37-.41.25-.62.59-.62,1.03,0,.34.1.62.29.85.19.23.52.45.97.66.45.22,1.07.47,1.84.77.76.29,1.42.59,1.98.9.56.31.98.69,1.29,1.13.3.45.45,1.02.45,1.71Z" style="fill:#253148; stroke-width:0px;"/><path d="m147.94,27.12c1.38,0,2.43.36,3.14,1.08.71.72,1.06,1.88,1.06,3.46v8.18h-2.26v-7.89c0-.98-.2-1.72-.61-2.21-.4-.49-1.01-.74-1.81-.74-1.13,0-1.95.34-2.46,1.03s-.75,1.69-.75,3.01v6.8h-2.27v-7.89c0-.66-.09-1.2-.27-1.64-.18-.43-.45-.76-.81-.98-.36-.22-.81-.33-1.35-.33-.78,0-1.4.17-1.87.5-.46.34-.8.83-1.01,1.49s-.31,1.46-.31,2.42v6.43h-2.28v-12.5h1.8l.33,1.72h.13c.25-.43.57-.79.95-1.08s.81-.5,1.28-.65c.47-.15.96-.22,1.49-.22.94,0,1.73.17,2.37.51s1.11.86,1.42,1.55h.15c.4-.7.95-1.22,1.66-1.56.71-.34,1.47-.5,2.29-.5Z" style="fill:#253148; stroke-width:0px;"/><path d="m83.29,61.92l-1.84-4.93h-6.5l-1.81,4.93h-2.42l6.33-16.65h2.38l6.29,16.65h-2.44Zm-2.48-6.95l-1.75-4.89c-.05-.17-.13-.42-.24-.75-.11-.33-.22-.68-.33-1.03-.11-.36-.2-.65-.27-.88-.08.31-.16.64-.26.98-.1.34-.19.67-.29.96-.09.3-.17.54-.23.72l-1.77,4.89h5.14Z" style="fill:#253148; stroke-width:0px;"/><path d="m97.24,61.89l-1.91-6.53c-.08-.29-.17-.62-.27-.98-.09-.36-.19-.71-.28-1.07s-.17-.69-.24-.99-.13-.55-.16-.74h-.09c-.04.19-.09.44-.16.74s-.15.64-.23,1-.18.72-.27,1.08c-.09.36-.19.69-.28.99l-2,6.5h-2.52l-3.47-12.49h2.33l1.71,6.54c.11.44.22.89.33,1.36.11.47.2.91.27,1.33.08.42.13.77.17,1.07h.09c.04-.2.08-.44.14-.73.06-.29.12-.6.19-.92s.14-.63.22-.94c.08-.3.15-.57.22-.79l2.11-6.92h2.47l2.03,6.91c.1.33.2.7.31,1.12.11.41.2.82.28,1.22.08.4.14.74.17,1.03h.09c.03-.26.09-.59.17-1,.08-.41.18-.85.28-1.33.11-.48.22-.95.34-1.4l1.74-6.54h2.29l-3.49,12.49h-2.59Z" style="fill:#253148; stroke-width:0px;"/><path d="m110.56,49.2c1.54,0,2.7.34,3.46,1.03.76.68,1.15,1.76,1.15,3.24v8.45h-1.63l-.44-1.81h-.09c-.35.45-.71.83-1.09,1.13-.38.3-.81.53-1.31.68-.49.15-1.1.23-1.81.23-.76,0-1.43-.14-2.02-.41s-1.05-.68-1.39-1.23-.5-1.25-.5-2.09c0-1.27.49-2.23,1.46-2.89s2.45-1.02,4.43-1.08l2.15-.09v-.7c0-.98-.22-1.66-.65-2.06-.44-.4-1.04-.6-1.82-.6-.64,0-1.26.09-1.85.28-.59.19-1.16.41-1.7.66l-.73-1.66c.59-.3,1.26-.56,2.01-.76.75-.2,1.54-.31,2.36-.31Zm2.35,6.65l-1.75.08c-1.44.05-2.46.29-3.05.72s-.88,1.02-.88,1.79c0,.67.2,1.15.6,1.46s.93.46,1.59.46c1.01,0,1.85-.29,2.5-.86.65-.57.98-1.42.98-2.53v-1.12Z" style="fill:#253148; stroke-width:0px;"/><path d="m125.02,49.19c.23,0,.47.01.74.04.26.03.49.06.68.1l-.24,2.12c-.18-.05-.39-.08-.63-.11-.24-.03-.46-.05-.66-.05-.48,0-.95.09-1.38.27-.44.18-.82.44-1.16.79s-.59.76-.78,1.26c-.19.5-.28,1.06-.28,1.7v6.61h-2.29v-12.5h1.84l.27,2.26h.1c.26-.45.57-.87.94-1.25.37-.38.79-.68,1.27-.9.48-.22,1.01-.33,1.59-.33Z" style="fill:#253148; stroke-width:0px;"/><path d="m132.76,62.14c-1.53,0-2.75-.54-3.66-1.62-.91-1.08-1.37-2.68-1.37-4.81s.46-3.77,1.39-4.87c.93-1.1,2.16-1.65,3.69-1.65.64,0,1.21.09,1.69.26.48.17.9.4,1.25.69.35.29.64.61.88.98h.14c-.04-.23-.08-.56-.11-.99-.04-.42-.06-.79-.06-1.11v-4.75h2.28v17.65h-1.8l-.37-1.73h-.1c-.23.36-.52.69-.87.99-.35.3-.77.54-1.26.71-.49.17-1.06.26-1.72.26Zm.53-1.86c1.23,0,2.1-.36,2.61-1.07.51-.71.77-1.77.78-3.16v-.35c0-1.49-.24-2.63-.73-3.43-.49-.8-1.38-1.2-2.68-1.2-1.06,0-1.86.41-2.39,1.24-.54.83-.8,1.98-.8,3.44s.27,2.57.8,3.35,1.34,1.17,2.42,1.17Z" style="fill:#253148; stroke-width:0px;"/><path d="m151.11,58.42c0,.81-.2,1.49-.6,2.05-.4.56-.97.97-1.73,1.25-.76.28-1.66.42-2.72.42-.88,0-1.63-.07-2.27-.2-.64-.13-1.21-.32-1.72-.57v-2.02c.55.26,1.19.5,1.92.7s1.44.31,2.13.31c.98,0,1.68-.15,2.12-.46.43-.31.65-.73.65-1.26,0-.31-.09-.58-.26-.82-.17-.24-.48-.48-.91-.71-.43-.24-1.06-.51-1.87-.82-.79-.31-1.47-.62-2.04-.93-.56-.31-.99-.68-1.29-1.12s-.44-1.01-.44-1.7c0-1.08.43-1.91,1.3-2.48s2.01-.86,3.43-.86c.76,0,1.47.08,2.14.23.67.15,1.31.36,1.92.64l-.74,1.76c-.54-.23-1.1-.43-1.68-.58-.57-.15-1.16-.23-1.76-.23-.78,0-1.37.13-1.79.37-.41.25-.62.59-.62,1.03,0,.34.1.62.29.85.19.23.52.45.97.66.45.22,1.07.47,1.84.77.76.29,1.42.59,1.98.9.56.31.98.69,1.29,1.13.3.45.45,1.02.45,1.71Z" style="fill:#253148; stroke-width:0px;"/></svg>