<?xml version="1.0" encoding="UTF-8"?>
<svg id="Layer_1" data-name="Layer 1" xmlns="http://www.w3.org/2000/svg" viewBox="0 0 218.63 69.86">
  <defs>
    <style>
      .cls-1 {
        fill: #253148;
      }
    </style>
  </defs>
  <path class="cls-1" d="M148.77,69.86h69.86V0h-69.86V69.86Zm4.18-65.68h61.51v61.51h-61.51V4.17Z"/>
  <path class="cls-1" d="M170.61,46.3c-1.81,0-4.03-1.37-4.73-5.22l-6.02,1.28c1.64,6.28,5.49,8.98,10.44,8.98,6.41,0,10.18-3.63,10.18-9.11,0-10-13.63-10.35-13.63-15.18,0-2.17,1.2-3.5,3.36-3.5s3.45,1.28,4.47,4.29l5.49-1.59c-1.06-4.51-4.38-7.74-9.82-7.74-6.33,0-9.6,3.45-9.6,8.94,0,8.94,13.63,9.03,13.63,15.04,0,2.39-1.64,3.81-3.76,3.81"/>
  <polygon class="cls-1" points="190.38 36.79 190.38 36.79 199.01 36.79 199.01 50.6 205.12 50.6 205.12 18.63 199.01 18.63 199.01 31.38 193.27 31.38 190.38 35.39 190.38 31.38 190.38 18.63 184.26 18.63 184.26 50.6 190.38 50.6 190.38 36.79"/>
  <path class="cls-1" d="M81.63,69.86h58.83V36.39h-58.83v33.47Zm21.18-5.98h-4.11v-9.3h-5.81v9.3h-4.11v-21.51h4.11v11.28s1.95-2.7,1.95-2.7h3.86v-8.58h4.11v21.51Zm6.96-.02h-4.11v-21.5h4.11v21.5Zm13.5,0h-10.72v-21.5h4.11v17.86h6.61v3.63Zm12.07,0h-10.72v-21.5h4.11v20.55h0l1.94-2.69h4.67v3.63Z"/>
  <path class="cls-1" d="M73.6,9.25h-2.11v5.95h2.11c1.82,0,2.92-.89,2.92-2.98s-1.1-2.98-2.92-2.98"/>
  <path class="cls-1" d="M28.76,9.19c-1.64,0-2.68,.66-2.68,3.04v8.75c0,2.38,1.04,3.04,2.68,3.04s2.68-.65,2.68-3.04V12.22c0-2.38-1.04-3.04-2.68-3.04"/>
  <path class="cls-1" d="M0,33.47H140.47V0H0V33.47Zm13.06-5.82c-3.34,0-5.93-1.81-7.03-6.04l4.05-.86c.48,2.59,1.97,3.51,3.19,3.51,1.43,0,2.53-.95,2.53-2.56,0-4.05-9.17-4.11-9.17-10.12,0-3.69,2.2-6.02,6.46-6.02,3.66,0,5.89,2.17,6.61,5.21l-3.69,1.07c-.68-2.03-1.58-2.89-3.01-2.89s-2.26,.9-2.26,2.35c0,3.25,9.17,3.48,9.17,10.21,0,3.69-2.53,6.13-6.85,6.13m22.49-7.2c0,5.3-2.8,7.21-6.79,7.21s-6.79-1.91-6.79-7.21v-7.68c0-5.3,2.8-7.21,6.79-7.21s6.79,1.9,6.79,7.21v7.68Zm10.65,6.91h-4.67l-5.51-21.5h4.05l4.62,18.86,.32-8.02,2.65-10.84h4.02l-5.48,21.5Zm18.51,0h-11.55V5.85h11.26v3.63h-7.15v4.94h5.44v3.63h-5.44v5.66h7.44v3.63Zm12.33,0l-3.57-8.75h-1.96v8.75h-4.11V5.85h5.95c4.94,0,7.29,2.38,7.29,6.43,0,2.68-.95,4.62-3.24,5.48l4.05,9.59h-4.41Zm17.97,0h-11.55V5.85h11.26v3.63h-7.15v4.94h5.45v3.63h-5.45v5.66h7.44v3.63Zm6.7,0h-4.11V5.85h4.11V27.35Zm9.87-3.34c1.55,0,2.5-1.13,2.5-2.98v-1.31h-2.89v-3.39h7v11.01h-2.14l-.62-1.79c-1.1,1.25-2.29,2.09-3.84,2.09-3.99,0-6.79-1.91-6.79-7.2v-7.68c0-5.3,2.8-7.21,6.79-7.21,4.2,0,6.46,2.41,6.61,7.29h-4.11c0-2.77-1.01-3.66-2.5-3.66-1.64,0-2.68,.65-2.68,3.03v8.76c0,2.38,1.04,3.04,2.68,3.04m23.57,3.34h-3.93l-6.28-13.88h-.06v13.88h-3.75V5.85h4.5l7.87,17.75-2.09-7.79V5.85h3.75V27.35Z"/>
</svg>