<?xml version="1.0" encoding="utf-8"?>
<!-- Generator: Adobe Illustrator 27.1.1, SVG Export Plug-In . SVG Version: 6.00 Build 0)  -->
<svg version="1.1" baseProfile="basic" id="Layer_1"
	 xmlns="http://www.w3.org/2000/svg" xmlns:xlink="http://www.w3.org/1999/xlink" x="0px" y="0px" width="212.6px" height="85px"
	 viewBox="0 0 212.6 85" xml:space="preserve">
<g>
	<polygon fill="#253148" points="145.9,20.1 134.5,13.1 123.1,20.1 111.6,13.1 100.2,20.1 100.2,25.8 111.6,18.8 123.1,25.8 
		134.5,18.8 145.9,25.8 	"/>
	<polygon fill="#253148" points="123.1,8.9 111.6,1.9 100.2,8.9 88.8,1.9 77.4,8.9 77.4,14.6 88.8,7.5 100.2,14.6 111.6,7.5 
		123.1,14.6 	"/>
	<g>
		<path fill="#253148" d="M58.4,65.4h2.1l5.1,12.2l5.1-12.2h2.2l-6.1,13.9h-2.3L58.4,65.4L58.4,65.4z"/>
		<path fill="#253148" d="M75,65.5h2v13.9h-2V65.5z"/>
		<path fill="#253148" d="M86.9,79.7c-4.8,0-7.6-2.9-7.6-7.3s2.9-7.3,7.6-7.3c3.8,0,6.5,2.2,6.8,5.4h-2.1c-0.4-2.2-2.2-3.5-4.9-3.5
			c-3.5,0-5.5,2.1-5.5,5.5s2.1,5.5,5.6,5.5c2.7,0,4.7-1.6,5-3.8H94C93.7,77.4,90.9,79.7,86.9,79.7L86.9,79.7z"/>
		<path fill="#253148" d="M101.3,79.3h-2V67.3H94v-1.8h12.5v1.8h-5.3v12.1H101.3L101.3,79.3z"/>
		<path fill="#253148" d="M114.3,65.1c4.8,0,7.6,2.9,7.6,7.3s-2.9,7.3-7.6,7.3s-7.6-2.9-7.6-7.3S109.6,65.1,114.3,65.1z M114.3,77.9
			c3.5,0,5.5-2.1,5.5-5.5s-2.1-5.5-5.6-5.5s-5.5,2.1-5.5,5.5S110.8,77.9,114.3,77.9z"/>
		<path fill="#253148" d="M124.2,65.5h7.3c3.2,0,4.9,1.4,4.9,3.7c0,1.8-0.8,2.9-2.4,3.4c1.4,0.2,2,1,2.2,2.6l0.2,2.3
			c0.1,0.7,0.1,1.2,0.5,1.8h-2.3c-0.1-0.4-0.2-0.8-0.2-1.4l-0.2-2.1c-0.1-1.9-0.7-2.5-2.8-2.5h-5.2v5.9h-2L124.2,65.5L124.2,65.5z
			 M126.1,67.2v4.6h4.6c2.5,0,3.7-0.5,3.7-2.3c0-1.9-1.2-2.3-3.9-2.3L126.1,67.2L126.1,67.2z"/>
		<path fill="#253148" d="M139.9,65.5h2v13.9h-2V65.5z"/>
		<path fill="#253148" d="M150.7,65.5h2.1l6.1,13.9h-2.1l-1.8-3.9H148l-1.9,3.9H144L150.7,65.5z M154.3,73.6l-2.7-5.9l-2.8,5.9
			H154.3z"/>
	</g>
	<g>
		<path fill="#253148" d="M50.3,22.7h15c8.4,0,12.6,3.2,12.6,10.1s-4.1,10.1-12.6,10.1h-9.5v16.5h-5.5V22.7z M63.3,38.8
			c6.5,0,9.7-1.1,9.7-5.9S70,27,63.7,27h-7.9v11.8H63.3z"/>
		<path fill="#253148" d="M79.7,36.6c0.5-1.6,0.4-4.4,0.4-4.4c0.8-0.1,2-0.1,2.9-0.1c8.4,0,11.6,2.2,11.6,8.4v10.3
			c0,2.7,0.5,3.7,2.3,3.7c0.4,0,0.8,0,1.3-0.1v3.7c-1.4,0.2-2.7,0.2-3.5,0.2c-2.7,0-4.1-1.1-4.5-4c-2.3,2.9-5.9,4.6-10.7,4.6
			c-6.3,0-9.8-2.9-9.8-7.6c0-2.7,1.2-4.7,3.6-6.1c1.6-0.9,4.3-1.2,8.1-1.7c5.6-0.6,8.4-0.5,8.4-3.5c0-2.7-2-3.8-6.5-3.8
			C80.9,36.2,79.6,36.7,79.7,36.6L79.7,36.6z M82.4,47.1c-4.9,0.5-7.6,1-7.6,4c0,2.4,2,4,5.5,4c5.9,0,9.8-2.8,9.8-5.9v-3.7
			C88.7,46.2,86.2,46.7,82.4,47.1z"/>
		<path fill="#253148" d="M100.2,33.1h4.6v4.3c2.3-3.3,5.6-5.1,9.3-5.1c0.8,0,1.4,0.1,2.1,0.4v4.9c-1.2-0.4-2.3-0.5-3.2-0.5
			c-4.4,0-8.1,3.6-8.1,9v12.5h-4.6V33.1H100.2L100.2,33.1z"/>
		<path fill="#253148" d="M118.2,32.3h4.6v11.8L136,33h6.8l-12.1,9.7l13,15.7H138l-10.6-12.8l-4.7,3.7v9.1h-4.6L118.2,32.3
			L118.2,32.3z"/>
		<path fill="#253148" d="M146.9,50.1c0.4,3.2,3,5.1,7.5,5.1c5.2,0,7.9-1.6,7.9-3.8c0-2-1.4-2.6-4.6-3.1l-5.7-1
			c-5.9-1-8.9-2.3-8.9-7c0-5.3,3.8-8.1,11.4-8.1s11.5,3,11.5,8.3v0.2h-4.5c-0.3-3.2-2.7-4.6-7.4-4.6c-4.4,0-6.5,1.2-6.5,3.4
			c0,2.4,1.9,2.9,5.7,3.5l5.5,0.9c5.6,0.9,8.1,2.6,8.1,7.2c0,5.2-4.4,8.2-12.7,8.2s-11.8-2.9-12.5-9.1h5.1
			C146.9,50.2,146.9,50.1,146.9,50.1z"/>
	</g>
</g>
</svg>
