<?xml version="1.0" encoding="utf-8"?>
<!-- Generator: Adobe Illustrator 27.9.0, SVG Export Plug-In . SVG Version: 6.00 Build 0)  -->
<svg version="1.1" id="Layer_1" xmlns="http://www.w3.org/2000/svg" xmlns:xlink="http://www.w3.org/1999/xlink" x="0px" y="0px"
	 viewBox="0 0 203.5 78.1" style="enable-background:new 0 0 203.5 78.1;" xml:space="preserve">
<style type="text/css">
	.st0{fill:#0692A0;}
	.st1{fill:#B9C233;}
</style>
<g>
	<g>
		<g>
			<path class="st0" d="M6.9,50.5l4,11H8l-0.5-1.8h-4l-0.5,1.8H0l4.1-11H6.9z M5.4,53.1c-0.1,0.6-0.3,1.1-0.5,1.7
				c-0.2,0.8-0.7,2.1-0.9,2.9h2.8L5.4,53.1z"/>
			<path class="st0" d="M12.7,58.7c0.7,0.6,1.5,1.1,2.4,1.1c0.6,0,1.4-0.2,1.4-0.8c0-0.3-0.2-0.4-0.3-0.5c-0.4-0.2-0.9-0.2-1.4-0.3
				c-0.4-0.1-0.7-0.1-1.1-0.2c-0.5-0.1-1-0.3-1.4-0.7c-0.4-0.4-0.6-0.9-0.6-1.5c0-1.3,1.1-2.7,3.4-2.7c1.9,0,3.1,0.8,3.6,1.2
				l-1.5,1.4c-0.8-0.6-1.5-0.8-2-0.8c-0.9,0-1.1,0.4-1.1,0.6c0,0.5,0.5,0.6,1.3,0.7c1.6,0.3,3.5,0.7,3.5,2.7c0,1.9-1.9,2.8-3.8,2.8
				c-2.3,0-3.4-1.1-3.9-1.6L12.7,58.7z"/>
			<path class="st0" d="M21.1,58.7c0.7,0.6,1.5,1.1,2.4,1.1c0.6,0,1.4-0.2,1.4-0.8c0-0.3-0.2-0.4-0.3-0.5c-0.4-0.2-0.9-0.2-1.4-0.3
				c-0.4-0.1-0.7-0.1-1.1-0.2c-0.5-0.1-1-0.3-1.4-0.7c-0.4-0.4-0.6-0.9-0.6-1.5c0-1.3,1.1-2.7,3.4-2.7c1.9,0,3.1,0.8,3.6,1.2
				l-1.5,1.4c-0.8-0.6-1.5-0.8-2-0.8c-0.9,0-1.1,0.4-1.1,0.6c0,0.5,0.5,0.6,1.3,0.7c1.6,0.3,3.5,0.7,3.5,2.7c0,1.9-1.9,2.8-3.8,2.8
				c-2.3,0-3.4-1.1-3.9-1.6L21.1,58.7z"/>
			<path class="st0" d="M37.1,57.4c0,2-1.2,4.3-4.3,4.3c-2.3,0-4.4-1.3-4.4-4.3c0-2.5,1.6-4.5,4.7-4.3
				C36.4,53.3,37.1,55.9,37.1,57.4 M31.2,55.8c-0.3,0.5-0.4,1-0.4,1.6c0,1.3,0.6,2.4,2,2.4c1.3,0,1.9-1,1.9-2.3c0-0.9-0.2-1.6-0.7-2
				C33.6,55,33,55,32.6,55C32,55,31.6,55.3,31.2,55.8"/>
			<path class="st0" d="M46,59.5c-0.3,0.5-0.6,1-1.3,1.4c-0.6,0.4-1.4,0.7-2.3,0.7c-1.6,0-4-0.9-4-4.2c0-2.4,1.4-4.3,4.1-4.3
				c0.9,0,2.4,0.2,3.5,1.9l-1.8,1c-0.1-0.3-0.3-0.6-0.7-0.9c-0.2-0.2-0.5-0.3-0.9-0.3c-1.3,0-1.7,1.5-1.7,2.5c0,1.1,0.5,2.4,1.8,2.4
				c0.1,0,0.7,0,1.2-0.6c0.2-0.2,0.3-0.4,0.4-0.7L46,59.5z"/>
			<path class="st0" d="M47,50.5h2.4v1.8H47V50.5z M47,53.3h2.4v8.1H47V53.3z"/>
			<path class="st0" d="M51.7,55.6c0-0.6,0.1-1.2,0.9-1.8c0.7-0.6,1.7-0.7,2.7-0.7c1,0,3.4,0.2,3.4,2.3v4.7c0,0.9,0,1,0.2,1.3h-2.3
				v-0.7c-0.6,0.4-1.3,1-2.5,1c-1.9,0-2.7-1.3-2.7-2.5c0-1.3,1-2,1.7-2.3c0.7-0.3,2.2-0.6,3.2-0.7v-0.4c0-0.4-0.1-1-0.9-1
				c-1.1,0-1.2,0.7-1.3,0.9H51.7z M54.7,58.1c-0.4,0.2-1,0.4-1,1c0,0.4,0.3,0.8,0.9,0.8c0.3,0,0.6-0.1,0.8-0.3
				c0.8-0.5,0.8-1.2,0.8-2.1L54.7,58.1z"/>
			<path class="st0" d="M61.3,51h2.4v2.5h1.6V55h-1.6v3.6c0,0.5,0,0.9,0.6,0.9l0.9,0v1.9c-0.5,0.1-0.8,0.1-1.3,0.1
				c-0.8,0-1.7,0-2.2-0.8c-0.3-0.5-0.3-1.1-0.3-1.8V55h-1.2v-1.5h1.2V51z"/>
			<path class="st0" d="M66.8,50.5h2.4v1.8h-2.4V50.5z M66.8,53.3h2.4v8.1h-2.4V53.3z"/>
			<path class="st0" d="M79.7,57.4c0,2-1.2,4.3-4.3,4.3c-2.3,0-4.4-1.3-4.4-4.3c0-2.5,1.6-4.5,4.7-4.3C79,53.3,79.7,55.9,79.7,57.4
				 M73.8,55.8c-0.3,0.5-0.4,1-0.4,1.6c0,1.3,0.6,2.4,2,2.4c1.3,0,1.9-1,1.9-2.3c0-0.9-0.2-1.6-0.7-2C76.1,55,75.6,55,75.2,55
				C74.5,55,74.1,55.3,73.8,55.8"/>
			<path class="st0" d="M83.9,54.1c0.2-0.2,0.4-0.4,0.8-0.6c0.4-0.2,0.9-0.3,1.5-0.3c0.5,0,1,0.1,1.4,0.3c0.9,0.5,1.1,1.2,1.1,2.4
				v5.5h-2.4v-4.6c0-0.7,0-1-0.1-1.2c-0.2-0.4-0.6-0.6-1.1-0.6c-1.3,0-1.3,1-1.3,2v4.4h-2.4v-8.1h2.4V54.1z"/>
			<path class="st0" d="M98.8,61.7c-2.5,0-3.6-1.9-3.6-3.8c0-1.6,0.8-3.9,3.6-3.9c2.4,0,3.5,1.9,3.5,3.9
				C102.3,60,101,61.7,98.8,61.7 M100.9,56.8c-0.3-1.4-1.2-1.9-2.1-1.9c-1.7,0-2.3,1.3-2.3,3c0,1.5,0.6,2.8,2.2,2.8
				c2.1,0,2.2-2.1,2.2-2.9C101,57.3,100.9,57,100.9,56.8"/>
			<path class="st0" d="M105.8,54.1h1.4v1h-1.4v6.3h-1.2v-6.3h-1.2v-1h1.2l0-1.5c0-0.6,0-2.1,1.9-2.1c0.4,0,0.7,0.1,0.9,0.1v1
				c-0.2,0-0.5-0.1-0.7-0.1c-0.9,0-0.9,0.7-0.9,1.3V54.1z"/>
			<path class="st0" d="M122.7,59c-0.4,0.6-0.8,1.3-1.7,1.9c-0.5,0.3-1.5,1-3.1,1c-2.9,0-5.2-2.1-5.2-5.8c0-3.2,2.2-5.8,5.3-5.8
				c1.3,0,2.4,0.4,3.2,1.1c0.8,0.6,1.1,1.2,1.4,1.8l-2.2,1.1c-0.2-0.4-0.3-0.7-0.8-1.1c-0.5-0.4-1.1-0.5-1.5-0.5
				c-1.8,0-2.7,1.6-2.7,3.5c0,2.4,1.2,3.6,2.7,3.6c1.4,0,2-1,2.4-1.6L122.7,59z"/>
			<path class="st0" d="M132.2,57.4c0,2-1.2,4.3-4.3,4.3c-2.3,0-4.4-1.3-4.4-4.3c0-2.5,1.6-4.5,4.7-4.3
				C131.5,53.3,132.2,55.9,132.2,57.4 M126.3,55.8c-0.3,0.5-0.4,1-0.4,1.6c0,1.3,0.6,2.4,2,2.4c1.3,0,1.9-1,1.9-2.3
				c0-0.9-0.2-1.6-0.7-2c-0.5-0.5-1.1-0.5-1.4-0.4C127.1,55,126.7,55.3,126.3,55.8"/>
			<path class="st0" d="M136.5,54.1c0.2-0.2,0.4-0.4,0.8-0.6c0.4-0.2,0.9-0.3,1.5-0.3c0.5,0,1,0.1,1.4,0.3c0.9,0.5,1.1,1.2,1.1,2.4
				v5.5h-2.4v-4.6c0-0.7,0-1-0.1-1.2c-0.2-0.4-0.6-0.6-1.1-0.6c-1.3,0-1.3,1-1.3,2v4.4h-2.4v-8.1h2.4V54.1z"/>
			<path class="st0" d="M144.1,58.7c0.7,0.6,1.5,1.1,2.4,1.1c0.6,0,1.4-0.2,1.4-0.8c0-0.3-0.2-0.4-0.3-0.5c-0.4-0.2-0.9-0.2-1.4-0.3
				c-0.4-0.1-0.7-0.1-1.1-0.2c-0.5-0.1-1-0.3-1.4-0.7c-0.4-0.4-0.6-0.9-0.6-1.5c0-1.3,1.1-2.7,3.4-2.7c1.9,0,3.1,0.8,3.6,1.2
				l-1.5,1.4c-0.8-0.6-1.5-0.8-2-0.8c-0.9,0-1.1,0.4-1.1,0.6c0,0.5,0.5,0.6,1.3,0.7c1.6,0.3,3.5,0.7,3.5,2.7c0,1.9-1.9,2.8-3.8,2.8
				c-2.3,0-3.4-1.1-3.9-1.6L144.1,58.7z"/>
			<path class="st0" d="M156.8,53.3h2.4v8.1h-2.4v-0.8c-0.2,0.3-0.4,0.4-0.8,0.6c-0.5,0.2-1,0.4-1.5,0.4c-0.5,0-1.5-0.1-2.1-0.9
				c-0.4-0.6-0.5-1.1-0.5-2.4v-5.1h2.4v5c0,0.4,0,0.7,0.2,1c0.1,0.2,0.5,0.4,0.9,0.4c0.1,0,0.5,0,0.8-0.2c0.5-0.3,0.5-0.7,0.5-1.1
				V53.3z"/>
			<rect x="161.6" y="50.5" class="st0" width="2.4" height="11"/>
			<path class="st0" d="M166.7,51h2.4v2.5h1.6V55h-1.6v3.6c0,0.5,0,0.9,0.6,0.9l0.9,0v1.9c-0.5,0.1-0.8,0.1-1.3,0.1
				c-0.8,0-1.7,0-2.2-0.8c-0.3-0.5-0.3-1.1-0.3-1.8V55h-1.2v-1.5h1.2V51z"/>
			<path class="st0" d="M172.1,55.6c0-0.6,0.1-1.2,0.9-1.8c0.7-0.6,1.7-0.7,2.7-0.7c1,0,3.4,0.2,3.4,2.3v4.7c0,0.9,0,1,0.2,1.3h-2.3
				v-0.7c-0.6,0.4-1.3,1-2.5,1c-1.9,0-2.7-1.3-2.7-2.5c0-1.3,1-2,1.7-2.3c0.7-0.3,2.2-0.6,3.2-0.7v-0.4c0-0.4-0.1-1-0.9-1
				c-1.1,0-1.2,0.7-1.3,0.9H172.1z M175.2,58.1c-0.4,0.2-1,0.4-1,1c0,0.4,0.3,0.8,0.9,0.8c0.3,0,0.6-0.1,0.8-0.3
				c0.8-0.5,0.8-1.2,0.8-2.1L175.2,58.1z"/>
			<path class="st0" d="M183.9,54.1c0.2-0.2,0.4-0.4,0.8-0.6c0.4-0.2,0.9-0.3,1.5-0.3c0.5,0,1,0.1,1.4,0.3c0.9,0.5,1.1,1.2,1.1,2.4
				v5.5h-2.4v-4.6c0-0.7,0-1-0.1-1.2c-0.2-0.4-0.6-0.6-1.1-0.6c-1.3,0-1.3,1-1.3,2v4.4h-2.4v-8.1h2.4V54.1z"/>
			<path class="st0" d="M191.4,51h2.4v2.5h1.6V55h-1.6v3.6c0,0.5,0,0.9,0.6,0.9l0.9,0v1.9c-0.5,0.1-0.8,0.1-1.3,0.1
				c-0.8,0-1.7,0-2.2-0.8c-0.3-0.5-0.3-1.1-0.3-1.8V55h-1.2v-1.5h1.2V51z"/>
			<path class="st0" d="M197.2,58.7c0.7,0.6,1.5,1.1,2.4,1.1c0.6,0,1.4-0.2,1.4-0.8c0-0.3-0.2-0.4-0.3-0.5c-0.4-0.2-0.9-0.2-1.4-0.3
				c-0.4-0.1-0.7-0.1-1.1-0.2c-0.5-0.1-1-0.3-1.4-0.7c-0.4-0.4-0.6-0.9-0.6-1.5c0-1.3,1.1-2.7,3.4-2.7c1.9,0,3.1,0.8,3.6,1.2
				l-1.5,1.4c-0.8-0.6-1.5-0.8-2-0.8c-0.9,0-1.1,0.4-1.1,0.6c0,0.5,0.5,0.6,1.3,0.7c1.6,0.3,3.5,0.7,3.5,2.7c0,1.9-1.9,2.8-3.8,2.8
				c-2.3,0-3.4-1.1-3.9-1.6L197.2,58.7z"/>
			<path class="st0" d="M20.6,68.3h-1.2v-1.4h1.2V68.3z M20.6,77.8h-1.2v-7.3h1.2V77.8z"/>
			<path class="st0" d="M24.1,70.5v1.1c0.7-1.2,1.8-1.3,2.3-1.3c0.9,0,2,0.5,2.4,1.7c0.1,0.4,0.1,0.9,0.1,1.5v4.4h-1.2v-4.2
				c0-0.7,0-1-0.1-1.2c-0.2-0.7-0.9-1-1.6-1c-0.5,0-1,0.2-1.4,0.6c-0.5,0.5-0.5,1.1-0.5,1.6v4.2h-1.2v-7.3H24.1z"/>
			<path class="st0" d="M41.5,66.8l4,11h-2.9L42.1,76h-4l-0.5,1.8h-2.9l4.1-11H41.5z M40,69.4c-0.1,0.6-0.3,1.1-0.5,1.7
				c-0.2,0.8-0.7,2.1-0.9,2.9h2.8L40,69.4z"/>
			<path class="st0" d="M53.7,75.9c-0.3,0.5-0.6,1-1.3,1.4c-0.6,0.4-1.4,0.7-2.3,0.7c-1.6,0-4-0.9-4-4.2c0-2.4,1.4-4.3,4.1-4.3
				c0.9,0,2.4,0.2,3.5,1.9l-1.8,1c-0.1-0.3-0.3-0.6-0.7-0.9c-0.2-0.2-0.5-0.3-0.9-0.3c-1.3,0-1.7,1.5-1.7,2.5c0,1.1,0.5,2.4,1.8,2.4
				c0.1,0,0.7,0,1.2-0.6c0.2-0.2,0.3-0.4,0.4-0.7L53.7,75.9z"/>
			<path class="st0" d="M61.7,75.9c-0.3,0.5-0.6,1-1.3,1.4c-0.6,0.4-1.4,0.7-2.3,0.7c-1.6,0-4-0.9-4-4.2c0-2.4,1.4-4.3,4.1-4.3
				c0.9,0,2.4,0.2,3.5,1.9l-1.8,1c-0.1-0.3-0.3-0.6-0.7-0.9c-0.2-0.2-0.5-0.3-0.9-0.3c-1.3,0-1.7,1.5-1.7,2.5c0,1.1,0.5,2.4,1.8,2.4
				c0.1,0,0.7,0,1.2-0.6c0.2-0.2,0.3-0.4,0.4-0.7L61.7,75.9z"/>
			<path class="st0" d="M70.2,75.7c-0.3,0.4-0.6,0.8-1,1.2c-0.7,0.7-1.8,1.1-3.1,1.1c-2.4,0-4.1-1.5-4.1-4.2c0-2,1-4.5,4.2-4.5
				c0.5,0,1.9,0,2.9,1.2c1.1,1.1,1.1,2.7,1.1,3.6h-5.8c0,1,0.6,2,1.8,2c1.3,0,1.8-0.9,2-1.4L70.2,75.7z M67.8,72.7
				c0-0.3-0.1-0.8-0.5-1.1c-0.3-0.3-0.7-0.5-1.2-0.5c-0.6,0-1,0.3-1.2,0.5c-0.3,0.4-0.4,0.7-0.5,1.1H67.8z"/>
			<path class="st0" d="M72.3,75.1c0.7,0.6,1.5,1.1,2.4,1.1c0.6,0,1.4-0.2,1.4-0.8c0-0.3-0.2-0.4-0.3-0.5c-0.4-0.2-0.9-0.2-1.4-0.3
				c-0.4-0.1-0.7-0.1-1.1-0.2c-0.5-0.1-1-0.3-1.4-0.7c-0.4-0.4-0.6-0.9-0.6-1.5c0-1.3,1.1-2.7,3.4-2.7c1.9,0,3.1,0.8,3.6,1.2L77,72
				c-0.8-0.6-1.5-0.8-2-0.8c-0.9,0-1.1,0.4-1.1,0.6c0,0.5,0.5,0.6,1.3,0.7c1.6,0.3,3.5,0.7,3.5,2.7c0,1.9-1.9,2.8-3.8,2.8
				c-2.3,0-3.4-1.1-3.9-1.6L72.3,75.1z"/>
			<path class="st0" d="M80.7,75.1c0.7,0.6,1.5,1.1,2.4,1.1c0.6,0,1.4-0.2,1.4-0.8c0-0.3-0.2-0.4-0.3-0.5c-0.4-0.2-0.9-0.2-1.4-0.3
				c-0.4-0.1-0.7-0.1-1.1-0.2c-0.5-0.1-1-0.3-1.4-0.7c-0.4-0.4-0.6-0.9-0.6-1.5c0-1.3,1.1-2.7,3.4-2.7c1.9,0,3.1,0.8,3.6,1.2
				L85.3,72c-0.8-0.6-1.5-0.8-2-0.8c-0.9,0-1.1,0.4-1.1,0.6c0,0.5,0.5,0.6,1.3,0.7c1.6,0.3,3.5,0.7,3.5,2.7c0,1.9-1.9,2.8-3.8,2.8
				c-2.3,0-3.4-1.1-3.9-1.6L80.7,75.1z"/>
			<path class="st0" d="M98.9,66.8l4,11H100L99.5,76h-4l-0.5,1.8H92l4.1-11H98.9z M97.4,69.4c-0.1,0.6-0.3,1.1-0.5,1.7
				c-0.2,0.8-0.7,2.1-0.9,2.9h2.8L97.4,69.4z"/>
			<path class="st0" d="M108.8,69.7h2.4v8.1h-2.4V77c-0.2,0.3-0.4,0.4-0.8,0.6c-0.5,0.2-1,0.4-1.5,0.4c-0.5,0-1.5-0.1-2.1-0.9
				c-0.4-0.6-0.5-1.1-0.5-2.4v-5.1h2.4v5c0,0.4,0,0.7,0.2,1c0.1,0.2,0.5,0.4,0.9,0.4c0.1,0,0.5,0,0.8-0.2c0.5-0.3,0.5-0.7,0.5-1.1
				V69.7z"/>
			<path class="st0" d="M114,75.1c0.7,0.6,1.5,1.1,2.4,1.1c0.6,0,1.4-0.2,1.4-0.8c0-0.3-0.2-0.4-0.3-0.5c-0.4-0.2-0.9-0.2-1.4-0.3
				c-0.4-0.1-0.7-0.1-1.1-0.2c-0.5-0.1-1-0.3-1.4-0.7c-0.4-0.4-0.6-0.9-0.6-1.5c0-1.3,1.1-2.7,3.4-2.7c1.9,0,3.1,0.8,3.6,1.2
				l-1.5,1.4c-0.8-0.6-1.5-0.8-2-0.8c-0.9,0-1.1,0.4-1.1,0.6c0,0.5,0.5,0.6,1.3,0.7c1.6,0.3,3.5,0.7,3.5,2.7c0,1.9-1.9,2.8-3.8,2.8
				c-2.3,0-3.4-1.1-3.9-1.6L114,75.1z"/>
			<path class="st0" d="M122.2,67.3h2.4v2.5h1.6v1.5h-1.6V75c0,0.5,0,0.9,0.6,0.9l0.9,0v1.9c-0.5,0.1-0.8,0.1-1.3,0.1
				c-0.8,0-1.7,0-2.2-0.8c-0.3-0.5-0.3-1.1-0.3-1.8v-3.9H121v-1.5h1.2V67.3z"/>
			<path class="st0" d="M130,70.5c0.5-0.5,1.1-0.8,2.3-0.9v2.1l-0.8,0.1c-1.1,0.2-1.5,0.4-1.5,1.4v4.6h-2.4v-8.1h2.3V70.5z"/>
			<path class="st0" d="M133.7,72c0-0.6,0.1-1.2,0.9-1.8c0.7-0.6,1.7-0.7,2.7-0.7c1,0,3.4,0.2,3.4,2.3v4.7c0,0.9,0,1,0.2,1.3h-2.3
				v-0.7c-0.6,0.5-1.3,1-2.5,1c-1.9,0-2.7-1.3-2.7-2.5c0-1.3,1-2,1.7-2.3c0.7-0.3,2.2-0.6,3.2-0.7V72c0-0.4-0.1-1-0.9-1
				c-1.1,0-1.2,0.7-1.3,0.9H133.7z M136.7,74.4c-0.4,0.2-1,0.4-1,1c0,0.4,0.3,0.8,0.9,0.8c0.3,0,0.6-0.1,0.8-0.3
				c0.8-0.5,0.8-1.2,0.8-2.1L136.7,74.4z"/>
			<rect x="143" y="66.8" class="st0" width="2.4" height="11"/>
			<path class="st0" d="M147.9,66.8h2.4v1.8h-2.4V66.8z M147.9,69.7h2.4v8.1h-2.4V69.7z"/>
			<path class="st0" d="M152.6,72c0-0.6,0.1-1.2,0.9-1.8c0.7-0.6,1.7-0.7,2.7-0.7c1,0,3.4,0.2,3.4,2.3v4.7c0,0.9,0,1,0.2,1.3h-2.3
				v-0.7c-0.6,0.5-1.3,1-2.5,1c-1.9,0-2.7-1.3-2.7-2.5c0-1.3,1-2,1.7-2.3c0.7-0.3,2.2-0.6,3.2-0.7V72c0-0.4-0.1-1-0.9-1
				c-1.1,0-1.2,0.7-1.3,0.9H152.6z M155.6,74.4c-0.4,0.2-1,0.4-1,1c0,0.4,0.3,0.8,0.9,0.8c0.3,0,0.6-0.1,0.8-0.3
				c0.8-0.5,0.8-1.2,0.8-2.1L155.6,74.4z"/>
			<rect x="166.4" y="66.8" class="st0" width="1.5" height="11"/>
			<path class="st0" d="M171.4,70.5v1.1c0.7-1.2,1.8-1.3,2.3-1.3c0.9,0,2,0.5,2.4,1.7c0.1,0.4,0.1,0.9,0.1,1.5v4.4H175v-4.2
				c0-0.7,0-1-0.1-1.2c-0.2-0.7-0.9-1-1.6-1c-0.5,0-1,0.2-1.4,0.6c-0.5,0.5-0.5,1.1-0.5,1.6v4.2h-1.2v-7.3H171.4z"/>
			<path class="st0" d="M185.1,75.2c0,0.3-0.1,0.7-0.4,1.2c-0.6,1.1-1.6,1.6-3,1.6c-2.7,0-3.6-2-3.6-3.8c0-2.1,1.1-4,3.5-4
				c1.2,0,2.9,0.4,3.4,2.5l-1.4,0.1c0-0.3-0.3-1.7-2-1.7c-2.1,0-2.2,2.3-2.2,3c0,0.8,0.2,1.5,0.5,2c0.4,0.7,1.1,1,1.8,1
				c1.8,0,2-1.5,2.1-2L185.1,75.2z"/>
		</g>
		<g>
			<path class="st0" d="M87.5,27.7c-2.3,5.5-7.8,9.4-14.2,9.4c-8.5,0-15.5-6.9-15.5-15.5c0-8.5,6.9-15.5,15.5-15.5
				c6.4,0,11.9,3.9,14.2,9.4H94c-2.6-9-10.9-15.6-20.7-15.6c-11.9,0-21.6,9.7-21.6,21.6s9.7,21.6,21.6,21.6
				c9.8,0,18.1-6.6,20.7-15.6H87.5z"/>
			<polygon class="st0" points="120.8,0 95.5,43.1 103.3,43.1 120.8,13.4 138.2,43.1 146.1,43.1 			"/>
			<rect x="117.6" y="26.8" class="st1" width="7.5" height="7.5"/>
			<polygon class="st0" points="26.6,0 1.3,43.1 9.1,43.1 26.6,13.4 44,43.1 51.9,43.1 			"/>
			<rect x="22.8" y="26.8" class="st1" width="7.5" height="7.5"/>
			<polygon class="st0" points="177.3,0 152,43.1 159.8,43.1 177.3,13.4 194.7,43.1 202.6,43.1 			"/>
		</g>
	</g>
	<g>
		<rect x="173.5" y="26.8" class="st1" width="7.5" height="7.5"/>
	</g>
</g>
</svg>
