<?xml version="1.0" encoding="UTF-8"?><svg id="a" xmlns="http://www.w3.org/2000/svg" width="212" height="95" viewBox="0 0 212 95"><path d="M47.84,49.78v-.21c1.31-.49,2.33-1.25,3.05-2.28.72-1.03,1.08-2.26,1.08-3.66s-.37-2.68-1.1-3.79c-.74-1.11-1.79-1.98-3.17-2.61-1.38-.63-3-.93-4.87-.93h-13.79v28.5h13.23c3.37,0,5.97-.76,7.8-2.28,1.83-1.52,2.75-3.57,2.75-6.15,0-1.68-.45-3.1-1.34-4.26-.9-1.15-2.1-1.93-3.63-2.34h0ZM35.65,41.8h6.14c1.12,0,1.98.25,2.59.75s.9,1.24.9,2.22-.31,1.68-.92,2.2c-.62.52-1.47.77-2.57.77h-6.14v-5.94h0ZM44.85,58.45c-.74.57-1.77.86-3.11.86h-6.09v-6.68h6.09c2.81,0,4.21,1.1,4.21,3.3,0,1.11-.37,1.96-1.1,2.52ZM71.41,44.68v1.93h-.2c-.59-.95-1.47-1.75-2.62-2.4-1.16-.65-2.51-.98-4.03-.98-1.67,0-3.3.46-4.71,1.35-1.46.9-2.62,2.19-3.49,3.87-.87,1.68-1.3,3.62-1.3,5.82s.43,4.14,1.3,5.82c.87,1.68,2.03,2.98,3.49,3.87,1.41.88,3.05,1.35,4.71,1.35,1.55,0,2.9-.32,4.05-.96,1.15-.64,2.02-1.44,2.61-2.42h.2v2.89h5.9v-21.1h-4.94c-.53,0-.96.44-.95.96h0s0,0,0,0ZM69.77,58.31c-.86.99-2,1.49-3.45,1.49s-2.68-.49-3.55-1.47c-.87-.98-1.31-2.33-1.31-4.07s.43-3.1,1.31-4.08c.87-.98,2.05-1.47,3.55-1.47s2.59.49,3.45,1.49c.86.99,1.28,2.34,1.28,4.05s-.43,3.06-1.28,4.05h0ZM118.28,44.68v1.93h-.2c-.59-.95-1.46-1.75-2.62-2.4-1.16-.65-2.5-.98-4.03-.98-1.67,0-3.3.46-4.71,1.35-1.46.9-2.62,2.19-3.49,3.87-.87,1.68-1.3,3.62-1.3,5.82s.43,4.14,1.3,5.82c.87,1.68,2.03,2.98,3.49,3.87,1.41.88,3.05,1.35,4.71,1.35,1.55,0,2.9-.32,4.05-.96,1.15-.64,2.02-1.44,2.61-2.42h.2v2.89h5.89v-21.1h-4.94c-.53,0-.96.44-.95.96h0s0,0,0,0ZM116.64,58.31c-.86.99-2,1.49-3.45,1.49s-2.68-.49-3.55-1.47c-.87-.98-1.31-2.33-1.31-4.07s.43-3.1,1.31-4.08c.87-.98,2.05-1.47,3.55-1.47s2.59.49,3.45,1.49c.85.99,1.28,2.34,1.28,4.05s-.43,3.06-1.28,4.05h0ZM138.79,43.43h2.41v5.9h-3.25c-1.44,0-2.59.44-3.43,1.33-.84.89-1.26,2.11-1.26,3.68v10.46h-6.26v-21.09h4.94c.53,0,.95.43.95.96v2.21h.2c.99-2.31,2.89-3.46,5.69-3.46h0s0,0,0,0ZM158.36,44.68v1.93h-.2c-.59-.95-1.46-1.75-2.62-2.4-1.16-.65-2.5-.98-4.03-.98-1.69,0-3.26.45-4.71,1.35-1.46.9-2.62,2.19-3.49,3.87-.87,1.68-1.3,3.62-1.3,5.82s.43,4.14,1.3,5.82c.87,1.68,2.03,2.98,3.49,3.87,1.41.88,3.05,1.35,4.71,1.35,1.55,0,2.9-.32,4.05-.96,1.15-.64,2.02-1.44,2.61-2.42h.2v2.89h5.9v-21.1h-4.94c-.53,0-.95.44-.95.96h0s0,0,0,0ZM156.71,58.31c-.86.99-2,1.49-3.45,1.49s-2.68-.49-3.55-1.47c-.87-.98-1.31-2.33-1.31-4.07s.43-3.1,1.31-4.08c.87-.98,2.05-1.47,3.55-1.47s2.59.49,3.45,1.49c.86.99,1.28,2.34,1.28,4.05s-.43,3.06-1.28,4.05c0,0,0,0,0,0ZM183.03,59.31v5.5h-10.37c-1.05,0-1.9-.87-1.9-1.93v-13.75h-4.21v-5.09h4.21v-5.5h6.26v5.5h5.01v5.09h-5.01v8.89c0,.71.57,1.29,1.27,1.29h4.74ZM99.41,34.27v26.63c0,.53-.42.96-.95.96,0,0,0,0,0,0h-6.3v-24.65c0-.53-.42-.96-.95-.96h-3.61v24.65c0,.53.42.96.95.97h3.61v1.98c0,.53-.42.96-.95.96,0,0,0,0,0,0h-9.91c-.53,0-.95-.43-.95-.96,0,0,0,0,0,0v-26.63c0-.53.42-.96.95-.97h6.3v-1.97c0-.53.42-.96.95-.97h9.91c.53,0,.95.43.95.97h.01Z" style="fill:#2d3b51;"/></svg>