<?xml version="1.0" encoding="UTF-8"?><svg id="a" xmlns="http://www.w3.org/2000/svg" width="212" height="95" viewBox="0 0 212 95"><path d="M82.6,41.98c0-5.02,3.78-8.98,9.05-8.98,3.16,0,5.98,1.61,7.44,4.13l-2.47,1.43c-.91-1.71-2.79-2.79-4.97-2.79-3.73,0-6.21,2.65-6.21,6.21s2.47,6.21,6.21,6.21c2.18,0,4.08-1.09,4.97-2.79l2.47,1.41c-1.43,2.52-4.25,4.15-7.44,4.15-5.27,0-9.05-3.96-9.05-8.98" style="fill:#2d3b51;"/><path d="M100.77,34.71c0-.94.77-1.71,1.71-1.71s1.71.77,1.71,1.71-.77,1.71-1.71,1.71-1.71-.79-1.71-1.71M101.14,38.27h2.67v12.36h-2.67v-12.36Z" style="fill:#2d3b51;"/><path d="M110.49,40.84v5.93c0,1.58,1.04,1.56,3.07,1.46v2.4c-4.1.49-5.74-.64-5.74-3.86v-5.93h-2.27v-2.57h2.27v-2.67l2.67-.79v3.46h3.07v2.57h-3.07Z" style="fill:#2d3b51;"/><path d="M127.53,38.27l-4.75,12.76c-1.16,3.14-3.19,4.72-6.03,4.55v-2.5c1.73.1,2.67-.79,3.29-2.42l.12-.25-5.24-12.14h2.92l3.68,8.98,3.16-8.98h2.84Z" style="fill:#2d3b51;"/><path d="M133.71,44.45c0-3.68,2.92-6.5,6.53-6.5s6.53,2.82,6.53,6.5-2.89,6.5-6.53,6.5-6.53-2.84-6.53-6.5M144.09,44.45c0-2.25-1.68-3.91-3.86-3.91s-3.86,1.66-3.86,3.91,1.68,3.91,3.86,3.91,3.86-1.66,3.86-3.91" style="fill:#2d3b51;"/><path d="M152.5,38.02v.25h2.92v2.57h-2.92v9.79h-2.67v-9.79h-1.88v-2.57h1.88v-.25c0-3.34,1.88-5.27,5.59-5.02v2.57c-1.88-.17-2.92.54-2.92,2.45" style="fill:#2d3b51;"/><polygon points="96.69 54.22 96.69 71.52 94.47 71.52 86.31 59.78 86.31 71.52 83.47 71.52 83.47 54.22 85.69 54.22 93.85 65.96 93.85 54.22 96.69 54.22" style="fill:#2d3b51;"/><path d="M105.79,69.4c1.48,0,2.6-.67,3.19-1.53l2.2,1.28c-1.14,1.68-2.99,2.7-5.41,2.7-4.08,0-6.73-2.79-6.73-6.5s2.65-6.5,6.53-6.5,6.2,2.97,6.2,6.53c0,.37-.05.77-.1,1.11h-9.84c.42,1.93,1.98,2.92,3.96,2.92M109.08,64.3c-.37-2.13-1.93-3.04-3.54-3.04-2,0-3.36,1.19-3.73,3.04h7.27Z" style="fill:#2d3b51;"/><polygon points="130.44 59.16 126.56 71.52 123.94 71.52 121.37 63.19 118.77 71.52 116.15 71.52 112.27 59.16 115.09 59.16 117.49 67.69 120.08 59.16 122.63 59.16 125.2 67.69 127.62 59.16 130.44 59.16" style="fill:#2d3b51;"/><path d="M130.99,65.34c0-3.68,2.79-6.5,6.53-6.5,2.42,0,4.53,1.26,5.51,3.19l-2.3,1.34c-.54-1.16-1.76-1.9-3.24-1.9-2.18,0-3.83,1.66-3.83,3.88s1.66,3.88,3.83,3.88c1.48,0,2.69-.77,3.29-1.9l2.3,1.31c-1.04,1.95-3.14,3.21-5.56,3.21-3.73,0-6.53-2.84-6.53-6.5" style="fill:#2d3b51;"/><path d="M157.29,59.16v12.36h-2.67v-1.78c-.94,1.31-2.4,2.1-4.33,2.1-3.36,0-6.16-2.84-6.16-6.5s2.79-6.5,6.16-6.5c1.93,0,3.39.79,4.33,2.08v-1.76h2.67ZM154.62,65.34c0-2.3-1.68-3.96-3.91-3.96s-3.91,1.66-3.91,3.96,1.68,3.96,3.91,3.96,3.91-1.66,3.91-3.96" style="fill:#2d3b51;"/><path d="M168.97,68.04c0,2.47-2.15,3.81-4.82,3.81-2.47,0-4.25-1.11-5.04-2.89l2.3-1.34c.4,1.11,1.39,1.78,2.74,1.78,1.19,0,2.1-.39,2.1-1.38,0-2.2-6.65-.96-6.65-5.39,0-2.32,2-3.78,4.53-3.78,2.03,0,3.71.94,4.57,2.57l-2.25,1.26c-.45-.96-1.31-1.41-2.32-1.41s-1.81.42-1.81,1.31c0,2.25,6.65.89,6.65,5.46" style="fill:#2d3b51;"/><path d="M174.9,61.73v5.93c0,1.58,1.04,1.56,3.07,1.46v2.4c-4.1.49-5.74-.64-5.74-3.86v-5.93h-2.27v-2.57h2.27v-2.67l2.67-.79v3.46h3.07v2.57h-3.07Z" style="fill:#2d3b51;"/><rect x="180.26" y="53.48" width="2.67" height="18.05" style="fill:#2d3b51;"/><path d="M191.83,69.4c1.48,0,2.6-.67,3.19-1.53l2.2,1.28c-1.14,1.68-2.99,2.7-5.41,2.7-4.08,0-6.73-2.79-6.73-6.5s2.65-6.5,6.53-6.5,6.2,2.97,6.2,6.53c0,.37-.05.77-.1,1.11h-9.84c.42,1.93,1.98,2.92,3.96,2.92M195.12,64.3c-.37-2.13-1.93-3.04-3.54-3.04-2,0-3.36,1.19-3.73,3.04h7.27Z" style="fill:#2d3b51;"/><path d="M21.07,68.42l-3.1-2.99c-1.03-.88-2.5-.78-3.29.22-.79,1-.6,2.52.43,3.39l3.1,2.99c1.03.88,2.5.78,3.29-.22.79-1,.6-2.52-.43-3.39" style="fill:#2d3b51;"/><path d="M59.13,25l3.1,2.99c1.03.88,2.5.78,3.29-.22.79-1,.6-2.52-.43-3.39l-3.1-2.99c-1.03-.88-2.5-.78-3.29.22-.79,1-.6,2.52.43,3.39" style="fill:#2d3b51;"/><path d="M15.19,22.48c-.21.26-.38.54-.52.83,0,0,0,0,0,0-.06.13-.12.26-.17.4-.02.04-.03.09-.05.14-.03.09-.06.18-.09.27-.02.08-.04.15-.06.23-.01.06-.02.12-.04.18-.02.11-.04.21-.05.32,0,.03,0,.05,0,.08-.17,1.65.47,3.4,1.86,4.58l1.02,1.01,3.86,3.86s.05.06.08.09c.59.62.46,1.49-.08,2.11-.02.03-.05.05-.08.08-.54.47-1.25.53-2.27.27,0,0-.07-.02-.18-.04,0,0,0,0-.01,0-.04,0-.08-.02-.13-.03-.72-.14-1.45-.05-2.09.24-.03.02-.07.03-.11.05-.03.02-.06.03-.09.05-.06.03-.12.06-.17.1-.03.02-.07.04-.1.06-.03.02-.05.04-.08.05-.26.18-.49.4-.69.65-.12.15-.22.31-.31.48-.31.56-.46,1.22-.45,1.86,0,.86.21,1.67.82,2.31l5.96,5.92.32.32c.75.7.83,1.95.26,2.73-.54.64-1.47.99-2.59.53-.03-.01-.05-.02-.08-.03-1.2-.49-2.52-.21-3.32.79-1,1.26-.72,3.14.54,4.3l9.42,9.38c.53.58,1.29.94,2.14.94h0c1.61,0,2.92-1.31,2.92-2.92,0-.79-.32-1.51-.83-2.03h0s-.02-.02-.02-.02c0,0,0,0-.02-.01l-7.09-7.05c-.16-.15-.29-.32-.41-.5-.05-.08-.09-.16-.12-.24-.29-.66-.22-1.44.23-2.01.12-.16.27-.29.43-.39.31-.2.68-.3,1.05-.29.43.01.85.18,1.19.5l.26.26,2.85,2.85c.75.7,1.75,1,2.71.94.7-.04,1.38-.29,1.94-.73.2-.16.39-.34.56-.55,1.23-1.56.91-3.83-.67-5.29l-8.68-8.56c-.58-.58-.64-1.4-.11-2.05.26-.31.64-.5,1.02-.54.03,0,.05,0,.08,0,.02,0,.03,0,.05,0,.33,0,.65.11.91.34l32.29,32.11c.93.79,2.04,1.2,3.12,1.24,1.4.05,2.76-.52,3.68-1.68.21-.26.38-.54.52-.83,0,0,0,0,0,0,.06-.13.12-.26.17-.4.02-.04.03-.09.05-.14.03-.09.06-.18.09-.27.02-.08.04-.15.06-.23.01-.06.03-.12.04-.17.02-.11.04-.21.05-.32,0-.03,0-.05,0-.08.17-1.65-.47-3.4-1.86-4.58,0,0-2.47-2.47-4.93-4.93-.65-.73-.43-1.73.08-2.19.55-.5,1.26-.57,2.31-.3.01,0,2.2.7,3.66-1.13,1.18-1.48,1.13-3.46-.06-4.65l-5.96-5.92-.41-.41c-.68-.72-.87-1.76-.2-2.6.53-.67,1.48-1.05,2.63-.58,1.23.5,2.58.26,3.39-.76,1-1.26.72-3.14-.54-4.3l-9.42-9.38c-.53-.58-1.29-.94-2.14-.94-1.61,0-2.92,1.31-2.92,2.92,0,.79.32,1.51.83,2.03h0s.02.02.02.02c0,0,.01,0,.02.01l7.09,7.05c.16.15.29.32.4.5.05.08.09.16.12.24.29.66.22,1.44-.23,2.01-.65.82-1.88.91-2.67.18l-.26-.26-2.85-2.85c-1.51-1.4-3.98-1.22-5.21.34-1.23,1.56-.91,3.83.67,5.29l8.68,8.56c.58.58.64,1.4.11,2.05-.52.62-1.46.74-2.05.21,0,0,0,0,0,0L22,22.03c-.93-.79-2.04-1.2-3.12-1.24-.05,0-.1,0-.16,0-1.34,0-2.64.57-3.53,1.69" style="fill:#2d3b51;"/></svg>