<?xml version="1.0" encoding="UTF-8"?><svg id="a" xmlns="http://www.w3.org/2000/svg" width="166.23" height="49.72" viewBox="0 0 166.23 49.72"><path d="M98.98,31.84c-2.7,6.36-8.99,10.82-16.33,10.82-9.8,0-17.74-7.94-17.74-17.74s7.94-17.74,17.74-17.74c7.34,0,13.64,4.46,16.33,10.82h7.45C103.45,7.7,93.92.15,82.65.15c-13.69,0-24.78,11.1-24.78,24.78s11.1,24.78,24.78,24.78c11.28,0,20.8-7.55,23.79-17.86h-7.46Z" style="fill:#068389; stroke-width:0px;"/><polygon points="137.17 0 108.11 49.44 117.13 49.44 137.17 15.36 157.2 49.44 166.23 49.44 137.17 0" style="fill:#068389; stroke-width:0px;"/><rect x="133.51" y="30.77" width="8.63" height="8.63" style="fill:#b8c133; stroke-width:0px;"/><polygon points="29.06 0 0 49.44 9.02 49.44 29.06 15.36 49.09 49.44 58.11 49.44 29.06 0" style="fill:#068389; stroke-width:0px;"/><rect x="24.74" y="30.77" width="8.63" height="8.63" style="fill:#b8c133; stroke-width:0px;"/></svg>