<?xml version="1.0" encoding="UTF-8"?>
<svg id="Layer_1" data-name="Layer 1" xmlns="http://www.w3.org/2000/svg" viewBox="0 0 213.88 64.21">
  <defs>
    <style>
      .cls-1 {
        fill: #253148;
      }
    </style>
  </defs>
  <path class="cls-1" d="M129.14,23.81c0,2.79-2.64,5.19-6.82,5.19s-6.43-1.85-7.27-2.73l2.73-2.21c.73,.97,2.09,1.94,4.36,1.94s2.97-1.12,2.97-1.79c0-.88-.85-1.21-2.24-1.45l-1.88-.34c-1.18-.21-5.28-.97-5.28-4.55,0-3,2.88-4.94,6.52-4.94,1.18,0,4.24,.18,6.52,2.82l-2.58,2.4c-.82-1.6-2.37-2.3-4.12-2.3-.7,0-2.52,.21-2.52,1.58,0,1,.91,1.31,3.09,1.7l2.45,.46c2.3,.4,4.06,1.77,4.06,4.23ZM172.45,7.13h-3.7V28.54h3.7V7.13Zm30.88,21.4v-6.58c0-2.61,.34-3.88,1.43-4.79,.76-.63,1.52-.7,1.91-.7,2.24,0,2.67,1.88,2.67,3.55v8.52h3.7v-10.55c0-2.97-1.7-5.06-4.91-5.06-.61,0-3.42,.18-4.79,2.24v-1.79h-3.7v15.16h3.7ZM112.64,13.38h-3.67v6.58c0,2.61-.34,3.88-1.43,4.79-.76,.63-1.52,.7-1.91,.7-2.24,0-2.67-1.88-2.67-3.55V13.38h-3.7v10.55c0,2.97,1.7,5.06,4.91,5.06,.61,0,3.42-.18,4.79-2.24v1.79h3.7V13.38h-.03Zm-3.38,38.52l3.09,1.79c-1.21,1.64-3.42,3.85-7.4,3.85-4.52,0-7.79-3.09-7.79-8.12,0-5.43,3.67-7.95,7.61-7.95,5.79,0,7.46,4.64,7.46,8.76h-11.22c.06,.76,.76,3.76,4.27,3.76,2.58,0,3.67-1.58,3.98-2.09Zm-8.13-4.34h7.1c-.06-.76-.55-3.18-3.39-3.18-3.01,0-3.58,2.58-3.7,3.18Zm93.01,.55l-2.45-.46c-2.18-.39-3.09-.7-3.09-1.7,0-1.36,1.82-1.58,2.52-1.58,1.76,0,3.3,.7,4.12,2.3l2.58-2.4c-2.28-2.64-5.33-2.82-6.52-2.82-3.64,0-6.52,1.94-6.52,4.94,0,3.58,4.09,4.34,5.28,4.55l1.88,.34c1.4,.24,2.24,.58,2.24,1.45,0,.67-.79,1.79-2.97,1.79s-3.64-.97-4.36-1.94l-2.73,2.21c.85,.88,3.09,2.73,7.27,2.73s6.82-2.4,6.82-5.19c0-2.44-1.75-3.8-4.06-4.23Zm15.68,0l-2.45-.46c-2.18-.39-3.09-.7-3.09-1.7,0-1.36,1.82-1.58,2.52-1.58,1.76,0,3.3,.7,4.12,2.3l2.58-2.4c-2.28-2.64-5.33-2.82-6.52-2.82-3.64,0-6.52,1.94-6.52,4.94,0,3.58,4.09,4.34,5.28,4.55l1.88,.34c1.4,.24,2.24,.58,2.24,1.45,0,.67-.79,1.79-2.97,1.79s-3.64-.97-4.36-1.94l-2.73,2.21c.85,.88,3.09,2.73,7.27,2.73s6.82-2.4,6.82-5.19c0-2.44-1.76-3.8-4.06-4.23Zm-64.35-26.06c0-.88,0-1.64,.27-2.49,.88-2.79,3.79-2.79,4.55-2.79v-3.73h-.3c-.73,0-3.37,.09-4.52,2.49v-2.15h-3.7v15.16h3.7v-6.49h0Zm15.88,22.02v-2.15h-3.7v15.16h3.7v-6.49c0-.88,0-1.64,.27-2.49,.88-2.79,3.79-2.79,4.55-2.79v-3.73h-.3c-.72,0-3.36,.09-4.52,2.49Zm21.4,5.43c-.07,4.06-2.65,8.03-7.79,8.03s-7.71-3.98-7.79-8.03c.07-4.06,2.65-8.03,7.79-8.03s7.71,3.98,7.79,8.03Zm-3.83,0c0-2.34-1.26-4.65-3.96-4.65s-3.96,2.31-3.96,4.65,1.26,4.65,3.96,4.65,3.96-2.31,3.96-4.65Zm-53.79-13.82h3.7v21.4h-3.7v-1.45c-.3,.36-1.52,1.91-4.22,1.91-3.18,0-6.73-2.21-6.73-7.73s3.3-8.34,6.88-8.34c1.24,0,3.06,.46,4.06,1.7v-7.49Zm.09,13.82c0-2.34-1.15-4.65-3.62-4.65s-3.62,2.31-3.62,4.65,1.15,4.65,3.62,4.65,3.62-2.31,3.62-4.65Zm14.29-20.96v-3.06c-.46,.12-1,.18-1.52,.18-.15,0-.94,0-1.36-.46-.34-.36-.36-1.03-.36-1.6v-7.64h3.25v-2.58h-3.25V7.98h-3.7v5.4h-2.21v2.58h2.21v9.04c0,2.49,1.03,4,4.27,4,1.24,0,2.19-.33,2.66-.46Zm21.97-1.16c-1,.79-2.61,1.62-4.46,1.62-3.46,0-5.52-2.16-5.52-4.71,0-3.3,2.52-4.61,5.4-5.12,2.28-.42,3.7-.79,4.67-1.12,0-1.15-.34-2.28-2.61-2.28-2.76,0-3.06,1.48-3.06,2.28l-3.7-.21c.06-1,.27-4.9,6.64-4.9,4.46,0,6.37,1.66,6.37,4.33v8.85c0,1.14,.06,1.48,.66,2.43h-4.3l-.09-1.16Zm.09-4.33v-2.03c-.61,.3-1.48,.63-2.88,.85-1.67,.24-3.34,.58-3.34,2.09,0,1,.67,1.85,2.49,1.85,1.67,0,3.73-.85,3.73-2.76Zm26.48,5.95c-3.46,0-5.52-2.16-5.52-4.71,0-3.3,2.52-4.61,5.4-5.12,2.28-.42,3.7-.79,4.67-1.12,0-1.15-.34-2.28-2.61-2.28-2.76,0-3.06,1.48-3.06,2.28l-3.7-.21c.06-1,.27-4.9,6.64-4.9,4.46,0,6.37,1.66,6.37,4.33v8.85c0,1.14,.06,1.48,.66,2.43h-4.3l-.09-1.16c-1,.79-2.61,1.62-4.46,1.62Zm.82-3.19c1.67,0,3.73-.85,3.73-2.76v-2.03c-.61,.3-1.48,.63-2.88,.85-1.67,.24-3.34,.58-3.34,2.09,0,1,.67,1.85,2.49,1.85Zm-8.99-18.67h-3.7v3.58h3.7v-3.58Zm0,6.25h-3.7v15.16h3.7V13.38ZM89.85,7.13l7.25,21.4h-4.31l-1.24-4.19h-8l-1.24,4.19h-4.31l7.25-21.4h4.6Zm.63,13.7l-2.94-9.75-2.94,9.75h5.88Zm1.4,27.51l4.76,8.73h-4.58l-4.22-7.95h-3.61v7.95h-3.97v-21.4h8.76c4.22,0,7.06,2.76,7.06,6.79,0,2.06-.82,4.76-4.22,5.88Zm.15-5.85c0-2.26-1.58-3.25-4.15-3.25h-3.64v6.55h3.09c2.88,0,4.7-.83,4.7-3.3Zm54.73,11.28c-4.76,0-5.94-4.66-5.94-7.55,0-4.72,2.49-7.37,5.97-7.37,2.37,0,4.34,1.63,4.58,3.94l3.97-1.02c-.91-3.04-3.18-6.56-8.7-6.56-7.46,0-10.16,6.23-10.16,10.95,0,7.94,4.94,11.37,10.01,11.37,6.16,0,8.55-4.66,9.25-6.47l-3.79-1.56c-.63,2.17-2.42,4.27-5.18,4.27Z"/>
  <polygon class="cls-1" points="64.21 21.4 42.81 21.4 42.81 0 21.4 0 21.4 21.4 0 21.4 0 42.81 21.4 42.81 21.4 64.21 42.81 64.21 42.81 42.81 64.21 42.81 64.21 21.4"/>
</svg>