<?xml version="1.0" encoding="UTF-8"?>
<svg id="Layer_1" data-name="Layer 1" xmlns="http://www.w3.org/2000/svg" viewBox="0 0 252.03 69.44">
  <defs>
    <style>
      .cls-1 {
        fill: #253148;
      }
    </style>
  </defs>
  <polygon class="cls-1" points="45.24 52.14 60.2 43.37 60.2 60.79 75.28 69.44 90.36 60.79 90.36 8.65 75.28 0 45.24 17.3 15.08 0 0 8.65 0 60.79 15.08 69.44 30.16 60.79 30.16 43.37 45.24 52.14"/>
  <g>
    <path class="cls-1" d="M137.35,8.18h-10.52c-.23,0-.35,.23-.35,.35v3.39c0,.23,.23,.35,.35,.35h3.16v19.76c0,.23,.23,.35,.35,.35h3.39c.23,0,.35-.23,.35-.35V12.27h3.16c.23,0,.35-.23,.35-.35v-3.39c.12-.23,0-.35-.23-.35m-20.22,0h-7.83c-2.1,0-4.09,1.75-4.09,4.09V28.41c0,2.57,2.1,4.09,4.09,4.09h7.83c.23,0,.35-.23,.35-.35v-3.39c0-.23-.23-.35-.35-.35h-6.31c-.94,0-1.4-.35-1.4-1.05V13.33c0-.82,.23-1.05,1.17-1.05h6.55c.23,0,.35-.23,.35-.35v-3.39c0-.23-.23-.35-.35-.35m6.9,0h-3.39c-.23,0-.35,.23-.35,.35v23.61c0,.23,.23,.35,.35,.35h3.39c.23,0,.35-.23,.35-.35V8.53c0-.23-.23-.35-.35-.35m28.87,0h-3.74c-.23,0-.35,.12-.35,.35l-.35,3.51-1.87,7.72-1.87-7.72-.47-3.51c0-.23-.23-.35-.35-.35h-3.74c-.23,0-.35,.23-.35,.35,.23,1.99,.35,3.51,1.05,5.96,1.05,3.74,3.39,10.75,3.74,11.69v5.84c0,.23,.23,.35,.35,.35h3.39c.23,0,.35-.23,.35-.35v-5.84c.35-.94,2.69-7.83,3.62-11.57,.7-2.81,.7-3.51,1.05-6.08-.12-.23-.23-.35-.47-.35m17.77,19.05c0,.82-.7,1.05-1.4,1.05h-1.17c-.7,0-1.4-.35-1.4-1.05V13.33c0-.82,.35-1.05,1.17-1.05h1.75c.82,0,1.17,.23,1.17,1.05v13.91h-.12Zm0-19.05h-4.09c-2.22,0-4.09,1.87-4.09,3.97V28.29c0,2.22,1.75,3.97,4.09,3.97h4.09c2.22,0,4.09-1.75,4.09-3.97V12.27c0-2.22-1.99-4.09-4.09-4.09m19.17,0h-11.46c-.23,0-.35,.23-.35,.35v23.5c0,.23,.23,.35,.35,.35h3.39c.23,0,.35-.23,.35-.35v-10.64h5.84c.23,0,.35-.23,.35-.35v-3.27c0-.23-.23-.35-.35-.35h-5.84v-5.03h7.72c.23,0,.35-.23,.35-.35v-3.27c0-.35-.12-.58-.35-.58"/>
    <path class="cls-1" d="M216.14,52.25l.35-.23c1.17-.82,1.87-2.45,1.87-4.09v-5.49c0-3.39-2.69-6.08-6.08-6.08h-6.2c-.23,0-.35,.23-.35,.35v23.5c0,.23,.23,.35,.35,.35h3.39c.23,0,.35-.23,.35-.35v-6.2h2.34l2.57,6.43c.12,.12,.23,.23,.35,.23h3.86c.35,0,.47-.23,.35-.47l-3.16-7.95Zm-1.87-4.44c0,1.05-.94,2.1-1.99,2.1h-2.45v-9.47h2.45c1.05,0,1.99,.82,1.99,1.99v5.38Z"/>
    <path class="cls-1" d="M181.07,36.35h-4.09c-2.22,0-4.09,1.87-4.09,4.09v16.13c0,2.22,1.75,4.09,4.09,4.09h4.09c2.22,0,4.09-1.75,4.09-4.09v-16.25c0-2.1-1.87-3.97-4.09-3.97Zm0,19.05c0,.82-.7,1.05-1.4,1.05h-1.17c-.7,0-1.4-.35-1.4-1.05v-13.91c0-.82,.35-1.05,1.17-1.05h1.75c.82,0,1.17,.23,1.17,1.05v13.91h-.12Z"/>
    <path class="cls-1" d="M152.67,56.58h-6.78v-19.87c0-.23-.23-.35-.35-.35h-3.39c-.23,0-.35,.23-.35,.35v23.5c0,.23,.23,.35,.35,.35h10.4c.23,0,.35-.23,.35-.35v-3.27c.12-.23-.12-.35-.23-.35"/>
    <path class="cls-1" d="M201.18,36.35h-3.39c-.23,0-.35,.23-.35,.35v18.7c0,.82-.7,1.05-1.4,1.05h-1.17c-.7,0-1.4-.35-1.4-1.05v-18.7c0-.23-.23-.35-.35-.35h-3.39c-.23,0-.35,.23-.35,.35v19.87c0,2.22,1.75,4.09,4.09,4.09h4.09c2.22,0,4.09-1.75,4.09-4.09v-19.87c-.12-.12-.35-.35-.47-.35"/>
    <path class="cls-1" d="M251.68,40.45c.23,0,.35-.23,.35-.35v-3.39c0-.23-.23-.35-.35-.35h-11.46c-.23,0-.35,.23-.35,.35v23.5c0,.23,.23,.35,.35,.35h11.46c.23,0,.35-.23,.35-.35v-3.27c0-.23-.23-.35-.35-.35h-7.72v-6.9h5.84c.23,0,.35-.23,.35-.35v-3.39c0-.23-.23-.35-.35-.35h-5.84v-5.14h7.72Z"/>
    <path class="cls-1" d="M235.2,36.35h-3.39c-.12,0-.23,.12-.23,.12h0l-.12,.12h0v9.35l-3.16-5.96-.58-3.39c0-.23-.23-.35-.35-.35h-4.33c-.23,0-.35,.23-.35,.35v23.5c0,.23,.23,.35,.35,.35h3.39c.23,0,.35-.23,.35-.35v-14.85c1.64,3.62,4.44,7.95,4.68,8.77v6.31c0,.23,.23,.35,.35,.35h3.39c.23,0,.35-.23,.35-.35v-23.5c0-.23-.12-.47-.35-.47"/>
    <path class="cls-1" d="M138.17,36.35h-11.46c-.23,0-.35,.23-.35,.35v23.5c0,.23,.23,.35,.35,.35h11.46c.23,0,.35-.23,.35-.35v-3.27c0-.23-.23-.35-.35-.35h-7.72v-6.9h5.84c.23,0,.35-.23,.35-.35v-3.39c0-.23-.23-.35-.35-.35h-5.84v-5.14h7.72c.23,0,.35-.23,.35-.35v-3.39c.12-.12-.12-.35-.35-.35"/>
    <path class="cls-1" d="M168.68,43.37v-1.29c0-3.39-2.69-5.73-6.08-5.73h-6.2c-.23,0-.35,.23-.35,.35v23.5c0,.23,.23,.35,.35,.35h6.2c3.39,0,6.08-2.69,6.08-6.08v-2.92c0-1.4-.58-2.92-1.99-4.09,1.52-.94,1.99-2.69,1.99-4.09Zm-4.21,11.22c0,1.05-.94,1.99-1.99,1.99h-2.34v-6.9h2.45c1.05,0,1.99,.94,1.99,2.1v2.81h-.12Zm0-10.99c0,1.05-.94,1.87-1.99,1.87h-2.34v-5.14h2.45c1.05,0,1.99,.94,1.99,2.1v1.17h-.12Z"/>
    <path class="cls-1" d="M121.69,36.35h-4.33c-.23,0-.35,.12-.35,.35l-.58,3.39-2.81,7.72-2.81-7.72-.58-3.39c0-.23-.23-.35-.35-.35h-4.33c-.23,0-.35,.23-.35,.35v23.5c0,.23,.23,.35,.35,.35h3.39c.23,0,.35-.23,.35-.35v-12.98c1.05,3.04,2.22,6.2,2.45,6.78,.12,.23,.23,.35,.35,.35h3.04c.12,0,.35-.12,.35-.35,.23-.58,1.4-3.74,2.45-6.78v12.98c0,.23,.23,.35,.35,.35h3.39c.23,0,.35-.23,.35-.35v-23.38c.12-.23-.12-.47-.35-.47"/>
  </g>
</svg>