<?xml version="1.0" encoding="utf-8"?>
<!-- Generator: Adobe Illustrator 27.1.1, SVG Export Plug-In . SVG Version: 6.00 Build 0)  -->
<svg version="1.1" baseProfile="basic" id="Layer_1"
	 xmlns="http://www.w3.org/2000/svg" xmlns:xlink="http://www.w3.org/1999/xlink" x="0px" y="0px" width="212.6px" height="85px"
	 viewBox="0 0 212.6 85" xml:space="preserve">
<g>
	<path fill="#253148" d="M19.9,29.7c1.5,0,3-0.1,4.4,0c0.2,0,0.4,0.3,0.5,0.6c1.1,2.4,2.2,4.8,3.4,7.2c0.1,0.1,0.1,0.3,0.2,0.5
		c0.2-0.5,0.4-0.9,0.6-1.3c1-2.1,2-4.3,3-6.4c0.2-0.4,0.4-0.6,0.9-0.6c1.3,0,2.6,0,4,0c-0.1,0.2-0.1,0.4-0.2,0.5
		c-2.2,4.7-4.4,9.4-6.6,14.2c-0.2,0.4-0.4,0.7-1,0.6c-0.8-0.1-1.7,0.2-2.3-0.1c-0.6-0.3-0.7-1.3-1.1-2c-1.9-4.1-3.8-8.3-5.8-12.4
		c-0.1-0.2-0.2-0.4-0.4-0.6L19.9,29.7L19.9,29.7z"/>
	<path fill="#253148" d="M46.6,40.4c1.2,0.9,2.5,1.2,3.9,1.2c0.5,0,1.1-0.2,1.5-0.5c0.6-0.5,0.5-1.2-0.2-1.5
		c-0.6-0.3-1.2-0.3-1.8-0.6c-1.1-0.4-2.2-0.7-3.2-1.3c-2.3-1.3-2.7-4.3-1-6.3c1.2-1.4,2.8-2.1,4.6-2.1c2.1,0,4,0.4,5.9,1.6
		c-0.7,1-1.4,2-2,2.8c-1.1-0.3-2.1-0.5-3.2-0.7c-0.2-0.1-0.5,0-0.8,0c-0.6,0.1-1.1,0.4-1.2,1c-0.1,0.7,0.5,0.9,1,1.1
		c1.2,0.4,2.4,0.6,3.5,1.1c1.8,0.7,2.9,2,2.9,4.1c0,2.1-1,3.6-2.9,4.3c-3.2,1.3-6.3,0.6-9.3-0.9C45.1,42.5,45.8,41.5,46.6,40.4"/>
	<polygon fill="#253148" points="68.6,44.9 68.6,33.4 64.4,33.4 64.4,29.6 76.9,29.6 76.9,33.3 72.8,33.3 72.8,44.9 	"/>
	<rect x="38.4" y="29.6" fill="#253148" width="4.3" height="15.2"/>
	<rect x="170.4" y="29.4" fill="#253148" width="4.2" height="15.7"/>
	<rect x="58.3" y="29.6" fill="#253148" width="4.1" height="15.2"/>
	<path fill="#253148" d="M183.2,39.6c0.4-1,0.9-2,1.4-3.2c0.5,1.1,0.9,2.1,1.4,3.2H183.2z M192.3,44.3c-2.2-4.8-4.4-9.5-6.6-14.3
		c-0.3-0.6-0.6-0.7-1.2-0.7c-0.6,0-0.8,0.2-1.1,0.7c-2.2,4.8-4.5,9.7-6.7,14.5c-0.1,0.2-0.2,0.4-0.3,0.7c1.2,0,2.3-0.1,3.3,0
		c1,0.1,1.6-0.2,1.8-1.3c0.1-0.5,0.4-0.6,0.9-0.6c1.4,0,2.7,0,4.1,0c0.6,0,0.9,0.2,1,0.7c0,0.2,0.1,0.3,0.2,0.5
		c0.1,0.5,0.4,0.7,1,0.7c1.3,0,2.6,0,3.9,0v-0.3C192.6,44.7,192.5,44.5,192.3,44.3"/>
	<path fill="#253148" d="M102.2,45h-4.4V29.5h4.4V45z M123.6,29.3c3.4-7.4,6.8-14.7,10.2-22.1H68.7c0.1,0.2,0.1,0.3,0.2,0.4
		c3.3,7.1,6.6,14.2,9.9,21.4c0.2,0.4,0.4,0.5,0.8,0.5c1.2,0,2.4,0,3.6,0c0.5,0,0.7,0.1,0.9,0.6c0.6,1.4,1.3,2.8,1.9,4.2
		c0.6,1.2,1.1,2.4,1.8,3.8c1.2-2.5,2.3-4.9,3.4-7.3c0.4-0.9,0.9-1.3,1.9-1.2c1.1,0.1,2.3,0,3.4,0c0,0.2-0.1,0.2-0.1,0.3
		c-2.3,4.9-4.6,9.9-6.9,14.8C89.3,44.8,89,45,88.7,45c-0.8,0-1.6,0-2.6,0c5,10.9,10,21.6,15.1,32.5c5.2-11.1,10.2-22.1,15.4-33.2
		c-4.4,2.3-9.7,0.5-11.7-3.7c-1.9-4-0.1-8.8,3.9-10.7c3.9-1.8,8.9-0.3,10.6,3.2c-1.2,0.7-2.4,1.4-3.5,2.1c-1.8-2.2-4.2-2.5-6-0.9
		c-1.6,1.4-1.8,3.9-0.3,5.5c0.7,0.8,1.6,1.3,2.7,1.3c1.5,0.1,2.7-0.6,3.6-1.9c0.8,0.5,1.6,0.9,2.4,1.4c0.1-0.3,0.2-0.5,0.3-0.7
		c1-2.1,1.9-4.1,2.9-6.2c0.1-0.2,0.4-0.5,0.5-0.5c1.1,0,2.1,0,3.3,0v11.9h4.4V33.2h4.3v-3.9L123.6,29.3L123.6,29.3z"/>
	<path fill="#253148" d="M143.6,41.2c-2.2,0-4-1.8-4-3.9c0-2.2,1.8-4,4-4c2.2,0,4,1.8,4,4C147.6,39.4,145.8,41.2,143.6,41.2
		 M143.7,29c-4.9,0-8.6,3.6-8.6,8.3c0,4.7,3.7,8.3,8.6,8.3c4.8,0,8.6-3.6,8.6-8.2C152.2,32.6,148.5,29,143.7,29"/>
	<path fill="#253148" d="M163.3,35.2c-0.1,0.9-0.8,1.7-1.7,1.7c-0.8,0-1.7,0-2.5,0c-0.1,0-0.2,0-0.3-0.1v-3.6c1.1,0,2.1-0.1,3.2,0
		C162.7,33.3,163.4,34.4,163.3,35.2 M165,39.9c0.2-0.2,0.4-0.3,0.5-0.4c2-1.7,2.7-3.9,1.9-6.1c-0.7-2.2-2.8-3.9-5.2-3.9
		c-2.6-0.1-5.1,0-7.8,0v15.8h4.3v-4.2c0.5,0,0.9,0,1.3,0c0.5-0.1,0.8,0.1,1,0.6c0.4,1.1,1,2.1,1.5,3.2c0.1,0.2,0.3,0.4,0.5,0.4
		c1.5,0,3,0,4.6,0c-0.5-1-0.9-1.8-1.3-2.7C165.9,41.6,165.4,40.8,165,39.9"/>
</g>
</svg>
