<?xml version="1.0" encoding="UTF-8"?><svg id="a" xmlns="http://www.w3.org/2000/svg" width="212.6" height="85" viewBox="0 0 212.6 85"><path d="m62.5,38.48c-.84-.48-1.81-.84-1.81-.84l4.1-6.52h-11.59c-2.29,0-3.02.72-3.14.84-.72.84-3.26,4.1-3.38,4.1-.6.84-1.81.97-2.66.36s-.97-1.81-.36-2.66c.12-.12,2.66-3.38,3.38-4.22.84-.97,2.53-2.17,5.91-2.17h14.96c.72,0,1.33.36,1.57.97.36.6.36,1.33,0,1.93l-5.55,9.17s-.48-.48-1.45-.97Z" style="fill:#253148; stroke-width:0px;"/><path d="m72.16,66.47c-.24,0-.36,0-.6-.12-.97-.36-1.45-1.45-1.21-2.41l4.83-13.76c.24-.6.36-1.33.36-1.69h-.12c-1.45.36-4.71,1.33-4.71,1.33,0,0-.24-.84-.6-1.93-.36-.97-.72-1.69-.72-1.69,0,0,3.62-.84,5.07-1.33,1.57-.48,3.38.24,4.22,1.57,1.09,1.69.36,4.1-.12,5.07l-4.71,13.64c-.12.84-.84,1.33-1.69,1.33Z" style="fill:#253148; stroke-width:0px;"/><circle cx="75.05" cy="21.82" r="5.19" style="fill:#253148; stroke-width:0px;"/><path d="m52.85,69.25c-8.33,0-15.21-6.76-15.21-15.21s6.76-15.21,15.21-15.21,15.21,6.76,15.21,15.21-6.88,15.21-15.21,15.21Zm0-26.55c-6.28,0-11.47,5.19-11.47,11.47s5.19,11.47,11.47,11.47,11.47-5.19,11.47-11.47-5.19-11.47-11.47-11.47Z" style="fill:#253148; stroke-width:0px;"/><path d="m106.79,23.51v8.21h-2.41l-.12-1.81c-.97,1.45-2.41,2.05-4.59,2.05-1.45,0-2.66-.36-3.74-.97s-1.93-1.57-2.53-2.78-.84-2.66-.84-4.22c0-1.69.36-3.02.97-4.22s1.45-2.17,2.66-2.78c1.09-.6,2.41-.97,3.98-.97,1.69,0,3.02.36,4.1.97s1.93,1.57,2.53,2.9l-3.02,1.33c-.24-.84-.6-1.45-1.33-1.81-.6-.36-1.33-.6-2.29-.6-1.33,0-2.41.48-3.14,1.33-.72.97-1.09,2.17-1.09,3.98s.36,3.14,1.09,3.98c.72.97,1.81,1.33,3.26,1.33,1.09,0,1.93-.24,2.66-.84.72-.48,1.09-1.33,1.09-2.29v-.36h-4.47v-2.41s7.24,0,7.24,0Z" style="fill:#253148; stroke-width:0px;"/><path d="m120.91,27.01h-8.33c.36,1.69,1.33,2.53,2.9,2.53.72,0,1.21-.12,1.69-.36.48-.24.72-.6.97-1.09l2.66.97c-.36.97-.97,1.69-1.93,2.17-.84.48-1.93.72-3.26.72-1.93,0-3.38-.48-4.47-1.57-1.09-1.09-1.57-2.53-1.57-4.47s.48-3.38,1.57-4.47c1.09-1.09,2.53-1.57,4.34-1.57s3.26.48,4.22,1.57,1.45,2.53,1.45,4.47c-.12.36-.24.72-.24,1.09Zm-7.48-4.22c-.48.48-.72,1.09-.84,2.05h5.43c-.12-.84-.36-1.57-.84-2.05-.48-.48-1.09-.72-1.81-.72-.84.12-1.45.24-1.93.72Z" style="fill:#253148; stroke-width:0px;"/><path d="m131.53,30.99c-.36.24-.84.48-1.45.72-.6.12-1.21.24-1.81.24-2.66,0-3.86-1.21-3.86-3.5v-6.03h-2.17v-2.41h2.17v-2.66l3.26-.84v3.62h3.74v2.41h-3.74v5.55c0,1.09.48,1.57,1.57,1.57.72,0,1.33-.24,1.81-.6l.48,1.93Z" style="fill:#253148; stroke-width:0px;"/><path d="m102.81,35.34c1.09.48,1.93,1.21,2.78,2.29l-2.17,2.17c-.36-.84-.97-1.45-1.57-1.93-.72-.36-1.57-.6-2.53-.6s-1.69.12-2.17.48c-.48.36-.72.84-.72,1.45,0,.48.24.97.72,1.21.48.36,1.45.6,2.78.84,1.45.24,2.53.6,3.38.97.84.36,1.45.84,1.81,1.45s.6,1.33.6,2.17c0,.97-.24,1.81-.84,2.41-.48.72-1.33,1.21-2.29,1.57s-2.05.6-3.26.6c-1.69,0-3.14-.24-4.22-.72-1.09-.48-1.93-1.21-2.66-2.17l1.81-2.05c.6.97,1.21,1.57,1.93,1.93.84.36,1.69.48,2.9.48.97,0,1.81-.12,2.29-.48.48-.36.84-.72.84-1.33,0-.36-.24-.72-.72-1.09-.48-.24-1.33-.6-2.66-.84-1.45-.24-2.66-.6-3.5-1.09-.84-.36-1.45-.84-1.93-1.45-.36-.6-.6-1.33-.6-2.17,0-.97.24-1.81.72-2.53s1.21-1.33,2.17-1.69c.97-.36,2.05-.6,3.38-.6,1.45,0,2.66.24,3.74.72Z" style="fill:#253148; stroke-width:0px;"/><path d="m113.55,45.23l-2.17,2.29v2.78h-3.26v-16.9h3.26v10.5l5.07-5.31h3.62l-4.34,4.59,4.71,7.12h-3.62l-3.26-5.07Z" style="fill:#253148; stroke-width:0px;"/><path d="m121.88,35.22c0-1.21.6-1.69,1.93-1.69s1.93.6,1.93,1.69-.72,1.69-1.93,1.69-1.93-.48-1.93-1.69Zm3.62,15.09h-3.26v-11.71h3.26v11.71Z" style="fill:#253148; stroke-width:0px;"/><path d="m132.02,46.68c0,.6.12.97.24,1.21s.48.36.84.36h.72c.24,0,.48-.12.72-.24l-.24,2.17c-.24.12-.6.24-.97.36s-.84.12-1.21.12c-1.09,0-1.93-.24-2.53-.84-.48-.6-.84-1.45-.84-2.66v-13.64h3.26s0,13.15,0,13.15Z" style="fill:#253148; stroke-width:0px;"/><path d="m139.5,46.68c0,.6.12.97.24,1.21.12.24.48.36.84.36h.72c.24,0,.48-.12.72-.24l-.24,2.17c-.24.12-.6.24-.97.36s-.84.12-1.21.12c-1.09,0-1.93-.24-2.53-.84-.48-.6-.84-1.45-.84-2.66v-13.64h3.26v13.15Z" style="fill:#253148; stroke-width:0px;"/><path d="m154.7,45.72h-8.33c.36,1.69,1.33,2.53,2.9,2.53.72,0,1.21-.12,1.69-.36s.72-.6.97-1.09l2.66.97c-.36.97-.97,1.69-1.93,2.17-.84.48-1.93.72-3.26.72-1.93,0-3.38-.48-4.47-1.57-1.09-1.09-1.57-2.53-1.57-4.47s.48-3.38,1.57-4.47c1.09-1.09,2.53-1.57,4.34-1.57s3.26.48,4.22,1.57c.97,1.09,1.45,2.53,1.45,4.47-.24.24-.24.72-.24,1.09Zm-7.48-4.22c-.48.48-.72,1.09-.84,2.05h5.43c-.12-.84-.36-1.57-.84-2.05s-1.09-.72-1.81-.72c-.84,0-1.45.24-1.93.72Z" style="fill:#253148; stroke-width:0px;"/><path d="m168.83,33.53v16.9h-2.9l-.12-2.17c-.36.72-.84,1.33-1.57,1.81s-1.45.6-2.29.6c-1.57,0-2.78-.48-3.62-1.57-.84-1.09-1.33-2.53-1.33-4.47s.48-3.38,1.33-4.47c.84-1.09,2.17-1.57,3.62-1.57.84,0,1.57.24,2.17.6s1.09.97,1.45,1.57v-7h3.26v-.24Zm-3.98,13.64c.48-.6.72-1.45.72-2.66v-.24c0-1.09-.24-1.93-.72-2.53-.48-.6-1.21-.97-1.93-.97-.84,0-1.57.36-2.05.97s-.72,1.57-.72,2.66.24,2.05.72,2.66c.48.6,1.21.97,2.05.97.84.12,1.45-.12,1.93-.84Z" style="fill:#253148; stroke-width:0px;"/><path d="m102.21,65.27h-5.91l-1.21,3.74h-3.26l5.67-15.45h3.86l5.67,15.45h-3.38l-1.45-3.74Zm-.72-2.41l-1.45-4.34-.72-2.29h0l-.6,2.29-1.45,4.34h4.22Z" style="fill:#253148; stroke-width:0px;"/><path d="m117.53,58.03c.84.6,1.45,1.45,1.81,2.53l-3.02,1.09c-.24-1.45-1.09-2.17-2.29-2.17-.97,0-1.57.36-2.17.97-.48.6-.72,1.57-.72,2.78s.24,2.17.72,2.78,1.21.97,2.05.97c1.33,0,2.17-.72,2.41-2.05l2.9.97c-.24,1.09-.84,1.93-1.69,2.53-.97.6-2.05.97-3.5.97-1.93,0-3.38-.48-4.47-1.57-1.09-1.09-1.57-2.53-1.57-4.47s.48-3.38,1.57-4.47,2.53-1.57,4.34-1.57c1.57-.24,2.78.12,3.62.72Z" style="fill:#253148; stroke-width:0px;"/><path d="m130.81,58.03c.84.6,1.45,1.45,1.81,2.53l-3.02,1.09c-.24-1.45-1.09-2.17-2.29-2.17-.97,0-1.57.36-2.17.97-.48.6-.72,1.57-.72,2.78s.24,2.17.72,2.78,1.21.97,2.05.97c1.33,0,2.17-.72,2.41-2.05l2.9.97c-.24,1.09-.84,1.93-1.69,2.53-.97.6-2.05.97-3.5.97-1.93,0-3.38-.48-4.47-1.57-1.09-1.09-1.57-2.53-1.57-4.47s.48-3.38,1.57-4.47,2.53-1.57,4.34-1.57c1.57-.24,2.78.12,3.62.72Z" style="fill:#253148; stroke-width:0px;"/><path d="m146.02,64.42h-8.33c.36,1.69,1.33,2.53,2.9,2.53.72,0,1.21-.12,1.69-.36s.72-.6.97-1.09l2.66.97c-.36.97-.97,1.69-1.93,2.17-.84.48-1.93.72-3.26.72-1.93,0-3.38-.48-4.47-1.57-1.09-1.09-1.57-2.53-1.57-4.47s.48-3.38,1.57-4.47c1.09-1.09,2.53-1.57,4.34-1.57s3.26.48,4.22,1.57c.97,1.09,1.45,2.53,1.45,4.47-.12.24-.12.6-.24,1.09Zm-7.48-4.34c-.48.48-.72,1.09-.84,2.05h5.43c-.12-.84-.36-1.57-.84-2.05s-1.09-.72-1.81-.72c-.84.12-1.45.36-1.93.72Z" style="fill:#253148; stroke-width:0px;"/><path d="m147.95,66.96l1.93-1.93c.36.72.72,1.09,1.33,1.45.6.24,1.33.36,2.17.36.72,0,1.21-.12,1.57-.24.36-.24.6-.48.6-.72s-.12-.48-.48-.72c-.36-.24-.97-.36-1.81-.48-1.81-.36-3.02-.84-3.74-1.45s-1.09-1.33-1.09-2.41c0-.6.24-1.33.6-1.81.36-.6.97-1.09,1.81-1.45s1.69-.48,2.9-.48c1.33,0,2.41.24,3.14.6.84.36,1.45,1.09,2.05,1.93l-1.93,1.69c-.36-.6-.72-1.09-1.33-1.33-.48-.24-1.09-.48-1.93-.48-.6,0-1.21.12-1.57.36s-.6.48-.6.84.24.6.6.84,1.09.36,1.93.6c1.69.36,2.9.84,3.62,1.33.72.6,1.09,1.33,1.09,2.29,0,1.09-.48,1.93-1.45,2.66-.97.72-2.29.97-3.98.97-2.66-.12-4.47-.84-5.43-2.41Z" style="fill:#253148; stroke-width:0px;"/><path d="m160.38,66.96l1.93-1.93c.36.72.72,1.09,1.33,1.45.6.24,1.33.36,2.17.36.72,0,1.21-.12,1.57-.24.36-.24.6-.48.6-.72s-.12-.48-.48-.72c-.36-.24-.97-.36-1.81-.48-1.81-.36-3.02-.84-3.74-1.45s-1.09-1.33-1.09-2.41c0-.6.24-1.33.6-1.81.36-.6.97-1.09,1.81-1.45s1.69-.48,2.9-.48c1.33,0,2.41.24,3.14.6.84.36,1.45,1.09,2.05,1.93l-1.93,1.69c-.36-.6-.72-1.09-1.33-1.33-.48-.24-1.09-.48-1.93-.48-.6,0-1.21.12-1.57.36s-.6.48-.6.84.24.6.6.84,1.09.36,1.93.6c1.69.36,2.9.84,3.62,1.33.72.6,1.09,1.33,1.09,2.29,0,1.09-.48,1.93-1.45,2.66-.97.72-2.29.97-3.98.97-2.66-.12-4.47-.84-5.43-2.41Z" style="fill:#253148; stroke-width:0px;"/></svg>