<?xml version="1.0" encoding="UTF-8"?><svg id="a" xmlns="http://www.w3.org/2000/svg" width="212" height="95" viewBox="0 0 212 95"><path d="M134.82,75.94h50.98V24.96h-50.98v50.98ZM137.87,28.01h44.88v44.88h-44.88V28.01Z" style="fill:#2d3b51;"/><path d="M150.76,58.75c-1.32,0-2.94-1-3.45-3.81l-4.39.94c1.2,4.59,4,6.55,7.62,6.55,4.68,0,7.42-2.65,7.42-6.65,0-7.3-9.94-7.56-9.94-11.07,0-1.58.87-2.55,2.45-2.55s2.52.94,3.26,3.13l4-1.16c-.78-3.29-3.2-5.65-7.17-5.65-4.62,0-7.01,2.52-7.01,6.52,0,6.52,9.94,6.59,9.94,10.98,0,1.74-1.19,2.78-2.74,2.78" style="fill:#2d3b51;"/><polygon points="165.18 51.8 165.19 51.8 171.48 51.8 171.48 61.89 175.94 61.89 175.94 38.56 171.48 38.56 171.48 47.86 167.29 47.86 165.19 50.78 165.18 47.86 165.18 38.56 160.72 38.56 160.72 61.89 165.18 61.89 165.18 51.8" style="fill:#2d3b51;"/><path d="M85.83,75.94h42.93v-24.42h-42.93v24.42ZM101.29,71.58h-3v-6.78h-4.24v6.78h-3v-15.7h3v8.23s1.42-1.97,1.42-1.97h2.82v-6.26h3v15.7ZM106.37,71.56h-3v-15.69h3v15.69ZM116.22,71.56h-7.82v-15.69h3v13.04h4.82v2.65ZM125.03,71.56h-7.82v-15.69h3v15h0l1.42-1.96h3.4v2.65Z" style="fill:#2d3b51;"/><path d="M79.97,31.71h-1.54v4.34h1.54c1.33,0,2.13-.65,2.13-2.17s-.8-2.17-2.13-2.17" style="fill:#2d3b51;"/><path d="M47.25,31.67c-1.2,0-1.95.48-1.95,2.22v6.39c0,1.74.76,2.22,1.95,2.22s1.96-.48,1.96-2.22v-6.39c0-1.74-.76-2.22-1.96-2.22" style="fill:#2d3b51;"/><path d="M26.26,49.38h102.5v-24.42H26.26v24.42ZM35.79,45.13c-2.43,0-4.32-1.32-5.13-4.41l2.95-.63c.35,1.89,1.44,2.56,2.32,2.56,1.05,0,1.85-.69,1.85-1.87,0-2.96-6.69-3-6.69-7.39,0-2.7,1.61-4.39,4.71-4.39,2.67,0,4.3,1.59,4.82,3.8l-2.7.78c-.5-1.48-1.15-2.11-2.19-2.11s-1.65.65-1.65,1.72c0,2.37,6.69,2.54,6.69,7.45,0,2.69-1.85,4.47-5,4.47M52.21,39.88c0,3.87-2.04,5.26-4.95,5.26s-4.95-1.39-4.95-5.26v-5.61c0-3.87,2.04-5.26,4.95-5.26s4.95,1.39,4.95,5.26v5.61ZM59.97,44.92h-3.41l-4.02-15.69h2.96l3.37,13.76.24-5.85,1.93-7.91h2.93l-4,15.69ZM73.48,44.92h-8.43v-15.69h8.21v2.65h-5.21v3.61h3.97v2.65h-3.97v4.13h5.43v2.65ZM82.47,44.92l-2.61-6.39h-1.43v6.39h-3v-15.69h4.34c3.61,0,5.32,1.74,5.32,4.69,0,1.96-.69,3.37-2.37,4l2.96,7h-3.22ZM95.59,44.92h-8.43v-15.69h8.21v2.65h-5.21v3.61h3.97v2.65h-3.97v4.13h5.43v2.65ZM100.47,44.92h-3v-15.69h3v15.69ZM107.68,42.49c1.13,0,1.82-.83,1.82-2.17v-.96h-2.11v-2.48h5.11v8.04h-1.56l-.46-1.3c-.8.91-1.67,1.52-2.8,1.52-2.91,0-4.95-1.39-4.95-5.26v-5.61c0-3.87,2.04-5.26,4.95-5.26,3.06,0,4.71,1.76,4.82,5.32h-3c0-2.02-.74-2.67-1.82-2.67-1.2,0-1.95.48-1.95,2.21v6.39c0,1.74.76,2.22,1.95,2.22M124.87,44.92h-2.87l-4.59-10.13h-.04v10.13h-2.74v-15.69h3.28l5.74,12.96-1.53-5.68v-7.27h2.74v15.69Z" style="fill:#2d3b51;"/></svg>