<?xml version="1.0" encoding="UTF-8"?><svg id="a" xmlns="http://www.w3.org/2000/svg" width="167.74" height="64.37" viewBox="0 0 167.74 64.37"><path d="m5.71,41.62l3.33,9.03h-2.41l-.45-1.45h-3.33l-.45,1.45H0l3.35-9.03h2.35Zm-1.22,2.15c-.12.46-.24.93-.37,1.39-.19.68-.54,1.74-.74,2.42h2.29l-1.18-3.81Z" style="fill:#068389; stroke-width:0px;"/><path d="m10.49,48.4c.54.52,1.2.92,1.95.92.47,0,1.19-.15,1.19-.65,0-.23-.14-.32-.26-.38-.3-.15-.76-.19-1.14-.26-.3-.05-.6-.11-.9-.2-.41-.11-.82-.28-1.11-.58-.29-.29-.5-.76-.5-1.25,0-1.1.95-2.24,2.81-2.24,1.57,0,2.52.68,2.98,1l-1.22,1.13c-.63-.49-1.22-.67-1.68-.67-.77,0-.95.31-.95.5,0,.38.42.46,1.06.58,1.34.24,2.91.6,2.91,2.19s-1.59,2.34-3.16,2.34c-1.86,0-2.82-.9-3.24-1.29l1.24-1.13Z" style="fill:#068389; stroke-width:0px;"/><path d="m17.37,48.4c.54.52,1.2.92,1.95.92.47,0,1.19-.15,1.19-.65,0-.23-.14-.32-.26-.38-.3-.15-.76-.19-1.14-.26-.3-.05-.6-.11-.9-.2-.41-.11-.82-.28-1.11-.58-.29-.29-.5-.76-.5-1.25,0-1.1.95-2.24,2.81-2.24,1.57,0,2.52.68,2.98,1l-1.22,1.13c-.63-.49-1.22-.67-1.68-.67-.77,0-.95.31-.95.5,0,.38.42.46,1.06.58,1.34.24,2.91.6,2.91,2.19s-1.59,2.34-3.16,2.34c-1.86,0-2.82-.9-3.24-1.29l1.24-1.13Z" style="fill:#068389; stroke-width:0px;"/><path d="m30.61,47.3c0,1.69-.97,3.54-3.58,3.54-1.88,0-3.6-1.07-3.6-3.54,0-2.05,1.29-3.67,3.85-3.53,2.73.15,3.33,2.32,3.33,3.53m-4.86-1.32c-.24.38-.33.84-.33,1.31,0,1.06.51,2,1.61,2s1.59-.86,1.59-1.91c0-.74-.18-1.32-.55-1.68-.41-.38-.87-.4-1.15-.37-.56.04-.9.23-1.16.65" style="fill:#068389; stroke-width:0px;"/><path d="m37.93,49.08c-.24.38-.51.81-1.05,1.19-.51.36-1.16.6-1.92.6-1.28,0-3.31-.77-3.31-3.49,0-1.95,1.13-3.58,3.35-3.58.74,0,2.01.2,2.85,1.6l-1.46.83c-.11-.24-.24-.47-.56-.7-.19-.13-.44-.23-.74-.23-1.06,0-1.42,1.22-1.42,2.02,0,.88.44,2,1.48,2,.1,0,.59,0,1-.46.17-.19.23-.34.3-.54l1.48.77Z" style="fill:#068389; stroke-width:0px;"/><path d="m38.72,41.61h1.95v1.52h-1.95v-1.52Zm0,2.35h1.95v6.69h-1.95v-6.69Z" style="fill:#068389; stroke-width:0px;"/><path d="m42.61,45.87c.04-.46.1-1.01.7-1.48.61-.49,1.41-.59,2.19-.59.82,0,2.8.19,2.8,1.92v3.89c0,.72.04.82.19,1.05h-1.93v-.61c-.5.37-1.06.79-2.05.79-1.54,0-2.19-1.1-2.19-2.03,0-1.08.86-1.69,1.41-1.92.54-.23,1.8-.46,2.64-.61v-.36c-.03-.31-.05-.82-.75-.82-.87,0-.99.54-1.04.78h-1.97Zm2.5,2.01c-.33.13-.84.32-.84.83,0,.32.28.68.74.68.24,0,.47-.09.68-.22.65-.41.68-1.02.69-1.72l-1.27.42Z" style="fill:#068389; stroke-width:0px;"/><path d="m50.55,42.04h1.96v2.09h1.29v1.2h-1.31v3.01c-.01.41-.01.75.51.75l.7-.03v1.53c-.42.06-.68.1-1.04.1-.68,0-1.42-.04-1.84-.65-.27-.4-.28-.87-.28-1.51v-3.23h-.97v-1.2h.97v-2.07Z" style="fill:#068389; stroke-width:0px;"/><path d="m55.07,41.61h1.95v1.52h-1.95v-1.52Zm0,2.35h1.95v6.69h-1.95v-6.69Z" style="fill:#068389; stroke-width:0px;"/><path d="m65.7,47.3c0,1.69-.97,3.54-3.58,3.54-1.88,0-3.6-1.07-3.6-3.54,0-2.05,1.29-3.67,3.85-3.53,2.73.15,3.33,2.32,3.33,3.53m-4.86-1.32c-.24.38-.33.84-.33,1.31,0,1.06.51,2,1.61,2s1.59-.86,1.59-1.91c0-.74-.18-1.32-.55-1.68-.41-.38-.87-.4-1.15-.37-.56.04-.9.23-1.16.65" style="fill:#068389; stroke-width:0px;"/><path d="m69.19,44.58c.19-.2.32-.36.67-.52.31-.13.74-.24,1.22-.24.4,0,.84.08,1.19.27.7.37.88.97.88,2.01v4.57h-1.96v-3.76c0-.6-.01-.82-.09-1-.15-.36-.5-.51-.88-.51-1.04,0-1.04.83-1.04,1.66v3.61h-1.97v-6.67h1.98v.59Z" style="fill:#068389; stroke-width:0px;"/><path d="m81.4,50.83c-2.09,0-2.97-1.56-2.97-3.15,0-1.34.67-3.25,3.01-3.25,2,0,2.92,1.55,2.91,3.2-.01,1.83-1.1,3.2-2.94,3.2m1.77-4.04c-.23-1.19-1.01-1.54-1.7-1.54-1.37,0-1.92,1.06-1.92,2.44,0,1.27.52,2.32,1.84,2.32,1.7,0,1.83-1.77,1.84-2.38.01-.38-.03-.67-.06-.84" style="fill:#068389; stroke-width:0px;"/><path d="m87.2,44.63h1.14v.84h-1.14v5.18h-.99v-5.18h-1.01v-.84h1.01v-1.23c.03-.51.05-1.72,1.57-1.72.3,0,.55.05.74.08v.79c-.19-.03-.42-.05-.56-.05-.75,0-.77.6-.77,1.08v1.05Z" style="fill:#068389; stroke-width:0px;"/><path d="m101.12,48.59c-.33.53-.65,1.04-1.37,1.54-.38.27-1.27.79-2.52.79-2.39,0-4.33-1.74-4.33-4.8,0-2.67,1.82-4.79,4.38-4.79,1.04,0,1.96.36,2.64.9.63.5.92,1,1.18,1.45l-1.79.89c-.13-.29-.28-.6-.68-.93-.44-.35-.87-.45-1.24-.45-1.46,0-2.23,1.36-2.23,2.87,0,1.98,1.01,2.97,2.23,2.97s1.65-.82,1.96-1.34l1.78.91Z" style="fill:#068389; stroke-width:0px;"/><path d="m109,47.3c0,1.69-.97,3.54-3.58,3.54-1.88,0-3.6-1.07-3.6-3.54,0-2.05,1.29-3.67,3.85-3.53,2.73.15,3.33,2.32,3.33,3.53m-4.86-1.32c-.24.38-.33.84-.33,1.31,0,1.06.51,2,1.61,2s1.59-.86,1.59-1.91c0-.74-.18-1.32-.55-1.68-.41-.38-.87-.4-1.15-.37-.56.04-.9.23-1.16.65" style="fill:#068389; stroke-width:0px;"/><path d="m112.5,44.58c.19-.2.32-.36.67-.52.31-.13.74-.24,1.22-.24.4,0,.84.08,1.19.27.7.37.88.97.88,2.01v4.57h-1.96v-3.76c0-.6-.01-.82-.09-1-.15-.36-.5-.51-.88-.51-1.04,0-1.04.83-1.04,1.66v3.61h-1.97v-6.67h1.98v.59Z" style="fill:#068389; stroke-width:0px;"/><path d="m118.77,48.4c.54.52,1.2.92,1.94.92.47,0,1.19-.15,1.19-.65,0-.23-.14-.32-.26-.38-.29-.15-.75-.19-1.14-.26-.29-.05-.6-.11-.9-.2-.41-.11-.82-.28-1.11-.58-.29-.29-.5-.76-.5-1.25,0-1.1.95-2.24,2.82-2.24,1.57,0,2.52.68,2.98,1l-1.22,1.13c-.63-.49-1.22-.67-1.68-.67-.77,0-.95.31-.95.5,0,.38.42.46,1.06.58,1.34.24,2.91.6,2.91,2.19s-1.59,2.34-3.16,2.34c-1.86,0-2.81-.9-3.24-1.29l1.24-1.13Z" style="fill:#068389; stroke-width:0px;"/><path d="m129.29,43.97h1.97v6.68h-1.97v-.64c-.19.22-.31.34-.67.52-.4.2-.83.31-1.27.31s-1.24-.06-1.7-.7c-.34-.49-.41-.88-.41-1.97v-4.2h1.98v4.15c0,.3,0,.59.15.79.11.15.38.33.78.33.12,0,.38,0,.68-.17.42-.25.44-.59.45-.95v-4.16Z" style="fill:#068389; stroke-width:0px;"/><rect x="133.23" y="41.62" width="1.97" height="9.03" style="fill:#068389; stroke-width:0px;"/><path d="m137.41,42.04h1.96v2.09h1.29v1.2h-1.31v3.01c-.01.41-.01.75.51.75l.7-.03v1.53c-.42.06-.68.1-1.04.1-.68,0-1.42-.04-1.84-.65-.27-.4-.28-.87-.28-1.51v-3.23h-.97v-1.2h.97v-2.07Z" style="fill:#068389; stroke-width:0px;"/><path d="m141.88,45.87c.04-.46.1-1.01.7-1.48.61-.49,1.41-.59,2.19-.59.82,0,2.8.19,2.8,1.92v3.89c0,.72.04.82.19,1.05h-1.93v-.61c-.5.37-1.06.79-2.05.79-1.53,0-2.19-1.1-2.19-2.03,0-1.08.86-1.69,1.41-1.92.54-.23,1.8-.46,2.64-.61v-.36c-.03-.31-.05-.82-.76-.82-.87,0-.98.54-1.04.78h-1.97Zm2.5,2.01c-.33.13-.84.32-.84.83,0,.32.28.68.74.68.24,0,.47-.09.68-.22.65-.41.68-1.02.69-1.72l-1.27.42Z" style="fill:#068389; stroke-width:0px;"/><path d="m151.58,44.58c.19-.2.32-.36.67-.52.31-.13.74-.24,1.22-.24.4,0,.84.08,1.19.27.7.37.88.97.88,2.01v4.57h-1.96v-3.76c0-.6-.01-.82-.09-1-.15-.36-.5-.51-.88-.51-1.04,0-1.04.83-1.04,1.66v3.61h-1.97v-6.67h1.98v.59Z" style="fill:#068389; stroke-width:0px;"/><path d="m157.75,42.04h1.96v2.09h1.29v1.2h-1.31v3.01c-.01.41-.01.75.51.75l.7-.03v1.53c-.42.06-.68.1-1.04.1-.68,0-1.42-.04-1.84-.65-.27-.4-.28-.87-.28-1.51v-3.23h-.97v-1.2h.97v-2.07Z" style="fill:#068389; stroke-width:0px;"/><path d="m162.58,48.4c.54.52,1.2.92,1.94.92.47,0,1.19-.15,1.19-.65,0-.23-.14-.32-.26-.38-.29-.15-.75-.19-1.14-.26-.3-.05-.6-.11-.9-.2-.41-.11-.82-.28-1.11-.58-.29-.29-.5-.76-.5-1.25,0-1.1.95-2.24,2.82-2.24,1.57,0,2.52.68,2.98,1l-1.22,1.13c-.63-.49-1.22-.67-1.68-.67-.77,0-.95.31-.95.5,0,.38.42.46,1.06.58,1.34.24,2.91.6,2.91,2.19s-1.59,2.34-3.16,2.34c-1.86,0-2.82-.9-3.24-1.29l1.24-1.13Z" style="fill:#068389; stroke-width:0px;"/><path d="m16.98,56.27h-.99v-1.18h.99v1.18Zm0,7.86h-.99v-6.03h.99v6.03Z" style="fill:#068389; stroke-width:0px;"/><path d="m19.83,58.1v.88c.56-.99,1.52-1.08,1.88-1.08.77,0,1.69.38,1.98,1.38.1.36.1.73.1,1.24v3.6h-1.01v-3.43c0-.61,0-.79-.06-1-.18-.58-.74-.83-1.29-.83-.45,0-.83.14-1.15.46-.45.45-.45.91-.45,1.36v3.44h-1.02v-6.03h1.02Z" style="fill:#068389; stroke-width:0px;"/><path d="m34.22,55.09l3.33,9.03h-2.41l-.45-1.45h-3.33l-.45,1.45h-2.41l3.35-9.03h2.35Zm-1.22,2.15c-.12.46-.24.93-.37,1.39-.19.68-.54,1.74-.74,2.42h2.29l-1.18-3.81Z" style="fill:#068389; stroke-width:0px;"/><path d="m44.24,62.55c-.24.38-.51.81-1.05,1.19-.51.36-1.17.6-1.92.6-1.28,0-3.31-.77-3.31-3.49,0-1.95,1.13-3.58,3.35-3.58.74,0,2.01.2,2.85,1.6l-1.46.83c-.12-.24-.24-.47-.56-.7-.19-.13-.44-.23-.74-.23-1.06,0-1.42,1.22-1.42,2.02,0,.88.44,2,1.48,2,.1,0,.59,0,1-.46.17-.19.23-.34.3-.54l1.48.77Z" style="fill:#068389; stroke-width:0px;"/><path d="m50.84,62.55c-.24.38-.51.81-1.05,1.19-.51.36-1.16.6-1.92.6-1.28,0-3.31-.77-3.31-3.49,0-1.95,1.13-3.58,3.35-3.58.74,0,2.01.2,2.85,1.6l-1.46.83c-.11-.24-.24-.47-.56-.7-.19-.13-.44-.23-.74-.23-1.06,0-1.42,1.22-1.42,2.02,0,.88.44,2,1.48,2,.1,0,.59,0,1-.46.17-.19.23-.34.3-.54l1.48.77Z" style="fill:#068389; stroke-width:0px;"/><path d="m57.85,62.42c-.23.34-.46.68-.81,1-.58.54-1.45.95-2.52.95-1.98,0-3.38-1.27-3.38-3.45,0-1.61.79-3.69,3.43-3.69.4,0,1.55.04,2.41.96.87.93.92,2.24.95,2.99h-4.77c-.01.83.46,1.66,1.52,1.66s1.45-.7,1.69-1.18l1.48.75Zm-1.96-2.47c-.04-.28-.09-.65-.37-.95-.24-.24-.61-.37-.96-.37-.47,0-.81.23-1,.44-.27.3-.33.6-.4.88h2.73Z" style="fill:#068389; stroke-width:0px;"/><path d="m59.62,61.87c.54.52,1.2.92,1.95.92.47,0,1.19-.15,1.19-.65,0-.23-.14-.32-.26-.38-.29-.15-.76-.19-1.14-.26-.3-.05-.6-.11-.9-.2-.41-.12-.82-.28-1.11-.58-.3-.29-.5-.75-.5-1.25,0-1.1.95-2.24,2.81-2.24,1.57,0,2.52.68,2.98,1l-1.22,1.13c-.63-.49-1.22-.67-1.68-.67-.77,0-.95.31-.95.5,0,.38.42.46,1.06.58,1.34.24,2.91.6,2.91,2.19s-1.59,2.34-3.16,2.34c-1.86,0-2.82-.9-3.24-1.29l1.24-1.13Z" style="fill:#068389; stroke-width:0px;"/><path d="m66.49,61.87c.54.52,1.2.92,1.95.92.47,0,1.19-.15,1.19-.65,0-.23-.14-.32-.26-.38-.29-.15-.76-.19-1.14-.26-.3-.05-.6-.11-.9-.2-.41-.12-.82-.28-1.11-.58-.3-.29-.5-.75-.5-1.25,0-1.1.95-2.24,2.81-2.24,1.57,0,2.52.68,2.98,1l-1.22,1.13c-.63-.49-1.22-.67-1.68-.67-.77,0-.95.31-.95.5,0,.38.42.46,1.06.58,1.34.24,2.91.6,2.91,2.19s-1.59,2.34-3.16,2.34c-1.86,0-2.82-.9-3.24-1.29l1.24-1.13Z" style="fill:#068389; stroke-width:0px;"/><path d="m81.52,55.09l3.33,9.03h-2.41l-.45-1.45h-3.33l-.45,1.45h-2.41l3.35-9.03h2.35Zm-1.22,2.15c-.12.46-.24.93-.37,1.39-.19.68-.54,1.74-.74,2.42h2.29l-1.18-3.81Z" style="fill:#068389; stroke-width:0px;"/><path d="m89.69,57.45h1.97v6.68h-1.97v-.64c-.19.22-.31.34-.67.52-.4.2-.83.31-1.27.31s-1.24-.06-1.7-.7c-.35-.49-.41-.88-.41-1.97v-4.2h1.98v4.15c0,.3,0,.59.15.79.12.15.38.33.78.33.11,0,.38,0,.68-.17.42-.26.44-.59.45-.95v-4.16Z" style="fill:#068389; stroke-width:0px;"/><path d="m93.98,61.87c.54.52,1.2.92,1.95.92.47,0,1.19-.15,1.19-.65,0-.23-.14-.32-.26-.38-.29-.15-.76-.19-1.14-.26-.29-.05-.6-.11-.9-.2-.41-.12-.82-.28-1.11-.58-.29-.29-.5-.75-.5-1.25,0-1.1.95-2.24,2.81-2.24,1.57,0,2.52.68,2.98,1l-1.22,1.13c-.63-.49-1.22-.67-1.68-.67-.77,0-.95.31-.95.5,0,.38.42.46,1.06.58,1.34.24,2.91.6,2.91,2.19s-1.59,2.34-3.16,2.34c-1.86,0-2.82-.9-3.24-1.29l1.24-1.13Z" style="fill:#068389; stroke-width:0px;"/><path d="m100.75,55.51h1.96v2.09h1.29v1.2h-1.31v3.01c-.01.41-.01.75.51.75l.7-.03v1.54c-.42.06-.68.1-1.04.1-.68,0-1.42-.04-1.84-.65-.27-.4-.28-.87-.28-1.51v-3.23h-.97v-1.2h.97v-2.07Z" style="fill:#068389; stroke-width:0px;"/><path d="m107.14,58.14c.44-.37.91-.67,1.93-.77v1.74l-.65.1c-.95.17-1.23.31-1.23,1.15v3.76h-1.97v-6.69h1.92v.7Z" style="fill:#068389; stroke-width:0px;"/><path d="m110.22,59.34c.04-.46.1-1.01.7-1.48.61-.49,1.41-.59,2.19-.59s2.8.19,2.8,1.92v3.89c0,.72.04.82.19,1.05h-1.93v-.61c-.5.37-1.06.79-2.05.79-1.53,0-2.19-1.1-2.19-2.03,0-1.08.86-1.69,1.41-1.92.54-.23,1.8-.46,2.64-.61v-.36c-.03-.31-.05-.82-.76-.82-.87,0-.99.54-1.04.78h-1.97Zm2.5,2.01c-.33.13-.84.32-.84.83,0,.32.28.68.74.68.24,0,.47-.09.68-.22.65-.41.68-1.02.69-1.72l-1.27.42Z" style="fill:#068389; stroke-width:0px;"/><rect x="117.91" y="55.09" width="1.97" height="9.03" style="fill:#068389; stroke-width:0px;"/><path d="m121.88,55.08h1.94v1.52h-1.94v-1.52Zm0,2.35h1.94v6.69h-1.94v-6.69Z" style="fill:#068389; stroke-width:0px;"/><path d="m125.77,59.34c.04-.46.1-1.01.7-1.48.61-.49,1.41-.59,2.19-.59s2.8.19,2.8,1.92v3.89c0,.72.04.82.19,1.05h-1.93v-.61c-.5.37-1.06.79-2.05.79-1.53,0-2.19-1.1-2.19-2.03,0-1.08.86-1.69,1.41-1.92.54-.23,1.8-.46,2.64-.61v-.36c-.03-.31-.05-.82-.76-.82-.87,0-.99.54-1.04.78h-1.97Zm2.5,2.01c-.33.13-.84.32-.84.83,0,.32.28.68.74.68.24,0,.47-.09.68-.22.65-.41.68-1.02.69-1.72l-1.27.42Z" style="fill:#068389; stroke-width:0px;"/><rect x="137.12" y="55.09" width="1.22" height="9.03" style="fill:#068389; stroke-width:0px;"/><path d="m141.25,58.1v.88c.56-.99,1.52-1.08,1.88-1.08.77,0,1.69.38,1.98,1.38.1.36.1.73.1,1.24v3.6h-1.01v-3.43c0-.61,0-.79-.06-1-.18-.58-.74-.83-1.29-.83-.45,0-.83.14-1.15.46-.45.45-.45.91-.45,1.36v3.44h-1.02v-6.03h1.02Z" style="fill:#068389; stroke-width:0px;"/><path d="m152.59,61.95c-.04.24-.1.58-.34,1.02-.5.92-1.36,1.33-2.47,1.33-2.21,0-3.01-1.65-3.01-3.14,0-1.72.91-3.26,2.92-3.26.97,0,2.39.35,2.79,2.02l-1.13.1c-.04-.24-.25-1.38-1.63-1.38-1.75,0-1.83,1.91-1.83,2.44,0,.65.13,1.22.4,1.63.35.55.87.81,1.5.81,1.47,0,1.64-1.2,1.7-1.68l1.1.1Z" style="fill:#068389; stroke-width:0px;"/><path d="m72.13,22.87c-1.94,4.57-6.46,7.77-11.73,7.77-7.04,0-12.74-5.7-12.74-12.74s5.7-12.74,12.74-12.74c5.27,0,9.8,3.2,11.73,7.77h5.35C75.34,5.53,68.5.11,60.4.11c-9.83,0-17.8,7.97-17.8,17.8s7.97,17.8,17.8,17.8c8.1,0,14.94-5.42,17.09-12.83h-5.35Z" style="fill:#068389; stroke-width:0px;"/><polygon points="99.56 0 78.69 35.51 85.17 35.51 99.56 11.03 113.95 35.51 120.43 35.51 99.56 0" style="fill:#068389; stroke-width:0px;"/><rect x="96.93" y="22.1" width="6.2" height="6.2" style="fill:#b8c133; stroke-width:0px;"/><polygon points="21.91 0 1.04 35.51 7.52 35.51 21.91 11.03 36.3 35.51 42.78 35.51 21.91 0" style="fill:#068389; stroke-width:0px;"/><rect x="18.81" y="22.1" width="6.2" height="6.2" style="fill:#b8c133; stroke-width:0px;"/><polygon points="146.12 0 125.25 35.51 131.73 35.51 146.12 11.03 160.51 35.51 166.99 35.51 146.12 0" style="fill:#068389; stroke-width:0px;"/><rect x="143.02" y="22.1" width="6.2" height="6.2" style="fill:#b8c133; stroke-width:0px;"/></svg>