<?xml version="1.0" encoding="UTF-8"?><svg id="a" xmlns="http://www.w3.org/2000/svg" width="138.96" height="76.97" viewBox="0 0 138.96 76.97"><path d="m23.53,3.44v4.76h-6.47v19.65h-5.95V8.21h-6.47V3.44h18.88Z" style="fill:#262526; stroke-width:0px;"/><path d="m26.47,26.92c-1.52-.81-2.71-1.97-3.58-3.48-.87-1.51-1.3-3.27-1.3-5.29s.44-3.75,1.32-5.27c.88-1.52,2.09-2.68,3.62-3.49,1.53-.81,3.25-1.22,5.15-1.22s3.62.41,5.15,1.22c1.53.81,2.74,1.98,3.62,3.49.88,1.52,1.32,3.28,1.32,5.27s-.45,3.75-1.34,5.27c-.89,1.52-2.11,2.68-3.65,3.49-1.54.81-3.26,1.22-5.16,1.22s-3.61-.41-5.13-1.22Zm8.03-5.18c.8-.83,1.2-2.03,1.2-3.58s-.39-2.75-1.16-3.58c-.78-.83-1.73-1.25-2.87-1.25s-2.12.41-2.89,1.23c-.77.82-1.15,2.02-1.15,3.6s.38,2.75,1.13,3.58c.75.83,1.7,1.25,2.83,1.25s2.1-.42,2.9-1.25Z" style="fill:#262526; stroke-width:0px;"/><path d="m62.65,8.45v19.41h-5.95v-2.64c-.6.86-1.42,1.55-2.45,2.07-1.03.52-2.17.78-3.43.78-1.48,0-2.79-.33-3.93-.99-1.14-.66-2.02-1.62-2.64-2.87-.63-1.25-.94-2.72-.94-4.42v-11.34h5.91v10.54c0,1.3.34,2.31,1.01,3.03.67.72,1.58,1.08,2.71,1.08s2.07-.36,2.75-1.08c.67-.72,1.01-1.73,1.01-3.03v-10.54h5.95Z" style="fill:#262526; stroke-width:0px;"/><path d="m74.11,9.16c1.04-.61,2.2-.92,3.48-.92v6.29h-1.63c-1.48,0-2.6.32-3.34.96-.74.64-1.11,1.76-1.11,3.36v9.01h-5.95V8.45h5.95v3.23c.7-1.07,1.56-1.91,2.61-2.52Z" style="fill:#262526; stroke-width:0px;"/><path d="m79.09,5.51c-.66-.61-.99-1.37-.99-2.28s.33-1.7.99-2.31c.66-.61,1.51-.92,2.56-.92s1.86.31,2.52.92c.66.61.99,1.39.99,2.31s-.33,1.66-.99,2.28c-.66.61-1.5.92-2.52.92s-1.9-.31-2.56-.92Zm5.51,2.94v19.41h-5.95V8.45h5.95Z" style="fill:#262526; stroke-width:0px;"/><path d="m90.76,27.27c-1.32-.58-2.36-1.37-3.13-2.38-.77-1.01-1.19-2.14-1.29-3.39h5.88c.07.67.38,1.22.94,1.63.56.42,1.24.63,2.05.63.74,0,1.32-.14,1.72-.43.41-.29.61-.67.61-1.13,0-.56-.29-.97-.87-1.23-.58-.27-1.52-.56-2.82-.89-1.39-.32-2.55-.67-3.48-1.03-.93-.36-1.73-.93-2.4-1.7-.67-.78-1.01-1.83-1.01-3.15,0-1.11.31-2.13.92-3.04.61-.92,1.52-1.64,2.71-2.17,1.19-.53,2.61-.8,4.26-.8,2.43,0,4.35.6,5.76,1.81,1.4,1.21,2.21,2.81,2.42,4.8h-5.49c-.09-.67-.39-1.21-.89-1.6-.5-.39-1.15-.59-1.97-.59-.7,0-1.23.13-1.6.4-.37.27-.56.63-.56,1.1,0,.56.3.97.89,1.25.59.28,1.51.56,2.76.83,1.44.37,2.61.74,3.51,1.1.9.36,1.7.94,2.38,1.74.68.8,1.04,1.87,1.06,3.22,0,1.14-.32,2.15-.96,3.04-.64.89-1.55,1.59-2.75,2.1-1.19.51-2.58.76-4.16.76-1.69,0-3.2-.29-4.52-.87Z" style="fill:#262526; stroke-width:0px;"/><path d="m135.79,10.43c1.43,1.46,2.14,3.49,2.14,6.09v11.34h-5.91v-10.54c0-1.25-.33-2.22-.99-2.9s-1.57-1.03-2.73-1.03-2.07.34-2.73,1.03-.99,1.65-.99,2.9v10.54h-5.91v-10.54c0-1.25-.33-2.22-.99-2.9s-1.57-1.03-2.73-1.03-2.07.34-2.73,1.03-.99,1.65-.99,2.9v10.54h-5.95V8.45h5.95v2.43c.6-.81,1.39-1.45,2.36-1.93.97-.47,2.07-.71,3.3-.71,1.46,0,2.76.31,3.91.94,1.15.63,2.05,1.52,2.7,2.68.67-1.07,1.59-1.94,2.75-2.61,1.16-.67,2.42-1.01,3.79-1.01,2.41,0,4.33.73,5.76,2.19Z" style="fill:#262526; stroke-width:0px;"/><path d="m27.65,35.14v24.41h-5.95v-14.64l-5.46,14.64h-4.8l-5.49-14.68v14.68H0v-24.41h7.03l6.85,16.9,6.78-16.9h6.99Z" style="fill:#262526; stroke-width:0px;"/><path d="m31.3,37.21c-.66-.61-.99-1.37-.99-2.28s.33-1.7.99-2.31c.66-.61,1.51-.92,2.56-.92s1.86.31,2.52.92c.66.61.99,1.39.99,2.31s-.33,1.66-.99,2.28c-.66.61-1.5.92-2.52.92s-1.9-.31-2.56-.92Zm5.51,2.94v19.41h-5.95v-19.41h5.95Z" style="fill:#262526; stroke-width:0px;"/><path d="m39.71,44.57c.75-1.51,1.78-2.67,3.08-3.48,1.3-.81,2.75-1.22,4.35-1.22,1.27,0,2.44.27,3.5.8,1.05.53,1.88,1.25,2.49,2.16v-9.01h5.95v25.74h-5.95v-2.78c-.56.93-1.35,1.67-2.38,2.23-1.03.56-2.23.83-3.6.83-1.6,0-3.05-.41-4.35-1.23-1.3-.82-2.32-1.99-3.08-3.51-.75-1.52-1.13-3.27-1.13-5.27s.38-3.74,1.13-5.25Zm12.17,1.77c-.82-.86-1.83-1.29-3.01-1.29s-2.19.42-3.01,1.27c-.82.85-1.23,2.01-1.23,3.49s.41,2.66,1.23,3.53c.82.87,1.83,1.3,3.01,1.3s2.18-.43,3.01-1.29c.82-.86,1.23-2.03,1.23-3.51s-.41-2.65-1.23-3.51Z" style="fill:#262526; stroke-width:0px;"/><path d="m89.76,40.15l-5.25,19.41h-6.57l-3.06-12.59-3.16,12.59h-6.54l-5.29-19.41h5.95l2.75,13.88,3.27-13.88h6.29l3.3,13.81,2.71-13.81h5.6Z" style="fill:#262526; stroke-width:0px;"/><path d="m108.5,51.28h-13.46c.09,1.21.48,2.13,1.16,2.76.68.64,1.52.96,2.52.96,1.48,0,2.52-.63,3.1-1.88h6.33c-.32,1.28-.91,2.42-1.76,3.44-.85,1.02-1.91,1.82-3.18,2.4-1.28.58-2.7.87-4.28.87-1.9,0-3.59-.41-5.08-1.22-1.48-.81-2.64-1.97-3.48-3.48-.83-1.51-1.25-3.27-1.25-5.29s.41-3.78,1.23-5.29c.82-1.51,1.98-2.67,3.46-3.48,1.48-.81,3.19-1.22,5.11-1.22s3.55.39,5.01,1.18c1.46.79,2.6,1.91,3.43,3.37.82,1.46,1.23,3.16,1.23,5.11,0,.56-.03,1.14-.1,1.74Zm-5.98-3.3c0-1.02-.35-1.83-1.04-2.43-.7-.6-1.57-.9-2.61-.9s-1.84.29-2.52.87c-.68.58-1.11,1.4-1.27,2.47h7.44Z" style="fill:#262526; stroke-width:0px;"/><path d="m113.53,58.97c-1.32-.58-2.36-1.37-3.13-2.38-.77-1.01-1.19-2.14-1.29-3.39h5.88c.07.67.38,1.22.94,1.63.56.42,1.24.63,2.05.63.74,0,1.32-.14,1.72-.43.41-.29.61-.67.61-1.13,0-.56-.29-.97-.87-1.23-.58-.27-1.52-.56-2.82-.89-1.39-.32-2.55-.67-3.48-1.03-.93-.36-1.73-.93-2.4-1.7-.67-.78-1.01-1.83-1.01-3.15,0-1.11.31-2.13.92-3.04.61-.92,1.52-1.64,2.71-2.17,1.19-.53,2.61-.8,4.26-.8,2.43,0,4.35.6,5.76,1.81,1.4,1.21,2.21,2.81,2.42,4.8h-5.49c-.09-.67-.39-1.21-.89-1.6-.5-.39-1.15-.59-1.96-.59-.7,0-1.23.13-1.6.4-.37.27-.56.63-.56,1.1,0,.56.3.97.89,1.25.59.28,1.51.56,2.76.83,1.44.37,2.61.74,3.51,1.1.9.36,1.7.94,2.38,1.74.68.8,1.04,1.87,1.06,3.22,0,1.14-.32,2.15-.96,3.04-.64.89-1.55,1.59-2.75,2.1-1.19.51-2.58.76-4.16.76-1.69,0-3.2-.29-4.52-.87Z" style="fill:#262526; stroke-width:0px;"/><path d="m138.8,54.51v5.04h-3.03c-2.16,0-3.84-.53-5.04-1.58-1.21-1.05-1.81-2.78-1.81-5.16v-7.72h-2.36v-4.94h2.36v-4.73h5.95v4.73h3.9v4.94h-3.9v7.79c0,.58.14,1,.42,1.25.28.26.74.38,1.39.38h2.12Z" style="fill:#262526; stroke-width:0px;"/><path d="m90.09,65.68l-3.96,11.17h-3.4l-3.96-11.17h2.89l2.77,8.43,2.78-8.43h2.88Z" style="fill:#262526; stroke-width:0px;"/><path d="m91.02,66.63c-.3-.28-.45-.63-.45-1.04s.15-.78.45-1.06.69-.42,1.17-.42.85.14,1.15.42c.3.28.45.63.45,1.06s-.15.76-.45,1.04c-.3.28-.69.42-1.15.42s-.87-.14-1.17-.42Zm2.52,1.34v8.88h-2.72v-8.88h2.72Z" style="fill:#262526; stroke-width:0px;"/><path d="m95.07,69.99c.38-.69.9-1.22,1.57-1.59.67-.37,1.44-.56,2.31-.56,1.11,0,2.04.29,2.79.87.75.58,1.24,1.41,1.47,2.47h-2.89c-.24-.68-.72-1.02-1.42-1.02-.5,0-.9.19-1.19.58-.3.39-.45.94-.45,1.66s.15,1.28.45,1.66c.3.39.69.58,1.19.58.7,0,1.17-.34,1.42-1.02h2.89c-.23,1.04-.73,1.86-1.48,2.45-.75.59-1.68.89-2.78.89-.87,0-1.64-.19-2.31-.56s-1.2-.9-1.57-1.59c-.38-.69-.56-1.5-.56-2.42s.19-1.73.56-2.42Z" style="fill:#262526; stroke-width:0px;"/><path d="m109.12,74.54v2.31h-1.38c-.99,0-1.76-.24-2.31-.72-.55-.48-.83-1.27-.83-2.36v-3.53h-1.08v-2.26h1.08v-2.16h2.72v2.16h1.78v2.26h-1.78v3.56c0,.26.06.46.19.57.13.12.34.17.64.17h.97Z" style="fill:#262526; stroke-width:0px;"/><path d="m111.8,76.42c-.69-.37-1.24-.9-1.64-1.59s-.6-1.5-.6-2.42.2-1.71.6-2.41c.4-.69.95-1.23,1.65-1.6.7-.37,1.48-.56,2.35-.56s1.65.19,2.35.56c.7.37,1.25.9,1.65,1.6.4.69.6,1.5.6,2.41s-.2,1.72-.61,2.41c-.41.69-.96,1.23-1.67,1.6-.71.37-1.49.56-2.36.56s-1.65-.19-2.35-.56Zm3.67-2.37c.37-.38.55-.93.55-1.64s-.18-1.26-.53-1.64c-.36-.38-.79-.57-1.31-.57s-.97.19-1.32.56-.52.93-.52,1.65.17,1.26.52,1.64c.34.38.78.57,1.3.57s.96-.19,1.33-.57Z" style="fill:#262526; stroke-width:0px;"/><path d="m123.67,68.3c.48-.28,1.01-.42,1.59-.42v2.88h-.75c-.68,0-1.19.15-1.53.44-.34.29-.51.8-.51,1.54v4.12h-2.72v-8.88h2.72v1.48c.32-.49.72-.87,1.19-1.15Z" style="fill:#262526; stroke-width:0px;"/><path d="m126.11,66.63c-.3-.28-.45-.63-.45-1.04s.15-.78.45-1.06.69-.42,1.17-.42.85.14,1.15.42c.3.28.45.63.45,1.06s-.15.76-.45,1.04c-.3.28-.69.42-1.15.42s-.87-.14-1.17-.42Zm2.52,1.34v8.88h-2.72v-8.88h2.72Z" style="fill:#262526; stroke-width:0px;"/><path d="m130.11,69.99c.34-.69.81-1.22,1.41-1.59.59-.37,1.26-.56,1.99-.56.63,0,1.17.13,1.65.38s.84.59,1.09,1v-1.26h2.72v8.88h-2.72v-1.26c-.27.41-.63.75-1.11,1s-1.02.38-1.65.38c-.72,0-1.38-.19-1.97-.56-.59-.38-1.06-.91-1.41-1.61-.34-.69-.52-1.5-.52-2.41s.17-1.71.52-2.4Zm5.57.81c-.38-.39-.83-.59-1.38-.59s-1,.19-1.38.58c-.38.39-.56.92-.56,1.6s.19,1.22.56,1.61c.38.4.84.6,1.38.6s1-.2,1.38-.59c.38-.39.56-.93.56-1.61s-.19-1.21-.56-1.61Z" style="fill:#262526; stroke-width:0px;"/></svg>